<svg xmlns="http://www.w3.org/2000/svg" xmlns:xlink="http://www.w3.org/1999/xlink" width="260" height="187" viewBox="0 0 260 187">
    <defs>
        <rect id="a" width="288" height="195.984" y=".209" rx="14.735"/>
        <linearGradient id="c" x1="67.999%" x2="-44.8%" y1="38.646%" y2="70.76%">
            <stop offset=".261%" stop-color="#C8F1FF"/>
            <stop offset="99.58%" stop-color="#4CD3FF"/>
        </linearGradient>
        <linearGradient id="d" x1="124.589%" x2="-54.175%" y1="45.131%" y2="56.469%">
            <stop offset=".261%" stop-color="#C8F1FF"/>
            <stop offset="99.58%" stop-color="#4CD3FF"/>
        </linearGradient>
        <linearGradient id="e" x1="121.777%" x2="15.379%" y1="-10.859%" y2="94.669%">
            <stop offset=".261%" stop-color="#C8F1FF"/>
            <stop offset="99.58%" stop-color="#4CD3FF"/>
        </linearGradient>
        <linearGradient id="f" x1="35.33%" x2="49.184%" y1="104.058%" y2="56.352%">
            <stop offset=".261%" stop-color="#C8F1FF"/>
            <stop offset="99.58%" stop-color="#4CD3FF"/>
        </linearGradient>
        <linearGradient id="g" x1="146.623%" x2="57.881%" y1="-51.562%" y2="52.771%">
            <stop offset=".261%" stop-color="#C8F1FF"/>
            <stop offset="99.58%" stop-color="#4CD3FF"/>
        </linearGradient>
        <linearGradient id="h" x1="137.203%" x2="2.393%" y1="28.57%" y2="57.831%">
            <stop offset=".261%" stop-color="#C8F1FF"/>
            <stop offset="99.58%" stop-color="#4CD3FF"/>
        </linearGradient>
        <linearGradient id="i" x1="297.601%" x2="9.773%" y1="37.803%" y2="51.279%">
            <stop offset=".261%" stop-color="#C8F1FF"/>
            <stop offset="99.58%" stop-color="#4CD3FF"/>
        </linearGradient>
        <linearGradient id="j" x1="71.619%" x2="18.532%" y1="47.154%" y2="63.648%">
            <stop offset=".261%" stop-color="#C8F1FF"/>
            <stop offset="99.58%" stop-color="#4CD3FF"/>
        </linearGradient>
        <linearGradient id="k" x1="62.035%" x2="23.666%" y1="45.974%" y2="63.046%">
            <stop offset=".261%" stop-color="#C8F1FF"/>
            <stop offset="99.58%" stop-color="#4CD3FF"/>
        </linearGradient>
        <linearGradient id="l" x1="87.792%" x2="28.193%" y1="30.767%" y2="62.394%">
            <stop offset=".261%" stop-color="#C8F1FF"/>
            <stop offset="99.58%" stop-color="#4CD3FF"/>
        </linearGradient>
        <linearGradient id="m" x1="98.042%" x2="29.545%" y1="20.081%" y2="66.187%">
            <stop offset=".261%" stop-color="#C8F1FF"/>
            <stop offset="99.58%" stop-color="#4CD3FF"/>
        </linearGradient>
        <linearGradient id="n" x1="103.811%" x2="42.037%" y1="-36.706%" y2="51.009%">
            <stop offset=".261%" stop-color="#C8F1FF"/>
            <stop offset="99.58%" stop-color="#4CD3FF"/>
        </linearGradient>
        <linearGradient id="o" x1="114.046%" x2="-50.057%" y1="48.444%" y2="52.384%">
            <stop offset=".261%" stop-color="#C8F1FF"/>
            <stop offset="99.58%" stop-color="#4CD3FF"/>
        </linearGradient>
        <linearGradient id="p" x1="1343.782%" x2="-4833.482%" y1="-43.182%" y2="401.715%">
            <stop offset=".261%" stop-color="#C8F1FF"/>
            <stop offset="99.58%" stop-color="#4CD3FF"/>
        </linearGradient>
        <linearGradient id="q" x1="1772.312%" x2="-6316.066%" y1="-37.925%" y2="375.019%">
            <stop offset=".261%" stop-color="#C8F1FF"/>
            <stop offset="99.58%" stop-color="#4CD3FF"/>
        </linearGradient>
        <linearGradient id="r" x1="2109.555%" x2="-6349.755%" y1="-57.174%" y2="383.006%">
            <stop offset=".261%" stop-color="#C8F1FF"/>
            <stop offset="99.58%" stop-color="#4CD3FF"/>
        </linearGradient>
        <linearGradient id="s" x1="1355.717%" x2="-3473.78%" y1="-29.602%" y2="264.842%">
            <stop offset=".261%" stop-color="#C8F1FF"/>
            <stop offset="99.58%" stop-color="#4CD3FF"/>
        </linearGradient>
        <linearGradient id="t" x1="2157.422%" x2="-3339.729%" y1="-116.735%" y2="318.203%">
            <stop offset=".261%" stop-color="#C8F1FF"/>
            <stop offset="99.58%" stop-color="#4CD3FF"/>
        </linearGradient>
        <linearGradient id="u" x1="2653.087%" x2="-3800.318%" y1="-129.655%" y2="315.723%">
            <stop offset=".261%" stop-color="#C8F1FF"/>
            <stop offset="99.58%" stop-color="#4CD3FF"/>
        </linearGradient>
        <linearGradient id="v" x1="2270.749%" x2="-2583.46%" y1="-79.155%" y2="203.153%">
            <stop offset=".261%" stop-color="#C8F1FF"/>
            <stop offset="99.58%" stop-color="#4CD3FF"/>
        </linearGradient>
        <linearGradient id="w" x1="3290.602%" x2="-4047.032%" y1="-148.848%" y2="301.392%">
            <stop offset=".261%" stop-color="#C8F1FF"/>
            <stop offset="99.58%" stop-color="#4CD3FF"/>
        </linearGradient>
        <linearGradient id="x" x1="2779.989%" x2="-5615.155%" y1="-77.151%" y2="313.873%">
            <stop offset=".261%" stop-color="#C8F1FF"/>
            <stop offset="99.58%" stop-color="#4CD3FF"/>
        </linearGradient>
        <linearGradient id="y" x1="671.917%" x2="-1993.904%" y1="13.207%" y2="170.92%">
            <stop offset=".261%" stop-color="#C8F1FF"/>
            <stop offset="99.58%" stop-color="#4CD3FF"/>
        </linearGradient>
        <linearGradient id="z" x1="1550.362%" x2="-4305.509%" y1="-49.963%" y2="340.193%">
            <stop offset=".261%" stop-color="#C8F1FF"/>
            <stop offset="99.58%" stop-color="#4CD3FF"/>
        </linearGradient>
        <linearGradient id="A" x1="-184.529%" x2="-.596%" y1="80.69%" y2="56.621%">
            <stop offset=".261%" stop-color="#C8F1FF"/>
            <stop offset="99.58%" stop-color="#4CD3FF"/>
        </linearGradient>
        <linearGradient id="B" x1="53.942%" x2="-6.596%" y1="50.681%" y2="58.825%">
            <stop offset=".327%" stop-color="#FF9D15"/>
            <stop offset="99.97%" stop-color="#F60"/>
        </linearGradient>
        <linearGradient id="C" x1="52.67%" x2="-5.415%" y1="50.236%" y2="53.112%">
            <stop offset=".327%" stop-color="#FF9D15"/>
            <stop offset="99.97%" stop-color="#F60"/>
        </linearGradient>
        <linearGradient id="D" x1="79.924%" x2="44.645%" y1="10.467%" y2="52.654%">
            <stop offset=".187%" stop-color="#8048A4"/>
            <stop offset="100%" stop-color="#653983"/>
        </linearGradient>
        <linearGradient id="E" x1="37.048%" x2="65.468%" y1="110.595%" y2="-53.21%">
            <stop offset=".187%" stop-color="#8048A4" stop-opacity="0"/>
            <stop offset="100%" stop-color="#653983"/>
        </linearGradient>
        <linearGradient id="F" x1="65.657%" x2="32.909%" y1="32.33%" y2="67.62%">
            <stop offset=".187%" stop-color="#8048A4"/>
            <stop offset="100%" stop-color="#653983"/>
        </linearGradient>
        <linearGradient id="G" x1="78.482%" x2="3.845%" y1="27.012%" y2="94.451%">
            <stop offset=".248%" stop-color="#00B3FF"/>
            <stop offset="99.83%" stop-color="#0073AA"/>
        </linearGradient>
        <linearGradient id="H" x1="37.411%" x2="62.779%" y1=".633%" y2="119.324%">
            <stop offset=".248%" stop-color="#00B3FF"/>
            <stop offset="99.83%" stop-color="#0073AA"/>
        </linearGradient>
        <linearGradient id="I" x1="52.154%" x2="47.003%" y1="6.772%" y2="106.315%">
            <stop offset=".413%" stop-color="#FDE2C2"/>
            <stop offset="100%" stop-color="#F8A33F"/>
        </linearGradient>
        <linearGradient id="J" x1="51.903%" x2="49.98%" y1="7.284%" y2="50.321%">
            <stop offset=".413%" stop-color="#FDE2C2"/>
            <stop offset="100%" stop-color="#F8A33F"/>
        </linearGradient>
        <linearGradient id="K" x1="52.042%" x2="-5.263%" y1="50.029%" y2="48.919%">
            <stop offset=".327%" stop-color="#FF9D15"/>
            <stop offset="99.97%" stop-color="#F60"/>
        </linearGradient>
        <linearGradient id="L" x1="104.511%" x2="-11.927%" y1="40.06%" y2="69.768%">
            <stop offset=".327%" stop-color="#FF9D15"/>
            <stop offset="99.97%" stop-color="#F60"/>
        </linearGradient>
        <linearGradient id="M" x1="49.845%" x2="-275.194%" y1="46.557%" y2="128.254%">
            <stop offset=".248%" stop-color="#00B3FF"/>
            <stop offset="99.83%" stop-color="#0073AA"/>
        </linearGradient>
        <linearGradient id="N" x1="91.251%" x2="10.688%" y1="42.521%" y2="116.568%">
            <stop offset="0%" stop-color="#F47A7F"/>
            <stop offset="99.97%" stop-color="#ED1C24"/>
        </linearGradient>
        <linearGradient id="O" x1="105.371%" x2="18.97%" y1="-18.59%" y2="99.863%">
            <stop offset="0%" stop-color="#F47A7F"/>
            <stop offset="99.97%" stop-color="#ED1C24"/>
        </linearGradient>
        <linearGradient id="P" x1="72.59%" x2="-23.073%" y1="22.511%" y2="100.221%">
            <stop offset="0%" stop-color="#F47A7F"/>
            <stop offset="99.97%" stop-color="#ED1C24"/>
        </linearGradient>
        <linearGradient id="Q" x1="62.168%" x2="47.189%" y1="17.502%" y2="57.042%">
            <stop offset="0%" stop-color="#F47A7F"/>
            <stop offset="99.97%" stop-color="#ED1C24"/>
        </linearGradient>
        <linearGradient id="R" x1="110.189%" x2="2.754%" y1="31.634%" y2="59.546%">
            <stop offset=".327%" stop-color="#FF9D15"/>
            <stop offset="99.97%" stop-color="#F60"/>
        </linearGradient>
        <linearGradient id="S" x1="59.927%" x2="34.93%" y1="58.383%" y2="45.126%">
            <stop offset=".327%" stop-color="#FF9D15"/>
            <stop offset="99.97%" stop-color="#F60"/>
        </linearGradient>
        <linearGradient id="T" x1="62.943%" x2="-.687%" y1="59.96%" y2="-15.681%">
            <stop offset=".327%" stop-color="#FF9D15"/>
            <stop offset="99.97%" stop-color="#F60"/>
        </linearGradient>
        <linearGradient id="U" x1="89.261%" x2="1.815%" y1="19.798%" y2="86.512%">
            <stop offset=".248%" stop-color="#00B3FF"/>
            <stop offset="99.83%" stop-color="#0073AA"/>
        </linearGradient>
        <linearGradient id="V" x1="49.712%" x2="-111.813%" y1="52.743%" y2="118.852%">
            <stop offset=".327%" stop-color="#FF9D15"/>
            <stop offset="99.97%" stop-color="#F60"/>
        </linearGradient>
        <linearGradient id="W" x1="102.257%" x2="-3.003%" y1="41.274%" y2="59.178%">
            <stop offset=".261%" stop-color="#C8F1FF"/>
            <stop offset="99.58%" stop-color="#4CD3FF"/>
        </linearGradient>
        <linearGradient id="X" x1="101.575%" x2="-116.649%" y1="36.188%" y2="96.465%">
            <stop offset=".261%" stop-color="#C8F1FF"/>
            <stop offset="99.58%" stop-color="#4CD3FF"/>
        </linearGradient>
        <linearGradient id="Y" x1="99.184%" x2="-111.376%" y1="38.064%" y2="88.004%">
            <stop offset=".261%" stop-color="#C8F1FF"/>
            <stop offset="99.58%" stop-color="#4CD3FF"/>
        </linearGradient>
        <linearGradient id="Z" x1="43.208%" x2="60.655%" y1="112.901%" y2="-51.405%">
            <stop offset=".187%" stop-color="#8048A4" stop-opacity="0"/>
            <stop offset="100%" stop-color="#653983"/>
        </linearGradient>
        <linearGradient id="aa" x1="105.466%" x2="26.107%" y1="-12.499%" y2="87.71%">
            <stop offset=".248%" stop-color="#00B3FF"/>
            <stop offset="99.83%" stop-color="#0073AA"/>
        </linearGradient>
        <linearGradient id="ab" x1="86.594%" x2="44.937%" y1="38.041%" y2="52.748%">
            <stop offset="0%" stop-color="#F47A7F"/>
            <stop offset="99.97%" stop-color="#ED1C24"/>
        </linearGradient>
        <linearGradient id="ac" x1="268.038%" x2="-80.575%" y1="-13.038%" y2="91.184%">
            <stop offset="0%" stop-color="#F47A7F"/>
            <stop offset="99.97%" stop-color="#ED1C24"/>
        </linearGradient>
        <linearGradient id="ad" x1="65.161%" x2="28.915%" y1="-1.637%" y2="85.718%">
            <stop offset=".261%" stop-color="#C8F1FF"/>
            <stop offset="99.58%" stop-color="#4CD3FF"/>
        </linearGradient>
        <linearGradient id="ae" x1="180.099%" x2="2.544%" y1="167.949%" y2="-10.63%">
            <stop offset=".261%" stop-color="#C8F1FF"/>
            <stop offset="99.58%" stop-color="#4CD3FF"/>
        </linearGradient>
        <linearGradient id="af" x1="219%" x2="-247.475%" y1="25.408%" y2="93.285%">
            <stop offset=".261%" stop-color="#C8F1FF"/>
            <stop offset="99.58%" stop-color="#4CD3FF"/>
        </linearGradient>
        <linearGradient id="ag" x1="459.275%" x2="-1051.879%" y1="7.124%" y2="165.42%">
            <stop offset=".261%" stop-color="#C8F1FF"/>
            <stop offset="99.58%" stop-color="#4CD3FF"/>
        </linearGradient>
        <linearGradient id="ah" x1="1312.208%" x2="-1507.489%" y1="-217.662%" y2="380.264%">
            <stop offset=".261%" stop-color="#C8F1FF"/>
            <stop offset="99.58%" stop-color="#4CD3FF"/>
        </linearGradient>
        <linearGradient id="ai" x1="1076.879%" x2="-979.031%" y1="-175.039%" y2="275.508%">
            <stop offset=".261%" stop-color="#C8F1FF"/>
            <stop offset="99.58%" stop-color="#4CD3FF"/>
        </linearGradient>
        <linearGradient id="aj" x1="1953.621%" x2="-1855.63%" y1="-348.349%" y2="448.733%">
            <stop offset=".261%" stop-color="#C8F1FF"/>
            <stop offset="99.58%" stop-color="#4CD3FF"/>
        </linearGradient>
        <linearGradient id="ak" x1="1272.297%" x2="-2452.616%" y1="-232.848%" y2="629.139%">
            <stop offset=".261%" stop-color="#C8F1FF"/>
            <stop offset="99.58%" stop-color="#4CD3FF"/>
        </linearGradient>
        <linearGradient id="al" x1="12.099%" x2="100.862%" y1="9.786%" y2="89.818%">
            <stop offset=".248%" stop-color="#00B3FF"/>
            <stop offset="99.83%" stop-color="#0073AA"/>
        </linearGradient>
        <linearGradient id="am" x1="74.4%" x2="18.401%" y1="105.787%" y2="-.977%">
            <stop offset=".248%" stop-color="#00B3FF"/>
            <stop offset="99.83%" stop-color="#0073AA"/>
        </linearGradient>
        <linearGradient id="an" x1="134.678%" x2="39.097%" y1="144.402%" y2="52.913%">
            <stop offset=".248%" stop-color="#00B3FF"/>
            <stop offset="99.83%" stop-color="#0073AA"/>
        </linearGradient>
        <linearGradient id="ao" x1="29.935%" x2="76.829%" y1="7.908%" y2="112.996%">
            <stop offset=".248%" stop-color="#00B3FF"/>
            <stop offset="99.83%" stop-color="#0073AA"/>
        </linearGradient>
        <linearGradient id="ap" x1="-.005%" x2="99.961%" y1="49.977%" y2="49.977%">
            <stop offset=".248%" stop-color="#00B3FF"/>
            <stop offset="99.83%" stop-color="#0073AA"/>
        </linearGradient>
        <linearGradient id="aq" x1="60.968%" x2="16.156%" y1="13.052%" y2="117.621%">
            <stop offset=".248%" stop-color="#00B3FF"/>
            <stop offset="99.83%" stop-color="#0073AA"/>
        </linearGradient>
        <linearGradient id="ar" x1="59.107%" x2="38.354%" y1="-10.134%" y2="108.297%">
            <stop offset=".248%" stop-color="#00B3FF"/>
            <stop offset="99.83%" stop-color="#0073AA"/>
        </linearGradient>
        <linearGradient id="as" x1="38.6%" x2="161.918%" y1="112.227%" y2="-272.629%">
            <stop offset=".248%" stop-color="#00B3FF"/>
            <stop offset="99.83%" stop-color="#0073AA"/>
        </linearGradient>
        <linearGradient id="at" x1="32.634%" x2="63.725%" y1="-42.682%" y2="88.379%">
            <stop offset=".248%" stop-color="#00B3FF"/>
            <stop offset="99.83%" stop-color="#0073AA"/>
        </linearGradient>
        <linearGradient id="au" x1="44.359%" x2="52.751%" y1="137.569%" y2="-1.624%">
            <stop offset=".248%" stop-color="#00B3FF"/>
            <stop offset="99.83%" stop-color="#0073AA"/>
        </linearGradient>
        <linearGradient id="av" x1="31.699%" x2="137.356%" y1="-5.916%" y2="260.659%">
            <stop offset=".248%" stop-color="#00B3FF"/>
            <stop offset="99.83%" stop-color="#0073AA"/>
        </linearGradient>
        <linearGradient id="aw" x1="15.914%" x2="113.879%" y1="-33.569%" y2="196.194%">
            <stop offset=".248%" stop-color="#00B3FF"/>
            <stop offset="99.83%" stop-color="#0073AA"/>
        </linearGradient>
        <linearGradient id="ax" x1="53.675%" x2="-30.243%" y1="46.987%" y2="247.783%">
            <stop offset=".248%" stop-color="#00B3FF"/>
            <stop offset="99.83%" stop-color="#0073AA"/>
        </linearGradient>
        <linearGradient id="ay" x1="89.31%" x2="-88.508%" y1="19.596%" y2="103.205%">
            <stop offset=".291%" stop-color="#FFF"/>
            <stop offset="100%" stop-color="#FFF" stop-opacity="0"/>
        </linearGradient>
        <linearGradient id="az" x1="168.355%" x2="33.052%" y1="27.854%" y2="51.645%">
            <stop offset=".291%" stop-color="#FFF"/>
            <stop offset="100%" stop-color="#FFF" stop-opacity="0"/>
        </linearGradient>
        <linearGradient id="aA" x1="317.033%" x2="-108.27%" y1="-80.299%" y2="127.275%">
            <stop offset=".291%" stop-color="#FFF"/>
            <stop offset="100%" stop-color="#FFF" stop-opacity="0"/>
        </linearGradient>
        <linearGradient id="aB" x1="317.996%" x2="-108.938%" y1="-86.112%" y2="130.757%">
            <stop offset=".291%" stop-color="#FFF"/>
            <stop offset="100%" stop-color="#FFF" stop-opacity="0"/>
        </linearGradient>
        <linearGradient id="aC" x1="166.703%" x2="-23.895%" y1="-6.944%" y2="86.086%">
            <stop offset=".291%" stop-color="#FFF"/>
            <stop offset="100%" stop-color="#FFF" stop-opacity="0"/>
        </linearGradient>
        <linearGradient id="aD" x1="168.279%" x2="-24.959%" y1="-15.983%" y2="91.782%">
            <stop offset=".291%" stop-color="#FFF"/>
            <stop offset="100%" stop-color="#FFF" stop-opacity="0"/>
        </linearGradient>
        <linearGradient id="aE" x1="214.391%" x2="23.031%" y1="-33.501%" y2="63.707%">
            <stop offset=".291%" stop-color="#FFF"/>
            <stop offset="100%" stop-color="#FFF" stop-opacity="0"/>
        </linearGradient>
        <linearGradient id="aF" x1="46.793%" x2="58.15%" y1="-19.271%" y2="139.43%">
            <stop offset=".261%" stop-color="#C8F1FF"/>
            <stop offset="99.58%" stop-color="#4CD3FF"/>
        </linearGradient>
        <linearGradient id="aG" x1="36.243%" x2="55.97%" y1="-38.662%" y2="101.435%">
            <stop offset=".261%" stop-color="#C8F1FF"/>
            <stop offset="99.58%" stop-color="#4CD3FF"/>
        </linearGradient>
        <linearGradient id="aH" x1="6.844%" x2="82.51%" y1="163.627%" y2="-11.812%">
            <stop offset=".261%" stop-color="#C8F1FF"/>
            <stop offset="99.58%" stop-color="#4CD3FF"/>
        </linearGradient>
        <linearGradient id="aI" x1="144.847%" x2="-20.507%" y1="227.426%" y2="-53.399%">
            <stop offset=".261%" stop-color="#C8F1FF"/>
            <stop offset="99.58%" stop-color="#4CD3FF"/>
        </linearGradient>
        <linearGradient id="aJ" x1="51.194%" x2="47.376%" y1="-3.721%" y2="195.473%">
            <stop offset=".261%" stop-color="#C8F1FF"/>
            <stop offset="99.58%" stop-color="#4CD3FF"/>
        </linearGradient>
        <linearGradient id="aK" x1="51.062%" x2="46.411%" y1="-2.144%" y2="200.801%">
            <stop offset=".261%" stop-color="#C8F1FF"/>
            <stop offset="99.58%" stop-color="#4CD3FF"/>
        </linearGradient>
        <linearGradient id="aL" x1="85.999%" x2="54.509%" y1="-65.589%" y2="24.292%">
            <stop offset=".261%" stop-color="#C8F1FF"/>
            <stop offset="99.58%" stop-color="#4CD3FF"/>
        </linearGradient>
        <linearGradient id="aM" x1="137.051%" x2="20.121%" y1="27.842%" y2="61.511%">
            <stop offset=".261%" stop-color="#C8F1FF"/>
            <stop offset="99.58%" stop-color="#4CD3FF"/>
        </linearGradient>
        <linearGradient id="aN" x1="139.424%" x2="-5.571%" y1="48.988%" y2="51.476%">
            <stop offset=".261%" stop-color="#C8F1FF"/>
            <stop offset="99.61%" stop-color="#FFF"/>
        </linearGradient>
        <linearGradient id="aO" x1="-8.314%" x2="194.119%" y1="61.515%" y2="17.604%">
            <stop offset=".261%" stop-color="#C8F1FF"/>
            <stop offset="99.61%" stop-color="#FFF"/>
        </linearGradient>
        <linearGradient id="aP" x1="-.619%" x2="180.179%" y1="65.832%" y2="13.044%">
            <stop offset=".261%" stop-color="#C8F1FF"/>
            <stop offset="99.61%" stop-color="#FFF"/>
        </linearGradient>
        <linearGradient id="aQ" x1="144.462%" x2="-101.978%" y1="49.093%" y2="51.715%">
            <stop offset=".261%" stop-color="#C8F1FF"/>
            <stop offset="99.61%" stop-color="#FFF"/>
        </linearGradient>
        <linearGradient id="aR" x1="-61.182%" x2="183.258%" y1="55.189%" y2="44.314%">
            <stop offset=".261%" stop-color="#C8F1FF"/>
            <stop offset="99.61%" stop-color="#FFF"/>
        </linearGradient>
        <linearGradient id="aS" x1="70.32%" x2="-207.753%" y1="48.031%" y2="77.61%">
            <stop offset=".261%" stop-color="#C8F1FF"/>
            <stop offset="99.58%" stop-color="#4CD3FF"/>
        </linearGradient>
        <linearGradient id="aT" x1="92.647%" x2="-365.345%" y1="47.521%" y2="71.956%">
            <stop offset=".261%" stop-color="#C8F1FF"/>
            <stop offset="99.58%" stop-color="#4CD3FF"/>
        </linearGradient>
        <linearGradient id="aU" x1="23.19%" x2="58.638%" y1="43.655%" y2="54.439%">
            <stop offset=".261%" stop-color="#C8F1FF"/>
            <stop offset="99.61%" stop-color="#FFF"/>
        </linearGradient>
        <linearGradient id="aV" x1="-65.302%" x2="56.319%" y1="55.84%" y2="50.652%">
            <stop offset=".261%" stop-color="#C8F1FF"/>
            <stop offset="99.61%" stop-color="#FFF"/>
        </linearGradient>
    </defs>
    <g fill="none" fill-rule="evenodd" transform="translate(-14 -4.248)">
        <mask id="b" fill="#fff">
            <use xlink:href="#a"/>
        </mask>
        <g fill-rule="nonzero" mask="url(#b)">
            <g transform="translate(14.148 15.815)">
                <path fill="#D2F2FF" d="M218.346 143.714c-11.808 13.135-25.678 19.012-35.18 11.376-6.96-5.593-4.49-21.765 7.317-34.897 11.808-13.135 33.635-25.28 40.415-19.484 6.782 5.796-.744 29.87-12.552 43.005z"/>
                <path fill="#D2F2FF" d="M128.367 11.513c15.048 2.317 60.406-27.015 95.832 0 35.425 27.016 18.002 68.824-23.164 89.922-22.255 11.404-52.498 104.998-151.056 63.167C-56.14 119.56 24.814-4.432 128.367 11.513z"/>
                <g transform="translate(0 7.128)">
                    <path fill="url(#c)" d="M223.225 68.23H5.553c-13.28 32.403-3.535 68.886 44.426 89.242 98.558 41.831 128.801-51.76 151.056-63.167 8.495-4.353 15.974-9.59 22.19-15.396V68.23z"/>
                    <path fill="url(#d)" d="M181.973 114.778c-29.682-.221-72.363-1.585-60.263-7.807 15.267-7.85-88.412-7.944-121.397-7.779a58.38 58.38 0 0 0 .478 4.04c35.266-.738 110.425-1.166 99.594 9.006-9.74 9.146 41.213 11.895 73.566 12.723 2.856-3.506 5.52-6.94 8.022-10.183z"/>
                    <path fill="url(#e)" d="M90.814 167.945c12.147.82 22.895-.774 32.47-3.987.408-5.694 1.066-13.326 1.888-16.97 1.402-6.222.885-9.188.885-9.188l-32.87 12.83-2.373 17.315z"/>
                    <path fill="url(#f)" d="M119.705 154.377l-2.062 11.218c.788-.201 1.577-.4 2.35-.624l-.288-10.594z"/>
                    <path fill="url(#g)" d="M90.814 167.945c7 .47 13.52.122 19.634-.858v-6.973c0-.35-.436-.524-.689-.277l-1.24 1.217c-.253.25-.69.074-.69-.278v-11.643l-5.064-2.245-9.58 3.74-2.37 17.317h-.001z"/>
                    <path fill="url(#h)" d="M49.98 157.472c17.535 7.443 32.898 10.582 46.447 10.676l5.268-4.885c.655-.602 1-1.47.94-2.357l-.345-4.872c-.094-1.324.726-2.548 2.005-2.999l8.077-2.843c.386-.134.74-.346 1.042-.621l12.197-10.763c1.809-1.642-1.862-2.336-4.282-2.828l-16.19-3.294-25.801-5.134a32.852 32.852 0 0 0-7.406-.616l-60.636 1.823c8.035 11.134 20.657 21.061 38.683 28.713h.001z"/>
                    <path fill="url(#h)" d="M49.98 157.472c17.535 7.443 32.898 10.582 46.447 10.676l5.268-4.885c.655-.602 1-1.47.94-2.357l-.345-4.872c-.094-1.324.726-2.548 2.005-2.999l8.077-2.843c.386-.134.74-.346 1.042-.621l12.197-10.763c1.809-1.642-1.862-2.336-4.282-2.828l-16.19-3.294-25.801-5.134a32.852 32.852 0 0 0-7.406-.616l-60.636 1.823c8.035 11.134 20.657 21.061 38.683 28.713h.001z"/>
                    <path fill="url(#i)" d="M74.665 144.25c0 .762-1.932 1.38-4.318 1.38-1.148 0-2.187-.145-2.96-.379-1.51 2.89-9.346 5.094-18.817 5.094-10.547 0-19.1-2.732-19.1-6.102s8.55-6.102 19.1-6.102c9.49 0 17.34 2.212 18.825 5.112.772-.232 1.806-.377 2.952-.377 2.386-.005 4.318.614 4.318 1.375v-.001zm-13.94 7.082c-2.655 0-4.81.555-4.81 1.243 0 .684 2.155 1.242 4.81 1.242s4.808-.555 4.808-1.242c0-.688-2.153-1.243-4.808-1.243zm8.896 5.359c-1.835 0-3.323.443-3.323.992 0 .55 1.488.993 3.323.993 1.836 0 3.324-.443 3.324-.993s-1.488-.992-3.324-.992zm23.553-14.054c-6.127 0-11.095 1.252-11.095 2.795 0 1.542 4.968 2.795 11.095 2.795 6.127 0 11.095-1.253 11.095-2.795 0-1.545-4.968-2.795-11.095-2.795zm-2.075 7.351c-1.682 0-3.047.456-3.047 1.021 0 .563 1.363 1.02 3.047 1.02 1.684 0 3.046-.455 3.046-1.02 0-.562-1.365-1.02-3.046-1.02v-.001zm-7.636-1.331c-1.256 0-2.274.377-2.274.843 0 .465 1.018.842 2.274.842 1.255 0 2.274-.377 2.274-.842 0-.466-1.019-.843-2.274-.843z" opacity=".16" style="mix-blend-mode:multiply"/>
                    <path fill="url(#j)" d="M124.044 82.267H11.296S67.669 51.252 71.399 51.68c3.728.427 52.645 30.587 52.645 30.587z"/>
                    <ellipse cx="173.363" cy="40.085" fill="#FFF" rx="33.021" ry="32.199"/>
                    <path fill="#FFF" d="M183.748 6.942c4.172.817 8.13 2.695 11.536 5.228 3.394 2.55 6.281 5.786 8.182 9.5-2.6-3.27-5.5-6.221-8.819-8.688-3.305-2.487-6.98-4.45-10.899-6.04zm-20.95.056c1.587-.904 3.355-1.395 5.143-1.675 1.793-.25 3.631-.29 5.422.117-1.785.407-3.521.626-5.265.896-1.747.24-3.472.53-5.3.662zm-23.111 22.014c.908-3.898 2.843-7.57 5.393-10.732 2.569-3.15 5.788-5.827 9.469-7.589-3.227 2.447-6.161 5.145-8.644 8.225-2.509 3.062-4.527 6.468-6.218 10.096zm2.036 26.85c-1.647-2.248-2.741-4.857-3.417-7.543-.65-2.693-.888-5.5-.473-8.234.418 2.726.833 5.378 1.493 7.995.63 2.622 1.491 5.17 2.397 7.782zm65.817-6.277c-.122 1.901-.722 3.724-1.529 5.434-.835 1.698-1.89 3.312-3.313 4.618.731-1.762 1.577-3.386 2.363-5.053.817-1.652 1.558-3.324 2.48-5l-.001.001zm.108-18.626c.814 1.38 1.227 2.912 1.454 4.455.196 1.547.206 3.128-.209 4.67-.418-1.537-.61-3.031-.833-4.536-.188-1.506-.4-3-.412-4.59v.001z" opacity=".48"/>
                    <path fill="#FFF" d="M150.27 8.204c4.203-3.897 9.745-6.41 15.504-7.481 1.444-.262 2.908-.412 4.37-.512 1.467-.038 2.935-.074 4.391.064 2.914.229 5.796.837 8.472 1.922-2.882-.255-5.707-.397-8.519-.326-2.806.094-5.592.339-8.33.863a41.254 41.254 0 0 0-4.075.911c-1.358.331-2.676.784-4.005 1.23-2.647.924-5.216 2.074-7.808 3.33v-.001zm-16.66 27.319c-.178-2.176.041-4.368.514-6.504.46-2.143 1.224-4.223 2.177-6.211.99-1.973 2.17-3.854 3.592-5.552 1.41-1.7 3.023-3.243 4.871-4.472-1.221 1.825-2.42 3.586-3.527 5.391-1.093 1.807-2.135 3.63-3.04 5.519-.943 1.87-1.747 3.803-2.504 5.768-.744 1.97-1.397 3.986-2.084 6.061h.001zm4.22 22.541c-1.122-1.186-1.996-2.55-2.712-3.984a22.03 22.03 0 0 1-1.665-4.498 21.568 21.568 0 0 1-.643-4.742c-.039-1.594.094-3.198.53-4.755.439 1.555.76 3.067 1.1 4.564.336 1.497.694 2.973 1.057 4.447a193.94 193.94 0 0 0 1.154 4.424c.402 1.481.83 2.966 1.18 4.544h-.001zm53.972-52.629c3.435 1.262 6.633 3.192 9.447 5.56 2.83 2.356 5.253 5.187 7.21 8.29 1.93 3.12 3.395 6.522 4.235 10.06.856 3.528 1.125 7.184.695 10.74-.444-3.551-1.165-6.998-2.274-10.31-1.12-3.304-2.587-6.478-4.449-9.423-1.827-2.966-4.043-5.697-6.534-8.192-2.5-2.492-5.302-4.71-8.33-6.725z" opacity=".32"/>
                    <path fill="url(#k)" d="M205.794 91.708c13.28-7.675 23.712-17.556 30.163-28.276-28.617-9.342-54.663-17.694-60.785-19.188-14.94-3.643-125.756 46.54-125.756 46.54l156.378.924z"/>
                    <path fill="url(#l)" d="M127.566 91.242c1.788.01 3.566-.33 5.192-1.056.008-.003.016-.008.026-.01 2.538-1.133 5.269-2.655 6.028-5.272.345-1.189.227-2.464.504-3.67.783-3.407 4.448-5.402 7.923-6.247 3.475-.846 7.208-1.016 10.317-2.745 3.11-1.728 5.268-5.872 3.25-8.756-.979-1.398-2.848-2.454-2.2-4.373.245-.728.84-1.289 1.53-1.655 2.86-1.52 6.17-1.825 9.191-2.938 2.694-.992 5.334-2.92 5.85-5.684.348-1.853-.809-3.882-2.417-4.722C149.51 45.81 50.186 90.787 50.186 90.787l77.38.455z"/>
                    <path fill="url(#m)" d="M11.296 82.267h6.811c12.94 0 25.72-2.793 37.428-8.169l1.425-.654c1.909-.873 3.736-1.99 5.104-3.554.119-.13.21-.282.266-.448.366-1.115-1.12-1.87-2.26-2.242-1.141-.372-2.45-1.594-1.653-2.47.222-.244.553-.358.872-.463 2.981-.982 5.962-1.965 8.944-2.95.391-.13.812-.28 1.039-.616.43-.644-.136-1.522-.841-1.866-.705-.344-1.532-.394-2.227-.756-.694-.361-1.214-1.283-.73-1.891.174-.222.446-.349.707-.469l4.054-1.853c.882-.405 1.906-1.105 1.788-2.003a3.163 3.163 0 0 0-.624-.18c-3.73-.431-60.103 30.584-60.103 30.584z"/>
                    <path fill="url(#n)" d="M110.386 146.74l4.033 1.853v7.329l2.099-9.182z"/>
                    <path fill="url(#o)" d="M198.06 96.265c-16.265-.054-36.045-.461-31.124-2.192 8.093-2.846-11.322-4.287-27.76-4.058-12.636.176-99.433.49-138.912.627A65.32 65.32 0 0 0 .17 92.53c42.463-.476 166.254-1.608 157.801 1.474-8.194 2.989 6.036 6.698 35.473 6.629 1.592-1.723 3.127-3.195 4.616-4.368z"/>
                    <g transform="translate(58.999 92.676)">
                        <path fill="url(#p)" d="M91.02 6.114c0 .407 1.256.738 2.807.738 1.55 0 2.806-.33 2.806-.738 0-.407-1.256-.738-2.806-.738s-2.807.33-2.807.738z"/>
                        <path fill="url(#q)" d="M91.686 3.434c1.183 0 2.143-.179 2.143-.4 0-.219-.96-.4-2.143-.4-1.183 0-2.143.178-2.143.4 0 .221.958.4 2.143.4z"/>
                        <path fill="url(#r)" d="M83.233 6.094c0-.214-.916-.39-2.05-.39-1.13 0-2.049.173-2.049.39 0 .213.917.39 2.05.39 1.133-.003 2.049-.177 2.049-.39z"/>
                        <path fill="url(#s)" d="M73.804 14.825c-1.982 0-3.59.359-3.59.8 0 .442 1.606.798 3.59.798 1.981 0 3.59-.358 3.59-.799 0-.44-1.609-.8-3.59-.8v.001z"/>
                        <ellipse cx="33.115" cy="20.293" fill="url(#t)" rx="3.154" ry="1"/>
                        <path fill="url(#u)" d="M26.573 22.876c-1.483 0-2.686.303-2.686.677 0 .375 1.203.678 2.686.678 1.483 0 2.686-.303 2.686-.678.003-.374-1.2-.677-2.686-.677z"/>
                        <path fill="url(#v)" d="M3.728 12.778c-1.971 0-3.571.341-3.571.759 0 .42 1.597.758 3.57.758 1.972 0 3.572-.34 3.572-.758-.002-.42-1.6-.759-3.571-.759z"/>
                        <path fill="url(#w)" d="M10.155 14.983c-1.305 0-2.362.236-2.362.53 0 .292 1.057.529 2.362.529 1.305 0 2.363-.237 2.363-.53-.003-.293-1.06-.53-2.363-.53v.001z"/>
                        <path fill="url(#x)" d="M49.549 1.059c-1.141 0-2.065.157-2.065.35 0 .194.924.352 2.065.352 1.14 0 2.065-.158 2.065-.351 0-.194-.924-.351-2.065-.351z"/>
                        <path fill="url(#y)" d="M92.853 33.507c-3.592 0-6.503.628-6.503 1.405 0 .776 2.91 1.405 6.503 1.405 3.592 0 6.503-.629 6.503-1.405 0-.777-2.913-1.405-6.503-1.405z"/>
                        <path fill="url(#z)" d="M85.337 37.837c-1.634 0-2.96.323-2.96.72 0 .397 1.326.72 2.96.72s2.96-.323 2.96-.72c0-.397-1.326-.72-2.96-.72z"/>
                    </g>
                </g>
                <ellipse cx="46.776" cy="152.183" fill="url(#A)" opacity=".16" rx="17.123" ry="5.735" style="mix-blend-mode:multiply"/>
            </g>
            <path fill="#333" d="M61.394 167.845s-.906.723-.906 1.718.165 1.81.455 2.26c.29.451 3.738.543 4.89 0 1.15-.542 7.39-3.52 6.912-4.88-.478-1.361-6.362-3.26-11.35.902h-.001z"/>
            <path fill="url(#B)" d="M47.97 161.192l-.576 2.44s.391 1.085 1.877 1.177c1.482.092 2.041-.904 2.041-.904l.52-3.075c-.003 0-1.17-.361-3.862.362z" transform="translate(14 4.209)"/>
            <path fill="#333" d="M46.415 163.243s-.966.646-1.055 1.636c-.086.99.005 1.815.253 2.291.248.474 3.679.85 4.872.408 1.193-.446 7.67-2.895 7.315-4.29-.353-1.397-6.052-3.777-11.385-.045z"/>
            <path fill="url(#C)" d="M33.204 156.648l-.789 2.385s.295 1.115 1.768 1.326c1.47.214 2.112-.73 2.112-.73l.785-3.022s-1.133-.458-3.876.04v.001z" transform="translate(14 4.209)"/>
            <path fill="url(#D)" d="M25.286 111.345s-2.358 12.702 4.18 21.915c6.536 9.214 2.43 23.884 2.43 23.884s3.62 2.416 6.208.517c0 0 14.402-27.555 5.733-47.52l-18.551 1.204z" transform="translate(14 4.209)"/>
            <path fill="url(#E)" d="M43.777 119.651c-.95-.634-2.04-1.041-3.115-1.443-2.38-.889-4.764-1.78-7.145-2.668l.707 3.694c-1.461 1.344-1.74 3.574-1.23 5.467.513 1.894 1.682 3.546 2.802 5.17 1.12 1.627 2.237 3.325 2.616 5.25.337 1.712.068 3.507.517 5.195.454 1.71 1.608 3.166 2.19 4.841.53 1.525.559 3.16.34 4.766 2.547-6.741 5.531-16.99 5.098-27.128-.697-1.24-1.577-2.342-2.78-3.144z" opacity=".4" style="mix-blend-mode:multiply" transform="translate(14 4.209)"/>
            <path fill="url(#F)" d="M36.124 116.714s-1.24 12.85 6.077 21.489c7.318 8.64 4.509 23.595 4.509 23.595s3.819 2.107 6.231 0c0 0 11.94-28.653 1.559-47.823l-18.376 2.739z" transform="translate(14 4.209)"/>
            <path fill="url(#G)" d="M47.341 80.165s-10.28-1.591-15.337 9.07c-5.057 10.66-5.221 30.388-5.221 30.388s6.2 4.455 15.01 4.297c8.812-.158 15.829-7.479 15.829-7.479s-5.548-11.297-4.733-22.91c.814-11.612-.653-11.775-5.548-13.366z" transform="translate(14 4.209)"/>
            <path fill="url(#H)" d="M53.134 114.331c-1.235-.886-3.075-1.1-3.764-2.436-.695-1.35.256-2.989-.05-4.468-.269-1.308-1.475-2.275-1.814-3.568-.34-1.296.253-2.64.95-3.79.815-1.342 1.88-2.656 3.389-3.178L50.8 81.526a6.33 6.33 0 0 0-.694-.374l-2.773 1.1c-1.065.423-2.143.853-3.067 1.522-.838.609-1.52 1.395-2.17 2.19-1.109 1.351-2.158 2.754-3.022 4.268-1.081 1.894-1.857 3.936-2.708 5.936-1.882 4.425-4.15 8.693-5.847 13.186-1.345 3.559-2.313 7.314-2.4 11.086 2.272 1.278 7.279 3.59 13.677 3.475 5.386-.097 10.093-2.869 12.946-5.01.016-.086.047-.168.06-.254.21-1.596-.334-3.363-1.668-4.32z" transform="translate(14 4.209)"/>
            <path fill="url(#I)" d="M72.86 163.053h.953s1.694-13.333 1.483-17.622c-.211-4.29-.318-30.516.53-31.962.846-1.446 1.057-4.07-.741-4.413-1.8-.337-2.33 2.231-2.225 3.114.105.884.212 1.217.423 2.806.212 1.588.742 28.77.635 30.821-.107 2.052-1.058 17.256-1.058 17.256z" transform="translate(14 4.209)"/>
            <path fill="url(#J)" d="M74.636 149.302c.096-.847.067-1.705.036-2.558-.13-3.77-.123-7.481-.23-11.251-.198-6.922-.396-13.85-.114-20.77.041-1.06.096-2.122.164-3.181.044-.695.1-1.408.407-2.037.073-.147.167-.28.259-.415-.026-.004-.046-.023-.07-.028-1.801-.338-2.331 2.23-2.226 3.114.107.883.211 1.216.423 2.805.211 1.588.741 28.77.634 30.821-.106 2.052-1.059 17.254-1.059 17.254h.786c.055-3.732-.26-7.492.478-11.147.177-.87.41-1.729.512-2.607z" opacity=".32" style="mix-blend-mode:multiply" transform="translate(14 4.209)"/>
            <path fill="url(#K)" d="M59.347 91.39c3.89 8.052 7.608 15.523 12.599 16.223 5.636-1.741 8.158.11 5.965 1.634-2.193 1.525-5.91 1.365-6.61.143-3.535.753-19.428-1.278-26.108-17.98-1.321-3.375.603-7.987 4.495-8.349 5.143-.473 7.683 4.239 9.66 8.33l-.001-.001z" transform="translate(14 4.209)"/>
            <path fill="url(#L)" d="M70.748 109.178c-1.9-.083-3.898-.226-5.498-1.231-.548-.344-1.042-.784-1.647-1.016-.57-.216-1.196-.23-1.8-.323a6.491 6.491 0 0 1-3.965-2.258c-.576-.703-1.033-1.56-1.86-1.96-.808-.39-1.826-.26-2.575-.746-.318-.206-.574-.545-.566-.916.007-.39.297-.726.64-.93.339-.203.73-.305 1.098-.453a4.627 4.627 0 0 0 2.465-2.329l-6.665 3.017c7.39 8.568 17.577 9.886 20.689 9.398.013-.069.005-.135-.063-.189-.073-.053-.167-.058-.253-.063v-.001z" transform="translate(14 4.209)"/>
            <path fill="url(#M)" d="M60.016 92.768l-.669-1.38c-1.976-4.09-4.513-8.803-9.659-8.327-3.892.36-5.816 4.974-4.495 8.35 1.295 3.238 2.94 5.918 4.77 8.138 1.453-.423 3.808-1.242 5.946-2.581 1.681-1.054 3.235-2.436 4.107-4.2z" transform="translate(14 4.209)"/>
            <path fill="url(#N)" d="M49.04 80.081s5.992 2.41.413 9.258c-5.579 6.847-5.025 33.377-.412 36.8-9.179-1.71-11.688-4.19-17.956-2.217-6.268 1.973-20.814-11.72-27.711-7.929 2.76-8.191 8.15-8.036 14.797-12.883 6.646-4.847 10.327-13.527 10.327-13.527s5.522-8.978 20.543-9.502h-.001z" transform="translate(14 4.209)"/>
            <path fill="url(#O)" d="M45.796 85.765s-2.647 3.154-2.58 5.526c.068 2.373-1.62 3.49-2.362 5.4-.741 1.911-5.13-.92-3.981-3.486 1.146-2.568 8.923-7.44 8.923-7.44z" transform="translate(14 4.209)"/>
            <path fill="url(#P)" d="M40.648 79.49s-5.736.88-10.589 3.785c-4.853 2.905-5.589 5.203-2.06 8.785 3.53 3.584 7.5 6.82 9.853 4.842 2.352-1.978 5.59-9.979 7.941-11.14 2.352-1.16 6.9-3.963 3.245-5.681-4.205-1.978-8.39-.59-8.39-.59v-.001z" transform="translate(14 4.209)"/>
            <path fill="url(#Q)" d="M49.453 80.315a3.645 3.645 0 0 0-.412-.232c-2.065-.97-4.122-1.13-5.683-1.04-2.9 1.12-9.15 3.542-10.046 3.934-1.17.515-5.44 2.91-4.738 4.106.702 1.197 5.088 1.882 8.482.57 3.174-1.229 11.314-5.974 12.397-7.338z" transform="translate(14 4.209)"/>
            <path fill="url(#R)" d="M43.358 79.04l-.42.162c-.86.708-1.551 1.635-.734 2.452 1.255 1.257 5.542-.247 7.25-1.337-.129-.079-.254-.157-.413-.231-2.065-.975-4.122-1.136-5.683-1.046z" transform="translate(14 4.209)"/>
            <path fill="url(#S)" d="M53.372 66.602s1.339 2.192 1.099 2.986-1.53.606-1.53.606" transform="translate(14 4.209)"/>
            <path fill="url(#T)" d="M37.938 68.366c.559 4.534 4.976 8.365 9.458 7.84 5.224-.61 6.767-5.814 6.208-10.347-.198-1.62-.736-3.959-1.697-5.025-1.73-1.922-4.574-1.894-7.456-1.556-4.482.522-7.072 4.554-6.513 9.088z" transform="translate(14 4.209)"/>
            <path fill="url(#U)" d="M53.333 61.712s-.825 3.34-2.021 5.59-.206 4.707-1.196 4.585c-.99-.12-.99-2.332-2.558-2.294-1.566.04-1.237 5.997.412 6.66-1.279.821-8.416 1.585-10.89-6.902-2.477-8.487 4.906-12.75 5.98-12.791 1.073-.04.948 1.288.948 1.288s.989-1.81 3.59-1.81c2.6 0 1.195 1.288 1.195 1.288s2.516-.764 4.145-.361c1.632.402 1.796 1.932.395 4.747z" transform="translate(14 4.209)"/>
            <path fill="url(#V)" d="M49.453 71.489s-.05-4.192-1.919-4.314c-1.869-.122-1.273 4.437 1.92 4.314h-.001z" transform="translate(14 4.209)"/>
            <path fill="url(#W)" d="M60.65 94.063a217.56 217.56 0 0 1-.838-1.715c-.87 1.494-2.258 2.871-4.195 4.085-2.13 1.334-4.467 2.207-6 2.693.361.456.73.899 1.105 1.316 1.71-.575 3.806-1.435 5.775-2.672 1.77-1.108 3.156-2.35 4.153-3.707z" transform="translate(14 4.209)"/>
            <path fill="url(#X)" d="M58.744 162.732a1.06 1.06 0 0 0-.24-.349c-1.07 1.293-5.365 4.103-7.375 4.531-1.678.359-3.55.038-4.508-.183.076.361.185.664.32.878.29.453 3.74.542 4.89 0 1.15-.537 7.388-3.515 6.913-4.877z" transform="translate(14 4.209)"/>
            <path fill="url(#Y)" d="M43.801 159.076c-.034-.135-.133-.28-.263-.427-1.141 1.336-5.422 3.46-7.495 3.859-1.407.27-3.34-.038-4.65-.326.047.308.118.58.222.779.248.473 3.679.85 4.872.407 1.193-.448 7.672-2.897 7.314-4.292z" transform="translate(14 4.209)"/>
            <path fill="url(#Z)" d="M48.743 150.358c.679-4.895-3.918-7.978-3.918-7.978v.008c3.92 8.555 1.887 19.41 1.887 19.41s1.337.73 2.924.898c.684-1.578-.61-4.11-1.271-5.282-.864-1.532-.3-2.161.378-7.056z" opacity=".4" style="mix-blend-mode:multiply" transform="translate(14 4.209)"/>
            <path fill="url(#aa)" d="M47.97 76.255c-.96-.385-1.47-2.559-1.422-4.32-.763.061-1.525.135-2.282.038-.976-.125-1.979-.6-2.396-1.469-.235-.486-.264-1.04-.267-1.578-.005-.448.008-.906.154-1.331.18-.522.554-.96.768-1.469a2.683 2.683 0 0 0-.238-2.495c-.592-.885-1.7-1.407-2.117-2.382-.444-1.034.042-2.223.674-3.157.177-.262.368-.514.569-.76-2.41 1.572-6.21 5.576-4.331 12.022 2.472 8.487 9.61 7.723 10.888 6.9v.001z" transform="translate(14 4.209)"/>
            <path fill="url(#ab)" d="M48.91 126.02a31.373 31.373 0 0 1-11.719-6.926c-.71-.67-1.404-1.383-2.286-1.815-.883-.433-2.016-.53-2.815.035-.908.642-1.096 1.881-1.062 2.976.02.654.076 1.364-.306 1.902-.467.659-1.422.796-2.234.666-2.065-.33-3.668-1.916-4.916-3.553-1.248-1.64-2.336-3.457-4.03-4.658-2.804-1.989-6.595-1.846-10.044-1.485-1.143.12-2.313.263-3.341.762-.903.437-1.642 1.125-2.318 1.86 7.064-2.986 21.114 10.07 27.249 8.141 6.268-1.973 8.777.507 17.955 2.217-.047-.035-.088-.084-.133-.122z" transform="translate(14 4.209)"/>
            <path fill="url(#ac)" d="M15.615 105.699c2.668-.481 5.43-1.316 7.255-3.274 1.827-1.962 2.38-4.668 2.605-7.356-1.739 2.668-4.192 5.773-7.307 8.044-1.7 1.24-3.318 2.15-4.83 2.96.76-.122 1.523-.237 2.277-.374z" transform="translate(14 4.209)"/>
            <path fill="url(#ad)" d="M158.761 129.646c-.514-.138-1.135.486-1.388 1.39-.167.595-.128 1.163.065 1.52-.17.508-1.235 3.433-3.376 4.843.645-.898 1.102-2.051 1.402-3 .42-.136.843-.665 1.04-1.37.252-.904.038-1.749-.476-1.884-.514-.137-1.135.486-1.389 1.39-.188.677-.117 1.321.15 1.657-.361 1.133-.907 2.418-1.627 3.213.451-1.161.715-2.788.859-4 .326-.272.556-.852.556-1.53 0-.936-.434-1.697-.966-1.697-.533 0-.966.758-.966 1.698 0 .74.271 1.361.647 1.593-.31 2.413-.898 4.44-1.368 4.669-.047.002-.091.01-.138.012-.517-.13-1.018-2.074-1.271-4.187.368-.24.629-.855.629-1.586 0-.937-.434-1.698-.966-1.698-.533 0-.966.759-.966 1.698 0 .692.237 1.288.577 1.55.133 1.212.386 2.785.859 3.826-1.12-.89-1.76-3.037-2.034-4.457.34-.272.546-.904.486-1.621-.079-.935-.572-1.658-1.105-1.614-.532.04-.9.832-.822 1.766.058.705.355 1.29.726 1.517.2 1.067.692 3.055 1.702 4.333-2.222-1.146-3.135-3.984-3.373-4.882.345-.293.462-1 .25-1.757-.253-.904-.874-1.527-1.388-1.39-.514.138-.729.98-.475 1.884.172.621.522 1.102.89 1.303.248.998 1.692 5.952 6.028 6.028h.094l.034-.002.015.002h.063c.01 0 .023-.005.034-.005.005 0 .008.003.013.003l.044.002c.058 0 .11-.018.165-.03 3.856-.28 5.673-4.776 6.067-5.898.462-.051.958-.622 1.175-1.403.25-.906.039-1.751-.476-1.886z" transform="translate(14 4.209)"/>
            <path fill="url(#ae)" d="M69.67 114.387c-.3-.078-.663.283-.809.813-.097.349-.073.68.04.888-.1.298-.721 2.004-1.972 2.828.376-.524.642-1.196.817-1.751.246-.079.491-.387.606-.8.146-.526.023-1.02-.277-1.099-.3-.079-.663.283-.81.812-.109.395-.067.771.087.967-.209.662-.527 1.41-.948 1.876.264-.677.418-1.626.502-2.334.19-.158.323-.496.323-.893 0-.548-.253-.99-.564-.99-.31 0-.563.442-.563.99 0 .432.159.794.378.931-.18 1.408-.525 2.592-.799 2.724l-.08.008c-.303-.077-.596-1.212-.742-2.444.214-.14.368-.499.368-.924 0-.547-.253-.99-.564-.99-.31 0-.564.443-.564.99 0 .405.139.75.337.904.078.707.225 1.624.501 2.232-.652-.52-1.028-1.772-1.188-2.602.199-.16.319-.526.285-.946-.044-.545-.334-.968-.645-.942-.31.025-.525.486-.48 1.03.034.413.206.754.423.886.117.622.404 1.782.992 2.528-1.298-.67-1.83-2.324-1.969-2.85.201-.171.27-.584.147-1.027-.147-.527-.51-.89-.81-.812-.3.08-.425.573-.276 1.1.101.364.305.644.52.761.143.583.986 3.475 3.516 3.518h.054c.008 0 .013-.003.021-.003h.045l.02-.002.008.002h.026c.034 0 .066-.01.097-.017 2.25-.163 3.31-2.788 3.54-3.442.269-.03.559-.361.687-.82.143-.526.02-1.02-.28-1.1z" transform="translate(14 4.209)"/>
            <g transform="translate(177.31 68.253)">
                <ellipse cx="10.568" cy="1.448" fill="url(#af)" rx="5.649" ry="1.214"/>
                <ellipse cx="18.872" cy="3.492" fill="url(#ag)" rx="1.744" ry="1"/>
                <circle cx="6.051" cy="4.317" r="1" fill="url(#ah)"/>
                <ellipse cx="1.29" cy="3.078" fill="url(#ai)" rx="1.282" ry="1"/>
                <circle cx="7.675" cy="12.539" r="1" fill="url(#aj)"/>
                <circle cx="17.478" cy="7.838" r="1" fill="url(#ak)"/>
            </g>
            <path fill="url(#al)" d="M10.615 13.454s1.165-5.384-2.761-6.15S-.158 9.6 1.194 12.82c1.353 3.22 5.117 3.22 4.522 4.593-.342.789-.81.672-1.146.427-.248-.18-.33-.158-.139.158.423.703 1.316 1.637 2.671.384 1.945-1.8-.065-3.81-1.248-4.454-1.545-.843-1.545-3.668 1.196-3.597 2.673.071 3.566 3.123 3.566 3.123h-.001z" transform="translate(173 42.209)"/>
            <path fill="url(#am)" d="M23.205 15.593s.73 2.904 2.49 3.589c1.61.628-1.937 3.757-3.198 4.516-.248.15-.397-.092-.397-.092l-.222-.468s-.165-.319.185-.591c.658-.512 2.04-1.65 1.851-2.416-.248-1.003-3.388-1.45-3.388-1.45s.35-2.587 2.678-3.088h.001z" transform="translate(173 42.209)"/>
            <path fill="url(#an)" d="M23.238 15.715c-.037-.033-.073-.069-.11-.1-2.255.543-2.602 3.068-2.602 3.068s.53.076 1.172.237c.253-.275.658-.604 1.075-.464.536.181 1.374.237 1.692-.244-.728-.92-1.117-2.118-1.227-2.497z" transform="translate(173 42.209)"/>
            <path fill="url(#ao)" d="M21.951 3.634s-1.642-.237-1.642-1.294c0-.595.214-1.046.402-1.328.146-.22.029-.364-.347-.35-1.125.042-3.42.467-3.765 3.203-.46 3.648 2.627 8.849-1.785 8.19.785 1.53 2.924 1.11 4.874-.528 1.947-1.636 2.263-7.893 2.263-7.893z" transform="translate(173 42.209)"/>
            <path fill="url(#ap)" d="M21.437 3.817s.885-.805 1.14-1.594c.068-.206.29-.313.38-.14.38.749.244 1.76-1.52 1.734z" transform="translate(173 42.209)"/>
            <path fill="url(#aq)" d="M26.517 8.012c-.389.364-1.295 1.054-1.527-.18-.65.368-1.896.343-2.384-.212-.107 1.003 2.95 3.457 2.193 6.178-.75 2.69-7.651 8.051-8.226 13.32-.015.138-.17.169-.17.169h-.997s-.125-.061-.102-.176c.152-.786.865-4.04 2.595-5.633-.407-.687-.378-1.372-.378-1.372s-.963.397-1.916.053c.05.66-1.196 1.874-2.55 2.113-1.309.23.983 2.612 1.135 4.793.01.163-.17.222-.17.222h-.833s-.11-.051-.117-.143a4.56 4.56 0 0 0-1.937-3.184c-1.895-1.319-.731-2.533-.217-3.116.514-.58.648-1.53-.297-2.006-.392-.196-1.047-.504-1.392-1.092-1.089-1.868-1.472-5.615 3.532-6.4 2.574-.333 4.433 1.592 6.47-.745.866-1.347-1.327-5.544 1.435-6.917 2.652-1.318 4.754 1.94 5.9 3.908.042.084.065.316-.047.42z" transform="translate(173 42.209)"/>
            <path fill="url(#ar)" d="M23.838 4.637s-.764.03-1.161-.716c0 0 3.749-3.704 3.843-3.673.09.03-2.682 4.389-2.682 4.389z" transform="translate(173 42.209)"/>
            <path fill="url(#as)" d="M21.082 3.967s.749-.927.88-1.744c.033-.213.214-.374.323-.231.52.682.577 1.736-1.203 1.975z" transform="translate(173 42.209)"/>
            <path fill="url(#at)" d="M17.518 20.106a2.69 2.69 0 0 1 .238-1.566c-.447.087-1.003 1.087-1.381.805-.379-.283-.624-1.197-2.318-1.892 1.694.914 1.545 2.706 1.545 2.706.953.344 1.916-.053 1.916-.053z" transform="translate(173 42.209)"/>
            <path fill="url(#au)" d="M22.825 16.186c-1.096.799-1.6 2.319-1.717 2.713 1.72-2.082 3.35-3.872 3.691-5.101.757-2.719-2.3-5.173-2.193-6.176 0 0-.451-.353-.658-.786.353 1.313.504 2.136 1.483 2.976.98.84 1.149 2.428.642 3.28-.503.854.021 2.17-1.247 3.094h-.001z" transform="translate(173 42.209)"/>
            <path fill="url(#av)" d="M13.187 27.287h.833s.183-.059.17-.222a4.118 4.118 0 0 0-.139-.784h-1.18c.128.38.18.695.199.866.008.089.117.14.117.14z" transform="translate(173 42.209)"/>
            <path fill="url(#aw)" d="M15.492 26.279c-.09.359-.156.662-.188.832-.02.112.102.176.102.176h.998s.156-.03.17-.168c.03-.28.088-.56.15-.84h-1.232z" transform="translate(173 42.209)"/>
            <path fill="url(#ax)" d="M22.518 22.178c-.168.14-.327.27-.455.369-.352.272-.185.59-.185.59l.222.469s.149.242.397.092c.17-.102.383-.25.621-.428l-.6-1.092z" transform="translate(173 42.209)"/>
            <path fill="url(#ay)" d="M171.872 64.279c.06.18.102.34.133.483.005.018.008.039.013.056.026.13.044.245.052.324.01.091.118.142.118.142h.832s.045-.015.09-.05a.199.199 0 0 0 .08-.171 4.154 4.154 0 0 0-.138-.784c-.146-.555-.387-1.105-.627-1.612l4.42-3.293c.018.035.034.07.055.104-1.355 1.247-2.08 3.497-2.407 4.8 0 .003 0 .006-.003.008a17.51 17.51 0 0 0-.185.815c0 .003 0 .005-.003.008-.02.112.102.175.102.175h.997s.157-.03.173-.168c.31-2.863 2.49-5.75 4.537-8.224.026-.03.05-.061.075-.092.154.033.322.069.504.115.922.226 2.073.626 2.22 1.216.15.616-.71 1.47-1.397 2.047-.167.14-.327.27-.455.369-.175.138-.222.285-.224.397a.428.428 0 0 0 .039.194l.222.468s.036.061.104.102c.068.04.167.063.293-.01 1.26-.759 4.811-3.887 3.198-4.516-.489-.191-.893-.553-1.23-.975-.454-.57-.778-1.253-.981-1.777 0-.002-.003-.005-.003-.008-.04-.096-.07-.188-.102-.272 0 0 0-.002-.003-.002.105-.135.201-.265.298-.395.06-.081.123-.163.18-.242.097-.135.186-.265.272-.394a8.78 8.78 0 0 0 .154-.232c.083-.132.149-.257.216-.382.034-.064.074-.13.105-.188.086-.178.156-.352.2-.512v-.002a3.31 3.31 0 0 0 .12-1.006c-.02-.66-.226-1.29-.508-1.879-.702-1.47-1.872-2.665-1.804-3.29.488.554 1.733.58 2.383.21.233 1.235 1.139.545 1.528.181.11-.104.088-.336.041-.417-.595-1.024-1.454-2.393-2.511-3.29.64-1.01 2.545-4.031 2.47-4.057-.076-.025-2.642 2.492-3.535 3.37a2.648 2.648 0 0 0-.272-.094c.51-.348.494-.95.246-1.44-.089-.174-.31-.067-.379.14-.018.058-.047.117-.073.175a1.679 1.679 0 0 0-.222-.407c-.107-.143-.29.018-.323.232-.068.422-.3.87-.51 1.209a1.916 1.916 0 0 0-.135.028c-.462-.176-1.01-.507-1.01-1.118 0-.595.214-1.046.401-1.329.147-.219.03-.364-.347-.348-.942.035-2.689.359-3.44 2.059L19.665 63.838c-26.461 32.37-29.137 75.995 12.83 103.123l138.96-103.568c.183.31.326.619.418.886h-.001z" opacity=".4" style="mix-blend-mode:soft-light" transform="translate(14 4.209)"/>
            <path fill="url(#az)" d="M4.583 89.844c-7.103 19.463-5.845 40.166 6.986 57.82L194.586 43.369 4.583 89.844z" style="mix-blend-mode:soft-light" transform="translate(14 4.209)"/>
            <path fill="url(#aA)" d="M133.097 59.735l-4.608-1.891-3.986 2.945.621 4.839 4.61 1.891 3.987-2.945z" style="mix-blend-mode:soft-light" transform="translate(14 4.209)"/>
            <path fill="url(#aB)" d="M92.727 52.07l-6.109-2.375-5.164 3.971.945 6.346 6.11 2.375 5.163-3.97z" style="mix-blend-mode:soft-light" transform="translate(14 4.209)"/>
            <path fill="url(#aC)" d="M126.077 61.497l-10.283-4.224-8.892 6.57 1.392 10.796 10.28 4.223 8.894-6.57z" style="mix-blend-mode:soft-light" transform="translate(14 4.209)"/>
            <path fill="url(#aD)" d="M118.06 103.04l-4.636-1.556-3.697 3.14.937 4.688 4.634 1.555 3.7-3.136z" style="mix-blend-mode:soft-light" transform="translate(14 4.209)"/>
            <path fill="url(#aE)" d="M97.285 59.781l-21.989-8.55-18.587 14.293 3.401 22.843 21.99 8.55 18.587-14.292z" style="mix-blend-mode:soft-light" transform="translate(14 4.209)"/>
            <g>
                <path fill="url(#aF)" d="M7.327 20.822h4.608s4.53-14.138 3.147-16.982c-1.38-2.843-6.91-3.905-9.52-2.113-2.39 1.637 1.764 19.095 1.764 19.095h.001z" transform="translate(121 141.209)"/>
                <path fill="url(#aG)" d="M9.126.854a2.26 2.26 0 0 0-.034.881c.175 1.077.921 1.965 1.462 2.92a8.396 8.396 0 0 1 .825 6.198c-.444 1.716-1.433 3.276-1.739 5.023-.138.791-.133 1.603-.274 2.395-.164.916-.553 1.784-1.094 2.55h3.663s4.53-14.137 3.148-16.98C14.19 2.004 11.575.917 9.126.853v.001z" transform="translate(121 141.209)"/>
                <path fill="url(#aH)" d="M13.702 9.143a.83.83 0 0 1 .744-.377c1.02.058 3.316.13 3.436-.392.154-.675-2.457-4.493-1.23-6.214 1.23-1.72 5.563-.91 5.297 1.062-.256 1.894-.843 6.274-2.994 6.722-1.282.268-3.19.38-4.524.428-.66.026-1.081-.682-.729-1.23v.001z" transform="translate(121 141.209)"/>
                <path fill="url(#aI)" d="M6.56 11.963s-3.916-.104-3.454-1.912c.46-1.807.613-3.782-1.46-3.655-2.072.127-1.534 3.722 0 4.992 1.536 1.272 4.915 1.572 4.915 1.572v-.998l-.001.001z" transform="translate(121 141.209)"/>
                <path fill="url(#aJ)" d="M8.552 20.83c-.01-.136-1.058-13.492-1.183-15.348C7.244 3.601 8.505.97 8.559.86l.173.08c-.013.027-1.295 2.7-1.173 4.533.126 1.856 1.173 15.212 1.183 15.347l-.19.01z" transform="translate(121 141.209)"/>
                <path fill="url(#aK)" d="M10.914 20.832l-.188-.02c.013-.128 1.428-12.881 1.428-14.732 0-1.848-.666-4.78-.67-4.808l.185-.04c.007.03.678 2.98.678 4.848 0 1.861-1.417 14.622-1.433 14.752z" transform="translate(121 141.209)"/>
                <path fill="url(#aL)" d="M19.062 1.226c-.047.023-.094.038-.141.061-.261.138-.533.318-.606.598-.104.403.259.782.637.973.379.19.82.303 1.104.61.387.418.353 1.095.045 1.571-.136.212-.316.392-.436.611-.434.787.026 1.77-.162 2.645-.162.756-.747 1.278-1.368 1.792.29-.04.572-.087.822-.137 2.149-.448 2.739-4.83 2.995-6.723.159-1.204-1.381-1.968-2.89-2.001z" transform="translate(121 141.209)"/>
                <path fill="url(#aM)" d="M4.51 21.784h10.62s-1.864-3.116-4.046-2.5c-2.183.616-2.814 1.538-2.814 1.538s-1.974-2.098-3.76.962z" transform="translate(121 141.209)"/>
            </g>
            <g>
                <path fill="url(#aN)" d="M.432 20.338H90.97s-6.608-9.33-18.447-4.666c0 0-1.03-15.953-16.794-15.357-20.37.769-19.548 14.123-19.548 14.123s-4.884-8.295-13.144-5.435c-6.417 2.222-4.96 7.364-4.96 7.364s-7.437.148-17.645 3.971z" transform="translate(155 97.209)"/>
                <path fill="url(#aO)" d="M43.924 16.367c-4.158 1.993-6.547-1.013-5.513-5.57.995-4.38 7.25-9.879 20.535-10.35-1-.12-2.065-.175-3.217-.132C37.549 1.002 36.252 11.704 36.181 14v.438c-.002 0 1.94 6.822 7.743 1.93v-.001z" transform="translate(155 97.209)"/>
                <path fill="url(#aP)" d="M19.975 18.133c1.668.276 2.417-.862 2.083-2.163.084 1.869-3.62 2.238-3-1.382.62-3.612 3.984-5.715 8.14-6.15-1.27-.102-2.657.043-4.16.562-6.418 2.223-4.96 7.365-4.96 7.365s.229 1.494 1.897 1.769v-.001z" transform="translate(155 97.209)"/>
                <path fill="url(#aQ)" d="M5.296 24.678s13.178-5.816 31.353 0c10.359-3.11 13.734-3.652 23.307 0H5.296z" transform="translate(155 97.209)"/>
                <path fill="url(#aR)" d="M19.14 29.889h17.658s-7.785-2.698-17.658 0z" transform="translate(155 97.209)"/>
            </g>
            <g>
                <path fill="#E90089" d="M108.236 138.754c2.806.191 5.459.37 6.667.454h.021l.021.005c.021.002.04.007.06.012l.757-1.873a.442.442 0 0 0-.256-.575l-5.915-2.276a.461.461 0 0 0-.59.25l-1.595 3.945.83.058"/>
                <path fill="#F4901E" d="M112.084 139.014l1.3-3.011-1.702-.655-1.527 3.536 1.929.13"/>
                <path fill="#F4901E" d="M115.381 135.289a.949.949 0 0 0-.172-.269c-.614-.662-1.791.1-2.196.397a.498.498 0 0 0-.276-.26.517.517 0 0 0-.376.003c-.141-.512-.57-1.739-1.444-1.604a.981.981 0 0 0-.308.105c-.316.168-.373.382-.368.532.031.618 1.355 1.222 1.814 1.413a.486.486 0 0 0 .316.458c.214.081.45.01.58-.158l.018.005c.444.125 1.924.494 2.357.018.102-.112.196-.316.055-.64zm-4.568-.959c-.074-.068-.042-.19.015-.25a.32.32 0 0 1 .162-.07c.35-.054.65.49.822.98a4.17 4.17 0 0 1-1-.66h.001zm4.161 1.293c-.146.16-.71.105-1.386-.035.451-.275 1.033-.517 1.27-.26.137.107.163.244.116.295zm-15.387 2.551c.044-.003.089-.005.133-.003 1.452.105 5.044.347 8.516.58l.222.016-.324-3.543a.436.436 0 0 0-.475-.39l-7.874.682a.431.431 0 0 0-.399.464l.201 2.194z"/>
                <path fill="#FFF" d="M105.865 134.208l.055-.03c-.02.01-.04.02-.055.03"/>
                <path fill="#EA1D25" d="M105.505 138.569l-.323-3.541-2.86.247.283 3.098c.88.058 1.866.127 2.9.196"/>
                <path fill="#EA1D25" d="M106.19 133.289a1.209 1.209 0 0 0-.35-.155c-.974-.242-1.604 1.044-1.844 1.657a.48.48 0 0 0-.316-.081.479.479 0 0 0-.308.145c-.352-.548-1.245-1.719-2.161-1.286a1.13 1.13 0 0 0-.31.22c-.298.292-.288.551-.225.72.255.702 2.036.934 2.576.99l.13.012a.492.492 0 0 0 .727-.05l.133-.041c.517-.158 2.213-.733 2.32-1.472.024-.173-.02-.43-.373-.659m-4.92 1.123c-.045-.077-.045-.176.025-.242a.637.637 0 0 1 .16-.117c.376-.178.9.333 1.268.827-.798-.135-1.352-.295-1.454-.468m3.363.303c.256-.545.658-1.138 1.054-1.039a.57.57 0 0 1 .175.079c.081.05.13.107.126.132-.027.196-.614.543-1.355.828"/>
                <path fill="#89C340" d="M110.142 138.922l.344-5.773a.37.37 0 0 0-.138-.26l-1.791-1.132-.642-.008-1.7 1.049a.355.355 0 0 0-.198.29v.059l-.342 5.714 4.467.061z"/>
                <path fill="#90BC3F" d="M108.886 130.474a.566.566 0 0 0-.538-.41.561.561 0 0 0-.55.392l-.003.002s-.838-.532-.671-.01c.112.352.368.73.525.955 0 0 1.062.117 1.383.025.165-.224.405-.616.522-.936.175-.497-.603-.056-.668-.018"/>
                <path fill="#04AE59" d="M110.327 131.789c.013-.455-.086-.994-.086-.994l-1.454.572a.667.667 0 0 0-.958-.038l-1.392-.634s-.17.58-.183 1.036c-.013.464.128.952.128.952l1.36-.544a.663.663 0 0 0 1.084.015l1.36.629c.003.002.128-.53.141-.993"/>
                <path fill="#FFF" d="M96.055 158.966a.406.406 0 0 1-.405-.336c-1.375-8.482 2.222-13.578 2.376-13.792a.414.414 0 0 1 .569-.096c.185.127.23.376.1.557-.037.048-3.559 5.063-2.238 13.206a.401.401 0 0 1-.34.458c-.02 0-.041.003-.062.003zm4.185 9.462a.407.407 0 0 1-.11-.016.398.398 0 0 1-.285-.49c1.225-4.323 1.374-12.95 1.374-13.037.002-.221.198-.412.415-.394.223 0 .404.182.404.405-.005.359-.151 8.817-1.404 13.236a.408.408 0 0 1-.394.296zm9.857.774a.407.407 0 0 1-.11-.016.398.398 0 0 1-.284-.49c1.224-4.323 1.373-12.95 1.373-13.037.003-.221.16-.415.415-.394.224 0 .405.181.405.405-.005.358-.152 8.817-1.405 13.236a.408.408 0 0 1-.394.296z"/>
                <path fill="#43D1FF" d="M99.373 137.171c2.039.178 9.328.453 12.228 1.398 2.853-.202 4.02-.385 4.185.562.167.947-.063 6.468.318 8.576.381 2.108.496 8.792-.318 10.406-1.885 1.265-3.741 1.787-5.041 1.7-1.3-.086-10.396-.87-13.249-3.39-.885-2.742-.319-15.645.911-18.68a.944.944 0 0 1 .966-.572z"/>
                <path fill="#0092DB" d="M115.786 139.131c-.167-.947-1.332-.764-4.175-.562.133.91.24 2.005.16 2.853-.17 1.767.53 13.206.449 14.57-.055.902-.306 2.676-.47 3.778 1.172-.157 2.597-.687 4.038-1.654.815-1.614.703-8.299.319-10.406-.384-2.11-.154-7.632-.321-8.579z" opacity=".12"/>
                <path fill="#000" d="M113.817 157.711c-.629.448-2.07 2.057-2.07 2.057 1.172-.158 2.598-.687 4.039-1.655-1.59-1.11-1.34-.85-1.969-.402z" opacity=".08"/>
                <path fill="#0092DB" d="M103.007 138.566l3.399-.868c-2.856-.285-5.84-.423-7.033-.527a.946.946 0 0 0-.966.57c-1.23 3.037-1.793 15.938-.908 18.68 1.06.936 2.983 1.634 5.048 2.143-.015-.415-.018-.83-.002-1.245.023-.631.078-1.275-.105-1.881-.253-.833-.919-1.474-1.399-2.207-1.185-1.805-1.164-4.29.05-6.074.373-.547.85-1.04 1.101-1.65.588-1.42-.182-2.985-.793-4.395-.178-.41-.347-.858-.238-1.291.19-.746 1.081-1.059 1.846-1.255z" opacity=".12"/>
                <path fill="#FFF" d="M114.005 148.267a.414.414 0 0 1-.389-.27.397.397 0 0 1 .256-.506c.058-.018 5.775-1.988 9.725-8.915a.417.417 0 0 1 .556-.155.393.393 0 0 1 .159.542c-4.112 7.212-9.93 9.202-10.176 9.284a.465.465 0 0 1-.13.02h-.001z"/>
                <path fill="#43D1FF" d="M99.885 167.776s.235.4.804.16l.088-.34s.982-.433 1.12.22c.097.459-1.12 1.281-1.905 1.073-.786-.21-.107-1.113-.107-1.113z"/>
                <path fill="#92E3FF" d="M100.689 167.936l.088-.34s-.146-.186-.79-.21c0 0-.118.085-.1.388-.002.002.217.417.802.162z"/>
                <path fill="#43D1FF" d="M109.672 168.896s.235.4.804.16l.089-.34s.981-.433 1.12.22c.096.46-1.12 1.281-1.906 1.073-.786-.207-.107-1.113-.107-1.113z"/>
                <path fill="#92E3FF" d="M110.476 169.059l.089-.341s-.147-.186-.791-.209c0 0-.118.084-.1.387-.002 0 .217.415.802.163z"/>
                <path fill="#FFF" d="M96.407 158.261s1.055.667.846.954c-.209.288-.619-.056-.619-.056s.39.955-.096 1.11c-.486.156-1.245-.14-.843-1.835.23-.6.712-.173.712-.173zm27.077-19.492s.695-2.115 1.313-1.919c.496.158-.315.957-.315.957s.817-.025.535.601c-.282.624-1.491 1.438-1.533.362v-.001z"/>
            </g>
            <path fill="url(#aS)" d="M188.514 134.309c-2.678 3.39-4.762 6.919-6.252 10.368 21.798 2.375 35.64 1.746 43.194.87a70.754 70.754 0 0 0 5.631-12.45c-17.02 1.864-35.2 1.482-42.573 1.212z" transform="translate(14 4.209)"/>
            <path fill="url(#aT)" d="M203.611 150.753c0 .833-3.127 1.51-6.986 1.51-3.858 0-6.986-.675-6.986-1.51s3.128-1.51 6.986-1.51c3.861.003 6.986.678 6.986 1.51zm-14.567 4.246c-1.605 0-2.905.344-2.905.767 0 .422 1.3.766 2.905.766 1.606 0 2.906-.344 2.906-.766 0-.423-1.303-.767-2.906-.767zm30.032-27.548c-2.947 0-5.338.487-5.338 1.087 0 .601 2.388 1.087 5.338 1.087 2.948 0 5.339-.486 5.339-1.087 0-.6-2.391-1.087-5.339-1.087z" transform="translate(14 4.209)"/>
            <path fill="#D2F2FF" d="M126.656 14.127c1.068 1.42 2.621 2.413 4.336 2.968 3.305 1.072 10.007 2.74 17.778 1.861 11.072-1.252 25.37-8.459 19.747-13.316-5.623-4.856-16.473 5.013-26.793 2.508-9.244-2.245-19.44.163-15.068 5.98v-.001z"/>
            <path fill="url(#aU)" d="M13.094 41.183c3.83-.387 7.626-.847 11.244-2.138 2.9-1.036 5.326-1.975 7.576-4.037s4.88-4.058 7.962-4.246c4.151-.255 8.242 2.838 12.21 1.621 1.4-.43 2.571-1.351 3.793-2.145a23.187 23.187 0 0 1 6.164-2.813c1.43-.413 2.965-.688 4.406-.306.964.255 2.04.817 2.817 1.423.838.654 1.172 1.843 1.69 2.752 1.012 1.78 2.6 3.225 4.445 4.164.963.49 1.997.846 3.065 1.042 1 .183 2.054.035 3.007.34 2.016.645 4.394 2.287 6.104 3.508l-74.483.835z" transform="translate(14 4.209)"/>
            <path fill="url(#aV)" d="M211.77 36.184c-.16-1.405 1.436-2.423 2.874-2.586 1.441-.163 2.942.155 4.326-.27 1.195-.37 2.208-1.268 3.453-1.398.56-.058 1.123.049 1.687.039 2.054-.036 3.715-1.543 5.325-2.785 1.58-1.217 3.373-2.281 5.368-2.525 1.997-.245 4.221.501 5.229 2.201.511.866.686 1.915 1.331 2.691.977 1.174 2.733 1.385 4.276 1.22 1.54-.166 3.078-.617 4.613-.42 3.146.404 3.102 2.835 8.988 3.29l-47.47.543z" transform="translate(14 4.209)"/>
        </g>
    </g>
</svg>
