<svg xmlns="http://www.w3.org/2000/svg" width="19" height="15" viewBox="0 0 19 15">
    <g fill="#5c5c5c" fill-rule="evenodd">
        <path d="M3.14 8.478h9.69c.461 0 .835-.393.835-.878s-.374-.878-.836-.878H3.141l1.081-1.135a.91.91 0 0 0 0-1.242.808.808 0 0 0-1.183 0L.531 6.979a.852.852 0 0 0-.055.064l-.012.017a.838.838 0 0 0-.037.052l-.01.016a.89.89 0 0 0-.032.058l-.006.012a.896.896 0 0 0-.03.065l-.002.009a.896.896 0 0 0-.025.072l-.002.01a.891.891 0 0 0-.018.073L.3 7.45a.86.86 0 0 0-.009.238l.009.063.003.022c.005.025.011.05.018.074l.002.009a.904.904 0 0 0 .025.073l.003.008.03.066.005.011c.01.02.021.04.033.059l.009.015a.895.895 0 0 0 .037.053l.012.016a.891.891 0 0 0 .055.064l2.508 2.634a.814.814 0 0 0 .592.257.813.813 0 0 0 .59-.257.91.91 0 0 0 0-1.242l-1.08-1.135z"/>
        <path d="M11.842.418c-2.282 0-4.406 1.188-5.68 3.18a.906.906 0 0 0 .227 1.218.812.812 0 0 0 1.16-.239c.964-1.505 2.569-2.403 4.293-2.403 2.85 0 5.168 2.434 5.168 5.426s-2.318 5.426-5.168 5.426c-1.72 0-3.321-.894-4.285-2.393a.812.812 0 0 0-1.162-.236.906.906 0 0 0-.224 1.22c1.275 1.982 3.396 3.165 5.671 3.165 3.772 0 6.84-3.222 6.84-7.182 0-3.96-3.068-7.182-6.84-7.182z"/>
    </g>
</svg>
