<svg xmlns="http://www.w3.org/2000/svg" width="140" height="136" viewBox="0 0 140 136">
    <defs>
        <linearGradient id="a" x1="-5.114%" x2="12.645%" y1="91.537%" y2="78.158%">
            <stop offset=".031%" stop-color="#0072A6"/>
            <stop offset="99.84%" stop-color="#004F74"/>
        </linearGradient>
        <linearGradient id="b" x1="86.324%" x2="20.969%" y1="-6.901%" y2="88.094%">
            <stop offset=".031%" stop-color="#0072A6"/>
            <stop offset="99.84%" stop-color="#004F74"/>
        </linearGradient>
        <linearGradient id="c" x1="70.977%" x2="20.311%" y1="-6.336%" y2="122.286%">
            <stop offset=".261%" stop-color="#C7F0FF"/>
            <stop offset="99.58%" stop-color="#4CD2FF"/>
        </linearGradient>
        <linearGradient id="d" x1="-.144%" x2="98.959%" y1="49.995%" y2="49.995%">
            <stop offset=".031%" stop-color="#0072A6"/>
            <stop offset="99.84%" stop-color="#004F74"/>
        </linearGradient>
        <linearGradient id="e" x1="-.261%" x2="100.257%" y1="49.73%" y2="49.73%">
            <stop offset=".031%" stop-color="#0072A6"/>
            <stop offset="99.84%" stop-color="#004F74"/>
        </linearGradient>
        <linearGradient id="f" x1="-.377%" x2="100.141%" y1="49.466%" y2="49.466%">
            <stop offset=".031%" stop-color="#0072A6"/>
            <stop offset="99.84%" stop-color="#004F74"/>
        </linearGradient>
        <linearGradient id="g" x1="-.476%" x2="100.044%" y1="49.207%" y2="49.207%">
            <stop offset=".031%" stop-color="#0072A6"/>
            <stop offset="99.84%" stop-color="#004F74"/>
        </linearGradient>
        <linearGradient id="h" x1="15.987%" x2="89.42%" y1="105.49%" y2="6.071%">
            <stop offset=".129%" stop-color="#F27021"/>
            <stop offset="99.84%" stop-color="#F7A23F"/>
        </linearGradient>
    </defs>
    <g fill="none" fill-rule="nonzero">
        <path fill="#D2F2FF" d="M139.19 46.173c-.161-4.208-2.022-9.306-5.178-12.381-3.237-3.156-9.307-3.723-13.515-4.532-4.936-.971-10.035-2.266-13.352-5.907-3.48-3.723-4.209-9.226-7.527-13.11-3.56-4.046-9.387-5.503-14.89-5.26-5.503.242-10.763 1.942-16.023 3.156-3.237.809-6.636 1.456-9.954.809-4.289-.728-7.85-3.48-11.896-4.936-7.526-2.671-20.15-.162-23.872 7.606-1.538 3.237-1.052 8.66-.648 12.058.648 5.746 2.104 10.925 1.376 16.67-.81 5.746-2.104 11.411-4.775 16.59-2.185 4.128-5.098 7.77-8.173 11.249-2.347 2.67-4.855 5.26-6.636 8.254-7.04 11.815-4.046 30.428 3.237 41.353 3.56 5.422 8.983 10.116 15.619 11.168 6.23.97 12.462-1.376 18.693-2.428 13.515-2.104 27.11 2.347 40.382 5.422 13.352 3.075 28.404 4.37 39.815-2.994 8.254-5.342 13.11-15.133 12.462-24.602-.728-10.358-7.526-20.393-5.017-30.508.971-3.885 3.237-7.284 5.098-10.844 2.752-5.18 5.018-10.925 4.775-16.833z"/>
        <path fill="url(#a)" d="M83.838 21.04c-6.717 6.474-34.474 34.394-47.422 69.353-.566 1.538-.243 3.318.89 4.532 8.255 8.82 33.503 18.208 42.971 21.526a4.466 4.466 0 0 0 5.422-2.104c6.474-11.734 28.972-52.116 46.209-73.156 1.78-2.185-.324-9.63-2.671-11.006-7.769-4.45-23.064-8.497-41.838-10.44-1.295-.08-2.59.324-3.56 1.295z" transform="translate(0 -.763)"/>
        <path fill="url(#b)" d="M81.41 16.023c-6.716 6.474-34.474 34.474-47.422 69.353-.566 1.537-.242 3.318.89 4.532 8.255 8.82 33.504 18.208 42.972 21.526a4.466 4.466 0 0 0 5.422-2.105c6.474-11.734 28.97-52.115 46.208-73.156 1.78-2.185 1.133-5.422-1.295-6.716-7.769-4.451-24.44-12.706-43.214-14.648-1.376-.162-2.67.243-3.56 1.214z" transform="translate(0 -.763)"/>
        <path fill="url(#c)" d="M123.006 31.399c-1.7-.971-3.966-2.185-6.636-3.48-.728-.324-1.457-.324-2.185-.08-2.185.89-4.532 1.941-5.908 2.589a2.932 2.932 0 0 1-2.185.08c-3.965-1.699-8.658-3.317-10.682-4.046a1.282 1.282 0 0 1-.809-1.537l.81-3.399c.161-.647-.243-1.295-.89-1.376a75.667 75.667 0 0 0-8.903-1.456c-1.132-.081-2.265.242-3.075 1.052C76.717 25.329 49.77 53.896 38.601 84c-.485 1.376-.243 2.913.81 3.965 7.12 7.688 28.97 15.78 37.144 18.613 1.78.647 3.803-.162 4.694-1.78 5.583-10.197 28-49.364 42.89-67.573 1.537-1.86.97-4.612-1.133-5.826z" transform="translate(0 -.763)"/>
        <path fill="url(#d)" d="M.324 3.399l1.78-.405L1.052 1.7 2.185.73l.89 1.375.81-1.861 1.132.323-.809 1.862 1.78-.567.081 1.376-1.78.405.971 1.294-1.133.972-.89-1.376-.81 1.861-1.132-.324.89-1.86-1.78.566z" transform="translate(67.168 50.22)"/>
        <path fill="url(#e)" d="M6.717 5.341l1.78-.405-1.052-1.294 1.133-.971.89 1.375.81-1.861 1.132.324-.89 1.86 1.78-.566.082 1.376-1.78.405.97 1.295-1.133.97-.809-1.375-.81 1.861-1.132-.323.89-1.862-1.78.567z" transform="translate(67.168 50.22)"/>
        <path fill="url(#f)" d="M13.11 7.283l1.78-.404-1.052-1.295 1.133-.971.89 1.375.81-1.86 1.132.323-.89 1.861 1.78-.566.082 1.375-1.78.405.97 1.295-1.133.97-.89-1.375-.81 1.861L14 9.954l.89-1.862-1.78.567z" transform="translate(67.168 50.22)"/>
        <path fill="url(#g)" d="M19.503 9.225l1.78-.404-1.052-1.295 1.133-.971.89 1.376.81-1.862 1.133.324-.89 1.861 1.78-.566.08 1.376-1.78.404.971 1.295-1.133.971-.89-1.376-.809 1.862-1.133-.324.89-1.861-1.78.566z" transform="translate(67.168 50.22)"/>
        <path fill="#A7E3FF" d="M128.185 28.694c-7.769-4.451-24.44-12.706-43.214-14.648-1.295-.162-2.59.324-3.56 1.214-6.717 6.474-34.475 34.474-47.423 69.353-.08.162-.161.404-.161.566a57.833 57.833 0 0 1 5.664-4.289c7.445-4.693 15.862-7.607 23.954-11.167 2.59-1.133 5.26-2.428 7.04-4.694 1.862-2.347 2.428-5.503 3.561-8.254 2.509-6.232 8.174-11.087 14.729-12.706 8.092-1.942 16.994.89 24.843-2.104 4.937-1.942 8.74-5.988 13.677-8.011a24.584 24.584 0 0 1 3.237-.971c0-1.7-.81-3.4-2.347-4.29z" opacity=".48"/>
        <path fill="#A8DAE9" d="M10.358 131.468l-3.48 2.185c-.161.081-.161.324 0 .405l4.128 1.861c.162.081.404-.08.323-.243l-.728-4.046c.081-.162-.162-.243-.243-.162zM12.624 9.029l-3.48 2.185c-.161.08-.161.324 0 .404l4.128 1.862c.162.08.404-.081.323-.243l-.728-4.046c.162-.162-.08-.324-.243-.162zM136.358 130.659l-4.289 1.942c-.728.324-.97 1.133-.728 1.78.324.729 1.133.972 1.78.729l4.29-1.942c.728-.324.97-1.133.728-1.78-.243-.729-1.052-1.053-1.78-.729zM108.682 109.942c0 .971-.728 1.78-1.7 1.78-.97 0-1.78-.728-1.78-1.699 0-.971.729-1.78 1.7-1.78.89 0 1.7.728 1.78 1.7zM131.665 7.168c0 .97-.81 1.78-1.78 1.78-.972 0-1.781-.81-1.781-1.78 0-.971.81-1.78 1.78-1.78.971.08 1.78.809 1.78 1.78zM47.665 26.104c0 .971-.729 1.78-1.7 1.78-.97 0-1.78-.728-1.78-1.699 0-.971.728-1.78 1.7-1.78.89-.081 1.699.728 1.78 1.699z" opacity=".8"/>
        <path fill="url(#h)" d="M64.335 106.173c.324-.89.486-2.346-.728-3.722-1.133-1.295-4.775-1.376-4.775-1.376s2.509-3.56.89-6.312c-1.78-2.994-5.826-2.751-5.826-2.751s1.861-3.561-.647-5.908c-2.104-1.942-5.827-.405-5.827-.405s1.133-3.803-1.7-6.069c-2.59-2.023-7.687.567-7.687.567s26.22-18.37 9.873-16.671c-15.376 1.538-30.185 15.78-37.145 24.52-3.075 3.885-7.121 11.653-8.659 19.18 1.295 4.288 3.075 8.254 5.26 11.49 3.56 5.423 8.983 10.116 15.619 11.168 5.098.81 10.277-.647 15.375-1.78 2.752-1.052 5.422-2.428 7.931-3.965 5.422-3.561 15.538-11.168 18.046-17.966z" transform="translate(0 -.763)"/>
        <path fill="#FCD2A1" d="M48.798 65.272c.97-.648 1.7-1.538 2.104-2.59-.81-.08-1.78-.08-3.075.081-15.376 1.538-30.185 15.78-37.145 24.52-3.075 3.885-7.121 11.653-8.659 19.18 1.295 4.288 3.075 8.254 5.26 11.49.729 1.134 1.619 2.267 2.509 3.319-.162-.567-.405-1.133-.567-1.7-1.456-4.208-2.427-8.659-2.265-13.11.161-4.45 1.618-8.901 4.45-12.381C15.7 88.82 22.497 86.555 28 82.67c1.052-.729 2.023-1.538 2.751-2.671.81-1.214 1.214-2.751 1.78-4.127 1.943-4.451 6.475-7.283 11.168-8.66 1.78-.566 3.642-.89 5.099-1.941z" opacity=".48"/>
        <path fill="#D2F2FF" d="M13.838 48.925c-1.618 2.023-3.803 3.884-6.312 4.37-.405.08-.89.08-1.295-.081-.485-.243-.728-.728-.97-1.295-1.215-2.994-1.215-6.312-.486-9.387.97-4.208 4.693-14.486 10.763-11.168 6.23 3.318 1.375 13.676-1.7 17.56zM62.96 4.74c.809-.081 1.537-.405 2.104-.971.566-.567.647-1.538.242-2.185-.323-.486-.89-.81-1.456-1.052-1.376-.486-2.833-.729-4.29-.486-1.456.162-3.155 1.538-2.103 3.075.97 1.295 4.046 1.7 5.503 1.619z"/>
    </g>
</svg>
