<svg xmlns="http://www.w3.org/2000/svg" xmlns:xlink="http://www.w3.org/1999/xlink" width="48" height="48" viewBox="0 0 48 48">
    <defs>
        <path id="a" d="M21.474 0c11.86 0 21.473 9.614 21.473 21.474s-9.614 21.473-21.473 21.473C9.614 42.947 0 33.333 0 21.474 0 9.614 9.614 0 21.474 0z"/>
    </defs>
    <g fill="none" fill-rule="evenodd">
        <path fill="#FFF" d="M24 0C10.745 0 0 10.745 0 24s10.745 24 24 24 24-10.745 24-24S37.255 0 24 0"/>
        <g transform="translate(2.526 2.526)">
            <mask id="b" fill="#fff">
                <use xlink:href="#a"/>
            </mask>
            <use fill="#DAF3FF" xlink:href="#a"/>
            <g mask="url(#b)">
                <path d="M-.28 21.239c0 12.079 9.792 21.871 21.87 21.871 12.08 0 21.872-9.792 21.872-21.871 0-12.08-9.792-21.871-21.871-21.871C9.51-.632-.28 9.16-.28 21.238"/>
                <path fill="#FFF" d="M-5.837 58.451S12.26 37.468 17.865 31.428c3.304-3.559 5.766-3.095 8.18-3.422 8.968-1.216 15.43 19.027 17.85 21.543 2.837 2.952-18.081 16.739-18.046 16.398.035-.34-21.698-1.385-21.404-1.499.294-.114-10.282-5.997-10.282-5.997"/>
                <path d="M-.28 21.239c0 12.079 9.792 21.871 21.87 21.871 12.08 0 21.872-9.792 21.872-21.871 0-12.08-9.792-21.871-21.871-21.871C9.51-.632-.28 9.16-.28 21.238"/>
                <path fill="#0091D6" d="M30.74 29.277c.815.694 1.74 1.513 2.694 2.41-.858-.957-1.757-1.781-2.694-2.41"/>
                <path d="M-.28 21.239c0 12.079 9.792 21.871 21.87 21.871 12.08 0 21.872-9.792 21.872-21.871 0-12.08-9.792-21.871-21.871-21.871C9.51-.632-.28 9.16-.28 21.238"/>
                <path fill="#000" d="M25.673 32.18c4.08.874 7.232 6.651-1.67 8.431-4.97.995-13.326.634-14.638.353-1.312-.281 13.607 4.707 14.17 4.801.562.094 8.901 4.966 15.835 0 .767-.549 1.222-1.206 1.428-1.941-1.892-3.878-9.547-12.996-12.53-16.325-.953-.898-2.726.172-3.54-.522-1.474-.99-5.756-.336-3.684 2.354 0 0 .55 1.974 4.63 2.849" opacity=".06"/>
                <path d="M-.28 21.239c0 12.079 9.792 21.871 21.87 21.871 12.08 0 21.872-9.792 21.872-21.871 0-12.08-9.792-21.871-21.871-21.871C9.51-.632-.28 9.16-.28 21.238"/>
                <path fill="#007BB4" d="M11.159 19.294c-.306.23-3.206 8.319-.992 11.524 2.213 3.205 4.225 3.357 4.44 3.281.215-.076 4.26-1.068 5.022-3.358.764-2.289 3.761-3.205 3.102-6.486-.66-3.282-11.572-4.96-11.572-4.96"/>
                <path d="M-.28 21.239c0 12.079 9.792 21.871 21.87 21.871 12.08 0 21.872-9.792 21.872-21.871 0-12.08-9.792-21.871-21.871-21.871C9.51-.632-.28 9.16-.28 21.238z"/>
                <path fill="#007BB4" d="M11.035 4.871s-1.512 5.137-1.171 6.232c.34 1.094 3.431 0 3.431 0l5.495-4.59-7.755-1.642z"/>
                <path d="M-.28 21.239c0 12.079 9.792 21.871 21.87 21.871 12.08 0 21.872-9.792 21.872-21.871 0-12.08-9.792-21.871-21.871-21.871C9.51-.632-.28 9.16-.28 21.238"/>
                <path fill="#F5A74F" d="M28.52 15.776c0 5.475-4.438 9.913-9.913 9.913-5.475 0-9.912-4.438-9.912-9.913 0-5.474 4.437-9.912 9.912-9.912 5.475 0 9.913 4.438 9.913 9.912"/>
                <g>
                    <path d="M-.28 21.239c0 12.079 9.792 21.871 21.87 21.871 12.08 0 21.872-9.792 21.872-21.871 0-12.08-9.792-21.871-21.871-21.871C9.51-.632-.28 9.16-.28 21.238"/>
                    <path fill="#2ABBF4" d="M12.808 7.737s10.794 2.787 11.956 6.934c0 0 .357-2.269-.604-3.477-.415-.522-1.934-3.334-8.136-4.99 0 0-1.295.153-3.216 1.533"/>
                </g>
                <g>
                    <path d="M-.28 21.239c0 12.079 9.792 21.871 21.87 21.871 12.08 0 21.872-9.792 21.872-21.871 0-12.08-9.792-21.871-21.871-21.871C9.51-.632-.28 9.16-.28 21.238"/>
                    <path fill="#0091D6" d="M35.274 27.88c-1.46-1.437-.15-4.895.152-7.67C37.03 5.482 30.39-.928 14.606 2.467c-5.792 1.247-4.742 8.636-4.742 8.636s.684-4.324 1.905-5.24c.597-.447 3.77-.055 6.838 1.209l3.49-.868 7.122 4.798.255 9.106-4.746 6.869s-3.547 1.882-4.514-.274c-.11-.246-.218-.475-.317-.693-.258.632-.48 1.257-.65 1.87-1.258 4.578-11.09 8.508-8.428-5.971l-.955-1.46s-3.317 7.625 0 12.908c3.317 5.283 7.781 1.505 9.956-.67s2.735-4.591 5.431-4.642c1.882-.036 4.706-.09 6.309 8.343 4.009 21.096 8.865 2.595 8.865 2.595s1.179-4.87-5.151-11.103"/>
                </g>
                <g opacity=".08">
                    <path fill="#000" d="M17.203 6.554c.003.001 1.404 1.676 1.841 4.702.453 3.132 5.546 4.121 2.493 8.293-2.703 3.695-.305 4.484-1.64 6.46 2.006-4.17 4.844-8.511 4.927-12.095.075-3.254-3.325-6.08-7.62-7.36"/>
                </g>
                <g>
                    <path d="M-.28 21.239c0 12.079 9.792 21.871 21.87 21.871 12.08 0 21.872-9.792 21.872-21.871 0-12.08-9.792-21.871-21.871-21.871C9.51-.632-.28 9.16-.28 21.238"/>
                    <path fill="#0091D6" d="M24.728 26.977l4.746-6.869-.255-9.106-7.122-4.798-3.49.868c3.203 1.319 6.292 3.588 6.217 6.842-.083 3.584-3.26 8.002-4.927 12.096.1.218.207.447.317.693.967 2.156 4.514.274 4.514.274"/>
                </g>
                <g opacity=".469">
                    <path fill="#000" d="M18.97 28.613s4.002-3.526 6.5-3.429c1.958.077 4.509 1.51 6.029 2.952 1.5 1.424 2.492 2.645 2.62 4.196.108 1.325 1.099.148.84-1.602-.005-.028-.006-.057-.014-.084-.408-1.36-1.236-2.725-3.063-4.157-.671-.526-1.55-1.292-1.68-3.441-.268-4.388 2.543-2.112 4.17-6.029.354-.85-7.325 1.832-5.979-6.574.38-2.373-3.691 4.621-3.228 8.749.412 3.681.08 3.537-1.628 4.133-1.71.597-3.803 3.14-3.803 3.14l-.763 2.146z" opacity=".16"/>
                </g>
                <g>
                    <path d="M-.28 21.239c0 12.079 9.792 21.871 21.87 21.871 12.08 0 21.872-9.792 21.872-21.871 0-12.08-9.792-21.871-21.871-21.871C9.51-.632-.28 9.16-.28 21.238"/>
                    <path fill="#000" d="M33.712 39.684s.686-2.366.61-4.121c-.076-1.755 1.069-1.679 2.137.076 1.068 1.755.229 3.053 2.366 3.51 2.136.459-5.113.535-5.113.535" opacity=".08"/>
                </g>
            </g>
        </g>
    </g>
</svg>
