<svg xmlns="http://www.w3.org/2000/svg" xmlns:xlink="http://www.w3.org/1999/xlink" width="50" height="50" viewBox="0 0 50 50">
    <defs>
        <circle id="a" cx="24" cy="24" r="24"/>
    </defs>
    <g fill="none" fill-rule="evenodd" transform="translate(2)">
        <mask id="b" fill="#fff">
            <use xlink:href="#a"/>
        </mask>
        <use fill="#F1F1F1" xlink:href="#a"/>
        <g mask="url(#b)">
            <path d="M10 10h28v28H10z"/>
            <g fill-rule="nonzero">
                <path fill="#858585" d="M37.067 28.62a8.473 8.473 0 0 0-4.647-7.546c-.087 6.218-5.128 11.26-11.346 11.346a8.473 8.473 0 0 0 7.545 4.647c1.52 0 3-.405 4.299-1.175l4.112 1.138-1.138-4.112a8.417 8.417 0 0 0 1.175-4.299z"/>
                <path fill="#BDBDBD" d="M30.89 20.912c0-5.502-4.476-9.979-9.978-9.979s-9.979 4.477-9.979 9.979c0 1.793.478 3.54 1.384 5.072l-1.347 4.87 4.87-1.347a9.948 9.948 0 0 0 5.072 1.384c5.502 0 9.979-4.477 9.979-9.979zM19.38 18.59h-1.53a3.066 3.066 0 0 1 3.062-3.063 3.066 3.066 0 0 1 3.062 3.063 3.07 3.07 0 0 1-.995 2.26l-1.301 1.19v1.194h-1.532v-1.868l1.799-1.646a1.533 1.533 0 0 0-1.033-2.662c-.844 0-1.531.687-1.531 1.532zm.766 6.176h1.532v1.53h-1.532v-1.53z"/>
            </g>
        </g>
        <circle cx="5" cy="43" r="6" fill="#00B25A" stroke="#FFF" stroke-width="2"/>
    </g>
</svg>
