<svg xmlns="http://www.w3.org/2000/svg" width="49" height="49" viewBox="0 0 49 49">
    <defs>
        <linearGradient id="a" x1="32.128%" x2="72.439%" y1="22.438%" y2="79.069%">
            <stop offset="0%" stop-color="#F9B260"/>
            <stop offset="100%" stop-color="#EB8208"/>
        </linearGradient>
        <linearGradient id="b" x1="86.899%" x2="29.841%" y1="13.86%" y2="66.255%">
            <stop offset="0%" stop-color="#A7E3FF"/>
            <stop offset="100%" stop-color="#0095DA"/>
        </linearGradient>
        <linearGradient id="c" x1="-.993%" x2="-101.579%" y1="40%" y2="40%">
            <stop offset="0%" stop-color="#007BB5"/>
            <stop offset="100%" stop-color="#123D89"/>
        </linearGradient>
    </defs>
    <g fill="none" fill-rule="evenodd" transform="translate(3.063 1.02)">
        <path fill="url(#a)" d="M25.215 13.27C25.215 6.432 19.6.818 12.658.818 5.717.817.102 6.329.102 13.27c0 1.837.408 3.573 1.123 5.206.102.204.204.51.408.715v.102c.51.816 5.207 8.268 6.125 12.964.102.51.817 1.021 1.327 1.021l7.248.102c.51 0 .92-.306 1.021-.816.409-1.94 2.348-7.248 6.125-13.067.102-.102.102-.204.204-.306 0-.102.102-.102.102-.204.102-.205.205-.409.307-.51.714-1.532 1.123-3.37 1.123-5.207z" transform="translate(8.167 7.146)"/>
        <path fill="#FCD2A1" fill-rule="nonzero" d="M31.952 26.235c0-.102.102-.102.102-.204.102-.204.204-.408.306-.51.715-1.531 1.123-3.369 1.123-5.206 0-6.84-5.614-12.455-12.556-12.455-.919 0-1.735.102-2.552.307 0 0 .817 2.552 4.185 2.96 3.37.408 4.084 4.798.409 8.78-3.675 4.083 5.002 10.31-.919 14.801-2.348 2.348-3.777 3.471-3.675 4.084.102.306 3.573.51 7.35.714.408-1.94 2.45-7.248 6.125-13.066-.102 0 0-.103.102-.205z" style="mix-blend-mode:soft-light"/>
        <path fill="url(#b)" fill-rule="nonzero" d="M16.64 38.077H8.78c-.613 0-1.022-.408-1.022-1.02v-5.31h9.902v5.31c0 .612-.51 1.02-1.02 1.02z" transform="translate(8.167 7.146)"/>
        <path fill="url(#c)" fill-rule="nonzero" d="M18.069 34.198H7.452a.44.44 0 0 1-.408-.408.44.44 0 0 1 .408-.409H18.07a.44.44 0 0 1 .408.409.44.44 0 0 1-.408.408zM18.069 36.24H7.452a.44.44 0 0 1-.408-.409.44.44 0 0 1 .408-.408H18.07a.44.44 0 0 1 .408.408.44.44 0 0 1-.408.409z" transform="translate(8.167 7.146)"/>
        <path fill="#000" fill-rule="nonzero" d="M17.865 43.998c-.102-1.02-.307-1.633-1.123-2.756-.613-.817-.205-2.348-.205-2.348h-.51V44.1c0 .612.51 1.123 1.123 1.123h3.062c-.102-.204-.714-.306-1.225-.306-.816.102-1.122-.409-1.122-.92z" opacity=".16"/>
        <path fill="#7251A1" d="M19.804 13.373h3.981c.613 0 1.021.612.817 1.225l-2.45 6.227h3.267c.714 0 1.123.817.612 1.43l-7.554 9.8c-.306.407-.817.101-.714-.41l2.245-7.35h-3.062c-.613 0-.919-.612-.817-1.122l2.859-9.086c.204-.51.51-.714.816-.714z"/>
        <circle cx="30.727" cy="16.844" r="1" fill="#FFF" fill-rule="nonzero"/>
        <g fill="#F7931E" fill-rule="nonzero">
            <path d="M41.752 21.642h-5.41c-.307 0-.51-.204-.51-.51v-.103c0-.306.203-.51.51-.51h5.41c.306 0 .51.204.51.51v.102c0 .306-.204.51-.51.51zM6.533 21.642h-5.41c-.306 0-.51-.204-.51-.51v-.103c0-.306.204-.51.51-.51h5.41c.307 0 .51.204.51.51v.102c0 .306-.203.51-.51.51zM35.423 35.831l-3.777-3.777a.493.493 0 0 1 0-.714l.102-.102a.493.493 0 0 1 .714 0l3.778 3.777a.493.493 0 0 1 0 .714l-.102.102a.493.493 0 0 1-.715 0zM10.515 10.923L6.737 7.146a.493.493 0 0 1 0-.715l.103-.102a.493.493 0 0 1 .714 0l3.777 3.777a.493.493 0 0 1 0 .715l-.102.102a.493.493 0 0 1-.714 0zM20.927 6.227V.817c0-.307.204-.51.51-.51h.103c.306 0 .51.203.51.51v5.41c0 .306-.204.51-.51.51h-.102c-.307 0-.51-.204-.51-.51zM6.737 35.117l3.778-3.777a.493.493 0 0 1 .714 0l.102.102a.493.493 0 0 1 0 .714l-3.777 3.777a.493.493 0 0 1-.714 0l-.103-.102a.493.493 0 0 1 0-.714zM31.646 10.208l3.777-3.777a.493.493 0 0 1 .715 0l.102.102a.493.493 0 0 1 0 .715l-3.778 3.777a.493.493 0 0 1-.714 0l-.102-.102a.493.493 0 0 1 0-.715z"/>
        </g>
        <path fill="#FFF" fill-rule="nonzero" d="M29.706 15.619a.561.561 0 0 1-.51-.306c-.715-1.94-2.756-3.063-2.756-3.063-.205-.102-.307-.408-.205-.715.102-.204.409-.306.715-.204.102.102 2.348 1.327 3.165 3.675.102.306 0 .51-.307.613h-.102z"/>
    </g>
</svg>
