<svg xmlns="http://www.w3.org/2000/svg" width="49" height="49" viewBox="0 0 49 49">
    <defs>
        <linearGradient id="a" x1="48.894%" x2="47.27%" y1="45.292%" y2="69.207%">
            <stop offset="29.51%" stop-color="#007BB5"/>
            <stop offset="100%" stop-color="#123D89"/>
        </linearGradient>
        <linearGradient id="b" x1="17.936%" x2="71.596%" y1="42.968%" y2="54.7%">
            <stop offset="0%" stop-color="#A7E3FF"/>
            <stop offset="100%" stop-color="#0095DA"/>
        </linearGradient>
        <linearGradient id="c" x1="48.576%" x2="50.531%" y1="-.575%" y2="87.522%">
            <stop offset="0%" stop-color="#A7E3FF"/>
            <stop offset="100%" stop-color="#0095DA"/>
        </linearGradient>
        <linearGradient id="d" x1="-23.075%" x2="40.169%" y1="53.154%" y2="49.323%">
            <stop offset="0%" stop-color="#947CC1"/>
            <stop offset="100%" stop-color="#7251A1"/>
        </linearGradient>
        <linearGradient id="e" x1="111.614%" x2="21.935%" y1="36.919%" y2="54.463%">
            <stop offset="7.519%" stop-color="#A7E3FF"/>
            <stop offset="39.11%" stop-color="#57BEED"/>
            <stop offset="66.4%" stop-color="#18A0DF"/>
            <stop offset="79.26%" stop-color="#0095DA"/>
        </linearGradient>
        <linearGradient id="f" x1="16.266%" x2="77.293%" y1="6.494%" y2="85.199%">
            <stop offset="0%" stop-color="#947CC1"/>
            <stop offset="100%" stop-color="#7251A1"/>
        </linearGradient>
    </defs>
    <g fill="none" fill-rule="nonzero" transform="translate(5.104 3.063)">
        <path fill="url(#a)" d="M21.438 10.515h6.125V6.023c0-3.675 2.96-4.696 3.777-4.696H17.354s4.084 1.02 4.084 4.288v4.9z"/>
        <path fill="url(#b)" d="M13.475 2.654c.306.613.817.919 1.327.919h19.396c.612 0 1.123-.306 1.327-.919.51-1.123-.204-2.348-1.327-2.348H14.802c-1.123 0-1.837 1.327-1.327 2.348z"/>
        <path fill="url(#c)" d="M5.41.51c-.102-.204-.408-.204-.612 0C4.594.715 0 5.82 0 8.167c0 2.45 2.246 4.491 5.104 4.491 2.859 0 5.104-2.041 5.104-4.491 0-2.45-4.593-7.452-4.798-7.657z" transform="translate(1.02 29.604)"/>
        <path fill="#A7E3FF" d="M4.9 39.915c.715-1.43.715-2.246-.51-4.186s1.327-3.777 1.735-4.594c.306-.714 0-1.225 0-1.225-.102 0-.204 0-.306.103-.204.204-4.798 5.308-4.798 7.656 0 2.45 2.246 4.491 5.104 4.491.306 0 .612 0 .817-.102-1.021-.204-2.655-.816-2.042-2.143z" opacity=".64" style="mix-blend-mode:soft-light"/>
        <g fill="#FFF" transform="translate(6.125 32.667)">
            <circle cx="3.267" cy="4.594" r="1"/>
            <path d="M2.654 3.675c-.204 0-.306-.102-.408-.306C1.837 1.939.51.613.51.613.408.51.408.204.51.103.613 0 .92 0 1.02.102c.103.101 1.532 1.53 1.94 3.164.103.204 0 .408-.306.408z"/>
        </g>
        <path fill="url(#d)" d="M11.944 9.392h25.214c.92 0 1.634.714 1.634 1.633v10.412c0 .92-.715 1.634-1.634 1.634H14.292c-.92 0-1.634.714-1.634 1.633v2.45c0 1.021-.816 1.94-1.94 1.94H1.94c-1.021 0-1.94-.817-1.94-1.94v-4.491c0-8.27 4.9-11.23 7.758-12.353 1.123-.408 3.063-.918 4.186-.918z"/>
        <path fill="url(#e)" d="M25.419 9.392h11.74c.918 0 1.633.714 1.633 1.633v10.412c0 .92-.715 1.634-1.634 1.634H25.521c0-2.756-.102-11.331-.102-13.68z"/>
        <circle cx="24.602" cy="17.048" r="10.106" fill="url(#f)"/>
        <g fill="#FFF">
            <path d="M22.56 18.477l-.714-1.94h-.817v1.94h-1.633v-6.125h2.552c1.43 0 2.348.715 2.348 2.042 0 .816-.306 1.429-.919 1.837l1.123 2.246h-1.94zm-1.633-3.062h.919c.51 0 .714-.307.714-.817s-.306-.817-.714-.817h-.919v1.634zM30.727 17.558c0 1.43-.919 2.348-2.348 2.348-.612 0-1.123-.204-1.429-.612v2.654h-1.94V15.21h1.94v.51c.306-.408.817-.612 1.43-.612 1.326 0 2.347.92 2.347 2.45zm-1.94-.102c0-.612-.408-1.02-.918-1.02s-.919.408-.919 1.02c0 .613.408 1.021.919 1.021.51 0 .918-.408.918-1.02z"/>
        </g>
        <g fill="#662D91" opacity=".56" style="mix-blend-mode:soft-light">
            <path d="M6.227 27.358c-3.88-.306-4.798-2.756-2.348-5.818.715-.817 1.225-1.634.919-3.063-.817-3.573.306-5.512 3.47-7.248 3.676-1.94 9.086-1.94 9.086-1.94h-5.41c-1.123 0-3.063.511-4.186.92C4.798 11.228 0 14.188 0 22.56v4.492c0 1.02.817 1.94 1.94 1.94h8.88c-1.837-1.123-3.368-1.532-4.593-1.634z"/>
        </g>
    </g>
</svg>
