<svg xmlns="http://www.w3.org/2000/svg" xmlns:xlink="http://www.w3.org/1999/xlink" width="245" height="215" viewBox="0 0 245 215">
    <defs>
        <rect id="a" width="288" height="235.546" rx="7.918"/>
        <path id="c" d="M69.398 28.248H1.092a1.068 1.068 0 0 1-1.065-1.064v-22.9A4.255 4.255 0 0 1 4.287.028h65.11c.587 0 1.066.479 1.066 1.064v26.106c0 .586-.48 1.051-1.065 1.051z"/>
        <path id="e" d="M54.538 68.539H1.172a1.068 1.068 0 0 1-1.065-1.065V1.171C.107.585.586.106 1.172.106h50.17a4.255 4.255 0 0 1 4.262 4.258v63.11c0 .586-.48 1.065-1.066 1.065z"/>
    </defs>
    <g fill="none" fill-rule="evenodd" transform="translate(-21 -10.5)">
        <mask id="b" fill="#fff">
            <use xlink:href="#a"/>
        </mask>
        <g mask="url(#b)">
            <path fill="#D9F2FF" fill-rule="nonzero" d="M54.358 183.567s-33.873-36.844-16.657-58.533c27.39-34.502 8.07-52.372 20.279-67.434 17.802-21.955 39.32-7.638 75.19-27.757 33.141-18.588 40.384 27.757 62.66 30.391 42.05 4.976 54.539 18.668 57.308 40.184 4.86 37.842 3.782 49.139-4.487 82.976l-194.293.173z"/>
            <path fill="#D9F2FF" fill-rule="nonzero" d="M31.47 115.148c-.453-.014-.8-.36-.84-.839-.066-.745.427-1.57 1.585-3.033 2.623-3.3 2.61-9.94 2.956-13.692.347-3.752 4.9-6.973 8.642-2.528 4.407 5.269-7.19 20.251-12.343 20.092z"/>
            <g transform="translate(34.452 29.218)">
                <path fill="#C6EDFF" fill-rule="nonzero" d="M66.202 28.248H4.287a4.255 4.255 0 0 1-4.26-4.257V4.285A4.255 4.255 0 0 1 4.287.027h61.915a4.255 4.255 0 0 1 4.261 4.258v19.719c0 2.342-1.917 4.244-4.26 4.244z"/>
                <path fill="#3EC1FF" fill-rule="nonzero" d="M70.463 6.6H.027V4.285A4.255 4.255 0 0 1 4.287.027h65.11c.587 0 1.066.479 1.066 1.064V6.6zM62.5 12.64H7.284a.21.21 0 0 1-.213-.212v-1.584a.21.21 0 0 1 .213-.213h55.218a.21.21 0 0 1 .213.213v1.584a.21.21 0 0 1-.213.213z"/>
                <path fill="#A7E3FF" fill-rule="nonzero" d="M45.005 17.497H7.283a.21.21 0 0 1-.213-.213v-1.583a.21.21 0 0 1 .213-.213h37.722a.21.21 0 0 1 .213.213v1.583a.21.21 0 0 1-.213.213zM29.32 21.689H7.283a.21.21 0 0 1-.213-.213v-1.584a.21.21 0 0 1 .213-.213H29.32a.21.21 0 0 1 .213.213v1.584a.21.21 0 0 1-.213.213z"/>
                <mask id="d" fill="#fff">
                    <use xlink:href="#c"/>
                </mask>
                <path fill="#3EC1FF" fill-rule="nonzero" d="M30.731.027s6.005 2.075 26.723 2.74c8.336 1.185 2.157 3.567 4.66 9.887 2.504 6.32.76 11.23-9.134 10.139-9.893-1.091-18.308 8.276-18.308 8.276l51.463 9.261-4.42-54.833H39.931l-9.2 14.53z" mask="url(#d)" opacity=".16"/>
                <ellipse cx="4.234" cy="3.473" fill="#FFF" fill-rule="nonzero" rx="1.025" ry="1.025"/>
                <ellipse cx="8.096" cy="3.473" fill="#FFF" fill-rule="nonzero" rx="1.025" ry="1.025"/>
                <ellipse cx="11.757" cy="3.473" fill="#FFF" fill-rule="nonzero" rx="1.025" ry="1.025"/>
            </g>
            <g fill="#4E9DD5" fill-rule="nonzero">
                <path d="M254.87 184.26c.153-.188.058-.564-.341-.502l-.286.69.628-.188zM252.752 183.593c-.333.14-.732.418-.506.696.333-.278.413-.167.772-.529.293-.028.506.084.453.195.107-.083.453.056.6-.111-.374-.223-.853-.25-1.346-.056-.106-.056 0-.14.027-.195zM224.657 183.367l.697.07c-.2-.07-.448-.07-.697-.07zM207.251 183.4c.455 0 .637-.07.682-.14-.409 0-.773.07-.682.14zM204.272 183.15c.268 0 .482.07.696.07-.268-.07-.535-.139-.696-.07zM224.884 183.536l-.69-.209c-.06.209.354.14.69.209zM248.877 184.108c.257-.07.477-.14.697-.209-.22 0-.44.07-.66.07 0 .07-.037.07-.037.14zM232.327 183.473h.383c.104-.07.209-.21.313-.279l-.696.279zM238.524 183.22c-.317 0-.412.483-.538.697a.88.88 0 0 1 .696-.321c0-.108-.032-.215-.158-.375zM247.56 183.503l.695-.07c-.174 0-.464 0-.696.07zM228.331 183.39c-.07-.07-.139-.21-.278-.21 0 .07.139.14.278.21zM63.48 184.251v-.139c-.14.14-.21.14 0 .14zM56.542 183.822h.487c.07-.14.14-.21.14-.349l-.627.349zM198.826 183.01h.14c.765-.07.348-.07-.14 0zM148.937 183.061c.628.278-1.032.383-.075.696-.09-.14.867-.522.075-.696zM249.174 183.926h-.696.696z"/>
                <path d="M148.828 183.327l.488.07c-.21-.07-.348-.07-.488-.07zM186.297 183.034c.139.14.417.21.696.279-.07 0-.209-.14-.696-.279zM196.1 183.277l-.696-.07c.287 0 .492.07.696.07zM181.8 183.3c-.24-.07-.348-.139-.696-.07.027 0 .054.07.107.07.134-.07.295-.139.59 0zM176.404 183.22c.073.07.183.07.256.14h.44l-.696-.14zM78.961 184.536c-.166-.209-.27-.348-.353-.557.104.418-1.038.627.353.557zM249.32 183.873c-.107.139-.268.209-.589.278h.696c0-.14 0-.209-.107-.278zM181.237 184.235l-.799-.07c.227.07.52.07.8.07zM115.425 184.072l-.696.07c.248 0 .497 0 .696-.07zM178.218 184.517c-.186-.21-.373-.349-.577-.418-.034.07-.085.07-.119.14l.696.278z"/>
                <path d="M67.087 184.259c.786 0 .373-.16.533-.253.945-.04.44.12.759.2.586-.04 1.039-.187 1.478-.187.027.027.12.04.013.067.626-.133 1.851 0 2.57-.173.053.013.08.026.093.04-.12-.08-.133-.16-.106-.227.36 0 .652-.106.785 0-.213 0-.24.04-.333.067l.373-.04c.333.146-.506.053-.506.16.72-.054 1.572-.173 2.117-.133.12.146-1.291.053-.559.186l-.852-.053c.652.24-.52-.014.08.24 1.132.039 1.265-.08 2.383-.028.253-.08-.08-.12.173-.2 1.598-.145 1.265.373 2.437.174.306-.093.426-.293 1.265-.186l-.28.173c1.092.013.626-.24 1.771-.133-.2.066-.865.053-.692.08.746.132.52-.094 1.092-.094l.12.147c1.158-.027 2.45-.133 3.741-.16-.067.04-.293.093.013.133 1.625-.08 3.476.013 5.033.106l.6-.133c.133 0 .253.054.106.08.613.053.027-.08.32-.133.346-.013.452.08.24.107 1.078-.107 3.075-.24 4.207-.094l-.226.04c.878.054.998-.266 1.824-.146l-.16.027c1.917.053 4.048-.067 5.512.133.28-.187 1.904.08 2.024-.173 1.092.133.786.173 2.33.266.413.013.613-.16 1.119-.186l.013.133.693-.147.372.16.48-.04c-.187-.013-.4-.067-.373-.093.746-.067 1.824.093 1.837.16l1.771-.12c-.04.053-.333.066-.572.106.945-.133.173.147 1.038.013-.12-.026.067-.08.08-.106.426.08 1.412.08 2.144.053l-.133.093c1.305.027 2.77-.04 4.234-.04-.533-.04-.413-.2.027-.226l.173.147c.28-.093-.453-.054.12-.16.545.013.372.16.053.213l.665-.053c.04.04-.12.066-.16.12.28-.094 1.16.146 1.545-.014l.04.04c1.465 0 2.144-.053 3.342-.053.027-.12.493-.093.852-.2.88.04 1.865.133 2.916.12.746-.067.213-.106.56-.173.053.106 1.118.106.559.186 1.278-.013 1.624-.026 3.235-.12-.173-.04-.372-.066-.266-.106.293-.013.666.053.626.107l-.08.013c1.81-.173 4.168.332 5.606.093l-.08.013 1.491-.12c.692.014-.413.08.093.16 1.611-.186 2.543.027 3.875-.093 1.025.333 3.648-.027 5.033.186l-.08-.08c.36-.08.44.04.693.067-.04-.067-.387-.067-.16-.106 3.036-.094 6.258.12 9.373.186 1.132.026.64-.4 2.078-.213l-.413.146c2.29-.173 4.687 0 6.937-.146-.133.04-.133.08-.36.08.48.106 1.758 0 1.758-.08.346.013.08.08.293.12.48.066 1.198-.133 1.451-.027.04.013-.133.04-.226.04.306-.053 1.451.013 1.145-.106.839.053 1.611-.054 2.29.013.44-.133 1.438.066 1.585-.12-.067.2 1.478.16 2.01.067-.173.053.466.066.253.146.613 0 1.172-.04 1.066-.146 1.118.24 2.25-.187 2.889.106 1.81-.106 3.475-.173 5.1-.226-.054.2-1.798.013-1.731.226 1.544-.08 2.436-.253 3.967-.2.4.027-.226.08-.36.12 1.545-.08 2.983.014 4.355-.093 0 .013-.147.04-.293.053.266 0 .626.027.6-.066l-.267.026c-.426-.133 1.078-.266 1.118-.346-.452.253 1.358.067.626.386.173-.013.4-.053.36-.12.266.014.346.054.08.12.972-.053.625-.146 1.504-.146 0 .04-.186.067-.266.106.44-.08.892-.173 1.638-.133-.04.027.04.067-.173.054 1.278-.014 2.17-.227 3.568-.147-.413.187.48.067.546.226l.745-.053-.306-.08c.653 0 1.239-.12 1.811-.066l-.493.066 1.239-.026-.693-.067c.666-.08-.066-.213.8-.16-.174.014.652 0 .998.094.32-.054.666-.107 1.145-.067.12.053-.107.186-.013.213.32-.133 1.544-.04 1.944-.186-.134.04-.147.12-.094.133l.267-.107c.306.04.346.054.306.12.919.027-.293-.213.799-.12-.08.014-.04.027-.226.04 1.091.054 2.117-.066 3.115-.013.293.16-.879.04-.532.173 1.451-.027 2.996-.2 4.394-.16l-.267-.013c.2-.226 1.039.12 1.758 0-.173.013-.226.133-.187.106.96.04 1.958-.053 3.41-.133l-.187.054c.559.053 1.491.026 2.103.053.187-.053.533-.053.32-.133 1.877.346 3.595-.187 5.26.106-.2 0-.48.053-.32.053l1.425-.053c-.107-.106-.187-.066-.48-.146.187-.067.586-.107.932-.107-.639.067 0 .16.28.213-.04-.026.053-.066.027-.093.745.186.12-.2 1.145-.08l-.054.054c.387-.027.733-.094 1.145-.08.174.12-.399.053-.426.146.573-.013 1.132-.226 1.651-.106-.24.026-.599.026-.838.066.572.133.639.107 1.052.12h-.04l.972.066-.253-.04c.719-.306 1.464-.053 2.436-.252-.945.186-.16.106-.226.24.253.04.626.08.52.119.452-.106.758.08 1.41-.067.027.04.493 0 .387.107.599-.04-.147-.08-.094-.133.92-.147 2.158.173 3.476-.027 1.145-.08 1.345-.226 2.41-.293.36.067-.293.16-.293.16a6.777 6.777 0 0 0 1.558 0c-.107.04 0 .067.173.12.44-.013.293-.16.865-.093-.093.053-.226.12-.44.173.52-.04 1.026-.12 1.545-.16.147.08-.32.107-.506.16.6-.04 1.545-.067 1.731-.187l-.386-.04c.213 0 .107.107-.053.12-.506.093-.732-.04-.772-.08l.373-.026c-.387-.253-1.518.04-2.277.026l.32-.186-.786.147c-.16-.054-.28-.147.093-.173-.546-.094-.48.066-.959-.04-.053-.014-.026-.027.013-.027l-.532.053c.106-.04-.093-.133.24-.106-.96-.107-1.545.133-1.905 0l.08-.013c-1.331.066-.133.133-1.118.292l-.666-.332-.133.133c-.133 0-.413-.014-.36-.067-.505.093.094.053-.213.146-.665-.12-1.824.054-1.97-.16-.24.107.626.08-.08.147-.2-.226-.812.04-1.411-.066.186-.12.759-.054.146-.16-.36.2-1.172-.04-1.678 0-.026.16-1.105.067-1.957.12.053-.053-1.611-.093-2.397-.147l.027-.026c-.16.16-.972.133-1.571.16.026-.094.133-.134.452-.174h-.559c-.133.054-.306.08-.666.094l.147-.12c-.746 0-1.505.146-2.463.066-.054.107.759.306-.253.386-.04-.066-.08-.16.186-.186-.093.013-.306.053-.48.027l.4-.107c-.44-.04-.226.08-.572.08.013-.08-.253-.067-.213-.133.093-.013.306.04.439 0-.4-.013-.865-.067-1.025-.133.04.053 0 .12-.293.133-.746 0-.253-.107-.693-.146-.186.066-.652 0-.665.133-.213 0-.253-.067-.346-.094-.387.054-1.798.014-1.372.16l.093.013h-.066c-1.265.133-2.623-.066-3.888-.013v-.04c-.746.053-1.665.027-2.197.12-.227 0-.52-.08-.426-.133-.573.027-.64.08-1.465.013.573-.08-.2-.066.586-.053-.746-.04-.919-.106-1.718.013.267-.106-.559-.133-.919-.106l.52.08c-.4.013-.746 0-1.105 0l.186-.147c-1.518-.173-2.743.306-3.901 0-.4.107.825.067.466.187-.706-.014-1.425-.227-1.651-.227-.959-.08-.892.213-1.904.16.133.053.253.186-.506.24-.706-.014-.866-.213-.413-.267.173 0 .253.014.24.027.226-.013.519-.04.24-.093l-.094.053c-.346-.053-1.318-.053-1.092-.133-.532.053-.226.08.16.107-.905-.08-1.398 0-2.33-.054.146.027.28.093.133.093-1.358-.066-.6.094-1.518.12-.52-.08.187-.186-.732-.12-.56-.053-.12-.133.106-.186-.839.107-1.57-.066-2.064-.08l.44-.04c-.266.027-.48.027-.706.027l.253.106c-.266-.013-.48-.013-.48-.066-.265.066.2.173-.332.266-.346-.053-1.065.053-1.185-.08 1.092.053-.12-.133.799-.16-.173.014-.4.014-.653 0-.04-.013.04-.026.107-.04-1.052-.12-.48.16-1.571.147.133-.08-.253-.146-.426-.133.439 0 .213.133-.187.186-.692-.066-.759.04-1.118.04l.413.027c-.147.08-.493.066-.972.093-.04-.067.439-.04.266-.067-.533.133-1.212-.146-1.97-.053-.347-.053-.04-.146-.334-.186-.839.106-.905-.107-1.797-.027.253.107.293.08-.32.187l1.452-.08-.932.146c.439 0 .932-.066 1.185-.053-.44.08-.4.053-.187.146-.599-.16-1.185.093-1.877-.013l.026-.253c-1.038-.12-1.85.133-3.209.067l.44.04c-.187.106-.839.013-1.278.053.04-.08-.24-.12-.426-.173.026.066-.986 0-1.119.173l-.6-.12c-1.09-.053-1.25.24-2.303.213.32-.093-.16-.16.546-.226-.346 0-.665-.014-.665.04-.2-.054-.972.12-1.292.04-.146.04-.2.133-.586.12-.04-.014 0-.04 0-.04 0 .04-.612.053-.266.159-1.079-.266-3.023.013-3.968-.213-.772.027-1.691.053-2.383.067.04-.027 0-.04.133-.04-.959-.08-.586.253-1.678.16-.56-.134.586-.08.226-.134-.146-.28-1.318.04-2.05-.133l.173-.013c-.56-.093-1.371.106-2.29.093 0 0 .04-.026 0-.04-.626.147-1.811.2-2.703.24.28-.107.4-.053.24-.173-.4.013.12.186-.68.213-.253-.067-.825-.12-.905-.24h.746c-.386-.16-.959 0-1.358-.026l.053-.067c-1.145.027-1.159.2-2.384.186l.134.054c-.666.172-.56-.094-1.225.026l-.2-.173c-.44.04-1.545.173-2.344.2.453-.133 1.372-.2 1.958-.266-.44 0-1.492.013-1.718.093.173-.014.4-.053.573-.027-.533.133-1.252.2-2.117.2.16-.333-2.277-.08-2.916-.346-1.545.12-3.063-.053-4.874-.027.64.266-.519.013-.413.28-.426.013-.585.013-.612 0l-1.265-.16c-.306-.08.4-.053.36-.12-.92-.026-.387-.12-1-.186.12.093-.319.133-.838.106l.732.12c-1.278.146-1.105-.226-2.396-.08l.412-.08c-.665.054-2.45 0-3.102.213-.12-.026-.266-.106.013-.12-1.584-.026-3.528.227-4.766.094l.12-.067c-.293.013-.52.12-.893.053.014-.026.12-.066-.013-.066-.16.026-.786.12-1.185.08l.333-.08c-1.545-.08-2.37.173-3.675.226 0-.186-1.212-.253-1.824-.293l.026-.026c-1.797-.027-3.062.16-4.726.24-1.039-.214-3.516-.094-5.18-.2.253.04-.04.146-.333.173-.386-.04-1.078.133-1.012-.04h.133c-.293-.173-1.091-.133-1.73-.133l-.107.226c-1.638-.333-4.3.12-5.193-.173-.4.053-.892.053-1.278.12l.026-.12c-1.091-.027-1.637-.053-2.995-.013l.28-.094c-.76-.013-.96.36-1.665.36l-.213-.187c-1.332 0-2.69-.16-4.008.014.027-.027.066-.08.28-.093-.626 0-2.424-.12-2.197.133-.014-.16-1.372-.014-2.09.053l.106-.12c-.613.16-.626.2-1.478.24-.2-.014-.173-.094.093-.067-.666-.066-.52.12-1.332.053l.307-.08c-.693-.013-.64.027-1.012.12-.44.053-1.305-.026-1.412-.146-.093.066-.466.16-.879.12-.053-.04.094-.067.174-.08-1.159-.08-1.718.146-2.504.026-.013-.04-.066-.066-.133-.066.919 0 1.651.013 1.585.013 0-.106-.746-.133-.147-.293-.599.08-1.61.267-2.33.213a.65.65 0 0 1-.093-.04l.08-.013c-.173-.013-.32 0-.453.013-.226-.013-.373-.026-.6-.04-.079-.093-.851-.053-1.21-.053.026.12-.453.107 0 .2-.054-.013.066-.013.319-.013.053 0 .12 0 .16-.014-.014 0-.014.014-.027.014.24 0 .56 0 .919-.014-.293.067-.6.12-.999.053-.186.08-.4.16-.52.2-.505-.173-1.477-.266-1.61-.373-1.132.067-2.65.04-3.37.28-.319.027-.372-.067-.492-.107.187-.026.4-.013.506-.053-.639.053-1.904.027-2.05.187-.812-.067.452-.147-.653-.12l.147-.053c-2.184-.253-3.555.412-5.965.08.173.026.253.026.28.053-2.757-.147-5.686.133-8.403-.094-.772-.053-.852.054-1.331.134l-.173-.134-.812.147c-1.145.106-1.984-.32-3.436-.12l.187.093c-.52-.013-1.651.053-1.558-.053-.053.013-.173.093-.373.04l-.013-.067-1.278.12c-.986-.053.16-.28-1.292-.293-.533.027-1.531.2-1.331.253.213 0 .559.04.572.107l-.493.04c-.093.2-.466.412.746.558l.839-.12.266.094h-.706c.4.093.653.013.946-.04.066.053.186.093.346.106l.826-.2c.106.08-.373.16.186.2.386-.093-.373-.173.266-.24.4.094.28.174.76.094.066.053-.04.08-.227.106.426-.066 1.118-.026 1.331-.133.426.12 1.425-.026 1.385.16.133-.04.746-.146 1.132-.16-.706.227 1.451.014 1.265.266.52-.212 1.89-.093 2.81-.212-.054.013-.16.053-.24.04.519.013.665.08 1.012.12.066-.174.878-.214 1.318-.32.639.16-.386.2-.187.36-.026-.134 1.106-.134.892-.254.493.107.427.054.666.187.08-.213.453-.04.866-.173.705.106.186.2.958.133.4.186-.293.253-.293.253zm23.954-.36c-.16 0-.28.014-.373.014.08-.014.187-.014.373-.014zm1.491-.01h-.652c-.053-.041 0-.083.16-.083-.08.028.28.056.492.084zm-3.169-.854c.24-.014.32.013.347.027-.107 0-.24 0-.413.014-.013 0-.027.014-.027.014a.756.756 0 0 0 .093-.055z"/>
                <path d="M89.13 183.25c-.122 0-.163.07-.286.07.164.069.287.138.45.138l.246-.208a.428.428 0 0 0-.41 0zM224.983 183.38h-.14c.14 0 .28.07.349.07-.14 0-.14 0-.209-.07zM113.8 184.238v-.14l-.696.14zM233.126 183.806c.07.07.278.14.557.14l-.557-.14zM236.694 183.833l.696.209c-.311-.14-.531-.14-.696-.21zM239.437 184.125c.209-.14.209-.21.279-.279l-.279.279zM196.289 184.032h-.33c-.745.21-.207.14.33 0zM209.083 183.753c-.225.14-.472.209-.697.278.382.07.697.07.697-.278zM181.724 184.192h-.487.487zM207.787 183.831c.263.14.495.07.696 0-.216 0-.48-.07-.696 0zM251.327 184.009h.633c0-.07 0-.07.064-.07l-.697.07z"/>
                <path d="M251.474 183.996l.696-.07c-.316 0-.633 0-.696.07z"/>
                <path d="M252.316 183.886l-.696.14c.242.069.545.069.696-.14zM247.861 183.9l-.209.208c.07-.07.21-.14.21-.209zM246.587 184.004c.267.07.666.487 1.025.348l.04-.21c-.173.349-.812-.556-1.065-.138zM241.98 183.756l.919.168c-.16-.224-.373-.447.04-.503-1.145-.615.253.447-.959.335zM239.238 183.681c.734-.139 0-.348.04-.487-.475.209-.594.279-.04.487zM218.762 183.738l.21-.557c-1.52.07-.052.209-.21.557zM214.431 183.972l.465.418.232-.557zM212.144 183.117l.174-.07-.696.21zM177.296 183.126l.26.665c.551-.067.696-.864-.26-.665zM162.277 183.586c-.16-.348-.586-.627-.853-.209.347 0 .68.278.853.209zM117.297 183.19l.365-.209-.696.209z"/>
            </g>
            <path fill="#F2F2F2" fill-rule="nonzero" d="M49.658 214.25c-9.187 0-15.006 2.395-2.81 3.074 12.77.705 11.345 3.486 9.215 3.406-11.105-.412-8.429 2.848 1.704 3.46 10.133.612 53.034 1.45 37.841-2.369-16.284-3.247 25.951-3.127 27.948-3.22 13.502-.625-2.69-4.35-73.898-4.35z"/>
            <path fill="#D9F2FF" fill-rule="nonzero" d="M187.042 44.533c-.04.12 0 8.37 11.491 9.98 11.491 1.61 13.249 4.364 14.034 3.1 2.078-3.38-22.582-22.78-25.525-13.08z"/>
            <g fill="#A8DAE9" fill-rule="nonzero">
                <path d="M30.058 68.364l2.29-1.703c.107-.08.08-.253-.053-.306l-3.022-1.065c-.133-.053-.267.067-.227.213l.733 2.768c.04.12.186.173.28.093zM261.127 167.906l-1.957 1.224c-.093.066-.093.2.013.253l2.357 1.064a.14.14 0 0 0 .2-.16l-.4-2.288c-.013-.093-.12-.147-.213-.093z"/>
                <path d="M226.215 35.725l.946-3.7a.232.232 0 0 0-.307-.279l-4.074 1.397a.236.236 0 0 0-.067.413l3.13 2.302c.146.093.332.026.372-.133zM72.027 17.562l-2.05-1.17c-.147-.08-.333-.04-.413.106l-.24.412c-.08.146-.04.333.107.413l2.05 1.17c.147.08.333.04.413-.106l.24-.413a.29.29 0 0 0-.107-.412zM262.605 75.59l-2.157.944c-.16.066-.226.253-.16.399l.2.44c.067.159.253.225.4.159l2.157-.945c.16-.066.226-.253.16-.4l-.2-.438c-.054-.16-.24-.226-.4-.16zM23.414 170.5l-1.984 1.278a.304.304 0 0 0-.093.425l.253.413c.093.146.28.186.426.093L24 171.432a.304.304 0 0 0 .093-.426l-.253-.413a.307.307 0 0 0-.426-.093zM27.675 141.387a.866.866 0 0 1-.879.865.875.875 0 0 1-.879-.865c0-.48.387-.865.88-.865.479 0 .878.386.878.865zM120.161 49.097a.866.866 0 0 1-.879.865.875.875 0 0 1-.878-.865c0-.479.386-.865.878-.865.493 0 .88.386.88.865z" opacity=".5"/>
            </g>
            <g fill-rule="nonzero">
                <path fill="#A6E2FF" d="M68.659 181.238s-3.33-1.597-1.332-4.79c1.997-3.193 1.172-1.916 2.05-3.38 1.385-2.315-1.664-3.273-1.584-5.828.08-2.554 1.052-4.164 3.409-4.91 2.743-.878 2.93-3.818 3.848-5.828.839-1.85 5.805-6.653 6.045-.864.24 5.788-.6 6.027 1.198 6.56 1.798.532 1.132 7.53-2.117 8.116-3.249.585-2.157 4.923-1.678 6.427.666 2.075-1.89 4.79-3.754 5.242-1.865.426-6.085-.745-6.085-.745z"/>
                <path fill="#000" d="M71.282 181.717s4.82-21.489 6.271-24.03l.812-1.424c.107-.186.413-.08.32.106-3.369 6.6-6.391 23.26-6.272 25.548l-1.131-.2z" opacity=".16"/>
                <path fill="#000" d="M78.498 176.714c-.479-1.49-1.584-5.828 1.678-6.427 3.249-.585 3.915-7.584 2.117-8.116-1.797-.533-.958-.772-1.198-6.56-.053-1.277-.333-2.036-.76-2.435 0 .027-1.184 7.638.44 9.833 1.625 2.195 1.105 5.642-.106 5.841-1.199.213-4.993 1.983-4.048 6.028.945 4.045-.027 4.79-.945 5.96-.32.413-.44.72-.466.946 1.784-.719 3.888-3.167 3.288-5.07z" opacity=".08"/>
                <path fill="#71D0FF" d="M69.018 182.675a.85.85 0 0 1-.532-.399c-1.159-2.076-7.39-13.945-4.288-23.432 2.863-8.715 7.91-13.718 9.494-15.129.492-.439 1.211-.532 1.757-.173.986.652 2.01 2.781.8 9.328-2.011 10.791-4.168 19.28-2.784 22.647 1.105 2.66-.772 5.96-1.61 7.238a.927.927 0 0 1-.986.386l-1.85-.466z"/>
                <path fill="#000" d="M67.727 182.023s-3.036-26.399 4.713-35.74c.2-.24.653.094.48.346-2.184 2.994-4.568 13.253-4.74 18.921-.214 6.733.266 16.646.266 16.646l-.72-.173z" opacity=".16"/>
                <path fill="#A6E2FF" d="M120.614 182.622s-1.811-5.203-6.83-5.256c-5.02-.053-2.504 4.684-8.829 3.127-6.324-1.557-2.583-13.745-13.954-14.011-9.174-.213-6.43 6.373-10.798 5.815-5.446-.706-2.45 5.974-7.11 5.974-4.048 0-7.55 2.528-7.55 4.83l55.07-.48z"/>
            </g>
            <g fill-rule="nonzero">
                <path fill="#3EC1FF" d="M219.531 181.53s-1.584.64-5.566 1.598c-3.98.958-5.832 3.805 1.452 3.965 7.283.16 17.722.319 13.541 1.423-4.18 1.105-5.779 3.18 4.86 3.02 10.639-.159 21.091.546 16.045-2.261-5.047-2.808-10.44-2.728-10.44-2.728s-12.675-2.807-3.74-2.874c8.934-.066-8.895-4.311-16.152-2.142z" opacity=".16"/>
                <path fill="#A7E3FF" d="M156.71 182.436s1.2-13.493 11.159-13.599c9.946-.106 7.363 12.468 19.892 9.394 12.53-3.074 16.67-11.03 26.311-10.272 9.64.758 13.035 12.361 21.557 10.458 3.981-.891 6.072-4.604 15.312-4.604 8.016 0 14.966 5.003 14.966 9.58l-109.196-.957z"/>
                <path fill="#71D1FF" d="M229.158 186.015a.677.677 0 0 0 .493-.146c1.384-1.171 9.04-7.997 9.36-15.608.293-7-1.997-11.922-2.756-13.36-.24-.439-.733-.705-1.212-.598-.892.2-2.184 1.45-3.076 6.453-1.451 8.25-2.183 14.903-4.087 16.939-1.505 1.61-1.052 4.47-.786 5.615a.678.678 0 0 0 .6.532l1.464.173z"/>
                <path fill="#000" d="M227.88 179.708c1.904-2.036 2.623-8.689 4.087-16.939.04-.186.067-.359.107-.545.013.2.32 7.664-.506 9.474-.573 1.264-1.798 5.229-2.29 6.866a4.824 4.824 0 0 0-.213 1.37c-.027 1.29-.213 4.072-1.145 4.817-.2.16-.613.492-.826.466-.293-1.185-.679-3.939.786-5.51z" opacity=".08"/>
                <path fill="#000" d="M228.878 185.988s9.254-18.056 6.205-26.811c-.08-.213-.493-.107-.44.12.76 2.727-.279 10.698-1.677 14.796-1.651 4.87-4.647 11.829-4.647 11.829l.56.066z" opacity=".16"/>
                <g>
                    <path fill="#3EC1FF" d="M221.728 144.46c-4.554.094-1.877 6.653-3.222 8.05-1.345 1.398-2.663-2.887-5.1-.359-2.516 2.608 5.513 8.223 4.008 9.78-1.505 1.57-2.317-1.344-4.14.546-2.438 2.515 5.258 8.582 3.634 10.259-1.611 1.676-3.209-2.648-4.847-.945-1.637 1.703 2.903 14.09 10.466 13.944 7.576-.146 11.557-12.64 9.853-14.277-1.704-1.636-2.703 2.302-4.38.692-1.678-1.61 5.299-7.504 2.862-10.02-1.824-1.889-2.596 1.118-4.154-.385-1.571-1.504 6.231-7.438 3.622-9.94-2.29-2.182-3.675 1.903-5.073.56-1.399-1.331 1.012-7.998-3.529-7.904z"/>
                    <path fill="#000" d="M228.932 164.167c-.693-.692-4.767 4.47-6.085 6.174-.08-2.781-.174-5.216-.24-6.507-.08-1.33-.027-3.327.027-5.495 5.232-3.606 5.698-5.403 4.713-4.351-.732.798-3.409 2.554-4.687 3.38.093-3.992.12-8.344-.706-10.273-.133-.306-.625-.213-.585.12.266 2.036.452 6.08.585 10.591l.04 1.437c-1.051-.785-3.635-2.754-4.407-3.592-.959-1.038-.532.678 4.42 4.151.094 3.446.147 7.026.2 10.113-1.398-1.477-6.124-6.347-6.75-5.589-.24.28.865-.213 6.737 6.32l.013-.013c.054 3.34.08 6.001.12 7.079.173 5.136-.253 8.037-.253 8.037l1.172.133s-.186-8.13-.373-14.73c5.18-7.105 6.325-6.733 6.059-6.985z" opacity=".16"/>
                </g>
                <path fill="#3EC1FF" d="M231.887 189.275s.573-4.218 3.582-4.271c0-.572.213-3.54 3.622-3.54 2.836 0 3.156 2.808 3.156 2.808s2.423.32 2.57 2.209c.16 1.89 2.156.053 2.156 2.807h-15.086v-.013z"/>
            </g>
            <g fill="#3EC1FF" fill-rule="nonzero">
                <path d="M40.51 197.498c-2.636.705-3.634 1.996 3.063 1.903 6.698-.093 13.262.346 10.093-1.424-3.17-1.77-6.564-1.717-6.564-1.717s-3.955.546-6.591 1.238z" opacity=".24"/>
                <path d="M42.348 197.977s.36-2.661 2.25-2.688c0-.36.134-2.222 2.277-2.222 1.784 0 1.984 1.77 1.984 1.77s1.518.2 1.625 1.384c.093 1.184 1.358.026 1.358 1.77h-9.494v-.014z"/>
            </g>
            <g fill-rule="nonzero">
                <path fill="#70D1FF" d="M30.178 184.578c-.253 0-.466-.015-.825.016-.2.015-.32.155-.067.233.506.124 1.997.03 1.252.155-.746.124-.373.574 2.77.015 2.729-.496-1.772-.388-3.13-.419z" opacity=".24"/>
                <path fill="#A7E3FF" d="M33.933 184.71c.027 0 .04-.012.04-.039-.013-.24-.08-1.424-.386-1.45-.413-.027-.226.612-.573.798-.306.173-.373-1.783-.519-2.209-.12-.386-.772-.811-.879 1.757-.026.731-.426.532-.559.252-.08-.173-.12-.346-.2-.518-.066-.16-.24-.36-.412-.28-.253.107-.493.4-.44 1.317v.333c0 .027.013.04.04.04h3.888z"/>
            </g>
            <g fill-rule="nonzero">
                <path fill="#70D1FF" d="M136.778 197.352c-.386 0-.705-.014-1.251.026-.307.027-.48.213-.094.293.76.173 2.996.04 1.878.213-1.119.173-.56.745 4.154.013 4.114-.652-2.65-.506-4.687-.545z" opacity=".24"/>
                <path fill="#A7E3FF" d="M142.424 197.551a.057.057 0 0 0 .053-.053c-.013-.346-.12-2.129-.586-2.169-.626-.04-.346.905-.865 1.198-.466.252-.56-2.675-.773-3.3-.186-.572-1.158-1.211-1.318 2.621-.04 1.104-.639.798-.839.373-.133-.267-.173-.52-.292-.785-.107-.24-.36-.533-.626-.426-.386.16-.746.598-.653 1.969v.506c0 .026.027.053.054.053h5.845v.013z"/>
            </g>
            <g fill-rule="nonzero">
                <path fill="#FFF" d="M203.313 183.088H95.235V20.396c0-5.296 4.288-9.58 9.587-9.58h88.905c5.299 0 9.586 4.284 9.586 9.58v162.692z"/>
                <path fill="#0091D6" d="M203.313 35.392H95.235V20.396c0-5.296 4.288-9.58 9.587-9.58h88.905c5.299 0 9.586 4.284 9.586 9.58v14.996z"/>
                <path fill="#3EC1FF" d="M178.388 29.165h-70.503a3.187 3.187 0 0 1-3.196-3.194v-5.335a3.187 3.187 0 0 1 3.196-3.194h70.503a3.187 3.187 0 0 1 3.195 3.194v5.335a3.195 3.195 0 0 1-3.195 3.194z"/>
                <path fill="#71D1FF" d="M178.388 29.165H167.27V17.442h11.118a3.187 3.187 0 0 1 3.195 3.194v5.335a3.195 3.195 0 0 1-3.195 3.194z"/>
                <g fill="#3EC1FF">
                    <path d="M190.371 26.544c-.146-.067-.306.026-.333.186-.066.572.187 1.104.666 1.33.48.227 1.065.067 1.451-.346a.236.236 0 0 0-.08-.372l-1.704-.798zM194.645 26.956l-.532-1.863c-.014-.093 0-.2.04-.293l.759-1.69a2.789 2.789 0 0 0-.972-3.419l.266-.586c.106-.252.013-.532-.213-.638-.226-.107-.506.013-.613.266l-.266.585c-1.291-.292-2.636.333-3.195 1.57l-.76 1.69a.47.47 0 0 1-.2.227l-1.743.838a.562.562 0 0 0-.267.505c.014.2.147.386.333.466l6.578 2.927c.186.08.413.054.572-.066.173-.12.24-.32.213-.519z"/>
                </g>
                <g fill="#3EC1FF">
                    <path d="M171.69 22.632a.324.324 0 0 1-.32-.32V20.81a.83.83 0 0 1 .826-.825h1.505c.173 0 .32.146.32.319 0 .173-.147.32-.32.32h-1.505a.176.176 0 0 0-.173.172V22.3c-.013.186-.16.333-.333.333zM177.695 22.632a.324.324 0 0 1-.32-.32V20.81a.176.176 0 0 0-.172-.173h-1.505a.324.324 0 0 1-.32-.32c0-.173.147-.319.32-.319h1.505a.83.83 0 0 1 .825.825v1.504a.344.344 0 0 1-.333.306zM173.688 26.637h-1.505a.83.83 0 0 1-.826-.825v-1.504c0-.186.147-.32.32-.32.173 0 .32.147.32.32v1.504c0 .093.08.173.173.173h1.504c.173 0 .32.146.32.319 0 .173-.12.333-.306.333zM177.19 26.637h-1.505a.324.324 0 0 1-.32-.32c0-.173.147-.319.32-.319h1.504c.094 0 .173-.08.173-.173v-1.504c0-.186.147-.319.32-.319.173 0 .32.146.32.32v1.503c.013.44-.36.812-.813.812zM178.055 23.687h-6.724c-.16 0-.307-.151-.307-.348 0-.197.134-.348.307-.348h6.724c.16 0 .306.151.306.348 0 .197-.146.348-.306.348z"/>
                </g>
                <path fill="#0091D6" d="M114.729 25.785l-1.319-1.317c.333-.426.533-.945.533-1.53a2.48 2.48 0 0 0-2.477-2.475 2.48 2.48 0 0 0-2.476 2.475 2.471 2.471 0 0 0 2.476 2.474c.573 0 1.106-.2 1.532-.532l1.318 1.318c.053.053.133.08.2.08.08 0 .146-.027.2-.08.132-.12.132-.306.013-.413zm-5.1-2.847c0-1.025.825-1.85 1.85-1.85 1.026 0 1.852.825 1.852 1.85 0 1.024-.826 1.85-1.851 1.85a1.846 1.846 0 0 1-1.851-1.85z"/>
                <path fill="#D9F2FF" d="M144.315 44.866h-38.121a1.503 1.503 0 1 1 0-3.007h38.12c.84 0 1.505.678 1.505 1.503 0 .825-.679 1.504-1.504 1.504zM126.393 51.931h-20.2a1.503 1.503 0 1 1 0-3.007h20.213c.839 0 1.504.679 1.504 1.504 0 .838-.679 1.503-1.517 1.503zM167.35 51.931h-35.272a1.503 1.503 0 1 1 0-3.007h35.272c.838 0 1.504.679 1.504 1.504 0 .838-.666 1.503-1.504 1.503zM141.092 165.963h-13.168a1.503 1.503 0 1 1 0-3.007h13.168a1.503 1.503 0 1 1 0 3.007zM172.143 165.963h-25.378a1.503 1.503 0 1 1 0-3.007h25.378c.839 0 1.505.678 1.505 1.503.013.825-.666 1.504-1.505 1.504zM193.82 157.593h-87.214a2.136 2.136 0 0 1-2.13-2.128v-8.876c0-1.17.959-2.128 2.13-2.128h87.227c1.172 0 2.13.958 2.13 2.128v8.876a2.147 2.147 0 0 1-2.143 2.128z"/>
            </g>
            <g fill-rule="nonzero" transform="translate(128.59 81.377)">
                <path fill="#A6E2FF" d="M35.724 33.544l-5.805-5.801c-.04-.04-.08-.067-.107-.107a16.506 16.506 0 0 0 3.356-9.992c0-9.142-7.417-16.553-16.564-16.553C7.456 1.091.04 8.502.04 17.644c0 9.14 7.416 16.552 16.564 16.552 4.048 0 7.762-1.45 10.639-3.859l.04.04 5.805 5.802a1.866 1.866 0 0 0 2.636 0 1.854 1.854 0 0 0 0-2.635z"/>
                <path fill="#71D0FF" d="M10.985 22.339c.333 0 .666.146.879.426 1.584 1.982 3.275 2.98 5.02 2.993h.026c3.063 0 5.512-2.967 5.54-2.993a1.124 1.124 0 0 1 1.584-.16c.479.399.559 1.104.173 1.583-.133.16-3.143 3.846-7.297 3.846h-.013c-2.477 0-4.767-1.304-6.804-3.846a1.133 1.133 0 0 1 .173-1.583c.213-.186.466-.266.719-.266z"/>
                <ellipse cx="9.826" cy="13.718" fill="#71D0FF" rx="1.917" ry="1.916"/>
                <ellipse cx="23.621" cy="13.718" fill="#71D0FF" rx="1.917" ry="1.916"/>
                <g fill="#D9F2FF">
                    <path d="M33.62 5.708a.475.475 0 0 1 .16-.213L40.145.24c.213-.16.52-.12.679.093.16.213.12.519-.093.678l-6.365 5.256a.487.487 0 0 1-.679-.093c-.107-.12-.12-.306-.067-.466zM34.699 9.673a.545.545 0 0 1 .373-.306l4.367-.851a.475.475 0 0 1 .56.399.475.475 0 0 1-.4.559l-4.367.851a.475.475 0 0 1-.56-.399.55.55 0 0 1 .027-.253zM32.05.213a.483.483 0 0 1 .532-.053c.24.12.333.412.213.652l-.799 1.73a.486.486 0 0 1-.865-.44l.798-1.73c.027-.066.08-.12.12-.16z"/>
                </g>
            </g>
            <path fill="#0091D6" fill-rule="nonzero" d="M169.653 35.392c.053 8.223.533 17.817 7.044 24.922 27.575 30.151-26.39 53.45-28.135 89.562-1.358 28.169-14.22 33.558-14.22 33.558h68.985V35.392h-33.674z" opacity=".04"/>
            <path fill="#000" fill-rule="nonzero" d="M203.313 35.392V20.396s-.293-8.995-9.586-9.58H152.21s-.08 6.067 11.691 7.624c5.885.772 5.699 8.53 5.739 16.965h33.673v-.013z" opacity=".04"/>
            <g fill-rule="nonzero" transform="translate(108.883 45.451)">
                <ellipse cx="11.833" cy="11.917" fill="#FFF" opacity=".16" rx="8.056" ry="8.636" transform="rotate(-46.005 11.833 11.917)"/>
                <ellipse cx="16.059" cy="12.486" fill="#87C23F" rx="1" ry="1" transform="rotate(-46.005 16.059 12.486)"/>
                <path fill="#87C23F" d="M16.47 9.62c.174.466.12 1.73-.532 1.45-.652-.279-.306-2.009-2.277-2.834-.759-.24-.652-1.583.906-.745 1.158.612 1.597 1.33 1.904 2.13z"/>
            </g>
            <path fill="#87C23F" fill-rule="nonzero" d="M133.822 67.592l-5.419-5.016c-.013-.013-.027-.027-.053-.04a9.258 9.258 0 0 0 1.598-4.138 9.178 9.178 0 0 0-1.878-6.866 9.175 9.175 0 0 0-6.178-3.526c-5.086-.652-9.747 2.967-10.399 8.05-.652 5.083 2.97 9.74 8.056 10.392.4.053.799.08 1.198.08a9.29 9.29 0 0 0 5.672-1.943c.04-.026.08-.066.12-.093l.053.053 5.42 5.017a1.325 1.325 0 0 0 1.877-.067 1.357 1.357 0 0 0-.067-1.903zm-9.04-5.123a6.607 6.607 0 0 1-4.9 1.331c-3.635-.466-6.205-3.792-5.74-7.411.427-3.34 3.29-5.788 6.578-5.788.28 0 .56.013.84.053a6.595 6.595 0 0 1 4.406 2.515 6.596 6.596 0 0 1 1.332 4.896 6.515 6.515 0 0 1-2.517 4.404z"/>
            <g fill-rule="nonzero">
                <path fill="#C6EDFF" d="M242.912 132.352h-46.975a4.255 4.255 0 0 1-4.26-4.258V68.178a4.255 4.255 0 0 1 4.26-4.258h46.975a4.255 4.255 0 0 1 4.261 4.258v59.916a4.255 4.255 0 0 1-4.26 4.258z"/>
                <path fill="#A7E3FF" d="M242.912 132.352h-46.975a4.255 4.255 0 0 1-4.26-4.258v-27.343h55.496v27.343a4.255 4.255 0 0 1-4.26 4.258z"/>
                <path fill="#3EC1FF" d="M230.303 106.725h-33.035a.21.21 0 0 1-.213-.213v-1.21a.21.21 0 0 1 .213-.214h33.035a.21.21 0 0 1 .213.213v1.211a.219.219 0 0 1-.213.213z"/>
                <path fill="#C6EDFF" d="M241.008 110.677h-43.753a.21.21 0 0 1-.213-.213v-1.21a.21.21 0 0 1 .213-.214h43.753a.21.21 0 0 1 .213.213v1.21a.219.219 0 0 1-.213.214zM224.231 114.083h-26.963a.21.21 0 0 1-.213-.213v-1.21a.21.21 0 0 1 .213-.213h26.963a.21.21 0 0 1 .213.212v1.211a.21.21 0 0 1-.213.213z"/>
                <path fill="#3EC1FF" d="M223.38 127.975h-25.26a1.068 1.068 0 0 1-1.065-1.065v-3.992c0-.585.48-1.064 1.066-1.064h25.258c.586 0 1.065.479 1.065 1.064v3.992c0 .585-.479 1.065-1.065 1.065z"/>
            </g>
            <g transform="translate(191.57 63.813)">
                <mask id="f" fill="#fff">
                    <use xlink:href="#e"/>
                </mask>
                <path fill="#3EC1FF" fill-rule="nonzero" d="M34.965.106s1.292 2.01 5.779 1.916c4.474-.093 10.026-1.01 10.24 9.461.212 10.472-4.475 31.309 1.277 37.948 5.766 6.64-.12 16.087-12.968 15.409-12.85-.679-24.314 6.4-24.314 6.4l40.638 3.592 13.381-3.406-.825-47.848-9.28-29.22L34.964.106z" mask="url(#f)" opacity=".12"/>
            </g>
            <g fill-rule="nonzero">
                <path fill="#F2F2F2" d="M184.872 190.206c-5.113-.04-6.95 1.69-1.984 1.717 16.391.08 23.501.519 20.905-.905-1.944-1.065-11.784-.758-18.92-.812z"/>
                <path fill="#F1F1F1" d="M200.318 190.047a.59.59 0 0 0 .346-.626c-.28-1.596-.653-2.288-1.651-3.712-.533-.759-1.758-1.29-1.824-2.302-.027-.492.026-2.967.066-3.553.04-.625-1.025-.292-1.331-.226-.2.053-.04 2.568.133 4.018.106.919.652.919 1.69 2.396.92 1.317 1.545 2.222 1.772 3.566.053.319.346.518.665.465a.394.394 0 0 0 .134-.026z"/>
                <path fill="#ABE1FA" d="M200.664 189.409s-.6-.099-1.132.21c0 0 .027.423.093.465.053.043 1.052-.169 1.052-.169s.173-.042-.013-.506z"/>
                <path fill="#7ACEF4" d="M200.704 189.807c.026-.013.053 0 .066.013.08.107.333.44.373.719.04.346-1.678.971-2.024 1.038-.346.066-1.185-.719.44-1.57.013-.014.04-.014.053-.014.093.014.453.054 1.092-.186z"/>
                <path fill="#F1F1F1" d="M193.1 190.778a.57.57 0 0 0 .56-.452c.373-1.583.24-3.54-.133-5.23-.2-.904.013-4.217-.16-4.683-.106-.293-.945-.213-1.252-.266-.2-.027-.372 3.486.014 5.243.346 1.57.732 3.34.413 4.67-.067.306.12.625.426.692a.264.264 0 0 0 .133.026z"/>
                <path fill="#ABE1FA" d="M193.66 190.34s-.52-.32-1.118-.267c0 0-.134.386-.094.44.04.053 1.039.265 1.039.265s.186.027.173-.439z"/>
                <path fill="#7ACEF4" d="M193.554 190.712c.026 0 .053.013.053.04.04.133.133.532.066.811-.093.333-1.917.24-2.263.173-.346-.066-.812-1.117 1.012-1.277.026 0 .04 0 .053.013.08.04.4.213 1.079.24z"/>
                <path fill="#98C254" d="M192.502 156.236l.479-5.655a.454.454 0 0 1 .2-.292l2.237-1.158.759.066s1.877 1.464 1.864 1.464c.013.013.053.04.053.04.093.08.146.213.146.333v.066l-.479 5.575-5.26-.439z"/>
                <path fill="#9CBC53" d="M195.178 147.56a.671.671 0 0 1 .679-.425.666.666 0 0 1 .6.532s1.051-.545.785.067c-.173.412-.52.838-.733 1.09 0 0-1.264.014-1.624-.132-.16-.293-.4-.785-.506-1.184-.133-.626.72 0 .799.053"/>
                <path fill="#51AE63" d="M193.327 148.971c.04-.545.213-1.184.213-1.184l1.638.852a.735.735 0 0 1 .52-.213c.252 0 .465.106.612.28l1.704-.6s.133.719.093 1.264c-.04.56-.266 1.131-.266 1.131l-1.531-.811a.733.733 0 0 1-.586.28.757.757 0 0 1-.693-.387l-1.664.6s-.08-.653-.04-1.212"/>
                <path fill="#D73089" d="M194.952 157.58c-3.316-.093-6.445-.186-7.87-.226h-.053c-.026 0-.053 0-.066.013l-.666-2.342a.538.538 0 0 1 .373-.665l7.216-2.049c.28-.08.586.08.666.373l1.398 4.923c-.346 0-.679-.014-.998-.027"/>
                <path fill="#E9973E" d="M190.398 157.447l-1.172-3.765 2.077-.586 1.372 4.43c-.8-.026-1.571-.052-2.277-.079"/>
                <path fill="#E9973E" d="M186.976 152.59c-.2.373-.12.626-.013.772.452.626 2.236.346 2.77.253h.026c.133.213.4.333.665.253a.6.6 0 0 0 .427-.52c.559-.172 2.183-.744 2.29-1.49.026-.186-.014-.438-.373-.678a1.01 1.01 0 0 0-.346-.16c-1.012-.266-1.665 1.158-1.891 1.757a.587.587 0 0 0-.799.226c-.44-.4-1.73-1.45-2.53-.732-.08.093-.16.2-.226.32m5.472-.626c-.226.173-.639.44-1.251.679.266-.572.679-1.185 1.078-1.078a.38.38 0 0 1 .187.106c.066.067.08.227-.014.293m-5.033 1.078c-.053-.067 0-.226.173-.346.307-.28.96.08 1.465.466-.812.08-1.478.093-1.638-.12M205.164 157.9c-.053-.014-.106-.014-.16-.014-1.717-.04-5.951-.173-10.066-.293-.093 0-.173 0-.266-.013l.799-4.218a.514.514 0 0 1 .599-.412l9.16 1.73c.28.053.467.319.414.598l-.48 2.622z"/>
                <path fill="#FFF" d="M198.393 152.49l-.14-.14c0 .07.07.14.14.14"/>
                <path fill="#D93931" d="M198.174 157.687l.799-4.218 3.328.625-.705 3.686c-1.039-.027-2.197-.067-3.422-.093"/>
                <path fill="#D93931" d="M198 151.247c-.439.24-.519.532-.505.758.04.905 1.957 1.783 2.543 2.036l.146.066a.59.59 0 0 0 .387.266.582.582 0 0 0 .466-.12h.16c.638 0 2.756-.08 3.142-.89.093-.187.133-.506-.173-.892a1.78 1.78 0 0 0-.333-.306c-1.026-.626-2.21.678-2.69 1.29a.562.562 0 0 0-.732-.146c-.213-.772-.8-2.382-1.97-2.209-.147.027-.294.08-.44.147m5.645 1.929c-.146.2-.812.32-1.757.4.492-.546 1.171-1.105 1.584-.852.053.04.12.093.173.16a.26.26 0 0 1 0 .292m-3.98-.027c-.84-.425-1.479-.918-1.492-1.144 0-.04.066-.093.16-.146a.852.852 0 0 1 .213-.08c.479-.08.878.678 1.118 1.37"/>
                <path fill="#F1F1F1" d="M182.063 174.399c-.573 0-1.172-.16-1.785-.48a.576.576 0 0 1-.253-.77c.147-.28.493-.4.773-.254.812.413 1.518.453 2.143.12 1.865-.985 2.73-5.03 2.916-6.493a.579.579 0 0 1 .64-.506c.32.04.545.32.506.639-.027.24-.746 5.908-3.516 7.385-.452.24-.932.359-1.424.359z"/>
                <g transform="translate(184.646 156.955)">
                    <path fill="#7ACEF4" d="M21.597.958L1.345.013a.924.924 0 0 0-.959 1.038C.826 4.285 1.877 14.104.04 22.713a.916.916 0 0 0 .892 1.105h22.25c.16 0 .266-.16.212-.306-.545-1.49-2.663-8.357-.932-21.516a.923.923 0 0 0-.865-1.038z"/>
                    <path fill="#C7EAFB" d="M12.942 11.989h-.04c-3.209-.333-6.178-.493-8.828-.493a.392.392 0 0 1-.4-.399c0-.226.174-.399.4-.399 2.677 0 5.673.173 8.908.506a.412.412 0 0 1 .36.439c-.014.2-.187.346-.4.346z"/>
                    <path fill="#7ACEF4" d="M19.92 22.74c.532-.998.958 1.038 2.316 1.09H16.99s2.397-.092 2.93-1.09z"/>
                    <path fill="#1B91D0" d="M16.91.745c.892.04 3.622.186 3.795.2l1.118.053c.36.04.693.572.64.998-1.505 11.443-.107 18.123.652 20.65.173.586.56 1.172-.053 1.172-1.359-.054-3.076-2.768-3.449-1.704-.493 1.37-1.651 1.664-2.343 1.717a.532.532 0 0 1-.573-.519c-.16-3.446-1.172-22.633.213-22.567z" opacity=".12"/>
                    <path fill="#010101" d="M22.915 23.83c-.679 0-2.53-1.955-3.009-1.955-.36 0-.386.665-.746 1.051-.785.838-1.624.905-1.624.905h5.38z" opacity=".08"/>
                    <ellipse cx="12.223" cy="7.757" fill="#C7EAFB" rx="1" ry="1"/>
                    <ellipse cx="4.567" cy="7.012" fill="#C7EAFB" rx="1" ry="1"/>
                </g>
                <g>
                    <path fill="#7ACEF4" d="M184.774 179.681c.209-.16.348-.332.557-.492v1.131c-.557-.186-.835-.412-.557-.639z"/>
                    <path fill="#1B91D0" d="M195.43 180.786h-9.852a.913.913 0 0 1-.8-.466v-1.131c1.705-8.476.68-18.003.24-21.17a.917.917 0 0 1 .96-1.038l5.924.253c-.213.266-.852.945-1.65.945-1 0-2.49-.32-2.783.612-1.066 3.34 6.777 8.157 4.473 12.268-2.303 4.112-2.73 6.307 1.252 6.307 1.837 0 3.435.878 4.54 1.756" opacity=".08"/>
                </g>
                <path fill="#F1F1F1" d="M179.52 174.066c-.12-.28-.014-1.09.625-.865.6.213.253-.386.946-.559.492-.133.799 1.105.519 1.73-.226.52-1.93.08-2.09-.306z"/>
                <path fill="#FFF" d="M209.145 181.358c-.213.226-.998.439-1.038-.226-.053-.639-.453-.08-.892-.639-.32-.4.692-1.171 1.384-1.171.56 0 .84 1.73.546 2.036z"/>
                <g fill="#1B91D0" opacity=".16">
                    <path d="M204.618 167.427a1.381 1.381 0 0 0-.586-.267c-.2-.026-.412 0-.426.253-.013.493-.013.839.32 1.384.333.532.999-.08 1.305 1.118.306 1.184.386 1.144.958 1.25.267.094.36.746.36.746l-.213-3.127-1.718-1.357z"/>
                </g>
                <path fill="#FFF" d="M208.546 180.214c.306-.027.52-.293.52-.6 0-5.854-1.012-9.7-2.996-11.442-.946-.825-1.825-.892-2.144-.879a.113.113 0 0 0-.107.134l.107.918a.144.144 0 0 0 .106.106c.213.013.733.093 1.332.639 1.158 1.064 2.543 3.752 2.543 10.551a.593.593 0 0 0 .64.573z"/>
                <g transform="translate(171.33 160.414)">
                    <ellipse cx="4.181" cy="4.205" fill="#F3FAFE" opacity=".29" rx="4.101" ry="4.098" transform="translate(.799 .798)"/>
                    <path fill="#7ACEF4" d="M4.98 9.9a4.61 4.61 0 0 1-1.465-.227C.932 8.862-.519 6.094.293 3.513 1.105.93 3.875-.52 6.458.293c2.583.811 4.034 3.579 3.222 6.16C9.028 8.556 7.07 9.9 4.98 9.9zm0-8.57A3.659 3.659 0 0 0 1.49 3.886a3.655 3.655 0 0 0 2.397 4.578c1.917.598 3.981-.466 4.58-2.396A3.655 3.655 0 0 0 6.072 1.49a3.804 3.804 0 0 0-1.092-.16z"/>
                    <circle cx="7.81" cy="5.876" r="1" fill="#DBF1FD"/>
                    <path fill="#DBF1FD" d="M8.069 3.939c.093.292 0 1.09-.4.904-.399-.186-.106-1.264-1.304-1.783-.466-.146-.333-.998.612-.465.692.386.932.825 1.092 1.344z"/>
                    <path fill="#7ACEF4" d="M9.32 14.13a.906.906 0 0 1-1.171-.478L6.378 9.447a.905.905 0 0 1 .48-1.17.906.906 0 0 1 1.171.478l1.77 4.205a.905.905 0 0 1-.478 1.17z"/>
                </g>
            </g>
            <g>
                <g fill-rule="nonzero">
                    <path fill="#F5A74F" d="M130.534 69.402s3.208-1.557 2.17-5.376c-1.039-3.805-6.75.48-4.34 4.192 1.544 2.381-3.463 4.976-3.463 4.976.267 3.486 5.633-3.792 5.633-3.792z"/>
                    <path fill="#5E564B" d="M76.222 131.873h-17.95s-2.183 15.781 16.205 16.566c18.388.772 18.601-16.566 18.601-16.566H76.222z"/>
                    <g transform="translate(40.178 35.871)">
                        <path fill="#84564A" d="M66.682 19.307l.08.24c.252.798.972 3.432.16 5.521-.853 2.183-3.41 3.753-9.947 1.956l.28-1.29s6.124 1.942 6.178-1.225c.04-2.355-1.172-3.459-1.172-3.459l4.42-1.743z"/>
                        <path fill="#2D2A29" d="M66.762 19.546c.252.799.972 3.433.16 5.522 0 0-1.053-.971-.453-1.596.599-.626.32-1.358-.44-1.93-.759-.572-.08-1.49-.08-1.49s.346-.373.813-.506z" opacity=".25"/>
                        <path fill="#C48F6B" d="M66.988 19.666l-4.567 1.796a.477.477 0 0 1-.613-.266.477.477 0 0 1 .267-.612l4.567-1.796c.24-.093.519.027.612.266a.482.482 0 0 1-.266.612z"/>
                        <path fill="#F5A74F" d="M66.07 29.5s.838-3.46-2.77-5.084c-3.609-1.623-3.928 5.509.479 6.015 2.823.332 1.651 5.84 1.651 5.84 2.836 1.997.64-6.772.64-6.772z"/>
                        <ellipse cx="43.061" cy="20.132" fill="#ECA652" rx="12.503" ry="12.494"/>
                        <path fill="#443D36" d="M49.718 98.57s5.26 11.15 1.944 43.018c-3.315 31.868-3.821 30.737-3.821 30.737h-5.3S34.22 122.4 24.992 107.499l24.726-8.929z"/>
                        <path fill="#2D2A29" d="M46.882 124.876s2.703 9.993 0 14.597c-2.703 4.603-3.488 7.291-2.703 10.471.8 3.167-4.194 9.048-4.194 9.048L33.86 124.89h13.022v-.013z" opacity=".25"/>
                        <path fill="#5E564B" d="M27.815 172.325h-7.603c.293-.48.586-.971.866-1.464 8.175-14.61.665-35.087-1.452-48.353-1.371-8.596-3.182-14.477-3.182-14.477l28.814-.532c6.537 35.526-17.443 64.826-17.443 64.826z"/>
                        <path fill="#2D2A29" d="M36.603 138.82c-7.283 8.889-5.739 9.914-4.62 14.97 1.305 5.841-5.606 6.72-5.42 10.605.16 3.353-4.087 6.905-5.432 7.93-.213.16-.346.253-.346.253s.013-.093.04-.253c.04-.28.12-.785.226-1.464 8.175-14.61 1.092-34.342-1.025-47.608 2.423-6.148 14.42-2.728 14.42-2.728s8.961 9.993 2.157 18.296z" opacity=".25"/>
                        <path fill="#84564A" d="M69.025 42.326a14.692 14.692 0 0 1-.52 3.18 13.87 13.87 0 0 1-.638 1.81c-2.157 5.016-7.004 8.795-12.716 11.097-.493.2-.985.386-1.491.559-3.45 1.21-7.124 1.916-10.68 2.049-3.874.146-7.575-.373-10.625-1.623a16.543 16.543 0 0 1-1.624-.772c-11.45-6.24-2.97-16.766 6.245-16.859a11.3 11.3 0 0 1 3.116.386c.173.04.332.093.492.147.706.226 1.398.439 2.064.625a61.744 61.744 0 0 0 5.925 1.437c1.372.253 2.623.426 3.782.506 1.225.093 2.343.106 3.342.04 8.535-.546 9.24-6.52 8.375-11.044a18.997 18.997 0 0 0-.72-2.688c.92-.36 2.264-.839 3.263-1.051.546.731 1.052 1.676 1.465 2.874.732 2.195 1.158 5.202.945 9.327z"/>
                        <path fill="#A8715E" d="M66.855 31.429c-.88.372-2.277.785-3.223.878-.492.04-.865 0-.972-.187-.412-.745-1.105-1.77-.479-2.075 0 0 .36-.187.866-.426.745-.36 1.824-.838 2.623-1.051.492-.133.892-.173 1.038-.027.573.572.773 1.916.959 2.342.053.106-.28.32-.812.546z"/>
                        <path fill="#F3911F" d="M55.164 16.526s1.225 3.26-3.568 4.165c-8.642 1.623-7.177 10.245-11.078 11.682-2.33.865-3.236-3.765-6.471-8.396-3.223-4.63-3.263-1.41-4.434-4.883-1.758-5.203 25.551-2.568 25.551-2.568z"/>
                        <path fill="#925B4A" d="M55.031 124.796c-.013.093 1.758 5.722-5.712 5.243-4.168-.266-11.478-4.258-18.202-2.848-10.905 2.289-25.724 4.844-30.158-1.796-5.1-7.65 14.726-9.088 18.508-38.108 1.038-8.01.253-17.804.332-19.613.6-13.4 2.743-20.505 6.059-28.568 1.584-3.859 4.048-5.389 6.378-5.881 2.942-.612 6.364 1.996 8.015 4.497 1.159 1.757 1.851 3.872 3.25 5.496 36.323 42.113 14.406 60.342 11.53 81.578z"/>
                        <path fill="#1CACA3" d="M51.37 18.695c-6.978 2.009-8.562-.506-7.59 5.202.958 5.709-1.199-1.264-3.369-3.765 0 0-2.41-.12-1.837 2.634.173.839.492 1.384.865 1.743.866 1.052 1.798.68 1.878.652v.027c.013.186.093 1.317.08 2.648-.014 1.783-.187 3.912-.88 4.537-1.065.958-12.476-4.55-11.703-14.37v-.027l.04-.425v-.014c.186-1.65.719-3.42 1.704-5.282 6.99-13.36 23.847-4.99 24.3-2.249.453 2.741 3.488 6.693-3.489 8.689z"/>
                        <path fill="#2D2A29" d="M35.538 24.576c-1.398-.812-1.385-3.02-2.89-3.726-2.356-1.104-3.595-1.743-3.768-3.645l.16-.945c.426-2.794 11.358 3.885 11.358 3.885s-2.41-.12-1.838 2.635c.173.838.493 1.384.866 1.743.865 1.051 1.797.678 1.877.652v.026c.014-.013-3.249.839-5.765-.625z" opacity=".06"/>
                        <path fill="#A8715E" d="M34.22 5.748c-2.117.799-3.928 2.275-5.073 4.231-1.052 1.81-1.705 4.218-.08 6.693 3.249 4.937 25.312 8.436 28.507-2.74C60.011 5.361 43.82 2.115 34.22 5.747z"/>
                        <path fill="#925B4A" d="M53.98 13.559a2.946 2.946 0 0 0 .878-3.54c-1.465-3.26-6.445-7.85-13.968-6.693C30.305 4.963 28.587 14.011 30.08 17.258c1.411 3.087 13.022 4.79 23.9-3.7z"/>
                        <path fill="#A8715E" d="M39.492 3.593s-4.394 7.77-3.555 16.14c0 0 7.896.678 13.661-3.367 0 0 .733-7.797-10.106-12.773z"/>
                        <path fill="#2D2A29" d="M42.368.053c-1.158-.372-2.862 3.54-2.862 3.54 1.052 0 1.305-1.743 1.93-2.156a.746.746 0 0 1 .826.013c.346.227 1.092 1.33.253 1.517-.786.173-1.252-.226-3.01.626l2.863.399c2.863.399 1.159-3.566 0-3.939zM39.492 3.593s0-3.26-.719-3.42c-1.624-.346-2.263 1.051.72 3.42z"/>
                        <path fill="#F5A74F" d="M20.811 172.578l6.298.28-1.451 4.23-6.191-.013z"/>
                        <path fill="#C48F6B" d="M42.315 46.118C40.451 44.03 38.64 42.3 36.95 40.89c-4.5-3.739-8.162-5.136-9.64-4.43-1.651.784-2.37-3.487 2.357-4.605.466-.12.945-.186 1.425-.2a8.41 8.41 0 0 1 4.913 1.331c2.743 1.77 7.403 5.15 9.627 8.902 3.262 5.522 3.501 11.856-3.316 4.231z"/>
                        <path fill="#925B4A" d="M36.95 40.89c-4.501-3.74-8.163-5.137-9.64-4.432-1.652.785-2.371-3.486 2.356-4.604.466-.12.945-.186 1.425-.2.013.134.572 1.824-1.492 2.276-2.09.452-1.345 1.863 0 2.102 1.358.227 7.297 2.568 7.35 4.857z" opacity=".4"/>
                        <path fill="#7A6F61" d="M23.195 171.1c-1.731-.106-2.983-1.05-3.542 1.464-.48 2.17.346 2.262 6.75 2.715.72.053 1.399-.186 1.772-1.663.306-1.264 1.504-2.103-4.98-2.515z"/>
                        <path fill="#F5A74F" d="M48.08 171.513l-.505 4.138H42.94l-.253-2.634-.147-1.504z"/>
                        <path fill="#2D2A29" d="M43.953 175.651H42.94l-.253-2.634 1.571.559s.027.732-.4.984c-.412.24.067.6.094 1.091z" opacity=".25"/>
                        <path fill="#333" d="M32.382 184.713c-.293.878-5.046.359-9.067-.4a31.49 31.49 0 0 1-1.292-.266 48.519 48.519 0 0 1-1.81-.412c-1.08-.266-1.905-.532-2.278-.745-.16-.093-.24-.173-.24-.24.12-.638.946-4.856 1.585-6.64.187-.518.36-.824.493-.771.08.027.146.066.213.106.333.24.16.679.16.679l5.379.838c.173-.346.24-.492.373-.492.053 0 .12.027.226.08.306.16.12 1.384.12 1.384l1.73.598c6.286 2.528 4.94 4.737 4.408 6.28z"/>
                        <path fill="#2D2A29" d="M55.031 124.796c-2.996-3.273 3.275-20.105 4.66-34.236.879-8.955-2.89-10.791-6.777-14.33-5.979-5.43-1.172-12.92-5.073-11.803-9.334 2.688-18.401-.492-21.784-4.484-4.846-5.721-1.198-13.519 4.488-16.246 4.274-2.05 7.749-1.93 12.929-.48C60.544 62.18 65.27 77.402 63.925 92.77c-.878 10.232-5.832 16.286-8.894 32.027z" opacity=".12"/>
                        <path fill="#754C44" d="M58.053 48.966s9.48-2.528 9.92-8.077c.44-5.548-1.69-9.234-1.69-9.234l1.024-.4s2.197 3.78 1.718 11.084c-.253 2.342-.879 6.853-.879 6.853l-10.093-.226z"/>
                        <path fill="#7A6F61" d="M46.203 170.582c-.44-.027-2.343-.226-2.783-.24-1.305-.053-2.064-.053-2.064 1.704 0 2.328 2.397 1.942 5.766 1.995.719.014 2.25.333 2.144-1.184-.054-.918.812-2.062-3.063-2.275z"/>
                        <path fill="#925B4A" d="M87.08 32.866s-14.154 12.733-29.373 12.84c-12.063.08-19.812-6.96-27.881-1.57-6.019 4.031-3.223 14.344 5.645 18.176 12.263 5.295 42.768-3.1 54.379-27.344l-2.77-2.102z"/>
                        <path fill="#C48F6B" d="M86.934 32.387s.559-1.304.785-1.171c.227.133 3.37 2.089 2.876 2.927-.492.852-.213 1.37-.546 1.37-.346 0-3.914-1.955-3.115-3.126z"/>
                        <path fill="#333" d="M57.201 182.198c-.133.905-4.926 1.17-9.12 1.091-3.316-.067-6.272-.36-6.272-.732 0-.585.053-4.151.293-6.214.107-.878.24-1.49.44-1.463.625.08.505.705.505.705l4.408.053c.146-.532.173-.612.506-.506.333.107.373 1.331.373 1.331s1.877.12 2.876.28c6.617 1.397 6.231 3.845 5.991 5.455z"/>
                        <path fill="#0A0809" d="M23.315 184.314a31.49 31.49 0 0 1-1.292-.267 48.519 48.519 0 0 1-1.81-.412c-1.08-.266-1.905-.532-2.278-.745-.146-.107-.24-.186-.24-.24.12-.638.946-4.856 1.585-6.64 0 0 .2.094.426.253.253.187.533.466.613.825.04.2.013.44-.12.692-.6 1.105-.08 2.835.972 3.247 2.104.812 2.184 2.621 2.144 3.287z" opacity=".25"/>
                        <g fill="#0A0809" opacity=".25">
                            <path d="M48.08 183.289c-3.315-.067-6.27-.36-6.27-.732 0-.585.052-4.151.292-6.214 0 0 1.411.413 1.358 1.81-.053 1.41 0 2.701 1.505 2.701 1.518.013 3.182 1.397 3.116 2.435z"/>
                        </g>
                        <path fill="#754C44" d="M48.507 4.178s.24 1.104 1.105 1.73c.879.625 2.65 2.395 1.251 3.898-1.398 1.504 1.412 4.604-4.54 5.403-5.952.798-6.884 3.539-10.825 3.486-3.941-.053-5.726-1.011-5.965-1.357-.24-.346 2.317 2.461 6.91 2.461 4.607 0 11.664-1.982 15.153-4.537 3.488-2.542 3.408-2.462 3.515-4.231 0 0-.426-3.14-4.607-5.788l-1.997-1.065z" opacity=".24"/>
                    </g>
                </g>
            </g>
        </g>
    </g>
</svg>
