<svg xmlns="http://www.w3.org/2000/svg" width="49" height="49" viewBox="0 0 49 49">
    <defs>
        <linearGradient id="a" x1="50.192%" x2="50.192%" y1="48.498%" y2="120.608%">
            <stop offset="0%" stop-color="#007BB5"/>
            <stop offset="100%" stop-color="#123D89"/>
        </linearGradient>
        <linearGradient id="b" x1="51.08%" x2="51.08%" y1="11.555%" y2="115.321%">
            <stop offset="0%" stop-color="#A7E3FF"/>
            <stop offset="100%" stop-color="#0095DA"/>
        </linearGradient>
        <linearGradient id="c" x1="20.753%" x2="87.771%" y1="17.836%" y2="92.056%">
            <stop offset="0%" stop-color="#F9B260"/>
            <stop offset="100%" stop-color="#EB8208"/>
        </linearGradient>
    </defs>
    <g fill="none" fill-rule="evenodd">
        <path fill="url(#a)" d="M23.377 40.833H5.002A4.095 4.095 0 0 1 .92 36.75V4.083A4.095 4.095 0 0 1 5.002 0h18.375a4.095 4.095 0 0 1 4.083 4.083V36.75c0 2.246-1.735 4.083-4.083 4.083z" transform="translate(3.573 4.083)"/>
        <path fill="url(#b)" d="M22.663 3.063h-3.37c-.305 0-.612.204-.816.408l-.715 1.123c-.204.306-.51.408-.816.408H11.74c-.307 0-.613-.204-.817-.408l-.715-1.021c-.204-.306-.51-.408-.816-.408H5.717c-1.021 0-1.838.816-1.838 1.94v29.91c0 1.633 1.225 2.858 2.756 2.858H21.54c1.53 0 2.756-1.327 2.756-2.858V5.105c.204-1.226-.613-2.043-1.633-2.043z" transform="translate(3.573 4.083)"/>
        <path fill="#A7E3FF" d="M26.95 4.083H14.7c.613 1.021 2.552 3.982 5.717 3.777 6.329-.408 10.412 5.105 1.837 12.455-3.369 2.858-4.798 7.656-1.429 13.577 1.837 3.266 1.02 7.145-7.86 7.86-2.859.204-3.573 1.225-5.003 2.96.205 0 .409.103.715.103h18.375a4.095 4.095 0 0 0 4.083-4.084V8.065c-.102-2.144-1.837-3.982-4.185-3.982z" opacity=".72" style="mix-blend-mode:soft-light"/>
        <g transform="translate(23.99 18.375)">
            <circle cx="9.8" cy="9.698" r="9.698" fill="url(#c)"/>
            <g fill="#FFF" transform="translate(4.083 5.104)">
                <path d="M10.923 2.45C9.493 1.123 7.656.306 5.615.306c-2.042 0-3.88.715-5.309 2.144a.801.801 0 0 0 0 1.123c.204.204.409.204.613.204.204 0 .408-.102.612-.204C2.654 2.45 4.083 1.94 5.615 1.94c1.53 0 3.062.612 4.083 1.633a.801.801 0 0 0 1.123 0c.408-.306.408-.817.102-1.123z"/>
                <path d="M2.552 4.594a.801.801 0 0 0 0 1.123c.204.204.408.204.613.204.204 0 .408-.102.612-.204 1.123-1.021 2.858-1.021 3.88 0a.801.801 0 0 0 1.122 0 .801.801 0 0 0 0-1.123 4.375 4.375 0 0 0-6.227 0z"/>
                <ellipse cx="5.615" cy="7.554" rx="1.327" ry="1.225"/>
            </g>
            <path fill="#FCD2A1" d="M19.498 9.698C19.498 4.696 15.72.51 10.82 0c1.327.204 5.614 1.225 4.492 4.798-.817 2.756 4.185 5.614-1.532 8.37-4.593 2.247-.408 5.513-5.308 6.024.408.102.919.102 1.327.102 5.308.102 9.698-4.288 9.698-9.596z" opacity=".8" style="mix-blend-mode:soft-light"/>
        </g>
    </g>
</svg>
