<svg xmlns="http://www.w3.org/2000/svg" xmlns:xlink="http://www.w3.org/1999/xlink" width="24" height="24" viewBox="0 0 24 24">
    <defs>
        <path id="a" d="M12 2C6.5 2 2 6.5 2 12s4.5 10 10 10 10-4.5 10-10S17.5 2 12 2zm4.8 6.8l-4.1 7.5c-.2.4-.5.6-.9.6h-.1c-.4 0-.7-.1-.9-.4l-3.4-3.8c-.5-.5-.4-1.3.1-1.8s1.3-.4 1.8.1l2.2 2.5 3.3-6c.2-.5.9-.7 1.5-.3.7.3.9 1 .5 1.6z"/>
    </defs>
    <g fill="none" fill-rule="evenodd">
        <mask id="b" fill="#fff">
            <use xlink:href="#a"/>
        </mask>
        <g fill="#9bce59" mask="url(#b)">
            <path d="M0 0h24v24H0z"/>
        </g>
    </g>
</svg>
