<svg xmlns="http://www.w3.org/2000/svg" xmlns:xlink="http://www.w3.org/1999/xlink" width="240" height="222" viewBox="0 0 240 222">
    <defs>
        <rect id="a" width="288" height="235.546" rx="7.918"/>
        <path id="c" d="M12.418 67.866s12.084 5.064 8.954 18.422c-5.375 22.973 57.586-33.254 79.6 12.717 6.619 13.832 21.217 13.87 32.98 5.32 10.097-7.345 31.16-3.269 22.938-33.408-.667-2.448-11.033-22.78-12.7-28.638-2.463-8.653 15.33-4.897 14.637-13.268-.41-5.026-1.604-9.013-4.13-10.884C125.896-3.18 129.641-1.82 39.716 3.128c-4.247.23-13.393 21.473-17.062 24.344C-3.707 48.162-6.773 57.38 12.418 67.866z"/>
        <path id="e" d="M12.418 67.866s12.084 5.064 8.954 18.422c-5.375 22.973 57.586-33.254 79.6 12.717 6.619 13.832 21.217 13.87 32.98 5.32 10.097-7.345 31.16-3.269 22.938-33.408-.667-2.448-11.033-22.78-12.7-28.638-2.463-8.653 15.33-4.897 14.637-13.268-.41-5.026-1.604-9.013-4.13-10.884C125.896-3.18 129.641-1.82 39.716 3.128c-4.247.23-13.393 21.473-17.062 24.344C-3.707 48.162-6.773 57.38 12.418 67.866z"/>
        <path id="g" d="M12.418 67.866s12.084 5.064 8.954 18.422c-5.375 22.973 57.586-33.254 79.6 12.717 6.619 13.832 21.217 13.87 32.98 5.32 10.097-7.345 31.16-3.269 22.938-33.408-.667-2.448-11.033-22.78-12.7-28.638-2.463-8.653 15.33-4.897 14.637-13.268-.41-5.026-1.604-9.013-4.13-10.884C125.896-3.18 129.641-1.82 39.716 3.128c-4.247.23-13.393 21.473-17.062 24.344C-3.707 48.162-6.773 57.38 12.418 67.866z"/>
        <path id="i" d="M0 .064h99.624v78.404H0z"/>
        <path id="k" d="M0 .064h99.624v78.404H0z"/>
        <path id="m" d="M0 .064h99.624v78.404H0z"/>
        <path id="o" d="M0 .064h99.624v78.404H0z"/>
        <path id="q" d="M0 .064h99.624v78.404H0z"/>
        <path id="s" d="M0 .064h99.624v78.404H0z"/>
        <path id="u" d="M0 .064h99.624v78.404H0z"/>
        <path id="w" d="M0 .064h99.624v78.404H0z"/>
        <path id="y" d="M0 .064h99.624v78.404H0z"/>
        <path id="A" d="M0 .064h99.624v78.404H0z"/>
        <path id="C" d="M0 .064h99.624v78.404H0z"/>
        <path id="E" d="M38.754 4.628C18.32 13.23 4.156 32.215 1.475 54.214c-1.154 9.499-2.95 21.498.962 34.664 9.75 32.753 101.42 50.047 107.976-4.013 4.913-40.56 30.544-44.791 35.406-50.79 7.723-9.526-7.954-28.55-54.264-9.051-28.53 12.012-29.517-6.167-27.516-12.358 1.924-6 2.706-19.82-25.285-8.038z"/>
        <path id="G" d="M38.754 4.628C18.32 13.23 4.156 32.215 1.475 54.214c-1.154 9.499-2.95 21.498.962 34.664 9.75 32.753 101.42 50.047 107.976-4.013 4.913-40.56 30.544-44.791 35.406-50.79 7.723-9.526-7.954-28.55-54.264-9.051-28.53 12.012-29.517-6.167-27.516-12.358 1.924-6 2.706-19.82-25.285-8.038z"/>
        <path id="I" d="M38.754 4.628C18.32 13.23 4.156 32.215 1.475 54.214c-1.154 9.499-2.95 21.498.962 34.664 9.75 32.753 101.42 50.047 107.976-4.013 4.913-40.56 30.544-44.791 35.406-50.79 7.723-9.526-7.954-28.55-54.264-9.051-28.53 12.012-29.517-6.167-27.516-12.358 1.924-6 2.706-19.82-25.285-8.038z"/>
        <path id="K" d="M38.754 4.628C18.32 13.23 4.156 32.215 1.475 54.214c-1.154 9.499-2.95 21.498.962 34.664 9.75 32.753 101.42 50.047 107.976-4.013 4.913-40.56 30.544-44.791 35.406-50.79 7.723-9.526-7.954-28.55-54.264-9.051-28.53 12.012-29.517-6.167-27.516-12.358 1.924-6 2.706-19.82-25.285-8.038z"/>
        <path id="M" d="M38.754 4.628C18.32 13.23 4.156 32.215 1.475 54.214c-1.154 9.499-2.95 21.498.962 34.664 9.75 32.753 101.42 50.047 107.976-4.013 4.913-40.56 30.544-44.791 35.406-50.79 7.723-9.526-7.954-28.55-54.264-9.051-28.53 12.012-29.517-6.167-27.516-12.358 1.924-6 2.706-19.82-25.285-8.038z"/>
        <path id="O" d="M38.754 4.628C18.32 13.23 4.156 32.215 1.475 54.214c-1.154 9.499-2.95 21.498.962 34.664 9.75 32.753 101.42 50.047 107.976-4.013 4.913-40.56 30.544-44.791 35.406-50.79 7.723-9.526-7.954-28.55-54.264-9.051-28.53 12.012-29.517-6.167-27.516-12.358 1.924-6 2.706-19.82-25.285-8.038z"/>
        <path id="Q" d="M38.754 4.628C18.32 13.23 4.156 32.215 1.475 54.214c-1.154 9.499-2.95 21.498.962 34.664 9.75 32.753 101.42 50.047 107.976-4.013 4.913-40.56 30.544-44.791 35.406-50.79 7.723-9.526-7.954-28.55-54.264-9.051-28.53 12.012-29.517-6.167-27.516-12.358 1.924-6 2.706-19.82-25.285-8.038z"/>
        <path id="S" d="M38.754 4.628C18.32 13.23 4.156 32.215 1.475 54.214c-1.154 9.499-2.95 21.498.962 34.664 9.75 32.753 101.42 50.047 107.976-4.013 4.913-40.56 30.544-44.791 35.406-50.79 7.723-9.526-7.954-28.55-54.264-9.051-28.53 12.012-29.517-6.167-27.516-12.358 1.924-6 2.706-19.82-25.285-8.038z"/>
    </defs>
    <g fill="none" fill-rule="evenodd" transform="translate(-24 -12)">
        <mask id="b" fill="#fff">
            <use xlink:href="#a"/>
        </mask>
        <g mask="url(#b)">
            <g fill="#3EC1FF" fill-rule="nonzero">
                <path d="M199.664 153.197c-2.104.551-2.9 1.59 2.437 1.513 5.324-.077 10.558.269 8.03-1.129-2.527-1.41-5.22-1.371-5.22-1.371s-3.156.436-5.247.987z" opacity=".24"/>
                <path d="M201.126 153.581s.295-2.115 1.796-2.14c0-.295.103-1.77 1.822-1.77 1.424 0 1.578 1.41 1.578 1.41s1.205.155 1.295 1.103c.077.949 1.078.026 1.078 1.41h-7.569v-.013z"/>
            </g>
            <path fill="#D9F2FF" fill-rule="nonzero" d="M176.445 153.005c.461 0 .846.307.936.756.128.705-.295 1.487-1.36 2.897-2.386 3.167-1.821 9.397-1.847 12.91-.038 3.512-4.4 6.678-8.582 2.615-4.952-4.82 5.593-19.178 10.853-19.178zM90.7 87.638a2.213 2.213 0 0 1 .334 3.295c-1.86 2-6.17 5.384-14.29 5.756-10.623.474 7.504-13.615 13.956-9.051z"/>
            <path fill="#D9F2FF" fill-rule="nonzero" d="M79.835 103.573c-20.436 8.601-34.598 27.587-37.28 49.585-1.154 9.5-2.95 21.499.963 34.664 9.75 32.754 101.42 50.048 107.976-4.012 4.913-40.561 30.544-44.791 35.406-50.791 7.722-9.525-7.954-28.549-54.264-9.05-28.53 12.011-29.518-6.167-27.517-12.359 1.937-6 2.707-19.806-25.284-8.037z"/>
            <path fill="#D9F2FF" fill-rule="nonzero" d="M109.738 92.048s12.084 5.064 8.954 18.422c-5.375 22.972 57.586-33.254 79.6 12.716 15.24 31.831 72.697-9.383 40.69-60.29C218.585 30.4 174.97 8.413 119.975 51.628c-26.363 20.716-29.429 29.934-10.237 40.42z"/>
            <g fill="#A6E2FF" fill-rule="nonzero">
                <path d="M50.946 67.409l.628 2.692c.026.128.193.18.295.077l2.13-2.23c.09-.103.038-.27-.09-.283l-2.745-.448c-.141-.026-.244.076-.218.192zM219.137 197.142l-1.886 1.192c-.09.064-.09.193.013.244l2.27 1.025a.136.136 0 0 0 .193-.153l-.385-2.218c-.012-.103-.115-.141-.205-.09z"/>
                <path d="M253.286 23.04l.91-3.602a.224.224 0 0 0-.294-.269l-3.926 1.359a.228.228 0 0 0-.064.397l3.015 2.244c.14.102.32.038.359-.128zM31.472 18.438l-1.975-1.14c-.141-.078-.32-.04-.398.102l-.23.41c-.078.141-.04.32.102.398l1.975 1.14c.141.077.321.039.398-.102l.23-.41a.28.28 0 0 0-.102-.398zM263.266 108.739l-2.078.923a.29.29 0 0 0-.154.384l.193.424c.064.153.243.217.384.153l2.079-.923a.29.29 0 0 0 .154-.384l-.193-.423c-.064-.154-.244-.218-.385-.154zM25.687 138.916a.846.846 0 1 1-.847-.846c.462 0 .847.384.847.846zM124.965 33.514a.846.846 0 1 1-.847-.846.854.854 0 0 1 .847.846z" opacity=".5"/>
                <ellipse cx="3.663" cy="3.695" opacity=".5" rx="2.745" ry="2.743" transform="rotate(-22.5 639.816 -209.212)"/>
            </g>
            <g transform="translate(97.32 24.181)">
                <mask id="d" fill="#fff">
                    <use xlink:href="#c"/>
                </mask>
                <path fill="#A7E3FF" d="M150.347 27.69H124.91a.564.564 0 0 1-.5-.308c-.231-.487-.552-1.474.09-2.397.91-1.295 1.552-1.09 1.552-1.09s-.68-4.153 1.667-5.41c2.348-1.256 4.336 1.821 4.336 1.821s.077-5.41 5.76-5.41c7.543 0 7.53 7.936 7.53 7.936s3.336-.654 4.81 1c1.091 1.217.694 2.281.745 3.281a.545.545 0 0 1-.552.577z" mask="url(#d)"/>
            </g>
            <g transform="translate(97.32 24.181)">
                <mask id="f" fill="#fff">
                    <use xlink:href="#e"/>
                </mask>
                <g fill-rule="nonzero" mask="url(#f)">
                    <path fill="#3EC1FF" d="M136.416 100.056s19.589-1.256 14.752 2.013c-4.836 3.282-4.58 3.166 0 3.833 4.58.667 9.468 4.243-10.596 3.55-20.063-.691-21.5 2.847-29.082.09-7.581-2.756 5.735-3.897 8.403-3.64 2.668.256 16.6.449 9.84-4.243-6.761-4.692 6.683-1.603 6.683-1.603" opacity=".08"/>
                    <path fill="#71D1FF" d="M136.223 103.043s-4.182-2.55-1.128-6.5c3.053-3.948 1.795-2.371 3.142-4.191 2.13-2.872-1.77-4.538-1.308-7.91.449-3.359 1.95-5.346 5.144-6.025 3.746-.795 4.375-4.64 5.837-7.179 1.347-2.333 8.53-8 8.082-.346-.45 7.666-1.59 7.871.718 8.807 2.31.936.5 10.089-3.861 10.435-4.375.346-3.49 6.217-3.053 8.256.603 2.82-3.13 6.063-5.645 6.41-2.527.346-7.928-1.757-7.928-1.757z"/>
                    <path fill="#000" d="M139.61 104.03s9.198-27.716 11.43-30.87l1.257-1.768c.154-.231.552-.051.41.18-5.31 8.255-11.493 29.843-11.647 32.868l-1.45-.41z" opacity=".16"/>
                    <path fill="#000" d="M149.783 98.39c-.436-2.026-1.309-7.91 3.053-8.256 4.374-.346 6.17-9.5 3.861-10.435-2.309-.936-1.167-1.141-.718-8.807.103-1.692-.18-2.73-.68-3.308-.013.026-2.566 9.91-.718 13.025 1.847 3.115.705 7.576-.911 7.692-1.617.115-6.85 1.948-6.132 7.422s-.68 6.307-2.04 7.743c-.474.5-.68.885-.744 1.18 2.489-.731 5.593-3.667 5.029-6.256z" opacity=".08"/>
                    <path fill="#3EC1FF" d="M136.262 106.85a.787.787 0 0 1-.462-.346c-1-1.794-6.388-12.063-3.707-20.267 2.476-7.538 6.85-11.858 8.21-13.076.423-.372 1.052-.462 1.526-.154.86.564 1.745 2.41.693 8.076-1.732 9.333-3.605 16.679-2.399 19.589.95 2.294-.667 5.153-1.398 6.268a.788.788 0 0 1-.847.334l-1.616-.423z"/>
                    <path fill="#000" d="M135.146 106.286s-2.63-22.831 4.08-30.907c.166-.205.564.09.41.295-1.886 2.589-3.939 11.46-4.105 16.37-.18 5.82.23 14.396.23 14.396l-.615-.154z" opacity=".16"/>
                    <path fill="#A7E3FF" d="M138.045 108.684c.103 0 .192-.09.192-.193-.05-1.166-.397-7.089-1.95-7.204-2.052-.154-1.141 3.025-2.86 3.961-1.552.859-1.873-8.871-2.566-10.986-.616-1.898-3.835-4.038-4.361 8.73-.154 3.666-2.104 2.653-2.784 1.256-.423-.884-.59-1.705-.975-2.615-.346-.808-1.18-1.77-2.053-1.397-1.27.55-2.463 2-2.155 6.563v1.692c0 .103.09.193.193.193h19.319z"/>
                </g>
            </g>
            <g transform="translate(97.32 24.181)">
                <mask id="h" fill="#fff">
                    <use xlink:href="#g"/>
                </mask>
                <g mask="url(#h)">
                    <path fill="#1B91D0" fill-rule="nonzero" d="M123.934 5.102H42.808a5.054 5.054 0 0 0-5.054 5.051v9.717c0 2.795 2.27 5.051 5.054 5.051h81.126a5.054 5.054 0 0 0 5.054-5.05v-9.705a5.057 5.057 0 0 0-5.054-5.064z"/>
                    <g transform="translate(34.251 32.177)">
                        <mask id="j" fill="#fff">
                            <use xlink:href="#i"/>
                        </mask>
                        <path fill="#A7E3FF" fill-rule="nonzero" d="M0 .064h99.624v78.404H0z" mask="url(#j)"/>
                    </g>
                    <g transform="translate(34.251 32.177)">
                        <mask id="l" fill="#fff">
                            <use xlink:href="#k"/>
                        </mask>
                        <g mask="url(#l)" opacity=".5">
                            <g fill="#73BBE8" fill-rule="nonzero">
                                <path d="M45.643 66.546c-1.693 0-3.053-.064-3.323-.244-.115-.076-.307-.205-.09-3.217a.414.414 0 0 1 .386-.385c1.013-.077 6.26-.436 10.006.013.166 0 .32.077.436.205.487.539.397 2.115.308 3.013a.466.466 0 0 1-.437.41c-1.757.09-4.874.205-7.286.205zm-3.104-.526c.526.244 4.643.231 10.352-.038.038 0 .077-.038.09-.077.14-1.372.064-2.423-.218-2.73a.208.208 0 0 0-.18-.09h-.026c-3.707-.449-8.928-.09-9.941-.013-.026 0-.039.026-.039.038-.115 1.731-.103 2.705-.038 2.91z"/>
                                <path d="M57.663 66.52l-.013-.359c2.066-.05 4.041-.14 4.798-.166.039 0 .077-.039.09-.077.14-1.372.064-2.423-.218-2.73a.208.208 0 0 0-.18-.09h-.026c-3.31-.398-7.76-.167-9.53-.039l-.13.013c-.05 0-.063 0-.127.013l-.026-.36c.064 0 .077 0 .128-.012l.116-.013c1.77-.115 6.247-.359 9.582.039.167 0 .321.077.436.205.488.538.398 2.115.308 3.012a.466.466 0 0 1-.436.41c-.731.013-2.707.103-4.772.154z"/>
                                <path d="M50.543 69.943c-1.693 0-3.053-.064-3.322-.243-.116-.077-.308-.205-.09-3.218l.36.026c-.116 1.73-.103 2.704-.04 2.897.527.243 4.645.23 10.353-.039.039 0 .077-.038.09-.077.141-1.371.064-2.422-.218-2.73a.208.208 0 0 0-.18-.09h-.025c-1.232-.154-2.669-.218-4.388-.218h-.102v-.359c1.77 0 3.258.064 4.528.218.167 0 .32.077.436.205.488.539.398 2.115.308 3.013a.466.466 0 0 1-.436.41c-1.745.077-4.862.205-7.274.205z"/>
                            </g>
                            <path fill="#73BBE8" fill-rule="nonzero" d="M40.948 73.571c-2.848 0-3.105-.167-3.22-.243-.116-.077-.308-.206-.103-3.218a.414.414 0 0 1 .385-.385c1.014-.077 6.26-.436 10.006.013.167 0 .32.077.436.205.488.539.398 2.115.308 3.013a.465.465 0 0 1-.423.41c-.706.038-3.194.141-5.555.18-.718.012-1.321.025-1.834.025zm-3.002-.538c.526.243 4.644.23 10.352-.039.039 0 .077-.038.09-.077.141-1.371.064-2.423-.218-2.73a.208.208 0 0 0-.18-.09h-.025c-3.707-.449-8.929-.09-9.942-.013-.026 0-.038.026-.038.039-.116 1.743-.103 2.705-.039 2.91z"/>
                        </g>
                    </g>
                    <g transform="translate(34.251 32.177)">
                        <mask id="n" fill="#fff">
                            <use xlink:href="#m"/>
                        </mask>
                        <path fill="#71D1FF" fill-rule="nonzero" d="M4.657 22.332h30.056v56.123H4.657z" mask="url(#n)"/>
                    </g>
                    <g transform="translate(34.251 32.177)">
                        <mask id="p" fill="#fff">
                            <use xlink:href="#o"/>
                        </mask>
                        <path fill="#3EC1FF" fill-rule="nonzero" d="M7.171 25.69h24.951v52.83H7.171z" mask="url(#p)"/>
                    </g>
                    <g transform="translate(34.251 32.177)">
                        <mask id="r" fill="#fff">
                            <use xlink:href="#q"/>
                        </mask>
                        <path fill="#71D1FF" fill-rule="nonzero" d="M75.892 59.777H52.596a4.77 4.77 0 0 1-4.772-4.769V27.126a4.77 4.77 0 0 1 4.772-4.769h23.296a4.77 4.77 0 0 1 4.772 4.77v27.881c.013 2.628-2.13 4.77-4.772 4.77z" mask="url(#r)"/>
                    </g>
                    <g transform="translate(34.251 32.177)">
                        <mask id="t" fill="#fff">
                            <use xlink:href="#s"/>
                        </mask>
                        <path fill="#3EC1FF" fill-rule="nonzero" d="M75.802 57.316H52.981c-1.232 0-2.232-1-2.232-2.23v-28.19c0-1.231 1-2.231 2.232-2.231h22.808c1.232 0 2.233 1 2.233 2.23v28.19c0 1.231-1.001 2.231-2.22 2.231z" mask="url(#t)"/>
                    </g>
                    <g transform="translate(34.251 32.177)">
                        <mask id="v" fill="#fff">
                            <use xlink:href="#u"/>
                        </mask>
                        <path fill="#90D8F2" fill-rule="nonzero" d="M5.863 54.842h27.875v2.73H5.863z" mask="url(#v)"/>
                    </g>
                    <g transform="translate(34.251 32.177)">
                        <mask id="x" fill="#fff">
                            <use xlink:href="#w"/>
                        </mask>
                        <g mask="url(#x)" opacity=".5">
                            <path fill="#73BBE8" fill-rule="nonzero" d="M89.85 42.368c-1.694 0-3.054-.064-3.323-.243-.116-.077-.308-.205-.103-3.218a.414.414 0 0 1 .385-.384c1.013-.077 6.26-.436 10.006.012.167 0 .32.077.436.206.488.538.398 2.115.308 3.012a.466.466 0 0 1-.436.41c-1.745.077-4.862.205-7.274.205zm-3.105-.538c.526.244 4.733.23 10.352-.038.039 0 .077-.039.09-.077.141-1.372.064-2.423-.218-2.73a.208.208 0 0 0-.18-.09h-.025c-3.708-.45-8.929-.09-9.942-.013-.026 0-.039.025-.039.038-.115 1.743-.102 2.718-.038 2.91z"/>
                            <path fill="#73BBE8" fill-rule="nonzero" d="M94.75 45.766c-1.694 0-3.054-.064-3.323-.244-.115-.077-.308-.205-.103-3.218l.36.026c-.116 1.73-.103 2.705-.039 2.897.526.244 4.734.23 10.353-.038.038 0 .077-.039.09-.077.14-1.372.064-2.423-.219-2.73a.208.208 0 0 0-.18-.09h-.025c-1.257-.154-2.732-.231-4.503-.218v-.36c1.77 0 3.259.065 4.529.219.166 0 .32.077.436.205.487.538.398 2.115.308 3.012a.466.466 0 0 1-.436.41c-1.72.077-4.837.206-7.248.206z"/>
                        </g>
                    </g>
                    <g transform="translate(34.251 32.177)">
                        <mask id="z" fill="#fff">
                            <use xlink:href="#y"/>
                        </mask>
                        <g mask="url(#z)" opacity=".5">
                            <path fill="#73BBE8" fill-rule="nonzero" d="M93.993 75.443c-1.514 0-3.105-.052-4.49-.218a.588.588 0 0 1-.436-.205c-.488-.539-.398-2.116-.308-3.013a.466.466 0 0 1 .436-.41c2.963-.141 9.916-.41 10.596.038.116.077.308.205.09 3.218a.414.414 0 0 1-.385.385c-.641.038-2.95.205-5.503.205zm2.54-3.692c-1.848 0-4.4.064-7.325.205-.039 0-.077.038-.09.077-.115 1.077-.115 2.359.218 2.73.051.064.103.09.18.09h.025c3.708.449 8.929.09 9.942.013.026 0 .039-.026.039-.039.115-1.73.102-2.704.038-2.897-.256-.115-1.347-.18-3.027-.18z"/>
                            <path fill="#73BBE8" fill-rule="nonzero" d="M89.015 72.046c-1.731 0-3.181-.077-4.425-.218a.588.588 0 0 1-.437-.205c-.487-.539-.397-2.116-.307-3.013a.465.465 0 0 1 .423-.41c2.963-.141 9.916-.41 10.596.038.116.077.308.205.103 3.218l-.36-.026c.116-1.73.103-2.705.039-2.897-.526-.244-4.644-.23-10.352.039-.039 0-.077.038-.09.076-.116 1.077-.116 2.36.218 2.731.051.064.102.09.18.09h.025c1.257.154 2.733.23 4.503.218v.359h-.116z"/>
                        </g>
                    </g>
                    <g transform="translate(34.251 32.177)">
                        <mask id="B" fill="#fff">
                            <use xlink:href="#A"/>
                        </mask>
                        <path fill="#71D1FF" fill-rule="nonzero" d="M48.234 40.305h31.968v2.307H48.234z" mask="url(#B)"/>
                    </g>
                    <g transform="translate(34.251 32.177)">
                        <mask id="D" fill="#fff">
                            <use xlink:href="#C"/>
                        </mask>
                        <path fill="#71D1FF" fill-rule="nonzero" d="M46.4 39.782h36.42v2.96H46.4z" mask="url(#D)" transform="rotate(90 64.61 41.262)"/>
                    </g>
                    <path fill="#1B91D0" fill-rule="nonzero" d="M145.986 56.931H23.527l11.79-33.279c.68-1.923 2.937-3.256 5.503-3.256h84.859c2.437 0 4.605 1.192 5.4 2.987l14.907 33.548z"/>
                    <path fill="#FFF" fill-rule="nonzero" d="M73.262 20.409L68.17 54.47l-.372 2.461v.026H44.476v-.026l2.501-9.627 6.979-26.895zM122.1 56.957H98.045l-.012-.026-.141-1.09-4.58-35.432h18.19l10.199 35.19.397 1.332z"/>
                    <path fill="#0A3442" fill-rule="nonzero" d="M114.377 61.828s-5.965 4.667 5.49 7.295c11.456 2.628 0 15.178 7.12 27.754 4.067 7.166-1.052 13.91-13.534 10.704-12.482-3.205-22.116-13.499-18.37-9.755 3.746 3.743 7.851 17.755 27.324 18.216 2.874.064 11.405 0 11.405 0V61.213l-19.435.615z" opacity=".08"/>
                    <path fill="#1680B2" fill-rule="nonzero" d="M29.223 70.764h9.544a5.703 5.703 0 0 0 5.709-5.705v-8.14H23.514v8.14a5.703 5.703 0 0 0 5.709 5.705zM130.002 70.764h8.107c4.349 0 7.877-3.526 7.877-7.872v-5.96h-23.86v5.96c0 4.346 3.527 7.872 7.876 7.872z"/>
                    <path fill="#EEF4F6" fill-rule="nonzero" d="M52.031 70.776h8.326a7.449 7.449 0 0 0 7.453-7.448v-6.384H44.476v6.282c0 4.166 3.386 7.55 7.555 7.55z"/>
                    <path fill="#1680B2" fill-rule="nonzero" d="M78.201 70.764h9.467c5.735 0 10.378-4.641 10.378-10.371V56.93H67.823v3.462c0 5.73 4.644 10.37 10.378 10.37z"/>
                    <path fill="#EEF4F6" fill-rule="nonzero" d="M105.962 70.764h8.21c4.374 0 7.927-3.551 7.927-7.923V56.92H98.046v5.922a7.911 7.911 0 0 0 7.916 7.923z"/>
                    <g opacity=".12">
                        <path fill="#0A3442" fill-rule="nonzero" d="M122.1 56.931v.013H98.045v-.013H67.81v.013H44.476v-.013H23.527l11.79-33.279c.68-1.923 2.937-3.256 5.503-3.256 0 0 6.914-2.23 7.299-.385.398 1.936-.731 4.115-2.22 7.692-4.092 9.781-5.965 13.28-1.41 16.563 1.757 1.269 3.9 1.295 6.106 1.205 3.515-.141 9.942-4.602 17.228-.86 2.104 1.078 6.607 4.95 12.302 6.347 13.945 3.448 34.239 4.717 41.59 4.627 13.072-.153 23.193-.115 24.284 1.334v.012h-23.9z"/>
                    </g>
                    <path fill="#57BCEB" fill-rule="nonzero" d="M122.42 7.564H44.476a3.722 3.722 0 0 0-3.72 3.717v9.269h85.397V11.28a3.74 3.74 0 0 0-3.733-3.717z"/>
                </g>
            </g>
            <g fill-rule="nonzero">
                <path fill="#3EC1FF" d="M244.563 134.019s13.56-.564 11.25.872c-2.309 1.435-10.006-.436-6.337 2.09 2.604 1.794-32.302-.18-35.316-.565-3.015-.384-2.36-2.923 8.736-2.794 11.07.128 21.667.397 21.667.397z" opacity=".12"/>
                <path fill="#A7E3FF" d="M231.144 134.134v-11.332a.8.8 0 0 1 .796-.795h19.293a.8.8 0 0 1 .796.795v11.332a.8.8 0 0 1-.796.795H231.94a.8.8 0 0 1-.796-.795z"/>
                <path fill="#231F20" d="M232.132 134.134v-11.332a.8.8 0 0 1 .795-.795h12.187v12.91h-12.187a.78.78 0 0 1-.795-.783z" opacity=".04"/>
                <path fill="#3EC1FF" d="M239.7 122.007v12.922h5.414s-3.284-.013-2.309-4.41c.731-3.269-2.835-6.063-.936-7.038 1.154-.59 1.5-1.461 1.5-1.461l-3.668-.013z" opacity=".32"/>
                <path fill="#3EC1FF" d="M214.121 134.134v-15.293a.8.8 0 0 1 .796-.795h25.695a.8.8 0 0 1 .795.795v15.293a.8.8 0 0 1-.795.795h-25.695a.79.79 0 0 1-.796-.795z"/>
                <path fill="#A7E3FF" d="M221.433 131.25v-3.013a.4.4 0 0 1 .398-.397h7.71a.4.4 0 0 1 .397.397v3.013a.4.4 0 0 1-.397.397h-7.71a.4.4 0 0 1-.398-.397z"/>
                <path fill="#231F20" d="M214.121 134.134v-15.293a.8.8 0 0 1 .796-.795h9.403v16.87h-9.403a.772.772 0 0 1-.796-.782z" opacity=".04"/>
                <path fill="#A7E3FF" d="M218.47 118.046h.67v16.87h-.67z"/>
                <path fill="#3EC1FF" d="M248.142 122.02h.67v12.832h-.67z"/>
                <path fill="#C6EDFF" d="M227.514 128.919c0-.192.038-.336.09-.336h1.616c.051 0 .09.144.09.336 0 .191-.039.335-.09.335h-1.616c-.052 0-.09-.144-.09-.335z"/>
                <path fill="#C6EDFF" d="M226.847 129.508c0-.191.038-.335.09-.335h2.296c.051 0 .09.144.09.335 0 .192-.039.336-.09.336h-2.296c-.052 0-.09-.144-.09-.336z"/>
                <path fill="#C6EDFF" d="M227.142 130.098c0-.191.038-.335.09-.335h2c.052 0 .09.144.09.335 0 .192-.038.336-.09.336h-2c-.052 0-.09-.192-.09-.336z"/>
                <path fill="#A7E3FF" d="M241.394 133.622l-3.156-1.45c-.192-.089-.282-.294-.205-.486l.885-2.82a.397.397 0 0 1 .565-.218l1.911 1.115v3.859z"/>
            </g>
            <path fill="#A7E3FF" d="M103.003 62.37h25.31a.47.47 0 0 0 .385-.204c.23-.334.577-1.026-.077-1.68-.898-.897-1.54-.756-1.54-.756s.667-2.884-1.654-3.743c-2.322-.872-4.285 1.256-4.285 1.256s-1.963-5.756-7.582-5.718c-5.618.039-5.554 7.461-5.554 7.461s-2.656-1.153-4.118 0c-1.014.795-1.296 2.116-1.373 2.846-.013.295.206.539.488.539z"/>
            <path fill="#0A3442" fill-rule="nonzero" d="M164.31 29.284s2.86 2.243 10.493 3.09c8.184.896 38.625-.36 43.847 1.358 3.322 1.102-3.451 3.038.09 6.756 2.783 2.923-1.36 4.23-1.36 4.23l8.787.59v-12.82s-1.911-3.217-4.9-3.217l-56.958.013z" opacity=".08"/>
            <g fill-rule="nonzero">
                <g opacity=".74">
                    <path fill="#C6EDFF" d="M86.929 12.798c-6.478.166-11.622 3.115-11.494 6.602.013.23.038.461.09.68.975-3.36 4.156-6.013 8.21-6.77a12.915 12.915 0 0 1 2.014-.205c.308-.012.603 0 .898.013.295-.025.59-.051.898-.051.718-.013 1.424.026 2.116.115 4.452.628 8.018 3.551 8.865 7.307a3.672 3.672 0 0 0 .359-1.679c-.141-3.487-5.49-6.179-11.956-6.012z"/>
                    <path fill="#269AFF" d="M86.634 13.137c-.295-.032-.603-.032-.898-.032-.693.032-1.36.224-2.014.511.436 0 .872.032 1.296.16a6.403 6.403 0 0 1 1.616-.639zM89.649 13.357a4.89 4.89 0 0 0-2.117-.28 8.43 8.43 0 0 0-.898.125 5.504 5.504 0 0 1 1.821.528c.398-.186.796-.31 1.194-.373z"/>
                    <path fill="#B9DDFF" d="M88.455 13.462a8.972 8.972 0 0 0-1.821-.357s.36.126.898.671l.923-.314zM85.89 13.789c.449-.532.744-.67.744-.67a7.991 7.991 0 0 0-1.616.462c.295.046.59.115.872.208z"/>
                    <path fill="#3EC1FF" d="M89.649 13.182c-.398.026-.796.077-1.194.141 4.708.898 8.288 4.397 8.441 8.666v.475c.732-.603 1.283-1.27 1.617-1.975-.847-3.756-4.413-6.679-8.864-7.307z"/>
                    <path fill="#C6EDFF" d="M88.455 13.323c-.32.052-.628.116-.923.193.244.153.526.359.82.64 3.606 1.41 6.146 4.449 6.274 8.038a7.642 7.642 0 0 1-.128 1.718c.923-.423 1.744-.91 2.411-1.448v-.475c-.154-4.269-3.733-7.755-8.454-8.666z"/>
                    <path fill="#3EC1FF" d="M85.018 13.375c-.424-.039-.86-.064-1.296-.064-4.054.743-7.235 3.397-8.21 6.768.205.86.718 1.654 1.5 2.346-.115-4.294 3.298-7.974 8.006-9.05z"/>
                    <path fill="#C6EDFF" d="M84.645 14.67a5.133 5.133 0 0 1 1.258-1.18 9.528 9.528 0 0 0-.873-.115c-4.72 1.076-8.133 4.756-8.004 9.063.77.705 1.795 1.308 3.001 1.795a7.14 7.14 0 0 1-.23-1.654c-.129-3.295 1.821-6.217 4.848-7.91zM88.353 14.17c1.398 1.32 3.168 4.217 3.387 10.537v.141a15.335 15.335 0 0 0 2.745-.936 7.642 7.642 0 0 0 .128-1.718c-.115-3.576-2.655-6.614-6.26-8.025z"/>
                    <path fill="#C6EDFF" d="M79.784 22.579c.025.564.102 1.115.23 1.654.719.282 1.501.525 2.335.718-.205-5.756 1.078-8.743 2.284-10.282-3.015 1.693-4.965 4.615-4.85 7.91z"/>
                    <path fill="#269AFF" d="M86.66 13.789l-.013-.67s-.308.097-.744.474c.243.049.5.114.757.196z"/>
                    <path fill="#269AFF" d="M85.89 13.49c-.36.23-.796.603-1.257 1.18a10.654 10.654 0 0 1 2.027-.885v-.141a8.173 8.173 0 0 0-.77-.154z"/>
                    <path fill="#3EC1FF" d="M86.66 13.772c-.719.23-1.386.538-2.027.885-1.206 1.538-2.489 4.525-2.284 10.28 1.45.334 3.04.5 4.721.488l-.41-11.653z"/>
                    <path fill="#269AFF" d="M86.903 13.776c.206-.073.424-.146.629-.204-.526-.38-.898-.467-.898-.467l.013.598c.09.03.18.058.256.073z"/>
                    <path fill="#269AFF" d="M88.353 14.2a5.218 5.218 0 0 0-.821-.672c-.218.054-.423.121-.629.188.5.121.988.295 1.45.483zM86.66 14.302c.211-.122.423-.244.67-.366-.212-.122-.459-.183-.67-.305v.67z"/>
                    <path fill="#3EC1FF" d="M88.353 14.17c-.475-.18-.95-.347-1.45-.475-.077.026-.166.051-.243.077l.41 11.64h.295a21.234 21.234 0 0 0 4.375-.564v-.141c-.219-6.32-1.989-9.217-3.387-10.538z"/>
                    <g fill="#A7E3FF">
                        <path d="M85.082 34.22c-.026 0-.052 0-.064-.027l-8.057-11.73c-.012-.025-.012-.063.026-.076.039-.013.077-.013.09.025l8.056 11.73c.013.026.013.064-.026.077h-.025z"/>
                    </g>
                    <g fill="#A7E3FF">
                        <path d="M85.082 34.22c-.039 0-.064-.014-.077-.04l-2.72-9.23c-.013-.025.013-.063.051-.063.039-.013.077.012.077.038l2.72 9.217c.013.039-.013.077-.051.077z"/>
                    </g>
                    <g fill="#A7E3FF">
                        <path d="M87.622 34.014h-.039c-.038-.013-.051-.038-.038-.077l4.143-9.102c.013-.025.052-.038.09-.038.038.013.051.038.038.077l-4.143 9.102c-.013.012-.039.025-.051.038z"/>
                    </g>
                    <g fill="#A7E3FF">
                        <path d="M87.622 34.014c-.013 0-.039 0-.052-.013-.025-.013-.038-.051-.012-.077l9.3-11.486c.026-.026.064-.038.09-.013.025.013.038.051.013.077l-9.3 11.486c-.014.013-.027.013-.04.026z"/>
                    </g>
                </g>
                <path fill="#209FD1" d="M86.929 12.798s6.337.154 5.35 3.705c-.54 1.935 4.066 3.102 2.796 4.858-1.27 1.756-3.643 2.859-6.312 3.14-2.668.283-6.337.424-6.337.424s7.21 1.718 13.02-1.474c0 0 3.362-1.808 3.426-4.346 0 0 .462-3.205-4.362-5.025 0 0-3.31-1.462-7.581-1.282z" opacity=".16"/>
            </g>
            <g fill-rule="nonzero">
                <path fill="#F1F1F1" d="M83.824 53.18a.353.353 0 0 1-.205-.373c.167-.961.398-1.371.988-2.217.32-.45 1.052-.77 1.09-1.385a40.205 40.205 0 0 0-.038-2.128c-.026-.372.616-.18.795-.128.116.026.026 1.538-.077 2.41-.064.551-.397.551-1.013 1.436-.552.782-.924 1.333-1.065 2.14-.038.193-.205.321-.398.283-.025-.026-.05-.026-.077-.039z"/>
                <path fill="#ABE1FA" d="M83.62 52.813s.358-.087.68.195c0 0-.014.413-.052.456-.039.044-.629-.152-.629-.152s-.115-.065 0-.5z"/>
                <path fill="#7ACEF4" d="M83.594 53.038c-.013 0-.026 0-.039.013-.051.064-.205.27-.218.436-.026.205 1 .577 1.219.628.205.038.705-.436-.27-.936-.013 0-.025-.013-.038-.013-.051-.012-.27.013-.654-.128z"/>
            </g>
            <g fill-rule="nonzero">
                <path fill="#F1F1F1" d="M79.617 51.295a.353.353 0 0 1-.205-.372c.166-.962.397-1.372.987-2.218.321-.449 1.052-.769 1.09-1.384a40.205 40.205 0 0 0-.038-2.128c-.025-.372.616-.18.796-.129.115.026.025 1.539-.077 2.41-.065.552-.398.552-1.014 1.436-.551.782-.923 1.333-1.065 2.141-.038.192-.205.32-.397.282-.039-.025-.052-.025-.077-.038z"/>
                <path fill="#ABE1FA" d="M79.412 50.915s.359-.087.68.196c0 0-.013.413-.052.456-.038.043-.628-.152-.628-.152s-.116-.065 0-.5z"/>
                <path fill="#7ACEF4" d="M79.386 51.154c-.013 0-.026 0-.039.012-.05.065-.205.27-.218.436-.025.205 1 .577 1.219.629.205.038.706-.436-.27-.936-.012 0-.025-.013-.038-.013-.064-.013-.282.013-.654-.128z"/>
            </g>
            <path fill="#F1F1F1" fill-rule="nonzero" d="M92.984 45.116c-.436.256-1 .243-1.578-.052-1.68-.858-1.95-2.974-1.988-3.845a.35.35 0 0 1 .372-.372l.333.013-.359-.013h.026a.362.362 0 0 1 .346.346c.038.743.27 2.564 1.604 3.243.487.257.859.205 1.116-.14.436-.59-.129-2.36-.809-3.244-.115-.141-.09-.346.039-.474v.012a.362.362 0 0 1 .539.026c.91 1.18 1.424 3.295.82 4.115a1.844 1.844 0 0 1-.461.385z"/>
            <path fill="#98C254" fill-rule="nonzero" d="M89.764 33.617l.731-3.257c.013-.076-.013-.14-.051-.205l-1.052-1.038-.436-.103s-1.322.488-1.309.488a.13.13 0 0 0-.038.012.277.277 0 0 0-.141.154l-.013.039-.731 3.217 3.04.693z"/>
            <path fill="#9CBC53" fill-rule="nonzero" d="M89.815 28.27a.394.394 0 0 0-.308-.358.397.397 0 0 0-.436.192s-.487-.487-.449-.102c.026.256.141.564.218.743 0 0 .706.23.937.218.14-.128.359-.372.487-.577.193-.32-.41-.128-.449-.115z"/>
            <path fill="#51AE63" fill-rule="nonzero" d="M90.598 29.399c.077-.32.09-.705.09-.705l-1.065.192a.506.506 0 0 0-.244-.218.435.435 0 0 0-.398.052l-.846-.641s-.205.384-.282.692c-.077.32-.052.68-.052.68l1-.18a.444.444 0 0 0 .27.256.468.468 0 0 0 .462-.102l.834.628c-.013.013.154-.334.23-.654z"/>
            <path fill="#D73089" fill-rule="nonzero" d="M88.148 33.937c1.873.539 3.643 1.038 4.451 1.27h.026c.013 0 .025.012.038.012l.796-1.192c.102-.141.05-.346-.09-.436l-3.682-2.436c-.141-.09-.346-.051-.436.09l-1.668 2.513c.193.077.385.128.565.18z"/>
            <path fill="#E9973E" fill-rule="nonzero" d="M90.713 34.668l1.322-1.91-1.052-.705-1.553 2.256c.45.128.886.243 1.283.359z"/>
            <path fill="#E9973E" fill-rule="nonzero" d="M93.51 32.565a.63.63 0 0 0-.077-.218c-.32-.55-1.232-.192-1.552-.038a.295.295 0 0 0-.154-.218.361.361 0 0 0-.257-.051c-.026-.372-.128-1.295-.744-1.32-.077 0-.154 0-.23.025-.245.064-.309.205-.334.32-.064.436.744 1.039 1.026 1.244a.35.35 0 0 0 .141.359c.128.09.308.077.423-.026h.013c.282.154 1.232.616 1.59.346.104-.05.193-.179.155-.423zm-2.964-1.333c-.038-.051 0-.14.052-.166.025-.026.09-.026.115-.026.244.013.372.436.41.795-.294-.244-.487-.462-.577-.603zm2.63 1.5c-.128.09-.5-.026-.936-.23.346-.129.782-.206.898 0 .09.102.077.204.038.23zM82.362 32.296c.026 0 .064.013.09.013.975.282 3.374.961 5.696 1.628l.154.039.307-2.513a.295.295 0 0 0-.269-.333l-5.44-.654a.295.295 0 0 0-.333.269l-.205 1.551z"/>
            <path d="M87.211 30.479l.134-.067c-.067.067-.067.067-.134.067"/>
            <path fill="#D93931" fill-rule="nonzero" d="M86.326 33.411l.308-2.512-1.976-.244-.27 2.192c.591.18 1.245.372 1.938.564z"/>
            <path fill="#D93931" fill-rule="nonzero" d="M87.57 29.848a.843.843 0 0 0-.218-.154c-.628-.308-1.244.5-1.5.884a.349.349 0 0 0-.437-.05c-.154-.437-.59-1.373-1.27-1.206-.077.026-.167.051-.244.103-.243.166-.282.346-.256.461.064.526 1.244.949 1.603 1.064l.09.026a.355.355 0 0 0 .244.154.343.343 0 0 0 .257-.077l.09-.013c.371-.039 1.603-.192 1.795-.692.039-.103.052-.295-.154-.5zm-3.502.064c-.025-.064 0-.128.052-.167a.6.6 0 0 1 .128-.064c.282-.064.564.359.744.756-.539-.192-.885-.384-.924-.525zm2.232.705c.257-.346.616-.692.873-.564a.309.309 0 0 1 .102.077c.052.051.077.09.064.115-.05.115-.5.27-1.039.372z"/>
            <g fill-rule="nonzero">
                <path fill="#7ACEF4" d="M93.625 35.95a.384.384 0 0 1-.051.102c-.051.116-.115.244-.18.385-.038.09-.09.192-.14.295-.04.077-.065.154-.103.23a1.389 1.389 0 0 0-.103.244c-.026.051-.038.103-.064.154 0 .013-.013.026-.013.038 0 .013-.013.026-.013.039-.23.538-.487 1.166-.757 1.871-.038.116-.09.231-.128.347-.051.153-.115.307-.167.474-.025.077-.051.167-.09.243-.025.077-.05.167-.09.244-.102.282-.192.564-.294.859a.238.238 0 0 0-.026.09c-.038.102-.064.218-.103.333-.14.436-.269.897-.397 1.359-.039.167-.09.333-.129.5v.013c-.025.115-.064.23-.09.346l-.038.154c0 .012 0 .025-.013.025 0 .026-.013.052-.013.077-.012.064-.025.116-.038.18l-.039.153-.038.193v.025c-.013.039-.013.077-.026.116-.025.09-.038.18-.064.269 0 .013-.013.026-.013.051-.025.09-.038.193-.064.282-.025.116-.038.218-.064.334-.09.487-.167.961-.23 1.448l-.04.27v.025c-.012.051-.012.09-.012.141-.013.103-.026.192-.026.295 0 .026 0 .051-.013.077v.025c0 .013-.012.026-.012.039a.097.097 0 0 1-.026.051c0 .013-.013.026-.026.039-.025.038-.064.077-.09.115a.558.558 0 0 1-.243.128c-.013 0-.026.013-.052.013h-.038c-.064 0-.128 0-.205-.026l-.526-.166-.629-.205-.102-.026-4.118-1.308-.141-.05-.578-.18-.282-.09-3.528-1.128-.064-.026-.141-.038-.218-.064h-.013l-2.014-.641h-.013l-.051-.013-.064-.026a.136.136 0 0 1-.064-.218s0-.013.012-.013c.077-.09.167-.217.283-.397.013-.013.013-.013.013-.026.09-.128.192-.282.295-.461a.39.39 0 0 1 .064-.09c.166-.27.346-.59.538-.961.065-.116.129-.244.193-.372.026-.039.038-.09.064-.128.013-.013.013-.039.026-.052.038-.076.064-.14.102-.217.077-.154.141-.308.218-.475.013-.038.039-.077.052-.115.166-.372.333-.77.5-1.192.013-.013.013-.039.026-.052.025-.077.064-.166.09-.243l.012-.013c0-.013.013-.026.013-.051.013-.026.013-.039.026-.064l.077-.231c.025-.077.051-.154.077-.218l.154-.462c.025-.077.051-.153.077-.243.025-.09.064-.192.09-.295.025-.064.038-.128.064-.192.064-.193.115-.385.18-.59l.076-.27c.013-.063.039-.127.051-.192.026-.102.065-.217.09-.333 0-.013.013-.025.013-.038.039-.154.09-.308.128-.462.065-.243.129-.487.18-.73l.077-.308c0-.013 0-.013.013-.026l.115-.5c.013-.077.039-.154.052-.23.012-.077.038-.154.05-.231.026-.103.04-.218.065-.32.013-.065.026-.116.038-.18l.039-.18c.026-.115.051-.23.064-.346.026-.102.039-.218.064-.32 0-.013 0-.026.013-.039 0-.025.013-.051.026-.077a.62.62 0 0 1 .192-.269.562.562 0 0 1 .32-.102c.04 0 .09.012.13.025l.602.167.398.102h.013l.307.09.372.103.924.243 1.937.526 1.321.359.655.18 1.206.32.41.115.834.218.064.013 1.976.525.487.129c.334.038.5.397.36.705z"/>
                <path fill="#010101" d="M76.872 44.667c.615.141 1.577-.77 1.821-.667.154.064.09.423.103.693.013.68.205.666.205.666l-2.13-.692z" opacity=".08"/>
                <path fill="#7ACEF4" d="M79.36 45.462l-.077-.026-.333-.102-2.078-.667c.461.128 1.039-.32 1.45-.551.012 0 .012-.013.025-.013 0 0 .013 0 .013-.013 0 0 .012 0 .012-.013h.013c.026-.013.039-.025.064-.025 0 0 .013 0 .013-.013.206-.09.347-.103.385.115.064.372.218.744.346.987.065.129.116.218.142.27.012.025.025.038.025.05z"/>
                <path fill="#1B91D0" d="M83.375 33.847a16.6 16.6 0 0 1-.256 1c-.167.577-.36 1.23-.59 1.923-.09.282-.193.577-.282.872-.308.91-.629 1.846-.95 2.756-.14.398-.282.782-.41 1.167-.026.064-.052.14-.077.205l-.039.115a.238.238 0 0 0-.025.09c-.026.09-.052.154-.064.192 0 .013-.013.026-.013.026 0 .013-.013.025-.013.051-.5 1.372-.924 2.5-1.103 3a.377.377 0 0 1-.18.192c-.013 0-.026.013-.038.013h-.013a.37.37 0 0 1-.167-.013 1.4 1.4 0 0 1-.141-.077L79 45.346a.34.34 0 0 1-.064-.076c0-.013-.013-.026-.013-.039a.612.612 0 0 1-.051-.23v-.014c-.013-.115-.013-.269-.013-.448v-.013c0-.09 0-.205-.013-.32v-.039c0-.013 0-.026-.013-.038v-.013c-.013-.039-.025-.052-.051-.064 0 0-.013 0-.013-.013h-.013c-.025-.013-.051-.013-.09 0a1.616 1.616 0 0 1-.128.038h-.013s-.012 0-.012.013c-.013 0-.026.013-.039.026-.013 0-.013.013-.013.013h-.013s-.012 0-.012.012c0 0-.013 0-.013.013-.013 0-.013.013-.026.013 0 0-.013 0-.013.013-.025.013-.064.038-.09.051a4.52 4.52 0 0 1-.256.154c-.218.128-.45.256-.68.308a.375.375 0 0 1-.115.025.82.82 0 0 1-.308-.013c-.167-.05-.18-.14-.129-.243.052-.115.18-.244.283-.398.012-.012.012-.012.012-.025.09-.128.193-.282.296-.462a.39.39 0 0 1 .064-.09c.166-.269.346-.59.538-.96a9.91 9.91 0 0 0 .193-.373c.026-.038.038-.09.064-.128.013-.013.013-.038.026-.051.038-.077.064-.141.102-.218.077-.154.141-.308.218-.474.013-.039.039-.077.052-.116.166-.371.333-.769.5-1.192.013-.013.013-.038.026-.051.025-.077.064-.167.09-.244l.025-.064c.013-.026.013-.038.026-.064l.077-.23c.025-.078.051-.155.077-.219l.154-.461c.025-.077.051-.154.077-.244.025-.09.064-.192.09-.295.025-.064.038-.128.064-.192.064-.192.115-.384.18-.59l.076-.269c.013-.064.039-.128.051-.192.026-.103.065-.218.09-.333 0-.013.013-.026.013-.039.039-.154.09-.308.128-.461.064-.244.129-.487.18-.731l.077-.308c0-.013 0-.013.013-.025l.115-.5c.013-.077.039-.154.051-.231.013-.077.039-.154.052-.23.025-.103.038-.219.064-.321.026-.116.051-.244.077-.36.026-.115.051-.23.064-.345.026-.103.039-.218.064-.32 0-.014 0-.027.013-.04 0-.025.013-.05.026-.076a.847.847 0 0 1 .18-.257l.012-.012c.103-.077.218-.129.32-.103l.63.167c.012 0 .05.012.102.025.026 0 .039.013.077.013h.013c.09.013.192.039.308.077h.013c.205.051.436.103.654.167.013 0 .025.012.038.012.013.013.026.026.026.039.013.09-.039.538-.193 1.18z" opacity=".26"/>
                <g fill="#C5ECFF" transform="translate(84.492 36.104)">
                    <circle cx="1.167" cy=".577" r="1"/>
                    <circle cx="5.606" cy="1.756" r="1"/>
                    <path d="M.282 4.18a.31.31 0 0 1-.18-.385C.36 3.115.95 2.513 1.656 2.23c.603-.244 1.219-.231 1.783.05 1.514.732 1.488 2.167 1.27 2.821a.312.312 0 0 1-.385.192.312.312 0 0 1-.192-.384c.025-.064.449-1.397-.962-2.077a1.57 1.57 0 0 0-1.296-.026C1.334 3.025.859 3.5.667 4.025c-.051.129-.23.205-.385.154z"/>
                </g>
            </g>
            <path fill="#ABE1FA" fill-rule="nonzero" d="M90.906 43.231c-.18.667-.36 1.36-.5 2.051-1.283-.23-6.068-1.115-9.75-3.102.038-.077.628-1.808.628-1.808s5.401 2.834 9.622 2.86z"/>
            <path fill="#3EC1FF" fill-rule="nonzero" d="M83.106 42.039c-.154.244-.885-.038-.693-.282 1.078-2.256.642-3.461-.166-4.128-.655-.538-1.565-.73-2.13-.833.026-.103.064-.218.09-.333 0-.013.013-.026.013-.052.038-.154.077-.307.128-.461.577.09 1.475.307 2.194.807.346.244.641.552.833.936.822 1.692-.269 4.346-.269 4.346zM92.073 39.642c-.115.307-.23.628-.346.948-.834.27-1.617 1.116-1.989 3.154.013.308-.744.103-.73-.18 0 0 .564-2.807 2.206-3.666.282-.14.564-.218.86-.256z"/>
            <path fill="#007BB5" fill-rule="nonzero" d="M82.324 42.513l.32.141c.167.077.372 0 .45-.166l.153-.346a.343.343 0 0 0-.167-.45l-.32-.14a.343.343 0 0 0-.45.167l-.153.346a.343.343 0 0 0 .167.448zM89.071 44.5l.347.052c.18.025.359-.103.384-.282l.052-.372a.344.344 0 0 0-.282-.385l-.347-.051a.344.344 0 0 0-.385.282l-.051.372a.32.32 0 0 0 .282.384z"/>
            <path fill="#F1F1F1" fill-rule="nonzero" d="M92.201 39.45c.783.384.372 1.05.077 1.256-.295.192-.667.269-.86-.013-.192-.295-.063-.449.232-.641.295-.218.23-.756.551-.603z"/>
            <path fill="#92DDF7" fill-rule="nonzero" d="M81.284 40.398l-.487 1.372-.038.115-.103.308-2.117-.949c.013-.038.039-.077.052-.115.166-.372.333-.77.5-1.192.051-.116.09-.244.141-.372l2.052.833z"/>
            <g fill="#1B91D0" fill-rule="nonzero" opacity=".16">
                <path d="M90.752 34.514c-.218.154-.654.449-1.142.551-.782.167-1.578-.269-2.527-.577-1.283-.41-1.604.936-1.783 1.718-.116.474-.064 1.141.077 1.987.038.244.09.487.14.757.18.897-.256 1.64-.936 2.32-.09.09-.18.18-.282.256a14.25 14.25 0 0 1-1.077.846c-.142.103-.295.218-.437.32-.59.437-1.141.847-1.526 1.296-.27.307-.45.628-.5.961-.013.051-.013.115-.013.167 0 .577.91.666 1.475.846.32.102.526.372.654.59l-3.515-1.09c0-.013-.013-.013-.013-.026a.272.272 0 0 0 .18-.192c.192-.513.603-1.628 1.103-3 0-.013.013-.026.013-.051 0-.013.013-.026.013-.026.013-.038.038-.102.064-.192.013-.026.026-.051.026-.09l.038-.115c.026-.064.051-.141.077-.205.141-.372.282-.77.41-1.167.321-.91.655-1.859.95-2.756.103-.295.192-.59.282-.872.218-.692.424-1.346.59-1.923.103-.371.193-.705.257-1 .14-.64.205-1.09.115-1.243-.013-.013-.025-.026-.025-.039l.923.244 1.937.526 1.322.359.654.179 1.206.32.41.116.86.205z"/>
            </g>
            <g fill="#1B91D0" fill-rule="nonzero" opacity=".16">
                <path d="M80.977 37.732c.115-.039.243-.064.372-.039.115.013.23.077.192.218-.077.282-.141.474-.423.718-.283.244-.552-.218-.924.385-.372.602-.423.564-.757.525-.167.013-.333.36-.333.36l.68-1.719 1.193-.448z"/>
            </g>
            <path fill="#F1F1F1" fill-rule="nonzero" d="M82.696 39.103c.756.436 1.09-.269 1.09-.628 0-.346-.141-.705-.487-.705-.347 0-.077.449-.411.577-.577.23-.5.577-.192.756z"/>
            <path fill="#F1F1F1" fill-rule="nonzero" d="M80.669 42.244c.333.128.705.141 1.077.039.975-.295 1.899-1.423 1.77-3.308l-.718.051c.103 1.475-.577 2.36-1.257 2.564-.462.141-.885-.038-1.129-.487-.68-1.218.116-2.166.552-2.55a.368.368 0 0 0 .051-.475c-.128-.18-.372-.218-.539-.064-.73.653-1.526 1.948-.692 3.435.218.385.526.654.885.795z"/>
            <g fill="#D9F2FF" fill-rule="nonzero">
                <path d="M73.357 42.103c0 .026 0 .064.012.09.052.128.193.18.321.128a6.55 6.55 0 0 0 1.116-.577.247.247 0 0 0 .077-.333.247.247 0 0 0-.333-.077c-.321.205-.667.385-1.04.538a.26.26 0 0 0-.153.231zM51.433 26.758c.128-.013.244.09.257.23a7.09 7.09 0 0 0 .564 2.283c.051.128 0 .269-.128.32-.128.052-.27 0-.32-.128a7.372 7.372 0 0 1-.604-2.448v-.013c.013-.128.103-.231.231-.244zm1.18 3.692c.116-.077.257-.038.334.064a8.627 8.627 0 0 0 1.565 1.782.245.245 0 1 1-.32.372 8.911 8.911 0 0 1-1.656-1.885.247.247 0 0 1-.038-.128c0-.077.038-.154.115-.205zm2.72 2.77a.234.234 0 0 1 .333-.078l.09.052a11 11 0 0 0 2.091.923c.129.038.193.179.154.307-.038.128-.18.193-.308.154a11.959 11.959 0 0 1-2.18-.961l-.103-.064a.246.246 0 0 1-.116-.206c.013-.05.026-.09.039-.128zm3.617 1.46a.245.245 0 0 1 .283-.192c.744.154 1.54.27 2.386.334.128.012.23.128.218.256a.241.241 0 0 1-.257.218 17.81 17.81 0 0 1-2.463-.346.244.244 0 0 1-.192-.23c.025-.014.025-.027.025-.04zm3.887.436c0-.128.116-.243.244-.243h.205c.026-.27.065-.551.116-.82a.245.245 0 0 1 .282-.193.245.245 0 0 1 .193.282c-.052.244-.09.475-.116.718.539 0 1.116-.026 1.745-.064.128-.013.243.09.256.23.013.129-.09.244-.23.257-.642.039-1.232.064-1.797.064-.012.385 0 .77.052 1.154a.244.244 0 0 1-.218.27.244.244 0 0 1-.27-.219 7.579 7.579 0 0 1-.051-1.205h-.18c-.115.013-.23-.09-.23-.23 0 .012 0 0 0 0zm.963 2.628c.128-.038.269.026.307.154.154.462.372.91.629 1.308.154.256.346.5.539.718a.244.244 0 0 1-.026.346.245.245 0 0 1-.346-.026 5.583 5.583 0 0 1-.577-.782c-.283-.436-.5-.91-.68-1.41-.013-.025-.013-.051-.013-.077 0-.102.064-.192.167-.23zm.05-5.127c.322-.808.77-1.526 1.31-2.154a.245.245 0 0 1 .346-.026c.102.09.115.244.025.346a7.13 7.13 0 0 0-1.231 2.013c-.051.128-.193.18-.32.128a.253.253 0 0 1-.155-.23c0-.013.013-.052.026-.077zm2.118 8.332a.243.243 0 0 1 .333-.05 7.545 7.545 0 0 0 2.091 1.089c.128.038.193.18.154.307-.038.129-.18.193-.308.154a8.012 8.012 0 0 1-2.232-1.154.243.243 0 0 1-.103-.192c.013-.064.026-.115.065-.154zm.307-11.499c.18-.128.36-.256.552-.359a4.944 4.944 0 0 1 1.783-.628c.128-.025.257.064.282.205.026.128-.064.257-.205.282a4.76 4.76 0 0 0-1.616.564c-.18.103-.347.205-.513.334a.243.243 0 0 1-.334-.052.269.269 0 0 1-.051-.14c.013-.09.038-.167.102-.206zm.693 5.256c.962-.102 1.693-.256 2.322-.5a.228.228 0 0 1 .308.141.228.228 0 0 1-.141.308c-.667.256-1.45.423-2.45.526a.244.244 0 0 1-.27-.218v-.026c.026-.103.116-.218.231-.23zm2.54 7.807c.013-.128.141-.23.27-.205.359.051.718.077 1.077.077.436 0 .86-.038 1.283-.115a.245.245 0 0 1 .282.192.245.245 0 0 1-.192.282 8.4 8.4 0 0 1-2.514.038.238.238 0 0 1-.206-.243v-.026zm.372-13.845a.234.234 0 0 1 .295-.18c.693.155 1.257.526 1.63 1.052.14.192.243.397.32.628.039.128-.026.27-.154.308-.128.038-.27-.026-.308-.154a2.3 2.3 0 0 0-.256-.5c-.308-.436-.77-.73-1.347-.859a.244.244 0 0 1-.193-.23c.013-.026.013-.04.013-.065zm.642 4.872a3.363 3.363 0 0 0 1.193-1.898.234.234 0 0 1 .295-.18.234.234 0 0 1 .18.296 3.956 3.956 0 0 1-1.373 2.166.259.259 0 0 1-.347-.038c-.038-.039-.051-.103-.051-.154 0-.077.038-.141.103-.192zM51.305 25.515c0 .115.077.218.192.243a.245.245 0 0 0 .282-.192c.077-.385.193-.756.347-1.103.051-.128 0-.269-.128-.32-.129-.051-.27 0-.321.128a5.696 5.696 0 0 0-.372 1.205v.039z"/>
            </g>
            <g fill-rule="nonzero">
                <path fill="#87C23F" d="M143.45 183.553h-40.306a8.97 8.97 0 0 1-8.98-8.973V99.11a8.97 8.97 0 0 1 8.98-8.973h40.306a8.97 8.97 0 0 1 8.98 8.973v75.469a8.97 8.97 0 0 1-8.98 8.973z"/>
                <path fill="#70A230" d="M143.463 90.138h-27.068c1.296 2.269 5.606 8.743 12.52 8.332 13.881-.833 22.81 11.243 4.132 27.37-7.287 6.294-10.635 16.806-3.22 29.831 4.066 7.153 2.322 19.537-17.242 21.165-6.234.513-7.889 2.64-10.955 6.564.488.09.988.153 1.514.153h40.332c4.952 0 8.967-4.012 8.967-8.96V99.086c-.013-4.936-4.028-8.948-8.98-8.948z" opacity=".64"/>
                <path fill="#FFF" d="M141.847 96.855h-7.377a2 2 0 0 0-1.693.936l-1.526 2.359a2.017 2.017 0 0 1-1.694.936h-11.404c-.68 0-1.321-.36-1.706-.949l-1.501-2.333a2.018 2.018 0 0 0-1.706-.949h-8.133c-2.258 0-4.08 1.897-4.08 4.23v69.405c0 3.5 2.745 6.346 6.12 6.346h32.647c3.387 0 6.12-2.846 6.12-6.346v-69.404c.012-2.334-1.81-4.23-4.067-4.23z"/>
            </g>
            <g fill-rule="nonzero">
                <path fill="#BADD8E" d="M139.756 149.48l-5.375-5.372c-.039-.039-.064-.064-.103-.09a15.293 15.293 0 0 0 3.117-9.256c0-8.473-6.876-15.332-15.342-15.332-8.467 0-15.343 6.872-15.343 15.332 0 8.474 6.876 15.333 15.343 15.333 3.746 0 7.184-1.346 9.852-3.577l.038.038 5.375 5.372c.334.333.783.5 1.22.5a1.725 1.725 0 0 0 1.219-2.948z"/>
                <g fill="#8BC63F" transform="translate(113.868 129.301)">
                    <path d="M2.927 7.32c.308 0 .616.142.821.398 1.463 1.833 3.028 2.769 4.657 2.769h.026c2.835 0 5.118-2.756 5.13-2.782a1.055 1.055 0 0 1 1.476-.154c.45.36.526 1.026.154 1.475-.115.14-2.912 3.563-6.76 3.563h-.013c-2.297 0-4.413-1.205-6.299-3.563a1.055 1.055 0 0 1 .167-1.475c.18-.153.41-.23.641-.23z"/>
                    <ellipse cx="1.886" cy="1.795" rx="1.77" ry="1.769"/>
                    <ellipse cx="14.676" cy="1.795" rx="1.77" ry="1.769"/>
                </g>
                <g fill="#DAEDC2">
                    <path d="M137.819 123.686a.42.42 0 0 1 .14-.192l5.902-4.871a.439.439 0 0 1 .628.09.438.438 0 0 1-.09.628l-5.9 4.871a.439.439 0 0 1-.629-.09.445.445 0 0 1-.051-.436zM138.806 127.353a.464.464 0 0 1 .347-.282l4.054-.782a.46.46 0 0 1 .526.359.46.46 0 0 1-.36.525l-4.053.782a.46.46 0 0 1-.526-.359.397.397 0 0 1 .012-.243zM136.356 118.584a.424.424 0 0 1 .488-.051.464.464 0 0 1 .205.602l-.744 1.603a.465.465 0 0 1-.603.205.464.464 0 0 1-.205-.602l.744-1.603a.35.35 0 0 1 .115-.154z"/>
                </g>
            </g>
            <g>
                <g transform="translate(40.875 98.79)">
                    <mask id="F" fill="#fff">
                        <use xlink:href="#E"/>
                    </mask>
                    <path fill="#000" fill-rule="nonzero" d="M100.304 45.51s2.976 6.922 6.35 11.703c7.197 10.153 5.478 16.768 5.953 15.922 4.528-8.05-8.352-30.036-8.352-30.036l-3.95 2.41z" mask="url(#F)" opacity=".08"/>
                </g>
                <g transform="translate(40.875 98.79)">
                    <mask id="H" fill="#fff">
                        <use xlink:href="#G"/>
                    </mask>
                    <path fill="#925B4A" fill-rule="nonzero" d="M-6.979 66.046s47.196.962 58.677 20.075c11.481 19.114 5.067 40.318 14.316 40.959 9.25.64 17.254 12.268 17.254 12.268l-97.25-3.5 7.003-69.802z" mask="url(#H)"/>
                </g>
                <g transform="translate(40.875 98.79)">
                    <mask id="J" fill="#fff">
                        <use xlink:href="#I"/>
                    </mask>
                    <path fill="#C48F6B" fill-rule="nonzero" d="M.051 61.495s42.141 1.308 60.73 35.984c3.886 7.77-6.94 14.974-12.213 2.218-5.273-12.755-36.586-30.151-51.3-27.1-14.714 3.05-8.878-13.602 2.783-11.102z" mask="url(#J)"/>
                </g>
                <g transform="translate(40.875 98.79)">
                    <mask id="L" fill="#fff">
                        <use xlink:href="#K"/>
                    </mask>
                    <path fill="#2D2A29" fill-rule="nonzero" d="M41.576 79.93c-16.587-11.102-25.58-7.346-33.11.692-4.938 5.269-5.618 14.627-.538 24.293-2.463 6.384-4.067 7.717-5.696-7.705-3.797-35.676 27.016-26.844 27.016-26.844 6.992 2.051 9.93 6.859 12.328 9.564z" mask="url(#L)" opacity=".16"/>
                </g>
                <g transform="translate(40.875 98.79)">
                    <mask id="N" fill="#fff">
                        <use xlink:href="#M"/>
                    </mask>
                    <path fill="#F5A74F" fill-rule="nonzero" d="M109.656 46.83s.783-6.192-5.811-8.333c-6.594-2.128-5.76 10.358 2.001 10.397 4.99.025 4.002 9.845 4.002 9.845 5.337 2.936-.192-11.91-.192-11.91z" mask="url(#N)"/>
                </g>
                <g transform="translate(40.875 98.79)">
                    <mask id="P" fill="#fff">
                        <use xlink:href="#O"/>
                    </mask>
                    <path fill="#925B4A" fill-rule="nonzero" d="M110.272 116.119c-35.804 42.804-77.098 17.935-91.786 3.295-4.785-4.77-8.416-9.653-10.879-14.333C2.72 95.774 2.45 87.25 6.863 81.878c6.953-8.46 17.152-13.73 33.123-3.025 5.619 3.756 11.956 9.499 19.114 17.768 27.516 31.766 68.593-15.794 45.964-46.253-.026-.026-.039-.064-.065-.09l4.811-3.269c10.955 12.166 24.643 40.215.462 69.11z" mask="url(#P)"/>
                </g>
                <g transform="translate(40.875 98.79)">
                    <mask id="R" fill="#fff">
                        <use xlink:href="#Q"/>
                    </mask>
                    <path fill="#C48F6B" fill-rule="nonzero" d="M110.618 49.15l-4.092 2.577c-.783.5-1.834.256-2.335-.526-.5-.782-.256-1.833.526-2.333l4.092-2.577c.783-.5 1.835-.256 2.335.526a1.71 1.71 0 0 1-.526 2.333z" mask="url(#R)"/>
                </g>
                <g transform="translate(40.875 98.79)">
                    <mask id="T" fill="#fff">
                        <use xlink:href="#S"/>
                    </mask>
                    <path fill="#2D2A29" fill-rule="nonzero" d="M8.941 99.57c.847 1.14 40.435 22.318 67.708 16.434 27.273-5.884 40.075-32.05 42.564-37.972 1.616-3.846 2.373 26.203 1.604 26.973-.77.769-22.193 27.664-24.605 28.651-2.412.987-58.381 12.025-60.152 10.743C34.29 143.117-.038 121.63.23 118.31c.27-3.32 0-24.806 0-24.806s1.27-3.974 8.711 6.064z" mask="url(#T)" opacity=".12"/>
                </g>
                <g fill-rule="nonzero" transform="translate(32.665 87.638)">
                    <ellipse cx="34.753" cy="44.511" fill="#ECA652" rx="28.043" ry="27.793" transform="rotate(-4.297 34.753 44.51)"/>
                    <path fill="#F3911F" d="M61.345 34.19s4.58 6.268-5.285 11.05c-17.742 8.59-5.76 17.435-13.24 20.806-5.08 2.282-7.799-8.5-18.985-8.358C9.044 57.88 2.59 47.714 3.117 39.88c.821-12.204 58.228-5.691 58.228-5.691z"/>
                    <path fill="#1CACA3" d="M60.883 34.138c-1.334 1.898-3.733 3.833-7.787 5.795-2.617 1.269-3.425 5.294-3.669 9.602-.41 7.37.847 15.588-2.488 12.306 0 0-.475-2.166-1.322-4.602-1.372-3.897-3.707-8.5-6.658-6.012-2.924 2.461-.526 6.358-.526 6.371 2.092 2.192 2.964 4.666 3.118 4.59 0 0 .923 1.666 1.693 3.64.513 1.32.975 2.77 1.052 3.949.257 3.96-10.07 4.076-14.868 3.076-9.672-2-26.99-8.781-26.901-30.69v-.05c0-.309.013-.63.026-.95v-.025c.154-3.68 1.052-7.692 2.925-12.012 13.405-30.805 52.48-15.063 53.968-9.05 1.065 4.345 4.926 9.088 1.437 14.062z"/>
                    <path fill="#2D2A29" d="M60.883 34.138c-1.334 1.898-3.733 3.833-7.787 5.795-2.617 1.269-3.425 5.294-3.669 9.602-2.912 2.704-3.669 5.332-3.822 7.704-1.373-3.897-3.708-8.5-6.658-6.012-2.925 2.461-.526 6.358-.526 6.371 2.09 2.192 2.963 4.666 3.117 4.59 0 0 .924 1.666 1.693 3.64-.128.077-.27.141-.423.205-5.08 2.282-7.8-8.5-18.986-8.358-14.79.192-21.244-9.986-20.718-17.806.783-11.55 52.353-6.32 57.779-5.73z" opacity=".16"/>
                    <path fill="#A8715E" d="M12.585 14.089c-4.606 2.14-8.416 5.704-10.648 10.23-2.052 4.179-3.104 9.653.937 14.845 8.081 10.383 57.085 19.14 64.731-10.205 5.003-19.178-34.162-24.55-55.02-14.87z"/>
                    <path fill="#925B4A" d="M58.279 33.395c2.258-2.039 5.157-6 4.733-9.794-.885-7.923-19.293-19.845-35.906-16.012C3.72 12.986 1.373 33.356 5.246 40.305c3.682 6.614 30.134 13.742 53.033-6.91z"/>
                    <path fill="#A8715E" d="M24.027 8.422S15.445 28.37 18.73 46.804c0 0 19.692 2.602 31.891-7.358 0 0-1.513-21.806-26.593-31.024z"/>
                    <path fill="#2D2A29" d="M28.44.013c-2.488-.09-3.72 8.474-3.72 8.474 2.053-.577 1.616-4.116 2.63-5.256a1.553 1.553 0 0 1 1.616-.436c.808.256 2.874 1.987 1.322 2.807-1.45.77-2.579.244-5.58 2.872l5.862-.782c5.875-.77.359-7.59-2.13-7.68zM24.72 8.5s-4.58-8.615-8.095-4.064c-2.078 2.666.026 5.358 8.095 4.063z"/>
                    <path fill="#754C44" d="M44.27 8.217s.706 2.423 2.758 3.641c2.053 1.23 6.312 4.859 3.438 8.422-2.873 3.577 3.939 9.974-9.249 12.73-13.187 2.77-14.804 9-23.63 9.538-8.825.538-12.969-1.282-13.559-2.013-.59-.73 9.455 7.077 19.743 6.295 10.3-.782 23.424-4.115 30.8-10.359 7.377-6.243 11.905-11.332 5.427-18.883 0 0-1.296-2.243-11.097-7.396l-4.63-1.975z" opacity=".24"/>
                    <path fill="#FFF" d="M18.024 5.564c.09-.436-.218-2.974 5.914 2.5-.077.205-6.338-.552-5.914-2.5z"/>
                </g>
            </g>
        </g>
    </g>
</svg>
