<svg xmlns="http://www.w3.org/2000/svg" width="49" height="49" viewBox="0 0 49 49">
    <defs>
        <linearGradient id="a" x1="50%" x2="50%" y1="33.097%" y2="7.053%">
            <stop offset="0%" stop-color="#C97520"/>
            <stop offset="100%" stop-color="#F8A33F"/>
        </linearGradient>
        <linearGradient id="b" x1="50%" x2="50%" y1="106.201%" y2="35.016%">
            <stop offset="0%" stop-color="#007BB5"/>
            <stop offset="100%" stop-color="#123D89"/>
        </linearGradient>
        <linearGradient id="c" x1="-.65%" x2="52.954%" y1="70.501%" y2="48.804%">
            <stop offset="0%" stop-color="#A7E3FF"/>
            <stop offset="100%" stop-color="#0095DA"/>
        </linearGradient>
        <linearGradient id="d" x1="50%" x2="50%" y1="93.439%" y2="22.143%">
            <stop offset="0%" stop-color="#007BB5"/>
            <stop offset="100%" stop-color="#123D89"/>
        </linearGradient>
    </defs>
    <g fill="none" fill-rule="evenodd">
        <g fill-rule="nonzero">
            <path fill="url(#a)" d="M15.313 7.963H9.085v-6.33c0-.816.715-1.53 1.532-1.53h3.164c.817 0 1.531.714 1.531 1.53v6.33zM37.77 7.963h-6.226v-6.33c0-.816.714-1.53 1.531-1.53h3.165c.816 0 1.53.714 1.53 1.53v6.33z" transform="translate(1 8.51)"/>
            <path fill="url(#b)" d="M44.815 9.596c-.613-4.186-4.186-7.452-8.575-7.452H10.719c-3.88 0-7.146 2.552-8.269 6.125-1.531 3.368-2.348 9.085-.919 18.273.102.918.51 1.94 1.021 2.654 2.348 3.369 6.227 1.531 13.475-6.431 1.633-1.838 4.39-3.267 7.554-3.267 2.96 0 5.819 1.735 7.044 3.062 7.758 8.473 11.127 10.005 13.475 6.738.612-.817.919-1.838 1.123-2.756 1.225-8.065.715-13.373-.408-16.946z" transform="translate(1 8.51)"/>
            <path fill="url(#c)" d="M36.24 19.498H10.719a8.67 8.67 0 0 1-8.677-8.677 8.67 8.67 0 0 1 8.677-8.677h25.52a8.67 8.67 0 0 1 8.678 8.677 8.67 8.67 0 0 1-8.677 8.677z" transform="translate(1 8.51)"/>
            <path fill="#FFF" d="M18.15 18.208h-3.267v-3.266c0-.613-.51-1.225-1.225-1.225-.714 0-1.225.51-1.225 1.225v3.266H9.167c-.613 0-1.225.51-1.225 1.225 0 .613.51 1.225 1.225 1.225h3.266v3.267c0 .613.51 1.225 1.225 1.225.715 0 1.225-.51 1.225-1.225v-3.267h3.267c.613 0 1.225-.51 1.225-1.225 0-.714-.51-1.225-1.225-1.225z"/>
            <g fill="#FFF" transform="translate(31.625 13.615)">
                <circle cx="6.635" cy="2.654" r="2.552"/>
                <circle cx="2.552" cy="8.779" r="2.552"/>
            </g>
            <g fill="#A7E3FF">
                <path d="M23.458 24.946h-1.633a.44.44 0 0 1-.408-.408.44.44 0 0 1 .408-.409h1.633a.44.44 0 0 1 .409.409.44.44 0 0 1-.409.408zM27.133 24.946H25.5a.44.44 0 0 1-.408-.408.44.44 0 0 1 .408-.409h1.633a.44.44 0 0 1 .409.409.44.44 0 0 1-.409.408z"/>
            </g>
            <path fill="#A7E3FF" d="M27.542 14.738h-6.125c-.613 0-1.021-.409-1.021-1.021v-3.063h8.166v3.063c0 .612-.408 1.02-1.02 1.02z"/>
        </g>
        <g fill-rule="nonzero">
            <path fill="url(#a)" d="M15.313 7.963H9.085v-6.33c0-.816.715-1.53 1.532-1.53h3.164c.817 0 1.531.714 1.531 1.53v6.33zM37.77 7.963h-6.226v-6.33c0-.816.714-1.53 1.531-1.53h3.165c.816 0 1.53.714 1.53 1.53v6.33z" transform="translate(1 8.51)"/>
            <path fill="url(#d)" d="M2.45 8.269C.919 11.637.102 17.354 1.531 26.542c.102.918.51 1.94 1.021 2.654 2.348 3.369 6.227 1.531 13.475-6.431 1.633-1.838 4.39-3.267 7.554-3.267 2.96 0 5.819 1.735 7.044 3.062 7.758 8.473 11.127 10.005 13.475 6.738.612-.817.919-1.838 1.123-2.756 1.225-8.065.817-13.373-.408-16.844L2.45 8.268z" transform="translate(1 8.51)"/>
            <path fill="url(#c)" d="M36.24 19.498H10.719a8.67 8.67 0 0 1-8.677-8.677 8.67 8.67 0 0 1 8.677-8.677h25.52a8.67 8.67 0 0 1 8.678 8.677 8.67 8.67 0 0 1-8.677 8.677z" transform="translate(1 8.51)"/>
            <path fill="#FFF" d="M18.15 18.208h-3.267v-3.266c0-.613-.51-1.225-1.225-1.225-.714 0-1.225.51-1.225 1.225v3.266H9.167c-.613 0-1.225.51-1.225 1.225 0 .613.51 1.225 1.225 1.225h3.266v3.267c0 .613.51 1.225 1.225 1.225.715 0 1.225-.51 1.225-1.225v-3.267h3.267c.613 0 1.225-.51 1.225-1.225 0-.714-.51-1.225-1.225-1.225z"/>
            <g fill="#FFF" transform="translate(31.625 13.615)">
                <circle cx="6.635" cy="2.654" r="2.552"/>
                <circle cx="2.552" cy="8.779" r="2.552"/>
            </g>
            <g fill="#A7E3FF">
                <path d="M23.458 24.946h-1.633a.44.44 0 0 1-.408-.408.44.44 0 0 1 .408-.409h1.633a.44.44 0 0 1 .409.409.44.44 0 0 1-.409.408zM27.133 24.946H25.5a.44.44 0 0 1-.408-.408.44.44 0 0 1 .408-.409h1.633a.44.44 0 0 1 .409.409.44.44 0 0 1-.409.408z"/>
            </g>
            <path fill="#A7E3FF" d="M27.542 14.738h-6.125c-.613 0-1.021-.409-1.021-1.021v-3.063h8.166v3.063c0 .612-.408 1.02-1.02 1.02z"/>
        </g>
        <path fill="#A7E3FF" fill-rule="nonzero" d="M45.1 37.808c.612-.816.919-1.837 1.123-2.756 1.225-8.065.817-13.373-.408-16.844a7.84 7.84 0 0 0-2.246-4.696l-.102-.102-.409-.408-.204-.204c-.102-.102-.306-.204-.408-.306-.102-.102-.204-.102-.204-.205-.102-.102-.204-.204-.409-.204-.102-.102-.204-.102-.306-.204-.102-.102-.204-.102-.408-.204-.102-.102-.204-.102-.409-.204-.102-.102-.204-.102-.408-.204-.102-.102-.306-.102-.408-.102-.102 0-.204-.103-.306-.103-.103 0-.307-.102-.51-.102-.103 0-.205-.102-.307-.102-.204 0-.408-.102-.51-.102H13.25s5.002 5.309 19.396 1.94c8.473-2.042 12.352 8.677 7.146 11.637-5.309 2.96 2.45 3.88-3.982 8.473-.714.51-1.429.409-1.735.919 6.023 6.125 8.881 7.044 11.025 4.083z" opacity=".72" style="mix-blend-mode:soft-light"/>
        <path d="M0 0h49v49H0z"/>
    </g>
</svg>
