<svg xmlns="http://www.w3.org/2000/svg" xmlns:xlink="http://www.w3.org/1999/xlink" width="24" height="24" viewBox="0 0 24 24">
    <defs>
        <path id="a" d="M12 2C6.5 2 2 6.5 2 12s4.5 10 10 10 10-4.5 10-10S17.5 2 12 2zm4.6 14.6c-.2.2-.6.4-.9.4-.3 0-.6-.1-.9-.4L12 13.8l-2.8 2.9c-.2.2-.6.3-.9.3-.3 0-.6-.1-.9-.4-.5-.5-.5-1.3 0-1.8l2.8-2.9-2.8-2.7c-.5-.5-.5-1.3 0-1.8s1.3-.5 1.8 0l2.9 2.8 2.8-2.9c.5-.5 1.3-.5 1.8 0s.5 1.3 0 1.8L13.8 12l2.9 2.8c.4.5.4 1.3-.1 1.8z"/>
    </defs>
    <g fill="none" fill-rule="evenodd">
        <mask id="b" fill="#fff">
            <use xlink:href="#a"/>
        </mask>
        <g fill="#fff" mask="url(#b)">
            <path d="M0 0h24v24H0z"/>
        </g>
    </g>
</svg>
