<svg xmlns="http://www.w3.org/2000/svg" width="22" height="22" viewBox="0 0 22 22">
    <g fill="none" fill-rule="evenodd">
        <path d="M-1-1h24v24H-1z"/>
        <g fill-rule="nonzero">
            <path fill="#858585" d="M22 14.889a7.133 7.133 0 0 0-3.912-6.352c-.073 5.234-4.317 9.478-9.551 9.551A7.133 7.133 0 0 0 14.889 22c1.28 0 2.524-.34 3.618-.989l3.462.958-.958-3.462A7.086 7.086 0 0 0 22 14.89z"/>
            <path fill="#BDBDBD" d="M16.8 8.4c0-4.632-3.768-8.4-8.4-8.4C3.768 0 0 3.768 0 8.4c0 1.51.402 2.98 1.165 4.27L.03 16.77l4.1-1.134A8.374 8.374 0 0 0 8.4 16.8c4.631 0 8.4-3.769 8.4-8.4zM7.112 6.445H5.822A2.58 2.58 0 0 1 8.4 3.867a2.58 2.58 0 0 1 2.579 2.578c0 .722-.306 1.415-.839 1.903L9.045 9.35v1.005h-1.29V8.783L9.27 7.397a1.29 1.29 0 0 0-.87-2.24c-.71 0-1.289.577-1.289 1.288zm.645 5.2h1.289v1.289h-1.29v-1.29z"/>
        </g>
    </g>
</svg>
