<svg xmlns="http://www.w3.org/2000/svg" xmlns:xlink="http://www.w3.org/1999/xlink" width="48" height="48" viewBox="0 0 48 48">
    <defs>
        <path id="a" d="M21.474 0c11.86 0 21.473 9.614 21.473 21.474s-9.614 21.473-21.473 21.473C9.614 42.947 0 33.333 0 21.474 0 9.614 9.614 0 21.474 0z"/>
    </defs>
    <g fill="none" fill-rule="evenodd">
        <path fill="#FFF" d="M24 0C10.745 0 0 10.745 0 24s10.745 24 24 24 24-10.745 24-24S37.255 0 24 0"/>
        <g transform="translate(2.526 2.526)">
            <mask id="b" fill="#fff">
                <use xlink:href="#a"/>
            </mask>
            <use fill="#DAF3FF" xlink:href="#a"/>
            <g mask="url(#b)">
                <path d="M-.669 21.693c0 12.079 9.792 21.871 21.872 21.871 12.079 0 21.87-9.792 21.87-21.871 0-12.08-9.791-21.871-21.87-21.871C9.123-.178-.67 9.614-.67 21.692"/>
                <path fill="#72519D" d="M-6.225 58.905S11.872 37.92 17.477 31.882c3.304-3.56 5.766-3.095 8.18-3.423 8.968-1.215 15.43 19.028 17.849 21.544 2.838 2.951-18.08 16.739-18.046 16.398.035-.34-21.697-1.386-21.403-1.5.293-.113-10.282-5.996-10.282-5.996"/>
                <g>
                    <path d="M-.669 21.693c0 12.079 9.792 21.871 21.872 21.871 12.079 0 21.87-9.792 21.87-21.871 0-12.08-9.791-21.871-21.87-21.871C9.123-.178-.67 9.614-.67 21.692"/>
                    <path fill="#000" fill-opacity=".16" d="M29.612 32.82c4.08.874 2.905 6.465-5.997 8.245-4.97.994-11.338 1.218-12.65.937-1.312-.28 11.619 4.123 12.181 4.217.562.094 8.902 4.966 15.836 0 .766-.549 1.222-1.206 1.427-1.941-1.891-3.878-4.38-8.808-7.364-12.137a73.49 73.49 0 0 0-2.693-2.41c-1.474-.99-3.042-1.496-4.696-1.272 0 0-.124 3.486 3.956 4.36"/>
                </g>
                <g>
                    <path fill="#F5A74F" d="M30.986 13.77c.796 5.91-3.349 11.347-9.259 12.144-5.91.796-11.347-3.349-12.143-9.259-.797-5.91 3.349-11.347 9.259-12.143 5.91-.797 11.347 3.348 12.143 9.259"/>
                    <path fill="#00B5A9" d="M26.375 9.879c-.053.036-3.627 7.532-3.277 7.861.303.285.795.378.927.544 1.304 1.648.501.535.592-1.276.069-1.35 1.175-3.003 2.746-2.67 1.464.312 2.687 2.724.31 6.561-2.378 3.837-.211 3.678 1.854 2.061 2.583-2.022 3.854-7.031 1.805-11.773-2.05-4.742-4.957-1.308-4.957-1.308"/>
                    <path fill="#00B5A9" d="M23.898 10.159s.822 5.668-3.872 8.145c-4.693 2.476-9.377.491-10.688 1.1-1.056.49-.64 4.88 3.62 6.26 3.083.998 3.468 4.03 5.5 3.63 5.77-1.137 8.414-6.343 6.709-9.517-1.917-3.568 1.76-9.991 1.725-9.957-.036.035-2.994.339-2.994.339"/>
                    <path fill="#00B5A9" d="M15.373 29.434c.351-.064.494-.494.262-.765-.74-.866-2.456-2.592-4.095-2.189-1.928.474 1.866 3.312 3.833 2.954"/>
                    <path fill="#000" fill-opacity=".12" d="M18.457 29.293c-2.03.4-2.416-2.63-5.5-3.63a6.647 6.647 0 0 1-1.593-.753s2.771-.189 4.932 2.097c2.161 2.286 2.639 1.703 4.814.8 1.213-.503 2.302-1.734 3.037-1.847-1.225 1.551-3.156 2.835-5.69 3.333"/>
                    <path fill="#00B5A9" d="M14.59 6.16c2.51.313 7.56 1.085 9.308 3.999l1.22.386 3.116-.42 2.678.222S25.622.959 14.497 5.295c-.44.171-.377.806.092.865"/>
                    <path fill="#000" fill-opacity=".08" d="M29.527 22.96c2.583-2.022 3.855-7.03 1.805-11.773a8.046 8.046 0 0 0-.42-.84l-.04-.069c-.06-.1-.12-.193-.18-.282-.73-1.102-3.916-5.246-9.49-5.845 6.316 2.545 3.695 5.464 6.862 7.619 2.605 1.772 4.286 5.68 2.187 9.403-.997 1.769-2.495 2.324-3.591 2.455.205.797 1.556.359 2.867-.668"/>
                </g>
            </g>
        </g>
    </g>
</svg>
