<svg xmlns="http://www.w3.org/2000/svg" width="22" height="21" viewBox="0 0 22 21">
    <g fill="none" fill-rule="evenodd">
        <path d="M-1-1h24v24H-1z"/>
        <path fill="#A7E3FF" d="M5.33 9.853L1.72 13.612v6.342c0 .179.144.324.323.324h4.386a.324.324 0 0 0 .323-.324v-9.729L5.74 9.853h-.41zM14.264 12.801H9.88a.324.324 0 0 0-.324.324v6.83c0 .178.145.323.324.323h4.385a.324.324 0 0 0 .324-.324v-6.83a.324.324 0 0 0-.324-.323zM21.94 5.983a1.183 1.183 0 0 1-1.3-.14l-.797-.666-2.883 3.145v11.633c0 .178.145.323.324.323h4.386a.324.324 0 0 0 .323-.323V5.95c-.018.01-.034.023-.053.033z"/>
        <path fill="#74D3FF" fill-rule="nonzero" d="M12.466 11.29c.247.09.523.023.7-.17l6.652-7.256 1.557 1.3a.245.245 0 0 0 .4-.209l-.337-3.772a.244.244 0 0 0-.265-.222l-3.773.337a.245.245 0 0 0-.135.432l1.56 1.303-6.32 6.893L5.292 7.27a.648.648 0 0 0-.69.159L.181 12.031a.647.647 0 0 0 .933.897l4.128-4.296 7.224 2.658z"/>
    </g>
</svg>
