<svg xmlns="http://www.w3.org/2000/svg" xmlns:xlink="http://www.w3.org/1999/xlink" width="237" height="174" viewBox="0 0 237 174">
    <defs>
        <rect id="a" width="287.003" height="234.731" x=".726" y=".473" rx="7.918"/>
        <path id="c" d="M32.498 147.805s-23.67-36.632-19.574-69.064c1.2-9.468-18.505-25.86-11.294-33.607 9.337-10.028 35.576-3.69 39.018-6.729 4.8-4.225 14.332-7.446 18.153-7.772 26.695-2.295 35.993 5.868 54.316 5.36C131.635 35.47 152.787 0 179.077 0c32.498 0 75.35 38.77 40.544 87.648-30.894 43.4 2.478 31.963 5.882 50.65.482 2.674 6.312 5.947 5.307 10.094l-198.312-.587z"/>
        <path id="e" d="M32.498 147.805s-23.67-36.632-19.574-69.064c1.2-9.468-18.505-25.86-11.294-33.607 9.337-10.028 35.576-3.69 39.018-6.729 4.8-4.225 14.332-7.446 18.153-7.772 26.695-2.295 35.993 5.868 54.316 5.36C131.635 35.47 152.787 0 179.077 0c32.498 0 75.35 38.77 40.544 87.648-30.894 43.4 2.478 31.963 5.882 50.65.482 2.674 6.312 5.947 5.307 10.094l-198.312-.587z"/>
        <path id="g" d="M32.498 147.805s-23.67-36.632-19.574-69.064c1.2-9.468-18.505-25.86-11.294-33.607 9.337-10.028 35.576-3.69 39.018-6.729 4.8-4.225 14.332-7.446 18.153-7.772 26.695-2.295 35.993 5.868 54.316 5.36C131.635 35.47 152.787 0 179.077 0c32.498 0 75.35 38.77 40.544 87.648-30.894 43.4 2.478 31.963 5.882 50.65.482 2.674 6.312 5.947 5.307 10.094l-198.312-.587z"/>
        <path id="i" d="M32.498 147.805s-23.67-36.632-19.574-69.064c1.2-9.468-18.505-25.86-11.294-33.607 9.337-10.028 35.576-3.69 39.018-6.729 4.8-4.225 14.332-7.446 18.153-7.772 26.695-2.295 35.993 5.868 54.316 5.36C131.635 35.47 152.787 0 179.077 0c32.498 0 75.35 38.77 40.544 87.648-30.894 43.4 2.478 31.963 5.882 50.65.482 2.674 6.312 5.947 5.307 10.094l-198.312-.587z"/>
    </defs>
    <g fill="none" fill-rule="evenodd" transform="translate(-30.667 -28.994)">
        <mask id="b" fill="#fff">
            <use xlink:href="#a"/>
        </mask>
        <path fill="#D9F2FF" d="M60.401 191.963s-39.514-61.136-7.616-95.381c38.418-41.249 60.549-15.65 88.209-16.432 18.518-.521 39.67-35.993 65.96-35.993 32.498 0 75.35 38.771 40.544 87.648-35.314 49.595 11.294 26.812 3.182 59.988l-190.279.17z" mask="url(#b)"/>
        <g mask="url(#b)">
            <g transform="translate(27.903 44.157)">
                <mask id="d" fill="#fff">
                    <use xlink:href="#c"/>
                </mask>
                <path fill="#A6E2FF" d="M40.896 147.531c0-3.22-3.73-2.947-3.73-2.947-11.306 0-11.84-11.971-11.854-13.55V54.408h-1.108V131.1c-.026 1.578-.548 13.55-11.854 13.55 0 0-3.73-.275-3.73 2.947h16.692v-.053h15.584v-.013z" mask="url(#d)"/>
            </g>
            <g transform="translate(27.903 44.157)">
                <mask id="f" fill="#fff">
                    <use xlink:href="#e"/>
                </mask>
                <g mask="url(#f)">
                    <path fill="#71D0FF" d="M40.544 55.632c.04.952-.73 1.76-1.695 1.76H10.224a1.703 1.703 0 0 1-1.695-1.89c.939-8.007 7.746-14.228 16-14.228 1.944 0 3.822.352 5.543.978 5.595 2.048 9.742 7.12 10.459 13.237.013.052.013.091.013.143z"/>
                    <path fill="#71D0FF" d="M30.62 41.679H18.322V40.7c0-.535.43-.965.965-.965h10.355c.535 0 .965.43.965.965v.978h.013zM33.215 43.856h-17.41v-.834c0-.744.6-1.343 1.344-1.343h14.723c.743 0 1.343.6 1.343 1.343v.834z"/>
                    <path fill="#A6E2FF" d="M40.322 58.945H8.685a1.686 1.686 0 0 1-1.682-1.683c0-.925.756-1.682 1.682-1.682h31.637c.926 0 1.683.757 1.683 1.682a1.67 1.67 0 0 1-1.683 1.683z"/>
                    <path fill="#3E7CB5" d="M40.544 55.632c-6.468.287-33.345 1.422-31.859-.065 1.682-1.682 19.483.535 21.205-1.421 1.878-2.126 4.994-1.265 6.677-2.335 1.682-1.069-.692-4.707-2.909-5.242-2.216-.535-3.038-2.713-3.038-2.713a4.123 4.123 0 0 1-.548-1.604c5.595 2.048 9.742 7.12 10.459 13.237.013.052.013.091.013.143z" opacity=".12"/>
                </g>
            </g>
            <g transform="translate(27.903 44.157)">
                <mask id="h" fill="#fff">
                    <use xlink:href="#g"/>
                </mask>
                <g stroke="#A6E2FF" stroke-width="3" mask="url(#h)">
                    <path d="M203.66 15.61a.334.334 0 0 1 .3-.3c1.525-.117 8.971-.613 14.279.026 1.174 0 .926 3.26.808 4.317a.402.402 0 0 1-.365.352c-2.138.104-14.045.613-15.01-.013-.274-.196-.078-3.404-.013-4.382z"/>
                    <path d="M217.887 15.297c.143-.013.104-.013.352-.026 2.334-.157 8.88-.509 13.68.065 1.174 0 .926 3.26.808 4.317a.402.402 0 0 1-.365.352c-.952.039-3.86.17-6.86.247"/>
                    <path d="M218.8 19.874c2.204 0 4.434.079 6.468.313 1.174 0 .926 3.26.809 4.317a.402.402 0 0 1-.366.352c-2.138.104-14.045.613-15.01-.013-.287-.196-.091-3.39-.026-4.369M197.1 25.664a.334.334 0 0 1 .3-.3c1.525-.117 8.972-.612 14.28.027 1.173 0 .925 3.26.808 4.316a.402.402 0 0 1-.365.352c-2.139.105-14.045.613-15.01-.013-.287-.195-.079-3.404-.013-4.382z"/>
                </g>
            </g>
            <g transform="translate(27.903 44.157)">
                <mask id="j" fill="#fff">
                    <use xlink:href="#i"/>
                </mask>
                <g stroke="#A6E2FF" stroke-width="3" mask="url(#j)">
                    <path d="M33.62 33.554a.334.334 0 0 1 .3-.3c1.525-.117 8.971-.613 14.28.026 1.173 0 .925 3.26.808 4.317a.402.402 0 0 1-.366.352c-2.138.104-14.045.613-15.01-.013-.286-.196-.078-3.404-.013-4.382z"/>
                    <path d="M48.747 37.819c2.204 0 4.434.078 6.468.313 1.174 0 .926 3.26.809 4.316a.402.402 0 0 1-.366.352c-2.138.104-14.045.613-15.01-.013-.287-.196-.09-3.39-.026-4.369"/>
                </g>
            </g>
        </g>
        <circle cx="186.141" cy="51.526" r="1.8" fill="#71D0FF" mask="url(#b)"/>
        <circle cx="180.142" cy="48.826" r="1" fill="#71D0FF" mask="url(#b)"/>
        <circle cx="188.71" cy="67.344" r="1.03" fill="#71D0FF" mask="url(#b)"/>
        <circle cx="182.776" cy="60.472" r="3.899" fill="#71D0FF" mask="url(#b)"/>
        <g mask="url(#b)">
            <path fill="#A6E2FF" d="M248.398 167.355h-28.742a1.169 1.169 0 0 1-1.174-1.174V149.28c0-.652.522-1.174 1.174-1.174h28.742c.652 0 1.174.522 1.174 1.174v16.9c0 .653-.522 1.175-1.174 1.175z"/>
            <path fill="#231F20" d="M248.411 167.355h-18.166v-19.249h18.166c.652 0 1.174.522 1.174 1.174v16.9a1.16 1.16 0 0 1-1.174 1.175z" opacity=".04"/>
            <path fill="#71D0FF" d="M223.477 148.106h1v19.131h-1z"/>
        </g>
        <g mask="url(#b)">
            <path fill="#71D0FF" d="M244.981 191.558h-36.84a1.135 1.135 0 0 1-1.135-1.134v-21.948c0-.626.509-1.134 1.135-1.134h36.84c.626 0 1.135.508 1.135 1.134v21.948c0 .626-.509 1.134-1.135 1.134z"/>
            <path fill="#D9F2FF" d="M235.057 186.864h-11.045a.557.557 0 0 1-.561-.561v-4.317c0-.313.248-.56.56-.56h11.046c.313 0 .561.247.561.56v4.317c0 .3-.248.56-.56.56z"/>
            <path fill="#231F20" d="M244.981 191.558h-13.484v-24.203h13.484c.626 0 1.135.508 1.135 1.134v21.948c0 .613-.509 1.121-1.135 1.121z" opacity=".04"/>
            <path fill="#A6E2FF" d="M239.126 167.354h1v24.204h-1z"/>
            <path fill="#71D0FF" d="M226.79 182.73h-2.322a.13.13 0 0 1-.13-.13.13.13 0 0 1 .13-.131h2.321a.13.13 0 0 1 .13.13.13.13 0 0 1-.13.13zM227.754 183.577h-3.286a.13.13 0 0 1-.13-.13.13.13 0 0 1 .13-.13h3.286a.13.13 0 0 1 .13.13c-.012.065-.064.13-.13.13zM227.324 184.399h-2.856a.13.13 0 0 1-.13-.13.13.13 0 0 1 .13-.13h2.856a.13.13 0 0 1 .13.13.13.13 0 0 1-.13.13z"/>
            <path fill="#D9F2FF" d="M207.02 184.138l2.738-1.59c.3-.17.691-.027.809.3l1.278 4.042a.554.554 0 0 1-.3.704l-4.526 2.087v-5.543z"/>
        </g>
        <g mask="url(#b)">
            <path fill="#71D0FF" d="M36.68 190.737v-11.854c0-.783.639-1.422 1.421-1.422h23.5c.782 0 1.421.64 1.421 1.422v11.854c0 .782-.639 1.421-1.421 1.421H38.1a1.425 1.425 0 0 1-1.421-1.421z"/>
            <path fill="#231F20" d="M45.573 192.158v-14.697h16.028c.782 0 1.421.64 1.421 1.422v11.854c0 .782-.639 1.421-1.421 1.421H45.573z" opacity=".04"/>
            <path fill="#C5ECFF" d="M48.716 181.947l-3.13-4.486h13.837l3.56 5.1H49.877c-.47 0-.9-.222-1.16-.614z"/>
            <path fill="#D9F2FF" d="M36.693 185.899h5.712c.3 0 .534.234.534.534v2.36c0 .3-.234.535-.534.535h-5.712v-3.43z"/>
            <path fill="#71D0FF" d="M39.523 187.307c0-.065.052-.117.117-.117h2.126c.065 0 .117.052.117.117a.117.117 0 0 1-.117.117H39.64a.117.117 0 0 1-.117-.117zM38.636 188.077c0-.066.052-.118.117-.118h3.013c.065 0 .117.052.117.118a.117.117 0 0 1-.117.117h-3.013a.117.117 0 0 1-.117-.117z"/>
            <path fill="#6D6D6D" d="M36.68 178.883v11.854c0 .248.065.482.17.678.064-.104-.17-.678.886-1.5 1.617-1.239.6-3.077.9-5.112.378-2.7 3.443-1.865 4.434-2.608 2.243-1.682 2.503-4.747 2.503-4.747l-8.333.287c-.339.274-.56.691-.56 1.148z" opacity=".06"/>
            <path fill="#0091D6" d="M34.006 180.97l2.465-3.235a.674.674 0 0 1 .56-.274h8.53l-3.13 4.095a1.44 1.44 0 0 1-1.135.56h-6.742c-.56 0-.9-.677-.548-1.147z"/>
        </g>
        <path fill="#D9F2FF" d="M127.053 68.753a.89.89 0 0 1 .13-1.135c.496-.456 1.343-.522 3.026-.391 3.769.3 8.476-3.352 11.332-5.125 2.843-1.774 7.616.117 6.495 5.555-1.357 6.455-18.297 5.334-20.983 1.096z" mask="url(#b)"/>
        <g mask="url(#b)">
            <path fill="#A8DAE9" d="M39.588 77.633l.639 2.739c.026.13.195.183.3.078l2.164-2.269c.092-.104.04-.274-.09-.287l-2.792-.456c-.143-.026-.247.078-.221.195zM264.973 174.475l-1.917 1.213c-.091.065-.091.195.013.247l2.308 1.044a.138.138 0 0 0 .196-.157l-.391-2.256c-.013-.091-.118-.143-.209-.091z"/>
            <path fill="#A8DAE9" d="M204.933 32.942l.926-3.664a.228.228 0 0 0-.3-.274l-3.99 1.382a.232.232 0 0 0-.066.405l3.065 2.282c.13.104.313.039.365-.13zM58.014 44.38l-2.008-1.161c-.143-.079-.326-.04-.404.104l-.235.417c-.078.144-.039.326.105.404l2.008 1.161c.143.078.326.04.404-.104l.235-.418a.284.284 0 0 0-.105-.404zM266.42 59.507l-2.112.939c-.156.065-.222.247-.156.39l.195.431c.065.157.248.222.391.157l2.113-.94c.156-.065.222-.247.156-.39l-.195-.43a.303.303 0 0 0-.391-.157zM32.52 143.685a.86.86 0 1 1-1.722 0 .86.86 0 1 1 1.722 0zM123.154 52.386a.86.86 0 1 1-1.722 0 .86.86 0 1 1 1.722 0z" opacity=".5"/>
        </g>
        <g mask="url(#b)">
            <g fill="#FFF">
                <path d="M252.271 148.693c-.182.196-.887.391-.939-.209-.039-.573-.404-.078-.795-.573-.287-.366.613-1.057 1.239-1.057.521 0 .77 1.552.495 1.84z"/>
                <path d="M251.737 147.663a.526.526 0 0 0 .47-.535c0-5.255-.9-8.698-2.674-10.25-.848-.743-1.63-.795-1.93-.795-.066 0-.105.052-.105.117l.105.822c0 .052.052.09.09.09.184.014.653.092 1.188.575 1.043.952 2.282 3.364 2.282 9.454.013.3.274.548.574.522z"/>
            </g>
            <path fill="#97C155" d="M242.804 126.054l-.43-5.06a.36.36 0 0 0-.17-.26l-2.009-1.03-.678.051s-1.682 1.318-1.669 1.304c-.013 0-.052.04-.052.04a.378.378 0 0 0-.13.3v.065l.43 5.007 4.708-.417z"/>
            <path fill="#9BBB53" d="M240.404 118.282a.614.614 0 0 0-.613-.391.596.596 0 0 0-.535.482s-.938-.482-.704.052c.157.365.47.757.652.978 0 0 1.135.013 1.46-.117.144-.26.366-.704.444-1.07.13-.547-.639.014-.704.066"/>
            <path fill="#51AC62" d="M242.06 119.547c-.039-.496-.195-1.057-.195-1.057l-1.46.77a.728.728 0 0 0-.457-.196.702.702 0 0 0-.548.248l-1.526-.535s-.117.64-.078 1.135c.039.495.235 1.017.235 1.017l1.369-.73a.702.702 0 0 0 .522.26c.26 0 .495-.143.626-.352l1.5.535c-.027-.013.051-.6.012-1.095"/>
            <path fill="#D53088" d="M240.613 127.267c2.973-.091 5.777-.17 7.055-.209h.052c.026 0 .04 0 .065.013l.6-2.1a.467.467 0 0 0-.326-.586l-6.468-1.839a.467.467 0 0 0-.587.326l-1.252 4.421c.274 0 .574-.013.86-.026"/>
            <path fill="#E7953E" d="M244.681 127.15l1.044-3.378-1.865-.535-1.226 3.965c.73-.013 1.422-.04 2.047-.052"/>
            <path fill="#E7953E" fill-rule="nonzero" d="M247.746 122.794a1.088 1.088 0 0 0-.209-.274c-.717-.652-1.877.3-2.269.652a.54.54 0 0 0-.313-.248.504.504 0 0 0-.39.04c-.196-.535-.783-1.813-1.696-1.578a1.116 1.116 0 0 0-.313.143c-.313.209-.352.456-.326.613.104.665 1.552 1.174 2.06 1.33.013.209.17.404.378.456.235.066.47-.039.6-.234h.013c.483.091 2.074.326 2.478-.222.104-.117.17-.339-.013-.678m-4.903-.56c-.079-.066-.065-.21-.013-.275a.381.381 0 0 1 .156-.091c.365-.091.73.456.965.965a4.993 4.993 0 0 1-1.108-.6m4.512.965c-.144.183-.73.183-1.46.105.443-.34 1.03-.666 1.303-.418.157.105.209.248.157.313"/>
            <path fill="#E7953E" d="M231.458 127.54c.052-.012.091-.012.143-.012 1.54-.04 5.334-.157 9.012-.261h.234l-.717-3.782a.464.464 0 0 0-.547-.365l-8.203 1.552a.464.464 0 0 0-.365.548l.443 2.32z"/>
            <path fill="#FFF" d="M237.626 122.598l.026-.026a.028.028 0 0 1-.026.026"/>
            <path fill="#D73832" d="M237.718 127.358l-.718-3.782-2.973.561.626 3.313c.926-.027 1.97-.066 3.065-.092"/>
            <path fill="#D73832" fill-rule="nonzero" d="M237.874 121.594a1.189 1.189 0 0 0-.378-.13c-1.043-.157-1.578 1.29-1.76 1.982a.51.51 0 0 0-.34-.052.545.545 0 0 0-.313.182c-.43-.547-1.486-1.721-2.412-1.16a1.168 1.168 0 0 0-.3.274c-.287.352-.248.626-.157.795.34.73 2.243.796 2.817.796h.144c.117.09.26.13.417.104a.496.496 0 0 0 .34-.235l.13-.052c.521-.222 2.243-1.017 2.282-1.826 0-.195-.079-.47-.47-.678m-5.047 1.722c-.052-.079-.065-.183 0-.261.053-.065.105-.105.157-.144.378-.234.978.261 1.421.757-.86-.066-1.46-.183-1.578-.352m3.56-.027c.21-.612.574-1.29.992-1.225.065.013.13.026.195.065.092.052.144.104.144.13 0 .209-.574.652-1.33 1.03"/>
            <g transform="translate(228.733 126.706)">
                <path fill="#71D0FF" d="M1.76.86L19.9.014a.81.81 0 0 1 .848.926c-.391 2.895-1.343 11.698.313 19.418a.827.827 0 0 1-.809.99H.326c-.143 0-.248-.143-.196-.273.483-1.33 2.387-7.485.835-19.287-.04-.47.313-.9.796-.926z"/>
                <path fill="#71D0FF" d="M3.273 20.383c-.47-.9-.86.926-2.073.978h4.694s-2.151-.091-2.62-.978z"/>
                <path fill="#0091D6" d="M5.96.665c-.796.04-3.247.17-3.404.183L1.552.9c-.326.039-.626.508-.574.9 1.343 10.25.091 16.249-.587 18.518-.156.521-.508 1.056.04 1.056 1.212-.052 2.751-2.478 3.09-1.526.443 1.226 1.474 1.5 2.1 1.539.273.013.508-.196.508-.456C6.3 17.8 7.2.613 5.96.665z" opacity=".12"/>
                <path fill="#000" d="M.587 21.36c.613 0 2.269-1.747 2.7-1.747.325 0 .338.6.664.94.705.756 1.448.808 1.448.808H.587z" opacity=".08"/>
                <circle cx="10.159" cy="6.951" r="1" fill="#C5ECFF"/>
                <circle cx="17.018" cy="6.273" r="1" fill="#C5ECFF"/>
                <path fill="#C5ECFF" d="M10.824 12.637a.468.468 0 0 1-.47-.47c0-1.121.535-2.308 1.383-3.09.743-.679 1.63-.979 2.595-.9 2.582.234 3.325 2.308 3.351 3.377a.467.467 0 0 1-.456.483.476.476 0 0 1-.483-.457c0-.091-.117-2.256-2.503-2.477-.874-.079-1.5.313-1.878.652-.652.6-1.083 1.538-1.083 2.4a.452.452 0 0 1-.456.482z"/>
            </g>
            <path fill="#71D0FF" d="M249.807 147.076c-.027-.143-.066-.287-.092-.443v1.017a.859.859 0 0 0 .092-.574z"/>
            <path fill="#0091D6" d="M240.182 148.067h8.816c.313 0 .574-.17.717-.417v-1.017c-1.526-7.603-.6-16.132-.221-18.975a.817.817 0 0 0-.848-.926l-5.308.222c.196.235.757.848 1.474.848.9 0 2.23-.287 2.49.547.953 2.987-6.063 7.316-4.003 11.007 2.06 3.677 2.439 5.66-1.121 5.66-1.644 0-3.078.782-4.07 1.564" opacity=".08"/>
            <path fill="#FFF" d="M227.885 148.589c.182.195.887.391.939-.209.039-.574.404-.078.795-.574.287-.365-.613-1.056-1.239-1.056-.508 0-.756 1.552-.495 1.839z"/>
            <path fill="#0091D6" d="M244.747 148.067s.417.222.821.26c.405.04.822.131.718.575-.118.47-.313.69-.105 1.539.144.6-.039 1.578 0 1.708.04.13.457-.417.457-.417l.456-1.565s.326-2.074-.522-2.087c-.847-.013-1.825-.013-1.825-.013zM236.53 148.067s.04.313 1.018.313 1.304.26 1.083.691c-.34.665.195.757.404 1.07.287.43-.509 3.182.052 3.247.456.052.496-.717.496-.717l.6-2.856v-1.735h-3.652v-.013z" opacity=".16"/>
            <path fill="#0091D6" d="M238.526 146.49s-.952-.053-1.121.351c-.17.405.417.613.156.887-.208.209-.639.04-1.03.34h3.521l-.782-1.227-.744-.352zM242.79 148.067s.118-.339.835-.378c.717-.04 1.03.04.809-.313-.222-.34-.144-.9.378-.952.522-.052 2.034.574 2.034.574l.065 1.07h-4.12z" opacity=".16"/>
            <g>
                <path fill="#FFF" d="M239.543 155.227a.526.526 0 0 1-.508-.405c-.326-1.421.039-3.13.365-4.642.17-.809.47-2.165.274-2.387-.3-.326-1.213-.3-1.617-.234-.287.039-.444-.979-.157-1.018.183-.026 1.774-.26 2.53.561.56.6.313 1.748-.026 3.312-.3 1.409-.652 3-.378 4.187a.52.52 0 0 1-.391.626h-.092z"/>
                <path fill="#A6E2FF" d="M239.035 154.835s.456-.287 1.004-.234c0 0 .117.339.078.39-.039.053-.926.236-.926.236s-.156.026-.156-.392z"/>
                <path fill="#71D0FF" d="M239.14 155.174c-.027 0-.04.013-.053.04-.026.117-.13.482-.052.73.078.3 1.721.208 2.034.156.313-.065.73-1.004-.913-1.147-.013 0-.039 0-.052.013-.078.026-.352.182-.965.208z"/>
            </g>
            <g>
                <path fill="#FFF" d="M246.455 155.122a.526.526 0 0 1-.509-.404c-.326-1.421.04-3.13.366-4.643.17-.808.47-2.164.273-2.386-.3-.326-1.212-.3-1.617-.235-.287.04-.443-.978-.156-1.017.182-.026 1.773-.26 2.53.56.56.6.313 1.748-.026 3.313-.3 1.409-.652 3-.378 4.186a.52.52 0 0 1-.392.626h-.091z"/>
                <path fill="#A6E2FF" d="M245.946 154.731s.457-.287 1.005-.235c0 0 .117.34.078.391-.04.053-.926.235-.926.235s-.157.026-.157-.391z"/>
                <path fill="#71D0FF" d="M246.05 155.07c-.025 0-.038.013-.051.04-.026.117-.13.482-.053.73.079.3 1.722.208 2.035.156.313-.065.73-1.004-.913-1.148-.013 0-.04 0-.052.013-.078.026-.352.183-.965.21z"/>
            </g>
            <path fill="#0091D6" d="M231.954 136.096c.156-.118.326-.21.521-.235.183-.026.365 0 .378.222.013.443.013.756-.286 1.238-.287.483-.9-.065-1.174.992-.274 1.056-.352 1.017-.86 1.121-.236.091-.327.665-.327.665l.196-2.804 1.552-1.2z" opacity=".16"/>
            <path fill="#FFF" d="M228.433 147.559a.526.526 0 0 1-.47-.535c0-5.256.9-8.698 2.673-10.25.848-.744 1.63-.796 1.93-.796.066 0 .105.052.105.118l-.104.821c0 .052-.053.091-.092.091-.182.014-.652.092-1.186.574-1.044.952-2.283 3.365-2.283 9.455a.543.543 0 0 1-.573.522z"/>
        </g>
        <g fill="#000" mask="url(#b)" opacity=".08">
            <path d="M244.981 167.355h-13.484s1.422.456 4.251.469c4.852.04 2.178 5.347 5.712 5.347 4.147 0 3.782 3.182 4.108 4.03a.98.98 0 0 0 .548.586v-9.285c0-.639-.509-1.147-1.135-1.147z"/>
        </g>
        <g mask="url(#b)">
            <path fill="#A6E2FF" d="M56.437 183.695a.52.52 0 0 1 .521-.444c1.917.04 11.633-.013 12.872-.013 1.317 0 .273 8.62-3.56 8.62-3.835 0-9.69 1.344-9.638-5.06 0-1.5-.287-2.49-.195-3.103z"/>
            <path fill="#C5ECFF" d="M56.058 184.895c1.696-.014 12.167-.105 14.515-.014.143 0 .248.092.287.196.091.326.339.47-.744.47-1.225 0-12.61-.144-14.332-.157-.078 0-.143-.039-.156-.104a.326.326 0 0 1 .052-.235.508.508 0 0 1 .378-.156zM56.058 186.42c1.696-.013 12.167-.104 14.515-.013.143 0 .248.092.287.196.091.326.339.47-.744.47-1.225 0-12.61-.144-14.332-.157-.078 0-.143-.04-.156-.104a.326.326 0 0 1 .052-.235.508.508 0 0 1 .378-.157z"/>
            <path fill="#0091D6" d="M60.453 188.376c.848-1.395-2.96-3.312-1.017-4.212 1.643-.77 2.282-.743 2.256-.887-2.113 0-4.004 0-4.734-.013a.52.52 0 0 0-.521.444c-.092.613.195 1.604.195 3.104-.052 5.542 4.343 5.542 9.729 5.06-.366-.092-2.609-.522-3.352-.574-2.49-.235-3.82-.835-2.556-2.922z" opacity=".08"/>
            <path fill="#A6E2FF" d="M62.305 183.251s-2.413-5.229-6.716-8.607c-2.895-2.282-.717-7.85 3.351-7.003 0 0-10.106-.938-9.206-5.79.17-.926.73-1.747 1.486-2.321 1.37-1.03 2.256-1.226 2.765-1.734.587-.587-6.755 1.304-8.698-3.039-1.943-4.343 4.85-4.903 8.502-1.356 3.652 3.547 10.368 11.358 10.407 22.495 0 0-.378-17.096-.717-20.474-.34-3.377.613-10.706 4.342-12.415 2.87-1.304 3.586 1.526 1.017 6.508-.078.508.248.3 1.604-.418 1.357-.717 5.517-1.134 6.286 1.135.874 2.569-.548 3.964-6.116 6.586-.887.208 3.808 1.46 1.434 4.929-1.356 1.97-3.886-.052-5.438 6.39-1.29 5.334-1.278 6.716-1.147 7.068.026.078.143.091.195.013.457-.756 3.834-6.129 8.307-6.285 4.813-.17 4.826 3.038 3.887 4.173-.587.704-2.113.756-3.795.339-.587-.079.456.678.717.965.34.378 1.239 1.878-.782 2.23-.261.039-.535.052-.796.052-1.304-.052-1.774-.522-1.97-.287-.208.248.08.522.3.887.327.547.718 2.19-1.734 2.282-2.451.078-5.06.508-5.568 1.734-.509 1.226-.3 1.943-.3 1.943h-1.617z"/>
            <path fill="#0091D6" d="M76.298 171.306c-2.335-1.122-4.812.196-6.808 1.76-3.168 2.283-4.916 5.543-5.555 6.938.183-1.213.365-2.451.417-3.117.066-.9.457-7.146.783-12.727.652-.94 1.826-2.465 3-3.222.756-.495 1.564-.834 1.59-1.017.026-.221-.3-.078-.3-.078-2.217.743-3.625 2.713-4.251 3.782.156-2.517.287-4.864.378-6.455.913-.94 3.208-3.234 4.864-4.29.9-.588 1.878-.979 1.904-1.2.04-.261-.365-.092-.365-.092-2.073.678-5.53 4.173-6.377 5.047.04-.639.052-1.109.065-1.356.222-5.908 2.478-11.907 1.122-9.703 0 0-1.5 3.143-2.021 16.732-.04.873-.066 1.721-.105 2.517l-.039.13s.013-.026.04-.065c-.47 11.541-.822 15.258-1.33 16.04-.027.04-.053.091-.08.13-.273-2.842-.964-8.215-2.516-14.71-2.126-8.88-9.624-12.284-10.615-12.701a.327.327 0 0 0-.248-.013c-.34.117.47.39.47.39 5.294 3.144 6.037 4.63 7.746 7.265 1.265 1.943 1.851 3.781 2.243 5.281-.691-.743-3.834-4.043-5.934-4.72 0 0-.404-.17-.365.09.026.222 1.004.627 1.904 1.2 1.76 1.135 3.912 3.404 4.564 4.108.065.274.13.522.196.757.6 2.256 1.056 4.981 1.395 7.485-.117-.156-2.478-3.417-4.799-4.16 0 0-.404-.17-.365.091.026.222 1.082.509 1.904 1.2 1.565 1.33 2.869 2.87 3.325 3.417.509 3.899.718 7.172.718 7.172s.534.235.534 0c0 0 .183-1.043.379-2.308a33.053 33.053 0 0 1 1.5-2.686c.56-.196 2.099-.679 3.364-.783.665-.052 1.304.196 1.408.091.118-.117-.156-.182-.156-.182-1.252-.404-3.743.391-4.473.639.99-1.552 1.969-2.739 2.895-3.665.391-.039 1.539-.104 2.882.026.69.066 1.304.43 1.421.34.13-.105-.117-.21-.117-.21-1.226-.651-3.378-.443-3.965-.364 2.14-2.048 3.978-2.635 4.969-2.843 1.734-.326 3.117.482 2.804.039z" opacity=".16"/>
        </g>
        <g fill="#5A90C2" mask="url(#b)">
            <path d="M256.223 192.106c.104-.039.039-.117-.235-.104l-.196.143.43-.039zM254.319 191.832c-.326.065-.718.196-.496.326.326-.13.404-.078.757-.247.286-.014.495.039.443.09.104-.038.443.027.587-.051-.365-.105-.835-.118-1.317-.026-.092-.027.013-.066.026-.092zM226.802 191.624l.183.013c-.052-.013-.117-.013-.183-.013zM209.758 191.545c.13 0 .183-.013.196-.026-.13 0-.235.013-.196.026zM206.837 191.389c.065 0 .117 0 .17.013a.254.254 0 0 0-.17-.013zM226.802 191.624l-.456-.04c-.026.04.235.027.456.04zM250.524 192.184c.091-.013.17-.026.248-.039-.079 0-.157.013-.235.013 0 .013 0 .013-.013.026zM234.327 191.506h.143c.04-.013.079-.039.118-.052l-.261.052zM240.091 191.48c-.13 0-.17.118-.222.17a.496.496 0 0 1 .287-.079c0-.026-.026-.052-.065-.09zM249.233 191.689l.156-.013c-.026 0-.104.013-.156.013zM230.193 191.48c-.013-.013-.026-.039-.052-.039 0 .013.026.026.052.04zM68.851 192.38v-.026c-.039.013-.052.026 0 .026zM62.161 191.78h.092c.013-.026.026-.039.026-.065l-.118.065zM201.516 191.232h.026c.13-.013.052-.013-.026 0zM152.6 191.324c.548.104-.9.143-.065.26-.079-.052.756-.195.065-.26zM250.38 192.171h-.234.234z"/>
            <path d="M152.535 191.571l.091.014c-.04 0-.052 0-.091-.014zM189.245 191.298c.026.026.078.039.13.052-.013-.013-.039-.026-.13-.052zM198.386 191.467l-.221-.013c.078.013.156.013.221.013zM184.485 191.467c-.118-.013-.17-.026-.34-.013.014 0 .027.013.053.013.078-.013.156-.013.287 0zM179.542 191.467c.026.013.066.013.092.026h.156l-.248-.026zM83.875 192.328a.886.886 0 0 1-.222-.104c.065.078-.665.104.222.104zM250.524 192.12c-.026.025-.065.038-.144.051h.17c.013-.026.013-.052-.026-.052zM184.29 192.42l-.783-.014c.221.013.508.013.782.013zM119.32 192.302l-.183.013c.078.013.143 0 .183-.013zM181.172 192.42a2.422 2.422 0 0 0-.443-.08c-.026.014-.065.014-.091.027l.534.052z"/>
            <path fill-rule="nonzero" d="M72.49 192.497c.77 0 .365-.156.521-.247.926-.04.43.117.744.195.574-.039 1.017-.182 1.447-.182.026.026.118.039.013.065.613-.13 1.813 0 2.517-.17.052.013.079.026.092.04-.118-.079-.13-.157-.105-.222.352 0 .64-.105.77 0-.209 0-.235.039-.326.065l.365-.04c.326.144-.496.053-.496.157.704-.052 1.539-.17 2.074-.13.117.143-1.265.052-.548.182l-.835-.052c.64.235-.508-.013.079.235 1.108.04 1.239-.078 2.334-.026.248-.078-.078-.117.17-.196 1.564-.143 1.238.365 2.386.17.3-.091.417-.287 1.239-.183l-.274.17c1.07.013.613-.235 1.734-.13-.195.065-.847.052-.678.078.73.13.509-.092 1.07-.092l.117.144c1.135-.026 2.4-.13 3.664-.157-.065.04-.286.092.014.13 1.59-.077 3.403.014 4.929.105l.587-.13c.13 0 .248.052.104.078.6.052.026-.078.313-.13.34-.014.444.078.235.104 1.056-.104 3.012-.235 4.12-.091l-.22.039c.86.052.977-.261 1.786-.144l-.157.026c1.878.052 3.965-.065 5.4.13.273-.182 1.864.079 1.981-.169 1.07.13.77.17 2.282.261.405.013.6-.156 1.096-.183l.013.13.678-.143.365.157.47-.04c-.183-.012-.392-.064-.365-.09.73-.066 1.786.09 1.8.156l1.734-.117c-.04.052-.326.065-.561.104.926-.13.17.143 1.017.013-.117-.026.065-.078.078-.104.418.078 1.383.078 2.1.052l-.13.091c1.277.026 2.712-.039 4.146-.039-.521-.04-.404-.196.027-.222l.17.144c.273-.092-.444-.052.116-.157.535.013.366.157.053.209l.652-.052c.039.039-.118.065-.157.117.274-.091 1.135.144 1.513-.013l.039.04c1.435 0 2.1-.053 3.273-.053.026-.117.483-.091.835-.196.86.04 1.826.13 2.856.118.73-.065.209-.105.548-.17.052.105 1.095.105.547.183 1.252-.013 1.591-.026 3.17-.118-.17-.039-.366-.065-.262-.104.287-.013.652.052.613.104l-.078.013c1.774-.17 4.082.326 5.49.092l-.078.013 1.46-.118c.679.013-.404.079.092.157 1.578-.183 2.49.026 3.795-.091 1.004.326 3.573-.026 4.93.182l-.079-.078c.352-.078.43.04.678.065-.039-.065-.378-.065-.156-.104 2.973-.091 6.129.117 9.18.182 1.109.026.626-.39 2.035-.208l-.404.143c2.243-.17 4.59 0 6.794-.143-.13.039-.13.078-.352.078.47.104 1.721 0 1.721-.078.34.013.078.078.287.117.47.065 1.174-.13 1.421-.026.04.013-.13.04-.221.04.3-.053 1.421.012 1.121-.105.822.052 1.578-.052 2.243.013.43-.13 1.409.065 1.552-.117-.065.195 1.448.156 1.97.065-.17.052.456.065.247.143.6 0 1.148-.039 1.043-.143 1.096.234 2.204-.183 2.83.104 1.774-.104 3.404-.17 4.995-.222-.052.196-1.76.013-1.695.222 1.512-.078 2.386-.248 3.886-.196.391.027-.222.079-.352.118 1.512-.078 2.92.013 4.264-.091 0 .013-.143.039-.287.052.26 0 .613.026.587-.066l-.26.027c-.418-.13 1.055-.261 1.095-.34-.444.248 1.33.066.613.379.169-.013.39-.052.352-.118.26.013.339.052.078.118.952-.052.613-.144 1.473-.144 0 .04-.182.065-.26.105.43-.079.873-.17 1.604-.13-.04.025.039.064-.17.051 1.252-.013 2.126-.221 3.495-.143-.404.182.47.065.535.222l.73-.053-.3-.078c.64 0 1.213-.117 1.774-.065l-.483.065 1.213-.026-.678-.065c.652-.078-.065-.209.782-.157-.17.013.64 0 .978.092a4.174 4.174 0 0 1 1.122-.066c.117.053-.104.183-.013.21.313-.131 1.513-.04 1.904-.183-.13.039-.144.117-.091.13l.26-.104c.3.039.34.052.3.117.9.026-.287-.209.783-.117-.079.013-.04.026-.222.039 1.07.052 2.074-.065 3.052-.013.287.156-.861.039-.522.17 1.421-.027 2.934-.196 4.303-.157l-.26-.013c.195-.222 1.017.117 1.721 0-.17.013-.222.13-.183.104.94.04 1.917-.052 3.339-.13l-.183.052c.548.052 1.46.026 2.06.052.183-.052.522-.052.314-.13 1.839.339 3.52-.183 5.15.104-.195 0-.469.052-.312.052l1.395-.052c-.104-.104-.182-.065-.47-.144.183-.065.575-.104.914-.104-.626.065 0 .157.274.209-.04-.026.052-.065.026-.092.73.183.117-.195 1.121-.078l-.052.052c.378-.026.717-.09 1.122-.078.17.117-.392.052-.418.144.561-.013 1.109-.222 1.617-.105-.234.026-.587.026-.821.065.56.13.626.105 1.03.118h-.04l.953.065-.248-.04c.704-.299 1.435-.051 2.386-.247-.925.183-.156.104-.221.235.248.039.613.078.508.117.444-.104.744.078 1.383-.065.026.04.482 0 .378.104.587-.039-.144-.078-.091-.13.9-.144 2.112.17 3.403-.026 1.122-.078 1.317-.222 2.36-.287.353.065-.286.156-.286.156.56.066.99.053 1.526 0-.105.04 0 .066.17.118.43-.013.286-.157.847-.091a1.614 1.614 0 0 1-.43.17c.508-.04 1.004-.118 1.512-.157.144.078-.313.104-.495.156.586-.04 1.512-.065 1.695-.183l-.378-.039c.208 0 .104.105-.052.118-.496.091-.718-.04-.757-.079l.365-.026c-.378-.247-1.486.04-2.23.026l.313-.182-.77.143c-.156-.052-.273-.143.092-.17-.534-.09-.47.066-.939-.038-.052-.013-.026-.026.013-.026l-.521.052c.104-.04-.092-.13.234-.105-.939-.104-1.512.13-1.864 0l.078-.013c-1.304.066-.13.13-1.096.287l-.652-.326-.13.13c-.13 0-.404-.012-.352-.064-.496.09.091.052-.209.143-.652-.117-1.786.052-1.93-.157-.235.105.613.079-.078.144-.196-.222-.796.039-1.382-.065.182-.118.743-.052.143-.157-.352.196-1.148-.039-1.643 0-.026.157-1.083.065-1.917.118.052-.053-1.578-.092-2.348-.144l.027-.026c-.157.157-.952.13-1.54.157.027-.092.131-.13.444-.17h-.548c-.13.052-.3.078-.652.091l.144-.117c-.73 0-1.474.143-2.413.065-.052.104.744.3-.248.378-.039-.065-.078-.156.183-.182-.091.013-.3.052-.47.026l.392-.104c-.43-.04-.222.078-.561.078.013-.078-.248-.065-.209-.13.092-.014.3.038.43 0-.39-.014-.847-.066-1.003-.131.039.052 0 .117-.287.13-.73 0-.248-.104-.678-.143-.183.065-.64 0-.652.13-.21 0-.248-.065-.34-.091-.378.052-1.76.013-1.343.157l.092.013h-.066c-1.239.13-2.569-.066-3.808-.013v-.04c-.73.053-1.63.026-2.151.118-.222 0-.509-.078-.418-.13-.56.025-.626.078-1.434.012.56-.078-.196-.065.574-.052-.73-.039-.9-.104-1.683.013.261-.104-.547-.13-.9-.104l.51.078c-.392.013-.731 0-1.083 0l.182-.143c-1.486-.17-2.686.3-3.82 0-.392.104.808.065.456.182-.691-.013-1.396-.221-1.617-.221-.94-.079-.874.208-1.865.156.13.052.248.183-.496.235-.69-.013-.847-.209-.404-.261.17 0 .248.013.235.026.221-.013.508-.039.235-.091l-.092.052c-.339-.052-1.29-.052-1.07-.13-.52.052-.22.078.157.104-.886-.078-1.369 0-2.282-.052.144.026.274.091.13.091-1.33-.065-.586.091-1.486.117-.509-.078.183-.182-.717-.117-.548-.052-.118-.13.104-.183-.822.105-1.539-.065-2.021-.078l.43-.039c-.26.026-.47.026-.691.026l.248.104c-.261-.013-.47-.013-.47-.065-.26.065.196.17-.326.261-.339-.052-1.043.052-1.16-.078 1.069.052-.118-.13.782-.157a5.18 5.18 0 0 1-.639 0c-.04-.013.04-.026.104-.039-1.03-.117-.47.157-1.538.144.13-.079-.248-.144-.418-.13.43 0 .209.13-.182.182-.679-.065-.744.039-1.096.039l.404.026c-.143.078-.482.065-.952.091-.039-.065.43-.039.261-.065-.521.13-1.186-.143-1.93-.052-.339-.052-.039-.143-.326-.183-.821.105-.887-.104-1.76-.026.247.105.287.079-.313.183l1.421-.078-.913.143c.43 0 .913-.065 1.161-.052-.43.078-.391.052-.183.143-.586-.156-1.16.092-1.838-.013l.026-.247c-1.017-.118-1.813.13-3.143.065l.43.039c-.182.104-.821.013-1.252.052.04-.078-.234-.117-.417-.17.026.066-.965 0-1.095.17l-.587-.117c-1.07-.04-1.226.234-2.256.208.313-.09-.157-.156.534-.221-.339 0-.652-.013-.652.039-.195-.052-.952.117-1.265.039-.143.039-.195.13-.574.117-.039-.013 0-.039 0-.039 0 .04-.6.052-.26.157-1.057-.261-2.96.013-3.887-.209-.756.026-1.656.052-2.334.065.04-.026 0-.039.13-.039-.938-.078-.573.248-1.643.157-.547-.13.574-.079.222-.13-.143-.275-1.29.038-2.008-.131l.17-.013c-.548-.092-1.344.104-2.244.091 0 0 .04-.026 0-.04-.613.144-1.773.196-2.647.236.274-.105.391-.053.235-.17-.391.013.117.183-.665.209-.248-.065-.809-.118-.887-.235h.73c-.378-.157-.939 0-1.33-.026l.052-.065c-1.121.026-1.134.195-2.334.182l.13.052c-.652.17-.547-.09-1.2.027l-.195-.17c-.43.04-1.513.17-2.295.196.443-.13 1.343-.196 1.917-.261-.43 0-1.46.013-1.683.091.17-.013.392-.052.561-.026-.521.13-1.226.196-2.073.196.156-.326-2.23-.079-2.856-.34-1.513.118-3-.052-4.773-.026.626.261-.509.013-.404.274-.418.013-.574.013-.6 0l-1.24-.156c-.3-.078.392-.052.353-.118-.9-.026-.378-.117-.978-.182.117.091-.313.13-.822.104l.717.118c-1.251.143-1.082-.222-2.347-.079l.404-.078c-.652.052-2.4 0-3.038.209-.117-.026-.26-.105.013-.118-1.552-.026-3.456.222-4.669.092l.118-.066c-.287.013-.509.118-.874.053.013-.026.117-.066-.013-.066-.157.026-.77.118-1.16.079l.325-.079c-1.512-.078-2.321.17-3.599.222 0-.182-1.187-.248-1.787-.287l.026-.026c-1.76-.026-2.999.157-4.629.235-1.017-.209-3.443-.091-5.073-.196.248.04-.04.144-.326.17-.378-.04-1.056.13-.991-.04h.13c-.287-.169-1.069-.13-1.695-.13l-.104.222c-1.604-.326-4.212.117-5.086-.17-.391.053-.874.053-1.252.118l.026-.118c-1.07-.026-1.604-.052-2.934-.013l.274-.09c-.744-.014-.94.351-1.63.351l-.21-.182c-1.303 0-2.633-.157-3.924.013.026-.026.065-.079.273-.092-.613 0-2.373-.117-2.151.13-.013-.156-1.344-.012-2.048.053l.105-.117c-.6.156-.613.195-1.448.234-.196-.013-.17-.091.091-.065-.652-.065-.508.117-1.304.052l.3-.078c-.678-.013-.626.026-.991.117-.43.053-1.278-.026-1.382-.143-.092.065-.457.156-.861.117-.052-.039.091-.065.17-.078-1.135-.078-1.683.144-2.452.026-.013-.039-.065-.065-.13-.065.9 0 1.617.013 1.551.013 0-.104-.73-.13-.143-.287-.587.078-1.578.26-2.282.209-.04-.013-.065-.026-.092-.04l.079-.012c-.17-.013-.313 0-.444.013-.221-.013-.365-.026-.587-.04-.078-.09-.834-.052-1.186-.052.026.118-.444.105 0 .196-.052-.013.065-.013.313-.013.052 0 .117 0 .156-.013-.013 0-.013.013-.026.013.235 0 .548 0 .9-.013-.287.065-.587.117-.978.052a7.473 7.473 0 0 1-.509.196c-.495-.17-1.447-.261-1.578-.366-1.108.066-2.595.04-3.299.274-.313.026-.365-.065-.483-.104.183-.026.392-.013.496-.052-.626.052-1.865.026-2.008.182-.796-.065.443-.143-.64-.117l.144-.052c-2.139-.248-3.482.404-5.842.078.17.026.248.026.274.052-2.7-.143-5.569.13-8.23-.091-.755-.052-.834.052-1.303.13l-.17-.13-.795.143c-1.122.105-1.943-.313-3.365-.117l.183.091c-.509-.013-1.617.053-1.526-.052-.052.013-.17.092-.365.04l-.013-.066-1.252.118c-.965-.053.156-.274-1.265-.287-.522.026-1.5.195-1.304.247.209 0 .548.04.56.105l-.482.039c-.091.195-.456.404.73.548l.822-.118.26.091h-.69c.39.092.639.014.926-.039.065.053.182.092.339.105l.808-.196c.105.078-.365.157.183.196.378-.092-.365-.17.26-.235.392.091.274.17.744.091.065.052-.04.078-.222.105.418-.066 1.096-.027 1.304-.13.418.117 1.396-.027 1.357.156.13-.04.73-.144 1.108-.157-.691.222 1.421.013 1.239.261.508-.209 1.852-.091 2.752-.209-.053.013-.157.052-.235.04.508.012.652.078.99.117.066-.17.862-.209 1.292-.313.626.156-.378.195-.183.352-.026-.13 1.083-.13.874-.248.483.104.417.052.652.183.078-.209.444-.04.848-.17.691.105.182.196.939.13.391.183-.287.248-.287.248zm23.447-.365s0 .013 0 0c-.156 0-.274.013-.365.013.078 0 .183 0 .365-.013zm1.474 0h-.64c-.051-.039 0-.078.157-.078-.078.026.261.052.483.078zm-3.104-.834c.235-.013.313.013.34.026-.105 0-.235 0-.405.013-.013 0-.026.013-.026.013.013-.013.04-.04.091-.052z"/>
            <path d="M93.89 191.454c-.04 0-.052.013-.091.013.052.013.09.026.143.026l.078-.039h-.13zM227.011 191.637h-.026c.026 0 .052.013.065.013-.026 0-.026-.013-.039-.013zM117.69 192.367v-.026l-.13.026zM235.096 192.054c.013.013.053.026.105.026 0-.013-.04-.013-.105-.026zM238.591 192.08l.496.04a4.094 4.094 0 0 0-.496-.04zM241.278 192.132c.039-.026.039-.039.052-.052l-.052.052zM198.569 192.276h-.104c-.248.026-.079.026.104 0zM211.284 192.002c-.13.026-.274.039-.404.052.221.013.39.013.404-.052zM184.38 192.42h-.09.09zM210.28 192.054c.221.026.417.013.587 0a2.942 2.942 0 0 0-.587 0zM252.923 192.197h.13c0-.013 0-.013.014-.013l-.144.013zM253.067 192.171l.143-.013c-.065 0-.117 0-.143.013zM253.51 192.132l-.3.026c.105 0 .235.013.3-.026zM249.363 192.132l-.039.04c.026 0 .04-.014.04-.04z"/>
            <path d="M248.294 192.145c.26.013.652.092 1.004.065l.04-.039c-.183.079-.81-.09-1.044-.026zM243.782 191.61l.9.04c-.157-.052-.366-.105.039-.118-1.135-.143.247.092-.94.079zM240.965 191.545c.482-.026 0-.065.026-.09-.313.038-.378.051-.026.09zM220.673 191.545l.052-.104c-.378 0 0 .026-.052.104zM216.8 192.106l.365.065.17-.09zM214.505 191.324l.17-.013-.627.039zM180.43 191.363l.116.13c.248-.013.3-.17-.117-.13zM165.719 191.506c-.156-.065-.574-.117-.835-.039.326 0 .665.052.835.04zM121.589 191.285l.3-.053-.561.04z"/>
        </g>
        <g mask="url(#b)">
            <g transform="translate(67.547 59.546)">
                <path fill="#F1F1F1" d="M78.95 133.825c2.503.157 5.007.222 7.511.222 9.233.013 29.929.026 35.38 0 12.676-.078 18.322 1.76 10.732 2.126-31.05 1.46 11.998.365 15.35 3.09 3.234 2.622-57.354 4.826-81.754 1.696-21.27-2.726 28.377-1.03 17.827-3.156-8.62-1.748-34.493.365-39.096.43-4.604.065-31.09 1.33-26.812-.43 4.108-1.695 37.231-5.412 60.861-3.978z"/>
                <path fill="#F38F1E" d="M120.015 29.694s11.685-2.217 8.32 15.088c-3.364 17.306-15.31 27.96-2.595 47.404 4.095 6.26 1.982 9.533-1.278 4.447-6.546-10.211-17.11-14.893-13.64-53.963 1.343-8.112 3.43-12.598 9.193-12.976z"/>
                <path fill="#5A407C" d="M80.136 75.715c-10.954 5.282-20.226-9.454-26.89-20.409-4.408-7.237-7.681-12.819-9.56-9.898C36.085 57.145 23.84 69.325 23.84 69.325a7.996 7.996 0 0 1-.13 1.07c-.887 4.525-5.804 2.634-16.21 2.217-11.15-.444 3.69-4.643 8.385-5.308 4.694-.652 17.357-30.333 30.854-43.517 13.498-13.185 22.666 6.142 27.06 12.545 5.164 7.537 19.51 33.032 6.338 39.383z"/>
                <path fill="#F5A74F" d="M21.152 61.462s-2.517 4.03-4.095 5.216c-1.317.991 6.769 2.634 6.769 2.634s4.668-4.668 4.825-4.903c.156-.235-7.499-2.947-7.499-2.947z"/>
                <path fill="#070606" d="M57.654 48.056c-.94 2.595-2.491 5.02-4.408 7.25-4.408-7.237-7.681-12.819-9.56-9.898C36.085 57.145 23.84 69.325 23.84 69.325a7.996 7.996 0 0 1-.13 1.07c-1.148-2.165 1.395-7.173 6.076-11.242 8.138-7.08 8.907-13.08 14.723-22.013 8.62-13.275 15.31-9.663 15.31-9.663s3.352 5.32-2.164 20.579z" opacity=".16"/>
                <path fill="#A68EC5" d="M22.196 58.24s4.864 3.535 7.824 4.017c.965.665-1.46 2.817-1.97 2.817-.508 0-8.58-4.082-8.567-4.695 0-.378 1.37-2.556 2.713-2.138z"/>
                <path fill="#333" d="M23.421 73.472c.04.326-.273.613-.847.848-4.069 1.643-21.322.926-21.1-1.904.247-3.234 8.111-5.177 11.358-4.995 1.383.079 2.165-.26 2.595-.678.587-.56 1.474-.665 2.204-.313 2.752 1.33 4.8.796 5.908 1.682.248.21.391.43.456.679.248 1.043-.834 2.53-.574 4.681z"/>
                <path fill="#0A0809" d="M23.421 73.472c.04.326-.273.613-.847.848-2.204.065-5.204-.287-5.204-.287s-.117-.991.666-1.878c.782-.9 3.26.17 3.364-1.447.104-1.487 2.27-1.865 2.582-1.917.261 1.043-.821 2.53-.56 4.681z" opacity=".32"/>
                <path fill="#FFF" d="M1.943 72.142l20.161 1.174s1.865.013 1.787 1.37c-.078 1.368-1.826 1.199-1.826 1.199L1.8 74.698s-1.8-.3-1.735-1.395c.065-1.083 1.878-1.16 1.878-1.16z"/>
                <path fill="#0091D6" d="M131.035 39.475a14.074 14.074 0 0 1-.3 1.695c-.444 1.865-1.265 3.912-2.413 6.038a47.721 47.721 0 0 1-3.3 5.23 71.575 71.575 0 0 1-3.194 4.094 78.375 78.375 0 0 1-4.734 5.125 92.255 92.255 0 0 1-4.356 4.069c-.456.404-.926.795-1.395 1.187-.887.73-1.774 1.46-2.673 2.151a74.828 74.828 0 0 1-5.921 4.147 61.8 61.8 0 0 1-4.343 2.504c-2.412 1.252-4.786 2.27-7.094 2.974-2.504.769-4.903 1.173-7.133 1.147-1.67-.026-3.247-.313-4.682-.874-22.874-9.128-20.943-41.926 3.6-40.348.39.026.769.052 1.134.065 1.787.092 3.417.105 4.916.04a39.707 39.707 0 0 0 4.382-.418 31.718 31.718 0 0 0 4.877-1.174 42.36 42.36 0 0 0 3.795-1.434 90.466 90.466 0 0 0 3.952-1.813 613.09 613.09 0 0 0 4.63-2.256c.99-.482 2.02-.978 3.129-1.5a156.653 156.653 0 0 1 3.469-1.604c.274-.13.574-.247.9-.365 1.186-.417 2.608-.717 4.068-.704 3.926.026 8.125 2.243 8.738 10.107.039.613.026 1.252-.052 1.917z"/>
                <path fill="#FFF" d="M98.406 75.702c-2.412 1.252-4.786 2.27-7.094 2.974-3.13-7.734-7.733-22.326-7.081-39.997 1.787.092 3.417.105 4.916.04.705 7.772 3.117 28.99 9.26 36.983zM108.683 69.051a74.828 74.828 0 0 1-5.92 4.147c-2.726-7.537-7.747-22.586-9.22-34.897a31.718 31.718 0 0 0 4.876-1.174c1.161 7.72 4.526 26.147 10.264 31.924zM117.107 61.644a92.255 92.255 0 0 1-4.356 4.069c-3.547-7.929-8.385-19.861-10.55-30.02a90.466 90.466 0 0 0 3.952-1.813c1.186 5.62 4.473 18.766 10.954 27.764zM125.023 52.424a71.575 71.575 0 0 1-3.195 4.095c-3.626-6.846-8.19-16.249-11.046-24.895.991-.482 2.022-.978 3.13-1.5 2.204 5.595 6.65 16.158 11.11 22.3zM130.748 41.157c-.444 1.865-1.265 3.912-2.413 6.038-3.469-5.438-7.368-12.245-10.054-19.027 1.186-.417 2.608-.717 4.068-.704 2.113 3.925 5.204 9.285 8.399 13.693z"/>
                <path fill="#72519D" d="M76.72 72.833c-2.244 4.2 3.833 6.469-2.674 3.521-9.468-4.29-14.945-7.055-17.736-21.491-.469-2.452-1.095-3.39-2.269-2.126a6.686 6.686 0 0 0-.743 1.004c-7.603 11.737-18.44 17.906-18.44 17.906-1.5 1.904-4.981 10.863-16.131 10.42-10.055-.405 2.217-6.078 6.937-10.89a29.73 29.73 0 0 1 2.322-2.113c5.386-4.525 19.3-31.65 31.872-43.921 9.037-8.829 14.58 3.13 17.253 11.984a75.946 75.946 0 0 1 1.943 8.007l-.052.6-2.23 26.604-.053.495z"/>
                <path fill="#72519D" d="M87.426 79.575s-27.216-.221-25.469-18.23c1.617-16.537 5.816-23.292 15.414-23.253.405 0 .809.013 1.226.04.978.052 1.996.182 3.065.365l-.404 1.369a22.626 22.626 0 0 0-.861 5.008c-.013.234-.026.47-.026.704-.313 9.885 4.851 20.552 6.39 30.359l.665 3.638z"/>
                <path fill="#333" d="M76.224 78.389c-9.468-4.29-17.136-9.09-19.927-23.526 2.14-2.387 5.165-5.764 7.003-8.542 1.852.94 3.639 2.66 3.039 5.738-1.148 5.92-3.43 13.184 2.126 15.767 3.077 1.434 6.168 2.595 8.294 4.512l-.04.495c-2.243 4.2 6.012 8.503-.495 5.556z" opacity=".24"/>
                <path fill="#070606" d="M131.035 39.475a14.074 14.074 0 0 1-.3 1.695c-.444 1.865-1.265 3.912-2.413 6.038a47.721 47.721 0 0 1-3.3 5.23 71.575 71.575 0 0 1-3.194 4.094 78.375 78.375 0 0 1-4.734 5.125 92.255 92.255 0 0 1-4.356 4.069c-.456.404-.926.795-1.395 1.187-.887.73-1.774 1.46-2.673 2.151a74.828 74.828 0 0 1-5.921 4.147 61.8 61.8 0 0 1-4.343 2.504c-2.412 1.252-4.786 2.27-7.094 2.974-2.504.769-4.903 1.173-7.133 1.147-.144-7.329 5.255-17.579 26.603-20.67 6.768-.978-4.251-12.793 2.895-21.048 7.16-8.267 16.875-1.017 17.358 1.357z" opacity=".08"/>
                <path fill="#71D0FF" d="M36.006 86.709l-4.969-9.885h44.6v9.885z"/>
                <path fill="#71D0FF" fill-rule="nonzero" d="M136.512 95.903H39.8a1.846 1.846 0 0 1-1.683-1.083L19.9 54.785l-.026-.079c-.652-2.595-.104-5.36 1.474-7.38 1.317-1.683 3.208-2.648 5.19-2.648h111.787v49.373a1.802 1.802 0 0 1-1.813 1.852zM21.596 54.21L39.749 94.09c.013.026.026.039.052.039h96.71c.04 0 .066-.026.066-.065v-47.6H26.564c-1.46 0-2.804.692-3.795 1.97-1.225 1.565-1.669 3.73-1.173 5.777z"/>
                <path fill="#71D0FF" d="M115.985 45.578h10.354v57.028h-10.354zM25.782 65.543l-3.939-9.715h54.029v9.885z"/>
                <path fill="#71D0FF" fill-rule="nonzero" d="M106.87 103.492H94.729V44.678h12.14v58.814zm-10.355-1.773h8.568V46.465h-8.568v55.254zM87.126 103.492H74.985V44.678h12.141v58.814zm-10.354-1.773h8.567V46.465h-8.567v55.254z"/>
                <path fill="#71D0FF" d="M138.481 87.882h-1.656V45.591c-.013-.43-.078-5.882 4.708-10.876 5.15-5.36 13.77-8.086 25.625-8.086v1.657c-6.234 0-11.58.782-15.923 2.334-3.508 1.252-6.377 3.012-8.503 5.242-4.407 4.59-4.251 9.625-4.251 9.677v42.343z"/>
                <path fill="#72519D" d="M63.3 46.321c-1.825 2.778-4.864 6.155-7.003 8.542-.834.926-1.525 1.708-1.969 2.23-4.434 5.386-17.11 13.028-19.861 14.136-2.739 1.109-8.816-.052-5.334-3.403 3.495-3.352 23.343-34.18 23.343-34.18s11.542 5.737 12.363 8.632c.248.887-.417 2.348-1.539 4.043z"/>
                <path fill="#71D0FF" d="M115.229 45.578h11.802v50.181h-11.802z"/>
                <path fill="#0091D6" d="M173.704 27.634a3.317 3.317 0 0 1-3.312 3.312h-9.076a3.281 3.281 0 0 1-2.335-.965c-.6-.6-.965-1.421-.965-2.334a3.317 3.317 0 0 1 3.313-3.313h9.076c.913 0 1.734.365 2.334.965.6.6.965 1.422.965 2.335z"/>
                <path fill="#71D0FF" d="M140.711 104.223H40.375a2.449 2.449 0 0 1-2.452-2.452 2.449 2.449 0 0 1 2.452-2.452H140.71a2.449 2.449 0 0 1 2.452 2.452 2.457 2.457 0 0 1-2.452 2.452z"/>
                <g fill="#71D0FF">
                    <path d="M75.871 45.578h9.676v49.164h-9.676z"/>
                    <path fill-rule="nonzero" d="M85.613 94.807h-9.806V45.513h9.806v49.294zm-9.676-.13h9.546V45.643h-9.546v49.034z"/>
                </g>
                <path fill="#71D0FF" d="M95.876 45.578h9.676v49.164h-9.676zM135.599 102.606v17.526c0 2.217-1.8 4.017-4.017 4.017H38.366a4.018 4.018 0 0 1-4.016-4.017v-.73c0-2.217 1.8-4.016 4.016-4.016h85.157c2.217 0 4.017-1.8 4.017-4.017v-8.75h8.059v-.013z"/>
                <circle cx="51.381" cy="130.813" r="4.63" fill="#0091D6"/>
                <circle cx="51.381" cy="130.813" r="2.699" fill="#DFF3F8"/>
                <path fill="#71D0FF" d="M51.42 131.974a1.915 1.915 0 0 1-1.878-1.591l-1.186-7.003a1.904 1.904 0 0 1 1.877-2.217h2.322a1.904 1.904 0 0 1 1.878 2.217l-1.148 7.003a1.88 1.88 0 0 1-1.865 1.59z"/>
                <circle cx="122.193" cy="130.813" r="4.63" fill="#0091D6"/>
                <circle cx="122.193" cy="130.813" r="2.699" fill="#DFF3F8"/>
                <path fill="#71D0FF" d="M122.219 131.974a1.915 1.915 0 0 1-1.878-1.591l-1.187-7.003a1.904 1.904 0 0 1 1.878-2.217h2.322a1.904 1.904 0 0 1 1.877 2.217l-1.147 7.003c-.13.926-.926 1.59-1.865 1.59z"/>
                <path fill="#000" d="M135.599 107.692v12.454c0 2.216-1.8 4.016-4.017 4.016h-91.35c12.505-4.29 39.135.717 58.187-2.06 9.638-1.409 36.515 3.025 35.928-5.295-.965-13.667 1.252-12.597 1.252-12.597s-.183 1.982 0 3.482z" opacity=".08"/>
                <path fill="#070606" d="M121.137 27.699c-.274.026-1.735.56-.222 1.07 1.513.52 5.177.312 6.364 1.903 1.187 1.591 1.839.404.978-.587-.704-.847-3.182-2.804-7.12-2.386z" opacity=".08"/>
                <path fill="#3E7CB5" d="M173.704 27.634a3.317 3.317 0 0 1-3.312 3.312h-4.225c.978-1.07 3.677-.535 4.708-.756 2.699-.574 3.73-6.312-6.638-5.152-1.67.183-2.921-.717-2.921-.717h9.076c.913 0 1.734.365 2.334.965.613.613.978 1.435.978 2.348z" opacity=".12"/>
                <path fill="#F5A74F" d="M31.18 65.348l-2.034 2.478s3.652 5.138 5.712 3.82c2.048-1.304 4.03-2.699 4.03-2.699l-7.707-3.6zM114.395 52.216s-4.16-16.34 7.342-17.449c8.15-.782 16.718 18.466 9.963 44.326-5.608 21.452-15.636 25.012-19.6 27.125-1.996 1.056-5.36.3-5.36.3.404-1.422.273-3.482 1.538-2.739.392.222 8.881-5.894 10.642-13.445 1.095-4.734 2.138-29.29-4.525-38.118z"/>
                <path fill="#F5A74F" d="M110.73 105.957s-1.97 2.882-5.516 1.343c-3.547-1.539 1.421-6.468 4.681-3.612 2.1 1.839 5.321-2.647 5.321-2.647 3.326.743-4.486 4.916-4.486 4.916z"/>
                <path fill="#0091D6" d="M116.285 60.001a.9.9 0 0 1-1.147-.639c-1.03-4.173-5.62-23.082 5.047-24.673 11.228-1.683 14.058 16.196 14.436 19.013a.452.452 0 0 1-.313.483L116.285 60z"/>
                <path fill="#FF7F00" d="M131.7 79.093c2.438-9.324 2.947-17.8 2.23-24.79l-4.904 1.577s5.165 15.78-3.716 34.115c-3.117 6.442-6.025 10.733-8.477 13.615 4.682-3.078 10.89-9.285 14.867-24.517z" opacity=".48"/>
                <path fill="#F5A74F" d="M122.897 13.615c-2.452 5.373-.091 11.723 5.295 14.188 5.373 2.452 11.723.091 14.188-5.294 2.452-5.373.092-11.724-5.294-14.189-1.24-.56 1.93 4.238.652 4.16-1.278-.078-7.016-5.034-8.23-4.655a10.692 10.692 0 0 0-6.61 5.79z"/>
                <path fill="#00B5A9" d="M141.415 16.014c-.065 0-7.29 5.556-7.668 5.842-.482.379-.456.705-.43.913.274 2.06 1.095.744 2.1-.756.743-1.108 3.39-2.79 4.564-1.695.73.678.352 3.52-2.256 3.834-1.943.221-2.53 1.825-3.508 2.66-2.543 2.19-3.026 2.387-1.578 2.621.482.078 4.407-.013 7.394-1.682 2.96-1.643 5.712-4.238 4.942-8.072-1.03-5.047-3.56-3.665-3.56-3.665z"/>
                <path fill="#FF7F00" d="M129.509 7.825c1.213-.366 6.95 4.577 8.229 4.655.365.026.365-.352.208-.887l1.97 1.109-.77 2.595s-2.047-2.308-4.043-2.817c-1.551-.404-4.225.235-5.399-1.213-1.173-1.447-1.082-2.777-2.138-2.438-.091.026-.17-.026-.248-.066a11.551 11.551 0 0 1 2.19-.938z" opacity=".4"/>
                <path fill="#00B5A9" d="M132.521 5.23c-.208.025-3.338-.027-4.055-.992-.965-1.29-3.587 4.147 6.364 7.707 3.573 1.278 4.929 3.117 4.238 4.969-.391 1.03-1.982 2.621-1.982 2.621l4.955-1.539s3.052-2.425 1.865-3.925c-1.174-1.487-7.59-9.428-11.385-8.842z"/>
                <g fill="#00B5A9">
                    <path d="M139.355 18.805l.665.104c-.457.391-.665-.104-.665-.104zM133.917 1.878c1.16 2.843 4.773 1.565 9.233 6.038 2.62 2.634 2.777 6.22 2.477 8.737-.026.17.04.352.144.483a7.099 7.099 0 0 1 1.513 3.182c.026.117-.13.195-.21.104-.247-.26-.742-.509-1.251-.652-.04-.013-.078.026-.065.065.052.365.065.757.039 1.187a.1.1 0 0 1-.183.039c-.274-.548-1.473-1.278-1.93-1.017-.195.117-.156-.13-.013-.509.013-.039-.013-.065-.039-.078l-3.508-.522c-.052-.013-.065-.065-.026-.09.326-.34.77-1.135 1.33-2.818 1.435-4.29-8.711-6.625-10.628-8.724-1.917-2.1-.717-3.782.378-5.595 1.083-1.838 1.578-2.673 2.739.17z"/>
                </g>
                <path fill="#00B5A9" d="M136.85 2.113a.512.512 0 0 1-.364.821 1.682 1.682 0 0 1-1.422-.6c-.47-.521-.639-.978-.704-1.265a.21.21 0 0 1 .274-.247c.574.208 1.773.717 2.217 1.29z"/>
                <path fill="#A68EC5" d="M33.359 62.322s5.294 3.847 8.515 4.369c1.044.73-1.59 3.078-2.138 3.078-.561 0-9.338-4.447-9.338-5.125 0-.405 1.5-2.778 2.96-2.322z"/>
                <g opacity=".16">
                    <path fill="#0A0809" d="M34.858 71.66a111.57 111.57 0 0 0 3.613-2.413l-1.526-.73s.065.887-1.004 1.421c-1.07.535-.678 1.278-1.904 1.109-1.226-.183-1.552-.548-1.552-.548l.417.874 1.122.482c.287.026.573-.039.834-.195z"/>
                </g>
                <path fill="#FFF" d="M14.488 79.954s-.365.365-.6 1.682c-.234 1.317 1.865 5.008 6.364 3.834 7.225-1.891 11.594-4.577 13.224-10.38.574-2.022-4.147 3.86-7.29 5.737-3.143 1.878-4.747 3.13-7.46 1.252-2.725-1.89-3.377-2.06-4.238-2.125z"/>
                <path fill="#333" d="M27.83 81.388c-.3.183-.588.352-.875.483-4.85 2.217-9.832 3.808-12.454-.666-1.525-2.608 11.163-10.028 14.645-13.366 0 0 1.67 1.682 3.326 2.673.717.43 1.434.743 2.008.73 1.76-.065-2.595 7.538-6.65 10.146z"/>
                <g opacity=".32">
                    <path fill="#0A0809" d="M27.83 81.388a2.841 2.841 0 0 1 1.042-1.2c1.305-.808 5.556-6.898 4.643-7.446-.9-.548-1.043-2.178-1.056-2.23.717.43 1.434.743 2.008.73 1.774-.065-2.582 7.538-6.638 10.146z"/>
                </g>
            </g>
        </g>
    </g>
</svg>
