<svg xmlns="http://www.w3.org/2000/svg" width="288" height="211" viewBox="0 0 288 211">
    <g fill="none" fill-rule="evenodd" transform="translate(0 .241)">
        <path fill="#DAF3FF" fill-rule="nonzero" d="M49.181 192.606c-7.567-.343-55.505-4.5-47.585-55.067 1.89-12.07 6.584-23.514 13.444-33.623 6.86-10.109 15.853-22.442 14.951-56.492-1.118-42.312 60.56-49.49 85.305-20.837 24.746 28.652 41.266 29.162 69.024 15.62 41.68-20.322 73.582 40.084 42.326 71.16-31.257 31.075-83.558-6.412-115.91 44.098-22.76 35.533-54.494 35.487-59.798 35.217-.584-.023-1.17-.05-1.757-.076z"/>
        <path fill="#71D1FF" fill-rule="nonzero" d="M238.304 58.773V56.28h-13.972v-.278h-.272v-.391h-.42V44.142h-.442v11.469h-.42v.39h-.27v.28H209.44v2.492h-8.37v1h.453v4.648h-.452v.797h.452V83.65h-.543v.797h.543v4.51l-2.045-1.865V83.59h.084v-.197h-.084v-2.047h.084v-.197h-.084v-1.873h.084v-.198h-.084v-1.774h.084v-.197h-.084v-1.751h.084v-.197h-.084v-1.626h.084v-.197h-.084V70.68h-1.4v-1.583h.09v-.144h-.09v-1.502h.09v-.146h-.09v-1.468h.09v-.143h-.09v-1.49h.09v-.145h-.09v-1.566h.09v-.145h-.09v-1.662h.09v-.145h-.09v-3.988h-2.337V43.158h-.108v13.395h-.027l-2.47 4.46v6.5h-2.63v-2.048h-6.58v-.228h-.126v-.32h-.199V55.49h-.208v9.427h-.197v.32h-.129v.228h-3.394v41.558h10.565v.15h11.305v-.15h45.865v-48.25z"/>
        <path fill="#DAF3FF" fill-rule="nonzero" d="M137.647 174.607c-1.61-6.41-.64-14.55 2.546-20.343 4.571-8.31 14.385-18.511 25.892-23.501 25.094-10.885 54.763 10.974 76.76-21.691 21.997-32.666 96.321 35.327-15.658 71.656-73.893 23.972-86.093 7.596-89.54-6.12zM155.926 33.002a1.044 1.044 0 0 1 .543-1.231c.718-.35 1.695-.128 3.53.595 4.13 1.63 10.683-.855 14.492-1.868 3.81-1.013 8.526 2.747 5.391 8.476-3.717 6.78-22.385-.295-23.956-5.972zM59.083 63.242a2.123 2.123 0 0 1 2.511 1.96c.152 2.626-.37 7.877-5.527 13.77-6.742 7.705-4.466-14.291 3.016-15.73z"/>
        <path stroke="#A7E3FF" stroke-width="3" d="M174.263 58.85a.36.36 0 0 1 .333-.334c1.685-.127 9.877-.68 15.728.024 1.293 0 1.022 3.591.897 4.76a.43.43 0 0 1-.406.383c-2.358.109-15.468.678-16.53-.018-.318-.208-.097-3.737-.022-4.815z"/>
        <path stroke="#A7E3FF" stroke-width="3" d="M190.93 63.54a60.2 60.2 0 0 1 7.125.35c1.293 0 1.02 3.592.895 4.761a.43.43 0 0 1-.405.383c-2.359.109-15.468.678-16.53-.018-.318-.208-.097-3.735-.022-4.815"/>
        <path fill="#F6A84F" fill-rule="nonzero" d="M203.544 116.311l-5.973 1.999-1.149 10.223 5.324 14.522 8.933-1.181s9.15-15.905-4.512-25.57l-2.623.007z"/>
        <path fill="#F4901E" fill-rule="nonzero" d="M176.257 120.312c.135.053-2.042 11.923-13.004 21.412-11.31 9.793-32.592 4.518-32.592 4.518s-2.428-.546-.672 1.662c2.226 2.8 39.097 24.113 60.722-19.953l-14.454-7.639z"/>
        <path fill="#000" fill-rule="nonzero" d="M177.795 127.417l-4.088.98s1.135 2.522 0 4.884c-1.135 2.361-2.472 6.05-1.454 8.475 1.019 2.425-.126 6.37-3.439 8.408-3.312 2.038-4.65 1.337-4.268.126.382-1.21-2.366-1.91-3.38 0-1.014 1.91-.225 3.504-2.69 3.695-2.465.191-3.293.862-3.93 1.515 7.614-.193 16.06-2.762 23.875-10.148v-12.067l-.626-5.868z" opacity=".06"/>
        <path fill="#F6A84F" fill-rule="nonzero" d="M176.419 123.013a23.558 23.558 0 0 1 4.523-11.428c3.15-4.207 9.177-9.422 13.572-9.995 5.666-.738 18.195 1.105 19.824 11.542 1.293 8.286-36.883 15.33-36.883 15.33l-1.036-5.45z"/>
        <path fill="#FFF" fill-rule="nonzero" d="M213.43 120.312c-8.123-.352-11.894-4.367-12.418-6.276l1.262-5.263c-4.279 5.523-21.332 2.812-21.332 2.812-7.086 6.288-4.523 11.428-4.523 11.428s16.567 3.107 20.912 3.054c-1.723 5.902-3.381 11.757-3.28 11.966.205.423 7.698 8.079 7.698 8.079s4.994 3.344 8.933-4.238c3.939-7.582 2.748-21.562 2.748-21.562z"/>
        <path fill="#000" fill-rule="nonzero" d="M210.682 141.874c3.938-7.582 6.283-16.494 6.283-16.494-8.123-.353-15.429-9.435-15.953-11.348l1.262-5.264c-.413.521-.913.968-1.476 1.32-1.03 3.51-.763 9.01 4.799 16.72 5.085 5.733.615 4.38-3.848 5.104-3.97.643.95 6.303-.326 13.862l.326.333s4.993 3.349 8.933-4.233z" opacity=".08"/>
        <path fill="#F6A84F" fill-rule="nonzero" d="M220.853 109.922c-10.027-11.323-18.46-4.156-20.496-.053-2.333 4.704 5.171 11.204 5.687 11.722a.2.2 0 0 0 .03.03c1.477 1.149 11.173 9.581 2.422 28.155-10.357 21.978-29.08 26.384-30.197 26.01a.175.175 0 0 0-.129 0l-3.879 1.773a.177.177 0 0 0 .032.333c.38.092.862.202.948.239 11.752 4.766 26.969-6.731 36.53-15.062 32.238-28.082 10.807-51.341 9.052-53.147z"/>
        <path fill="#0092D7" fill-rule="nonzero" d="M205.78 104.74s-13.25 10.981-4.031 27.176c5.343 8.94 8.933 9.958 8.933 9.958s-7.66 18.914-7.138 25.857c.523 6.942-46.195 3.792-46.195 3.792l-1.017-.587s12.005-13.838 14.584-19.38c2.578-5.542 6.386-26.538 5.503-28.545 0 0 17.873 2.75 18.7.392.858-2.439 3.929-16.333 10.662-18.663z"/>
        <path fill="#F6A84F" fill-rule="nonzero" d="M181.098 179.315s-2.253 3.104-6.097 1.292c-3.844-1.811 1.771-7.058 5.26-3.813 2.241 2.082 7.156-1.029 7.156-1.029 3.621.924-6.32 3.55-6.32 3.55z"/>
        <path d="M201.749 131.916c4.463-.718 8.933.63 3.848-5.104-4.623-6.408-5.588-11.29-5.19-14.771-2.228 4.78-3.337 11.655 1.342 19.875z"/>
        <path fill="#000" fill-rule="nonzero" d="M204.212 105.526l-.39-.231s-1.121.836-2.094 2.574a11.025 11.025 0 0 1 2.484-2.343z" opacity=".08"/>
        <path fill="#0092D7" fill-rule="nonzero" d="M205.78 104.74a6.971 6.971 0 0 0-1.568.786l.463.276c.35-.373.719-.727 1.106-1.062zM203.544 167.732a9.222 9.222 0 0 1-.024-.707c-1.547 1.525-3.073 2.993-3.72 3.549 2.408-.673 3.839-1.594 3.744-2.842z"/>
        <path fill="#000" fill-rule="nonzero" d="M201.749 131.916c-4.464.718 6.108 8.004-1.122 16.775-6.115 7.42-.19 13.674-4.202 16.096-4.012 2.422-3.527 5.234-7.305 5.939-3.778.705-7.599 1.436-7.599 1.436 5.927-.163 14.796-.616 18.278-1.588.648-.556 2.174-2.024 3.72-3.549-.012-7.435 7.163-25.151 7.163-25.151s-3.59-1.017-8.933-9.958z" opacity=".08"/>
        <path fill="#0092D7" fill-rule="nonzero" d="M204.675 105.802l-.463-.276a7.757 7.757 0 0 0-3.805 6.52 23.658 23.658 0 0 1 4.268-6.244z"/>
        <path fill="#F6A84F" fill-rule="nonzero" d="M203.544 116.311l-5.973 1.999-1.149 10.223 5.324 14.522 8.933-1.181s9.15-15.905-4.512-25.57l-2.623.007z"/>
        <path fill="#F4901E" fill-rule="nonzero" d="M176.257 120.312c.135.053-2.042 11.923-13.004 21.412-11.31 9.793-32.592 4.518-32.592 4.518s-2.428-.546-.672 1.662c2.226 2.8 39.097 24.113 60.722-19.953l-14.454-7.639z"/>
        <path fill="#000" fill-rule="nonzero" d="M176.936 119.383l-3.017 8.426s.924 3.112-.21 5.469c-1.136 2.357-2.473 6.05-1.454 8.475 1.018 2.425-.127 6.37-3.44 8.408-3.312 2.038-4.65 1.337-4.267.126.382-1.21-2.366-1.91-3.38 0-1.015 1.91-.226 3.504-2.69 3.695-2.466.191-3.293.862-3.93 1.516 7.614-.194 16.06-2.763 23.875-10.15v-12.066l-1.487-13.9z" opacity=".06"/>
        <path fill="#F6A84F" fill-rule="nonzero" d="M176.419 123.013a23.558 23.558 0 0 1 4.523-11.428c3.15-4.207 9.177-9.422 13.572-9.995 5.666-.738 18.195 1.105 19.824 11.542 1.293 8.286-36.883 15.33-36.883 15.33l-1.036-5.45z"/>
        <path fill="#FFF" fill-rule="nonzero" d="M213.43 120.312c-8.123-.352-11.894-4.367-12.418-6.276l1.262-5.263c-4.279 5.523-21.332 2.812-21.332 2.812-7.086 6.288-4.523 11.428-4.523 11.428s16.567 3.107 20.912 3.054c-1.723 5.902-3.381 11.757-3.28 11.966.205.423 7.698 8.079 7.698 8.079s4.994 3.344 8.933-4.238c3.939-7.582 2.748-21.562 2.748-21.562z"/>
        <path fill="#000" fill-rule="nonzero" d="M210.682 141.874c3.938-7.582 6.283-16.494 6.283-16.494-8.123-.353-15.429-9.435-15.953-11.348l1.262-5.264c-.413.521-.913.968-1.476 1.32-1.03 3.51-.763 9.01 4.799 16.72 5.085 5.733.615 4.38-3.848 5.104-3.97.643.95 6.303-.326 13.862l.326.333s4.993 3.349 8.933-4.233z" opacity=".08"/>
        <path fill="#F6A84F" fill-rule="nonzero" d="M220.853 109.922c-10.027-11.323-18.46-4.156-20.496-.053-2.333 4.704 5.171 11.204 5.687 11.722a.2.2 0 0 0 .03.03c1.477 1.149 11.173 9.581 2.422 28.155-10.357 21.978-29.08 26.384-30.197 26.01a.175.175 0 0 0-.129 0l-3.879 1.773a.177.177 0 0 0 .032.333c.38.092.862.202.948.239 11.752 4.766 26.969-6.731 36.53-15.062 32.238-28.082 10.807-51.341 9.052-53.147z"/>
        <path fill="#0092D7" fill-rule="nonzero" d="M205.78 104.74s-13.25 10.981-4.031 27.176c5.343 8.94 8.933 9.958 8.933 9.958s-7.66 18.914-7.138 25.857c.523 6.942-46.195 3.792-46.195 3.792l-1.017-.587s12.005-13.838 14.584-19.38c2.578-5.542 6.386-26.538 5.503-28.545 0 0 17.873 2.75 18.7.392.858-2.439 3.929-16.333 10.662-18.663z"/>
        <path fill="#F6A84F" fill-rule="nonzero" d="M181.098 179.315s-2.253 3.104-6.097 1.292c-3.844-1.811 1.771-7.058 5.26-3.813 2.241 2.082 7.156-1.029 7.156-1.029 3.621.924-6.32 3.55-6.32 3.55z"/>
        <path d="M201.749 131.916c4.463-.718 8.933.63 3.848-5.104-4.623-6.408-5.588-11.29-5.19-14.771-2.228 4.78-3.337 11.655 1.342 19.875z"/>
        <path fill="#000" fill-rule="nonzero" d="M204.212 105.526l-.39-.231s-1.121.836-2.094 2.574a11.025 11.025 0 0 1 2.484-2.343z" opacity=".08"/>
        <path fill="#0092D7" fill-rule="nonzero" d="M205.78 104.74a6.971 6.971 0 0 0-1.568.786l.463.276c.35-.373.719-.727 1.106-1.062zM203.544 167.732a9.222 9.222 0 0 1-.024-.707c-1.547 1.525-3.073 2.993-3.72 3.549 2.408-.673 3.839-1.594 3.744-2.842z"/>
        <path fill="#000" fill-rule="nonzero" d="M201.749 131.916c-4.464.718 6.108 8.004-1.122 16.775-6.115 7.42-.19 13.674-4.202 16.096-4.012 2.422-3.527 5.234-7.305 5.939-3.778.705-7.599 1.436-7.599 1.436 5.927-.163 14.796-.616 18.278-1.588.648-.556 2.174-2.024 3.72-3.549-.012-7.435 7.163-25.151 7.163-25.151s-3.59-1.017-8.933-9.958z" opacity=".08"/>
        <path fill="#0092D7" fill-rule="nonzero" d="M204.675 105.802l-.463-.276a7.757 7.757 0 0 0-3.805 6.52 23.658 23.658 0 0 1 4.268-6.244z"/>
        <path fill="#FF7F00" fill-rule="nonzero" d="M195.636 101.487c-1.202.008-4.585.757-5.977 2.314-.537.602-.91 1.57-.194 1.944 2.339 1.218 7.731-2.932 13.17-2.13 2.349.347 3.196-.2 1.465-.979-2.802-1.26-7.718-1.192-8.36-1.15" opacity=".32"/>
        <path fill="#A7E3FF" fill-rule="nonzero" d="M135.373 170.38h114.495a3.017 3.017 0 0 1 0 6.033H135.373v-6.033zM135.373 176.416h110.335v14.23a2.298 2.298 0 0 1-2.298 2.298H135.373v-16.528z"/>
        <path stroke="#A7E3FF" stroke-width="2" d="M231.638 120.966a42.7 42.7 0 0 1 1.158.122c1.292 0 1.02 3.591.896 4.76a.43.43 0 0 1-.405.382c-2.36.108-15.468.678-16.53-.017"/>
        <path stroke="#A7E3FF" stroke-width="2" d="M232.398 121.043l.393-.027c2.576-.174 9.783-.566 15.075.072 1.293 0 1.021 3.591.896 4.76a.43.43 0 0 1-.405.382c-1.054.05-4.252.189-7.563.268"/>
        <path stroke="#A7E3FF" stroke-width="2" d="M233.402 126.088c2.38-.025 4.759.092 7.125.35 1.293 0 1.02 3.592.895 4.761a.43.43 0 0 1-.405.382c-2.36.108-15.469.678-16.53-.017-.319-.208-.098-3.735-.023-4.815"/>
        <path fill="#F6A84F" fill-rule="nonzero" d="M188.628 93.62a12.888 12.888 0 1 0 2.815-18.006c-1.324.965-2.35 2.511-3.187 3.811-.838 1.3-1.481 2.359-1.806 3.843-.793 3.603 0 7.374 2.178 10.353z"/>
        <path fill="#FF7F00" fill-rule="nonzero" d="M190.087 75.285c0 .056.264.37.718.862.122-.113.246-.223.375-.326l-1.093-.536z" opacity=".32"/>
        <path fill="#FF7F00" fill-rule="nonzero" d="M211.882 87.052c-.489-.52-5.028-5.316-6-5.494-1.018-.19-13.884-5.35-13.884-5.35l-.815-.394c-.13.103-.253.212-.375.326 2.253 2.406 9.156 9.093 11.382 10.354 3.008 1.707 4.568 4.268 3.151 5.159-1.416.89.798 3.6-.796 4.236-1.593.636-2.055 2.52-2.064 2.555a12.888 12.888 0 0 0 9.4-11.392z" opacity=".4"/>
        <path fill="#00B6AA" fill-rule="nonzero" d="M188.211 74.649s2.442-3.175 2.873-7.165c.41-3.908 2.873-6.401 7.106-6.465 3.722-.056 4.023-3.087 8.467-4.332 4.778-1.337 10.033-2.196 14.332 8.217 3.828 9.275-5.16 6.783-4.396 11.943.765 5.16-2.356 2.243-3.6 7.952-1.244 5.709-24.782-10.15-24.782-10.15z"/>
        <path fill="#E90089" fill-rule="nonzero" d="M211.17 82.301c-6.607-1.36-15.298-6.96-18.984-9.494a1.15 1.15 0 0 1-.443-1.293c.044-.13.085-.262.128-.398.612-1.936-2.899-4.299-4.35 2.023-.017.075-.31.08-.46 0-1.622-.876-5.445-.971-.954 1.513.225.125.44.244.643.36.21.121.32.36.279.598-.083.482-.16.962-.227 1.436a64.598 64.598 0 0 0-.65 8.984c.161-2.847.498-3.84 1.095-4.815.128-.208 1.501-3.017 2.764-4.022a1.118 1.118 0 0 1 1.474.095l8.73 6.32c9.362 6.815 7.853 10.182 7.756 10.65l-.25 1.293c3.734-1.517 4.895-7.457 5.257-10.746a2.298 2.298 0 0 0-1.807-2.504z"/>
        <path fill="#00B6AA" fill-rule="nonzero" d="M219.67 77.858a.464.464 0 0 1-.494-.302c-.228-.622-.574-1.933.328-2.41 1.202-.637 1.607-1.14 2.077-1.47.516-.37 2.132 3.642-1.91 4.182z"/>
        <path fill="#000" fill-rule="nonzero" d="M216.583 76.852c-.764-5.16 8.224-2.667 4.396-11.943-4.3-10.413-9.554-9.554-14.332-8.216-4.444 1.245-4.74 4.276-8.467 4.332-.435.006-.87.04-1.3.104 0 0 1.17 1.106 3.366.43 2.196-.675 2.298-2.674 4.824-2.578 2.525.096 6.135-1.619 7.928-.862 3.429 1.45 2.206 3.11 2.821 5.446.478 1.816 5.324 5.158 3.091 6.115-2.232.957-4.31 5.236-2.218 8.876a8.4 8.4 0 0 0-.109-1.704z" opacity=".06"/>
        <path fill="#000" fill-rule="nonzero" d="M207.977 94.248l-.251 1.293c3.735-1.517 4.895-7.457 5.257-10.746a2.298 2.298 0 0 0-1.812-2.498 21.755 21.755 0 0 1-1.764-.447s.44 1.724 1.58 2.011c1.139.287 1.195 3.583 0 4.252-1.195.67-1.553 3.008-1.58 3.725-.028.717-.227 1.051-.944 0a13.165 13.165 0 0 0-1.549-1.849c1.707 2.596 1.12 3.972 1.063 4.26z" opacity=".12"/>
        <path fill="#72519E" fill-rule="nonzero" d="M224.477 65.237a.365.365 0 0 1 .143-.13l5.305-3.026a.36.36 0 0 1 .334.638l-5.307 3.026a.36.36 0 0 1-.472-.508h-.003zM224.757 68.26a.358.358 0 0 1 .306-.173l3.29-.065a.36.36 0 1 1 0 .719l-3.29.064a.36.36 0 0 1-.36-.359c0-.066.019-.13.054-.187zM224.029 61.024a.36.36 0 0 1 .468.527l-.803 1.162a.36.36 0 0 1-.575-.43l.803-1.163a.355.355 0 0 1 .107-.096z"/>
        <path fill="#0092D7" fill-rule="nonzero" d="M245.71 190.646v-14.23H142.387s26.736 1.823 29.112 2.752c24.935 9.745 36.63-.41 42.474 4.463 8.4 7.002 15.993 3.054 15.802 6.226-.191 3.172-13.564 3.087-13.755 3.087h27.387a2.298 2.298 0 0 0 2.303-2.298z" opacity=".16"/>
        <path fill="#A7E3FF" fill-rule="nonzero" d="M50.335 38.093l.7 3.017a.191.191 0 0 0 .324.087l2.38-2.506a.19.19 0 0 0-.107-.32l-3.08-.504a.191.191 0 0 0-.217.226zM282.805 144.767l-2.114 1.333a.154.154 0 0 0 .018.272l2.546 1.149a.154.154 0 0 0 .215-.168l-.43-2.487a.154.154 0 0 0-.235-.1z"/>
        <path fill="#A7E3FF" fill-rule="nonzero" d="M234.923 32.412l1.024-4.037a.259.259 0 0 0-.335-.307l-4.4 1.524a.257.257 0 0 0-.07.45l3.377 2.509a.259.259 0 0 0 .404-.14zM54.507 179.154l1.818 3.746a.259.259 0 0 0 .454.019l2.38-4.004a.259.259 0 0 0-.237-.389l-4.2.257a.259.259 0 0 0-.215.37zM68.65.31l1.757 1.015a.593.593 0 0 1-.593 1.026l-1.757-1.015A.593.593 0 0 1 68.649.31zM271.866 183.518l1.273 1.58a.593.593 0 0 1-.924.744l-1.272-1.582a.593.593 0 1 1 .923-.742zM263.198 88.649l1.856-.823a.593.593 0 1 1 .48 1.084l-1.855.822a.593.593 0 0 1-.48-1.083zM42.55 110.85a.945.945 0 1 1-1.89-.003.945.945 0 0 1 1.89.003zM142.387 10.277a.945.945 0 1 1-1.89 0 .945.945 0 0 1 1.89 0z" opacity=".5"/>
        <circle cx="4.121" cy="4.033" r="3.077" fill="#A7E3FF" fill-rule="nonzero" opacity=".5" transform="rotate(-22.5 481.968 -207.302)"/>
        <g transform="translate(0 17.238)">
            <rect width="52.004" height="78.507" x="107.963" y="13.629" fill="#A7E3FF" fill-rule="nonzero" rx="16"/>
            <rect width="45.705" height="71.116" x="111.112" y="16.912" fill="#DAF3FF" fill-rule="nonzero" rx="4"/>
            <rect width="56.839" height="2.561" x="105.545" y="89.914" fill="#A7E3FF" fill-rule="nonzero" rx="1.281"/>
            <path fill="#0092D7" fill-rule="nonzero" d="M162.384 91.35v-.308a1.128 1.128 0 0 0-1.127-1.128h-42.808c2.46.274 4.933.405 7.408.394 2.241 0 25.975-.056 26.664.503.812.66-2.052.549-2.94.549-5.79 0-5.643.652-6.464.853-.822.2-5.854.263-5.854.263h23.99a1.126 1.126 0 0 0 1.131-1.127z" opacity=".12"/>
            <g fill="#71D1FF" fill-rule="nonzero">
                <path d="M87.371.01h10.111v1H87.371zM138.088 79.93h.19v-.393h-.19V70.46h.158v-.393h-.158v-2.29h.158v-.492h-2.924v-1.228h-4.562v-.138h-.095v-.191h-.146v-5.65h-.156v5.65h-.145v.19h-.096v.139h-4.878v1.228h-3.313v22.501h16.157v-.289h.235v-.392h-.235zM177.493 75.608h.167v-.34h-.167v-11.72l-7.327-5.764v-.331h-.095v-.296h-.146v-7.872h-.154v7.872h-.147v.2l-4.39-3.45h-3.897v35.878h16.156V87.18h.213v-.34h-.213zM101.933 75.94h.158v-.294h-.158v-1.724h.158v-.372h-2.924v-.924h-4.562v-.103h-.095v-.145h-.146v-4.254h-.154v4.254h-.147v.145h-.094v.103h-4.88v.924h-3.313v3.15h-8.119v-.767h.158v-.294h-.158v-1.726h.158v-.369h-2.922v-.925H70.33v-.103h-.095v-.145h-.147v-4.254h-.153v4.254h-.147v.145h-.095v.103h-.86V41.535h-9.485v-2.493H45.375v-.278h-.272v-.39h-.42v-11.47h-.441v11.47h-.42v.39h-.271v.278H30.483v2.493h-8.37v1.001h.452v4.647h-.451v.797h.45v18.432h-.54v.797h.54v4.508l-2.043-1.863v-3.5h.083v-.198h-.083V64.11h.083v-.197h-.083V62.04h.083v-.198h-.083v-1.774h.083v-.197h-.083v-1.75h.083v-.198h-.083v-1.626h.083V56.1h-.083v-2.657h-1.4v-1.583h.09v-.144h-.09v-1.502h.09v-.145h-.09v-1.469h.09v-.143h-.09v-1.49h.09v-.145h-.09v-1.566h.09v-.145h-.09v-1.662h.09v-.145h-.09v-3.988h-2.337V25.92h-.107v13.395h-.028l-2.472 4.46v6.5h-2.629v-2.048H4.97V48h-.128v-.32h-.196v-9.427h-.209v9.427h-.198v.32H4.11v.228H.716v41.558H11.28v.15h11.306v-.15H101.933v-6.713h.19v-.295h-.19zM159.23 65.467l-1.9-.16v-2.226l.21.031v-.2l-.21-.03V61.34l.23.036v-.2l-.23-.036v-1.513l.21.032v-.2l-.21-.031v-1.543l.24.037v-.2l-.24-.037v-1.512l.22.033v-.2l-.22-.033v-1.541l.24.037v-.2l-.24-.037v-2.52l.225.035v-.2l-.224-.034v-1.514l.202.031v-.2l-.202-.031v-1.54l.224.036v-.201l-.224-.035v-1.514l.202.032v-.2l-.202-.031v-1.543l.235.037v-.2l-.235-.035V43.09l.214.035v-.201l-.214-.033v-1.542l.235.038v-.2l-.235-.036v-1.514l.214.033v-.2l-.214-.031v-4.3l-1.386-.146v-2.528l-2.158-.279v-1.383l-3.726-.743V15.108h-.41V30.06l-3.725.743v1.383l-2.157.279v2.528l-1.388.145v30.17l-1.897.159v24.318h18.746v-3.032l.14.008v-.146l-.14-.007v-1.443l.14.01v-.145l-.14-.013v-1.356l.14.012v-.147l-.14-.011v-1.438l.14.011v-.148l-.14-.01v-1.416l.14.012v-.147l-.14-.011V78.93l.14.011v-.148l-.14-.011v-1.356l.14.011v-.146l-.14-.012v-1.438l.14.012v-.147l-.14-.011v-1.37l.14.012v-.146l-.14-.013V72.74l.14.011v-.146l-.14-.012v-1.356l.14.012v-.147l-.14-.013v-1.436l.14.01v-.147l-.14-.011v-1.29l.14.013v-.148l-.14-.012zM69.318 22.266a2.61 2.61 0 0 0-1.622.574 3.66 3.66 0 0 0-5.211-1.494 5.89 5.89 0 0 0-6.144-2.672 4.32 4.32 0 1 0-8.526-.976v.143a4.318 4.318 0 0 0-3.153 3.47 3.887 3.887 0 0 0-5.171 2.288h32.108a2.622 2.622 0 0 0-2.28-1.333z"/>
                <path d="M172.02 20.989c-.39 0-.767.13-1.073.373a2.42 2.42 0 0 0-3.447-.988 3.902 3.902 0 0 0-4.061-1.764c.05-.212.076-.429.076-.647a2.857 2.857 0 0 0-5.713 0v.098a2.856 2.856 0 0 0-2.086 2.298 2.568 2.568 0 0 0-3.417 1.509h21.234a1.737 1.737 0 0 0-1.513-.88zM121.19 38.872a2.57 2.57 0 0 0-3.423-1.512 2.851 2.851 0 0 0-2.086-2.298v-.098a2.856 2.856 0 0 0-2.857-2.857c-.086 0-.172 0-.259.013v-4.906h-.153v4.93a2.854 2.854 0 0 0-2.366 3.47 3.897 3.897 0 0 0-4.062 1.765 2.42 2.42 0 0 0-3.448.987 1.734 1.734 0 0 0-2.586.506h12.462v1.934h-.038l-3.493 4.524v7.47l-2.834 3.838V65.1l-1.26-.176V89.78h15.982v-.448h.083v-.288h-.083v-1.601h.083v-.288h-.083v-1.49h.083v-.287h-.083v-1.488h.083v-.287h-.083v-1.58h.083v-.288h-.083v-1.404h.083v-.288h-.083v-1.396h.083v-.287h-.083v-1.58h.083v-.288h-.083v-1.396h.083v-.287h-.083v-1.114l-2.92-1.91v-3.553h.118v-.2h-.12v-2.07h.12v-.2h-.12V63.86h.12v-.2h-.12v-1.8h.12v-.2h-.12v-1.776h.12v-.2h-.12v-1.65h.12v-.2h-.12V55.14h-1.973v-1.606H116v-.144h-.126v-1.533H116v-.143h-.126v-1.487H116v-.144h-.126V48.57H116v-.143h-.126V46.83H116v-.144h-.126V45H116v-.144h-.126v-4.05h-3.304v-1.934h8.62zM186.052 15.428h15.898v1h-15.898zM179.981 31.992h10.111v1h-10.111z"/>
            </g>
            <path fill="#A7E3FF" fill-rule="nonzero" d="M132.854 14.572h1.788v74.676h-1.788z"/>
            <path fill="#A7E3FF" fill-rule="nonzero" d="M108.556 51.016h50.384v1.788h-50.384z"/>
            <path fill="#0092D7" fill-rule="nonzero" d="M133.748 79.102c-8.475-3.292-14.441-7.684-11.061-16.99 3.017-8.315 5.303-9.835 5.487-18.46.217-10.08-6.988-21.64 1.697-24.649 9.35-3.237 10.547-5.374 10.547-5.374h-30.254a2.2 2.2 0 0 0-2.201 2.2v72.2H142.9s-.68-5.635-9.153-8.927z" opacity=".08"/>
            <path fill="#F4901E" fill-rule="nonzero" d="M80.797 74.841c-.188.04-.706 12.21 11.767 28.24 12.42 15.953 41.204 13.164 41.204 13.164s3.267-.162.497 2.299c-3.514 3.127-56.055 22.464-74.175-39.466l20.707-4.237z"/>
            <path fill="#007BB5" fill-rule="nonzero" d="M76.438 72.934a3.288 3.288 0 0 1 4.71 2.195c1.02 4.47 2.298 12.64 6.448 15.772 6.443 4.857-9.374 8.431-13.503 13.072-2.415 2.717-13.231-22.139-13.231-22.139l15.576-8.9z"/>
            <path stroke="#A7E3FF" stroke-width="3" d="M73.55 4.022a.36.36 0 0 1 .332-.335c1.685-.126 9.877-.679 15.73.025 1.292 0 1.02 3.591.896 4.762a.43.43 0 0 1-.407.38c-2.358.11-15.468.679-16.53-.017-.318-.205-.097-3.733-.02-4.815z"/>
            <path stroke="#A7E3FF" stroke-width="3" d="M89.212 3.672c.161-.013.122-.009.395-.028 2.576-.173 9.783-.566 15.075.07 1.293 0 1.02 3.592.896 4.763a.43.43 0 0 1-.406.38c-1.053.05-4.25.19-7.562.269"/>
            <path stroke="#A7E3FF" stroke-width="3" d="M90.216 8.715a60.19 60.19 0 0 1 7.125.35c1.293 0 1.022 3.592.897 4.763a.43.43 0 0 1-.405.38c-2.36.11-15.469.678-16.53-.015-.319-.21-.1-3.735-.023-4.817M66.315 15.096a.36.36 0 0 1 .333-.335c1.685-.126 9.877-.68 15.73.025 1.292 0 1.02 3.591.894 4.76a.43.43 0 0 1-.405.382c-2.358.11-15.468.679-16.53-.017-.318-.208-.097-3.738-.022-4.815z"/>
            <path fill="#000" fill-rule="nonzero" d="M109.833 113.923s-5.687 7.988-13.233 6.448c-7.251-1.481-4.681-6.529-5.602-9.204-.971-2.81-1.562-1.067-4.857-10.095-1.352-3.7 3.663 7.573.668 11.56-3.583 4.771 7.764 8.516 7.247 8.345-.517-.17 4.712 1.687 6.91 1.934 1.496.166 3.59.636 3.878.636h.626c.45 0 3.269-2.372 3.82-3.544a12.306 12.306 0 0 1 .945-1.645 2.54 2.54 0 0 1 2.645-1.097c1.13.254 1.19 1.1 1.436 2.374.637 3.382-1.943 4.22-1.943 4.22s4.258-.388 4.697-.386c0 0 .2-.235.247-1.047.048-.811-.574-4.084.358-5.04.932-.957 1.672-1.313 1.672-1.48 0 0-6.52-.932-7.118-1.339" opacity=".06"/>
            <path fill="#0092D7" fill-rule="nonzero" d="M82.47 75.758c-.3-4.116-6.792-7.01-11.569-7.01-16.95 0-61.408 69.33-61.732 75.193-.409 7.424 66.549 43.68 79.045 20.716 16.688-30.67-2.462-44.247-5.743-88.9z"/>
            <path fill="#000" fill-rule="nonzero" d="M73.915 151.612l16.22 5.253s5.15-9.79-8.555-10.641c-6.727-.418-11.635 1.756-16.03-6.752-2.865-5.54-15.142-2.196-11.07-17.382 4.073-15.185 9.542-9.317 17.711-15.336 8.17-6.018 1.481-22.892 1.481-22.892s-3.202-4.333-7.357-4.907c-4.156-.573-5.932 3.017-11.178 2.208-1.663-.254-4.864 1.204-8.46 3.304-8.762 10.373-17.955 24.01-25.042 35.645l3.98 36.918 48.3-5.418z" opacity=".08"/>
            <path fill="#0092D7" fill-rule="nonzero" d="M106.722 92.476s10.565 1.653 27.41.593c13.102-.825 19.968.685 23.345.575 3.76-.115 3.83-1.175 3.78-1.175l-54.535.007z" opacity=".12"/>
            <path fill="#000" fill-rule="nonzero" d="M76.338 69.788c.575.18 4.252 1.755 5.348 3.773.385.709.512 1.741-.272 1.934-2.56.63-5.142-3.178-10.615-3.685-2.363-.22-4.199-.852-2.282-2.307 2.298-1.74 7.208.092 7.821.288" opacity=".08"/>
        </g>
        <path fill="#50721A" fill-rule="nonzero" d="M138 198.704a.705.705 0 0 1-.797.59l-3.553-.528a.7.7 0 0 1-.589-.794.705.705 0 0 1 .797-.59l3.553.528a.7.7 0 0 1 .589.794zM138.75 193.746a.704.704 0 0 1-.799.589l-3.552-.526a.7.7 0 0 1-.588-.795.704.704 0 0 1 .797-.589l3.553.526a.701.701 0 0 1 .589.795z"/>
        <path fill="#6D9E31" fill-rule="nonzero" d="M138.14 202.546c3.697.287 6.805-.806 7.48-5.28.701-4.635-1.973-6.42-5.592-7.22l-1.889 12.5z"/>
        <path fill="#88C33F" fill-rule="nonzero" d="M138.152 202.928l-1.149-.171a1.241 1.241 0 0 1-1.044-1.41l1.65-10.917a1.25 1.25 0 0 1 1.414-1.044l1.149.17a1.243 1.243 0 0 1 1.044 1.41l-1.65 10.917a1.248 1.248 0 0 1-1.414 1.045zM62.91 160.303c-.11-.214-22.177-45.49-22.287-45.7l1.596-1.47c.2.374 22.356 45.824 22.553 46.209 11.835 22.876 29.412 30.8 29.592 30.884l-.837 1.924c-.748-.332-18.418-8.269-30.617-31.847z"/>
        <path fill="#6D9E31" fill-rule="nonzero" d="M99.634 191.822l-5.437-3.615a1.796 1.796 0 0 0-2.485.497l-1.28 1.93a1.801 1.801 0 0 0 .505 2.488l5.436 3.616a1.797 1.797 0 0 0 2.487-.497l1.28-1.93a1.801 1.801 0 0 0-.506-2.489z"/>
        <path fill="#88C33F" fill-rule="nonzero" d="M96.491 201.155c-3.646-2.528-6.573-6.404-3.927-10.393 2.776-4.189 7.613-3.264 11.367-.892l-7.44 11.285z"/>
        <path fill="#6D9E31" fill-rule="nonzero" d="M101.931 196.656c2.063-3.11 2.945-6.158 1.97-6.806-.973-.648-3.437 1.347-5.5 4.453-2.062 3.106-2.944 6.158-1.97 6.806.974.648 3.436-1.342 5.5-4.453z"/>
        <path fill="#50721A" fill-rule="nonzero" d="M98.051 198.502c-.264-.177-.203-.737.144-1.254.346-.517.834-.792 1.099-.616.264.175.202.738-.144 1.254-.346.515-.835.791-1.099.616zM100.805 194.358c-.266-.177-.203-.739.143-1.254.347-.516.835-.792 1.1-.617.267.176.202.739-.143 1.254-.345.516-.836.785-1.1.617z"/>
        <path fill="#F6A84F" fill-rule="nonzero" d="M40.665 113.132s-33.212 26.38 4.309 66.448c10.688 11.412 25.02 15.846 40.03 11.466.189-.054 1.611-.212 1.8-.27l-5.138-3.016s-20.64 5.237-30.976-24.086c-9.085-25.77 6.725-34.372 6.725-34.372l-16.75-16.17z"/>
        <path fill="#0092D7" fill-rule="nonzero" d="M71.166 98.882a9.768 9.768 0 0 0-8.532-.583c-4.355 1.748-8.653 4.453-12.21 5.871-4.332 1.731-4.802 5.772-9.8 7.625-2.096.779 7.124 11.735 16.723 17.633.074.046.169.043.24-.009 1.465-1.078 16.098-12.185 17.016-17.133.766-4.118 1.918-10.295-3.437-13.404z"/>
        <path fill="#F6A84F" fill-rule="nonzero" d="M82.205 190.597s4.084 2.384 7.524-1.567c3.44-3.952-5.503-7.087-7.831-1.693-1.494 3.464-8.585 2.39-8.585 2.39-3.627 2.84 8.892.87 8.892.87z"/>
        <path fill="#6D9E31" fill-rule="nonzero" d="M142.13 128.675c-2.274-.02-5.134 1.127-9.29 6.22-1.11 1.362-2.192 2.784-3.238 4.166-3.758 4.942-6.727 8.846-9.828 8.846h-.019c-1.237 0-2.33-.635-3.248-1.867-2.05-2.753-1.877-6.345-1.71-9.819.151-3.18.295-6.177-1.294-8.044a10.26 10.26 0 0 0-.952-.978l1.537-1.716c.144.124.274.253.407.384.261.257.514.529.75.804 2.187 2.559 2.01 6.164 1.847 9.652-.154 3.212-.3 6.245 1.258 8.332.7.94 1.24.942 1.416.944h.008c1.96 0 5.027-4.035 7.998-7.938 1.059-1.392 2.155-2.83 3.288-4.222 5.758-7.058 9.745-7.546 13.166-6.824"/>
        <path stroke="#6D9E31" stroke-linejoin="round" stroke-width="16" d="M101.652 127.83c1.922-3.573 7.645-3.552 11.021-2.112"/>
        <path fill="#F4901E" fill-rule="nonzero" d="M134.932 131.916s1.787.583.607 2.5c-.9 1.46-1.767 1.48-2.382 1.179a1.39 1.39 0 0 1-.798-1.557c.194-.806.783-1.973 2.573-2.122z"/>
        <path stroke="#88C33F" stroke-linejoin="round" stroke-width="2" d="M94.055 138.215c-.703 2.196-.482 4.008.706 5.045.943.822 2.605.763 4.196.208 12.16-4.232 27.389-33.565 8.917-55.736-10.273-12.328-28.63-10.867-40.527-8.258-.242.053-1.025.25-1.494.07"/>
        <path fill="#FF7F00" fill-rule="nonzero" d="M68.034 191.31c-2.084-1.225-13.184-2.397-17.094-11.283-3.91-8.886-7.451-4.871-16.807-24.743C24.777 135.41 41.624 115 41.624 115l-1.133-1.713c-2.613 2.206-31.365 27.997 4.502 66.292 6.83 7.292 15.147 11.735 24.18 12.85a3.644 3.644 0 0 0-1.139-1.12z" opacity=".32"/>
        <path fill="#F6A84F" fill-rule="nonzero" d="M92.197 81.62c-5.561 5.713-14.701 5.836-20.414.274-5.713-5.562-5.836-14.701-.275-20.415 5.562-5.713 14.702-5.836 20.415-.274 1.316 1.281-6.268-.365-5.545 1.21.723 1.576 9.748 6.371 9.873 8.07a14.407 14.407 0 0 1-4.054 11.135z"/>
        <path fill="#00B6AA" fill-rule="nonzero" d="M80.144 59.504c.026.082-3.42 11.87-3.606 12.484-.236.785-.655.923-.93.99-2.73.672-1.462-1.018-.075-3.008 1.032-1.48 1.845-5.628-.087-6.563-1.215-.586-4.604 1.278-3.71 4.713.662 2.548-1.053 4.078-1.635 5.72-1.515 4.265-1.518 4.963-2.517 3.264-.333-.566-2.128-5.555-1.49-10.127.631-4.52 2.53-9.254 7.74-10.15 6.807-1.173 6.31 2.677 6.31 2.677z"/>
        <path fill="#FF7F00" fill-rule="nonzero" d="M96.251 70.484c-.125-1.698-9.152-6.494-9.873-8.068-.207-.451.267-.638 1.017-.706l-2.354-1.936-2.888 2.24s3.896 1.457 5.515 3.701c1.268 1.76 1.767 5.424 4.156 6.189 2.389.764 4.012 0 4.108 1.502a.4.4 0 0 0 .2.278 14.63 14.63 0 0 0 .12-3.2z" opacity=".4"/>
        <path fill="#00B6AA" fill-rule="nonzero" d="M98.047 65.43c.061.288 1.66 4.18 3.216 4.612 2.086.575-3.463 6.525-12.785-4.242-3.345-3.863-6.332-4.683-8.323-2.903-1.102.987-2.328 3.774-2.328 3.774l-.49-6.986s1.558-5.012 4.022-4.26c2.464.75 15.564 4.952 16.688 10.006z"/>
        <path fill="#00B6AA" fill-rule="nonzero" d="M77.637 63.471l-.447-.781c-.277.76.447.781.447.781zM101.566 62.034c-4.144-.07-4.295-5.245-12.092-8.658-4.584-2.011-9.185-.461-12.198 1.149a.848.848 0 0 1-.673.052 9.613 9.613 0 0 0-4.734-.358.162.162 0 0 0-.03.312c.454.176 1.006.686 1.437 1.262a.076.076 0 0 1-.045.12 7.773 7.773 0 0 0-1.52.541.128.128 0 0 0 .045.243c.822.076 2.329 1.235 2.22 1.926-.047.288.238.127.643-.237a.079.079 0 0 1 .12.019l2.372 4.147a.078.078 0 0 0 .137 0c.271-.574 1.056-1.517 2.894-3.045 4.698-3.903 12.588 7.722 16.16 9.111 3.57 1.39 5.095-.945 6.85-3.214 1.755-2.27 2.56-3.3-1.586-3.37z"/>
        <path fill="#00B6AA" fill-rule="nonzero" d="M99.848 58.465a.682.682 0 0 0-.853.854 2.281 2.281 0 0 0 1.455 1.5c.892.334 1.543.331 1.938.266a.287.287 0 0 0 .168-.47c-.55-.611-1.773-1.871-2.708-2.15zM77.637 63.471l-.447-.781c-.277.76.447.781.447.781z"/>
        <path fill="#000" fill-rule="nonzero" d="M73.964 56.326c.495-.18-.77-1.453-.07-1.485.56-.026 1.66 1.369 3.058 1.369 2.117 0 1.946-2.127 4.597-2.412 3.344-.359 3.263 1.293 7.66 1.75 4.71.491 6.575 4.216 8.295 5.694 1.72 1.478 3.288.718 3.288.718-3.426-.666-4.04-5.39-11.323-8.578-4.58-2.012-9.174-.464-12.188 1.149a.878.878 0 0 1-.694.054 9.607 9.607 0 0 0-4.722-.354.162.162 0 0 0-.03.311c.478.186 1.064.741 1.498 1.356a7.69 7.69 0 0 0-1.21.382c.59.223 1.24.24 1.84.046z" opacity=".06"/>
        <path fill="#72519E" fill-rule="nonzero" d="M81.516 50.006a.36.36 0 0 1-.111-.158l-2.26-5.674a.36.36 0 0 1 .678-.242l2.26 5.676a.36.36 0 0 1-.567.398zM84.547 50.147a.358.358 0 0 1-.128-.327l.393-3.268a.362.362 0 1 1 .719.097l-.394 3.268a.36.36 0 0 1-.405.309.352.352 0 0 1-.185-.08zM77.28 49.864a.36.36 0 1 1 .588-.386l1.039.956a.36.36 0 1 1-.506.513l-1.04-.957a.386.386 0 0 1-.082-.126z"/>
        <path fill="#0092D7" fill-rule="nonzero" d="M159.93 72.021s-4.083 1.24-3.113 7.835c.97 6.595.247 7.07-.47 7.26-.717.19-1.203 2.524-.076 5.06 1.126 2.538 1.182 6.142 1.182 6.142s2.28.167 1.897-2.7c-.382-2.865.914-4.866.818-6.995a28.917 28.917 0 0 1 0-3.317l-.239-13.285z" opacity=".08"/>
        <path fill="#72519E" fill-rule="nonzero" d="M142.081 187.234a.363.363 0 0 1 .039-.35l1.867-2.708a.36.36 0 0 1 .588.418l-1.868 2.709a.36.36 0 0 1-.626-.069zM139.68 184.131a.36.36 0 0 1 .684.175l-.011 1.413a.36.36 0 1 1-.718-.032l.011-1.412a.348.348 0 0 1 .035-.144zM96.21 205.726a.356.356 0 0 0-.205.287l-.5 4.218a.362.362 0 1 0 .719.085l.5-4.218a.36.36 0 0 0-.316-.4.353.353 0 0 0-.197.028zM92.035 205.881a.36.36 0 0 0 .56.431l1.613-1.393a.36.36 0 1 0-.47-.545l-1.613 1.392a.342.342 0 0 0-.09.115z"/>
        <path stroke="#88C33F" stroke-linejoin="round" stroke-width="2" d="M145.62 197.265c24.777 2.379 45.647-14.964 23.29-25.406-7.86-3.671-7.396-13.132-5.692-20.276a13.338 13.338 0 0 0-5.82-14.38l-.764-.996"/>
        <path fill="#F6A84F" fill-rule="nonzero" d="M206.044 121.59a.2.2 0 0 0 .03.03c1.477 1.15 11.173 9.582 2.422 28.156-10.357 21.978-29.08 26.384-30.197 26.01a.175.175 0 0 0-.129 0l-3.879 1.773a.177.177 0 0 0 .032.333c.38.092.862.202.948.239 11.752 4.766 26.969-6.731 36.53-15.062 32.238-28.089 10.807-51.349 9.05-53.15"/>
        <path fill="#F6A84F" fill-rule="nonzero" d="M206.044 121.59a.2.2 0 0 0 .03.03c1.477 1.15 11.173 9.582 2.422 28.156-10.357 21.978-29.08 26.384-30.197 26.01a.175.175 0 0 0-.129 0l-3.879 1.773a.177.177 0 0 0 .032.333c.38.092.862.202.948.239 11.752 4.766 26.969-6.731 36.53-15.062 32.238-28.089 10.807-51.349 9.05-53.15"/>
        <path fill="#F6A84F" fill-rule="nonzero" d="M181.098 179.315s-2.253 3.104-6.097 1.292c-3.844-1.811 1.771-7.058 5.26-3.813 2.241 2.082 7.156-1.029 7.156-1.029 3.621.924-6.32 3.55-6.32 3.55z"/>
        <g fill="#FF7F00" fill-rule="nonzero" opacity=".32">
            <path d="M220.853 109.922c-1.924-2.17-3.787-3.66-5.558-4.624.143.133 6.794 6.282 7.93 11.101 1.148 4.873 6.16 10.343.143 25.67-6.018 15.328-12.61 19.12-19.847 24.956-7.237 5.837-16.123 10.023-17.842 11.44a3.234 3.234 0 0 0-.387.374c9.481-1.867 19.512-9.665 26.51-15.763 32.237-28.089 10.806-51.348 9.05-53.154z"/>
        </g>
        <path fill="#A7E3FF" fill-rule="nonzero" d="M152.422 101.188a.376.376 0 0 1 .378-.32c1.39.03 8.408-.009 9.304 0 .954 0 .194 6.228-2.57 6.228-2.763 0-7.008.974-6.97-3.658 0-1.092-.21-1.805-.142-2.25z"/>
        <path fill="#C6EDFF" fill-rule="nonzero" d="M152.155 102.057c1.228-.011 8.801-.076 10.497-.008.092-.001.175.056.206.143.07.236.242.343-.538.343-.892 0-9.12-.103-10.363-.109a.103.103 0 0 1-.11-.074.241.241 0 0 1 .037-.173.332.332 0 0 1 .271-.122zM152.155 103.162c1.228-.01 8.801-.075 10.497 0 .092 0 .175.057.206.143.07.236.242.344-.538.344-.892 0-9.12-.104-10.363-.11a.103.103 0 0 1-.11-.074.247.247 0 0 1 .037-.174.339.339 0 0 1 .271-.13z"/>
        <path fill="#0092D7" fill-rule="nonzero" d="M155.328 104.577c.61-1.006-2.139-2.4-.735-3.05 1.19-.552 1.652-.537 1.635-.645-1.529 0-2.894 0-3.428-.01a.376.376 0 0 0-.378.32c-.067.446.144 1.158.144 2.246-.033 4.009 3.136 4.006 7.032 3.658-.263-.07-1.885-.373-2.42-.42-1.8-.16-2.768-.595-1.85-2.1z" opacity=".08"/>
        <path fill="#A7E3FF" fill-rule="nonzero" d="M156.663 100.868s-1.744-3.781-4.853-6.226c-2.097-1.646-.517-5.679 2.427-5.068 0 0-7.308-.677-6.656-4.189a2.742 2.742 0 0 1 1.073-1.673c.996-.747 1.637-.89 1.996-1.25.43-.431-4.884.947-6.288-2.198-1.403-3.144 3.51-3.54 6.151-.977 2.64 2.564 7.493 8.211 7.532 16.27 0 0-.276-12.362-.52-14.805-.244-2.442.44-7.742 3.144-8.973 2.072-.943 2.594 1.099.733 4.7-.062.366.182.214 1.16-.305.976-.518 3.984-.818 4.548.825.637 1.854-.397 2.873-4.427 4.76-.64.154 2.751 1.06 1.034 3.566-.976 1.425-2.808-.04-3.933 4.615-.932 3.857-.925 4.861-.831 5.114a.076.076 0 0 0 .143.012c.33-.55 2.773-4.432 6.006-4.545 3.48-.122 3.487 2.197 2.809 3.016-.423.512-1.526.549-2.747.244-.431-.061.33.493.519.701.244.273.896 1.36-.565 1.612a2.74 2.74 0 0 1-.575.036c-.942-.037-1.292-.38-1.425-.212-.132.166.056.377.214.64.239.401.519 1.58-1.252 1.65-1.771.068-3.662.366-4.022 1.25-.36.885-.214 1.404-.214 1.404l-1.181.006z"/>
        <path fill="#0092D7" fill-rule="nonzero" d="M166.783 92.223c-1.69-.809-3.48.144-4.924 1.277-2.299 1.652-3.556 4.008-4.023 5.019.135-.873.263-1.77.298-2.252.047-.653.327-5.172.574-9.204.476-.68 1.322-1.778 2.165-2.329.546-.354 1.132-.599 1.15-.736.017-.138-.22-.055-.22-.055-1.605.534-2.622 1.964-3.072 2.73.11-1.822.209-3.514.273-4.668.663-.68 2.323-2.337 3.52-3.104.655-.42 1.357-.708 1.379-.87.024-.189-.265-.065-.265-.065-1.496.487-4.002 3.016-4.612 3.65.024-.457.042-.797.049-.98.16-4.27 1.79-8.609.813-7.011 0 0-1.083 2.274-1.465 12.098l-.072 1.824-.029.093.026-.043c-.342 8.345-.595 11.037-.961 11.597a.862.862 0 0 0-.053.094 80.3 80.3 0 0 0-1.823-10.64c-1.54-6.419-6.956-8.88-7.673-9.18a.25.25 0 0 0-.182-.01c-.241.084.339.288.339.288 3.833 2.272 4.363 3.348 5.602 5.251a12.818 12.818 0 0 1 1.625 3.816c-.497-.536-2.768-2.92-4.288-3.413 0 0-.287-.124-.264.063.021.164.718.45 1.379.872 1.277.817 2.83 2.46 3.304 2.973.049.198.096.381.143.552a45.958 45.958 0 0 1 1.006 5.414c-.082-.113-1.796-2.468-3.468-3.017 0 0-.287-.123-.264.064.021.163.786.367 1.379.872a20.454 20.454 0 0 1 2.402 2.477c.365 2.825.518 5.186.518 5.186s.384.174.384 0c0 0 .13-.75.277-1.668.362-.718.718-1.361 1.086-1.94.408-.144 1.514-.489 2.43-.56.485-.04.946.143 1.016.061.07-.082-.11-.128-.11-.128-.907-.287-2.705.288-3.232.464.597-.957 1.299-1.846 2.093-2.648a11.995 11.995 0 0 1 2.084.017c.501.049.942.311 1.028.248.087-.063-.09-.152-.09-.152-.888-.47-2.442-.32-2.863-.269 1.549-1.478 2.873-1.904 3.591-2.058 1.246-.259 2.244.326 2.02 0z" opacity=".16"/>
        <g fill-rule="nonzero">
            <path fill="#98C255" d="M245.725 139.74l-.601-7.038a.547.547 0 0 0-.24-.368l-2.781-1.436-.94.08-2.326 1.817-.069.053a.543.543 0 0 0-.18.411v.088l.596 6.95 6.541-.556z"/>
            <path fill="#9CBC53" d="M242.391 128.931a.83.83 0 0 0-1.593.128s-1.301-.675-.98.08c.216.509.647 1.042.906 1.355 0 0 1.57.021 2.024-.164.267-.465.477-.96.624-1.477.186-.762-.886.01-.976.077"/>
            <path fill="#51AD62" d="M244.693 130.694c-.049-.5-.14-.994-.273-1.477l-2.036 1.069a.96.96 0 0 0-1.405.082l-2.123-.749a7.657 7.657 0 0 0-.113 1.58c.048.482.159.955.329 1.408l1.904-1.006a.955.955 0 0 0 .719.355.967.967 0 0 0 .862-.488l2.077.744c.061-.5.08-1.005.056-1.508"/>
            <path fill="#D63089" d="M242.674 141.421c4.127-.12 8.026-.237 9.801-.287h.064c.03 0 .059 0 .089.01l.829-2.915a.667.667 0 0 0-.46-.823l-8.977-2.55a.667.667 0 0 0-.823.46l-1.744 6.138 1.221-.037"/>
            <path fill="#E8963E" d="M248.331 141.255l1.453-4.696-2.586-.733-1.704 5.513 2.834-.084"/>
            <path fill="#E8963E" d="M252.592 135.203a1.458 1.458 0 0 0-.287-.38c-.995-.902-2.6.407-3.148.91a.735.735 0 0 0-.99-.287c-.28-.746-1.087-2.522-2.347-2.194a1.5 1.5 0 0 0-.43.201c-.432.296-.49.626-.458.85.144.923 2.155 1.634 2.86 1.854a.733.733 0 0 0 1.352.319h.026c.668.122 2.885.46 3.448-.314.133-.184.24-.5-.013-.964m-6.814-.775a.287.287 0 0 1-.015-.377.447.447 0 0 1 .227-.129c.502-.13 1.02.64 1.347 1.349a6.249 6.249 0 0 1-1.559-.843m6.268 1.334c-.191.262-1.023.257-2.03.144.62-.477 1.437-.924 1.819-.575.215.137.271.34.21.431M229.96 141.806c.064-.011.13-.018.195-.021 2.135-.055 7.414-.213 12.52-.364l.325-.008-1.005-5.258a.644.644 0 0 0-.753-.514l-11.393 2.155a.644.644 0 0 0-.513.752l.624 3.258z"/>
            <path fill="#FFF" d="M238.534 134.937l.038-.027-.038.027"/>
            <path fill="#D83832" d="M238.66 141.54l-.998-5.256-4.135.786.872 4.597 4.26-.125"/>
            <path fill="#D83832" d="M238.875 133.535a1.666 1.666 0 0 0-.533-.182c-1.455-.222-2.185 1.794-2.442 2.749a.707.707 0 0 0-.902.187c-.598-.77-2.073-2.392-3.344-1.612-.161.1-.304.227-.423.375-.39.481-.337.87-.222 1.11.48 1.016 3.112 1.105 3.908 1.108h.193a.705.705 0 0 0 1.051-.181l.187-.08c.731-.312 3.121-1.417 3.169-2.539.013-.267-.09-.645-.638-.936m-7.019 2.394a.287.287 0 0 1 0-.363.902.902 0 0 1 .216-.197c.521-.32 1.365.37 1.975 1.054-1.187-.089-2.011-.251-2.192-.494m4.954-.036c.288-.85.79-1.797 1.385-1.706a.882.882 0 0 1 .267.095c.125.064.206.143.204.18-.011.296-.817.9-1.856 1.437"/>
        </g>
        <path stroke="#FFF" stroke-linecap="round" stroke-linejoin="round" stroke-width="10" d="M253.27 152.639s11.097-.509 7.892-14.695"/>
        <path fill="#71D1FF" fill-rule="nonzero" d="M228.627 141.837l25.202-1.17a1.15 1.15 0 0 1 1.186 1.293c-.544 4.022-1.867 16.257.431 26.969a1.14 1.14 0 0 1-1.117 1.377h-27.682a.287.287 0 0 1-.268-.385c.676-1.848 3.314-10.4 1.16-26.792a1.15 1.15 0 0 1 1.088-1.292z"/>
        <path fill="#71D1FF" fill-rule="nonzero" d="M230.713 168.946c-.658-1.243-1.193 1.293-2.885 1.362h6.526s-2.983-.12-3.641-1.362z"/>
        <path fill="#0092D7" fill-rule="nonzero" d="M234.449 141.566c-1.109.05-4.505.237-4.719.248l-1.396.066c-.45.051-.862.71-.795 1.242 1.868 14.246.127 22.572-.808 25.723-.217.733-.703 1.463.06 1.463 1.692-.072 3.824-3.448 4.3-2.128.614 1.707 2.056 2.078 2.921 2.14a.67.67 0 0 0 .718-.64c.186-4.31 1.45-28.194-.281-28.114z" opacity=".12"/>
        <path fill="#000" fill-rule="nonzero" d="M226.98 170.308c.848 0 3.147-2.434 3.735-2.434.452 0 .473.826.921 1.302.983 1.043 2.019 1.132 2.019 1.132h-6.674z" opacity=".08"/>
        <circle cx="240.277" cy="150.292" r="1" fill="#C6EDFF" fill-rule="nonzero"/>
        <circle cx="249.806" cy="149.359" r="1" fill="#C6EDFF" fill-rule="nonzero"/>
        <path fill="#C6EDFF" fill-rule="nonzero" d="M241.21 158.192a.646.646 0 0 1-.647-.646 5.99 5.99 0 0 1 1.922-4.29 4.597 4.597 0 0 1 3.6-1.243c3.59.33 4.615 3.209 4.655 4.685a.647.647 0 1 1-1.293.038c0-.134-.156-3.129-3.483-3.436a3.363 3.363 0 0 0-2.61.912 4.729 4.729 0 0 0-1.5 3.334.648.648 0 0 1-.645.646z"/>
        <path fill="#71D1FF" fill-rule="nonzero" d="M260.135 119.447l.556 21.308a.25.25 0 0 1-.243.256.728.728 0 0 1-.75-.683l-1.436-22.21 1.873 1.33zM257.85 116.258l-.324-18.828a.702.702 0 1 1 1.405-.04l.796 20.198-1.878-1.33z"/>
        <path fill="#A7E3FF" fill-rule="nonzero" d="M271.396 102.74a3.534 3.534 0 0 0-3.41-2.85c-5.936-.095-19.392-.171-22.361 1.022-2.784 1.12-1.898 10.531-1.202 15.603a3.754 3.754 0 0 0 3.69 3.245c6.81.06 22.301.077 24.193-.93 1.82-.97.084-11.074-.91-16.09z"/>
        <path fill="#71D1FF" fill-rule="nonzero" d="M255.446 168.932a45.788 45.788 0 0 1-.125-.61v1.41c.14-.242.184-.527.125-.8z"/>
        <path fill="#0092D7" fill-rule="nonzero" d="M242.08 170.308h12.253c.41-.001.788-.22.992-.575v-1.409c-2.12-10.563-.84-22.41-.305-26.36a1.15 1.15 0 0 0-1.187-1.292l-7.368.31c.269.332 1.053 1.176 2.052 1.176 1.242 0 3.1-.396 3.467.757 1.325 4.156-8.43 10.165-5.563 15.282 2.865 5.117 3.39 7.853-1.553 7.853-2.283 0-4.282 1.095-5.646 2.18" opacity=".08"/>
        <path fill="#FFF" fill-rule="nonzero" d="M261.698 137.405c-.277-.256-1.27-.466-1.274.38 0 .792-.553.143-1.05.874-.36.529.955 1.4 1.814 1.339.705-.052.9-2.23.51-2.593zM225.004 171.03c.259.276 1.235.553 1.293-.287.059-.791.562-.103 1.109-.802.393-.5-.862-1.46-1.724-1.459-.697 0-1.041 2.16-.678 2.548z"/>
        <path fill="#0092D7" fill-rule="nonzero" d="M248.422 170.308c.359.186.748.307 1.149.357.575.048 1.142.177.991.8-.15.624-.43.962-.144 2.138.207.836-.047 2.198 0 2.365.048.166.637-.575.637-.575l.629-2.173s.445-2.888-.718-2.9c-1.164-.014-2.544-.012-2.544-.012zM237.004 170.308s.05.43 1.41.43c1.36 0 1.805.354 1.505.956-.465.93.274 1.047.565 1.481.402.6-.709 4.419.079 4.502.629.068.682-.991.682-.991l.83-3.965v-2.412l-5.07-.001zM239.781 168.111s-1.32-.073-1.56.492c-.24.564.575.853.219 1.23-.288.298-.887.045-1.437.475h4.897l-1.093-1.705-1.026-.492zM245.71 170.308s.156-.479 1.159-.527c1.003-.05 1.436.048 1.123-.431-.313-.48-.198-1.249.533-1.313.731-.065 2.834.787 2.834.787l.097 1.482-5.746.002z" opacity=".16"/>
        <path fill="#FFF" fill-rule="nonzero" d="M241.183 180.263a.718.718 0 0 1-.7-.556c-.456-1.973.06-4.353.515-6.453.244-1.122.65-3 .385-3.323-.418-.448-1.688-.416-2.237-.331-.392.06-.616-1.356-.225-1.418.25-.04 2.462-.355 3.512.77.786.842.444 2.42-.03 4.607-.431 1.952-.904 4.165-.52 5.823a.718.718 0 0 1-.7.88z"/>
        <path fill="#A7E3FF" fill-rule="nonzero" d="M240.484 179.705a2.494 2.494 0 0 1 1.399-.324s.16.48.113.55c-.047.07-1.293.33-1.293.33s-.227.032-.22-.556z"/>
        <path fill="#71D1FF" fill-rule="nonzero" d="M240.627 180.18a.07.07 0 0 0-.066.05c-.046.16-.172.666-.077 1.005.115.412 2.39.299 2.82.214.429-.085 1.005-1.396-1.262-1.58a.144.144 0 0 0-.074.012c-.107.047-.496.262-1.34.298z"/>
        <path fill="#FFF" fill-rule="nonzero" d="M250.788 180.12a.718.718 0 0 1-.7-.557c-.457-1.972.059-4.352.514-6.453.245-1.121.651-2.999.385-3.322-.42-.448-1.688-.417-2.238-.332-.392.06-.615-1.356-.224-1.418.249-.04 2.462-.355 3.512.77.786.842.444 2.42-.031 4.607-.423 1.952-.904 4.166-.519 5.823a.718.718 0 0 1-.7.881z"/>
        <path fill="#A7E3FF" fill-rule="nonzero" d="M250.088 179.562a2.494 2.494 0 0 1 1.4-.325s.16.48.111.55c-.049.07-1.293.33-1.293.33s-.225.032-.218-.555z"/>
        <path fill="#71D1FF" fill-rule="nonzero" d="M250.232 180.036a.073.073 0 0 0-.068.05c-.044.16-.172.667-.076 1.006.115.412 2.39.298 2.82.214.43-.085 1.005-1.397-1.261-1.58a.144.144 0 0 0-.075.01c-.106.048-.496.264-1.34.3zM248.371 107.306c1.753-1.906 9.26-8.893 19.18-1.15a.575.575 0 0 1 .117.788l-.615.862a.575.575 0 0 1-.822.12c-1.785-1.399-8.538-5.776-16.173.96a.575.575 0 0 1-.756 0l-.885-.767a.575.575 0 0 1-.046-.813z"/>
        <path fill="#71D1FF" fill-rule="nonzero" d="M252.098 110.123c1.867-1.788 5.954-6.43 13.06-.819a.565.565 0 0 1 .065.793l-.67.823a.575.575 0 0 1-.825.068c-1.693-1.513-5.663-4.091-10.056.829-.191.214-.55.156-.754-.045l-.835-.823a.575.575 0 0 1 .015-.826z"/>
        <path fill="#71D1FF" fill-rule="nonzero" d="M254.897 113.348c1.206-1.437 3.843-5.181 8.289-.789a.53.53 0 0 1 .033.63l-.43.663a.322.322 0 0 1-.525.062c-1.302-1.276-3.625-2.77-6.38.767a.297.297 0 0 1-.478-.029l-.52-.646a.546.546 0 0 1 .011-.658z"/>
        <circle cx="259.152" cy="115.62" r="1.639" fill="#71D1FF" fill-rule="nonzero" transform="rotate(-45 259.152 115.62)"/>
        <circle cx="259.179" cy="115.595" r="1.679" fill="#DAF3FF" fill-rule="nonzero" transform="rotate(-45 259.18 115.595)"/>
        <path fill="#DAF3FF" fill-rule="nonzero" d="M256.949 101.56c.1-.43 3.499-.22 3.661 0 .224.302-.07 9.434-.287 9.754-.217.32-2.382.248-2.382 0 0-.249-1.099-9.293-.992-9.754z"/>
        <g fill="#0092D7" fill-rule="nonzero" opacity=".08">
            <path d="M271.396 102.74a3.534 3.534 0 0 0-3.41-2.85c-3.493-.057-9.59-.105-14.621.107 0 0 2.774 2.498 3.577 3.386 1.685 1.867 6.717-.228 9.179 3.235 1.106 1.559-1.142 4.401.095 5.72 6.089 6.492-10.478 7.183-10.895 7.382 5.459-.102 15.96-.346 16.984-.89 1.821-.97.085-11.074-.91-16.09z"/>
        </g>
        <path fill="#0092D7" fill-rule="nonzero" d="M230.647 153.678a1.6 1.6 0 0 1 .726-.328c.258-.039.518 0 .529.309.024.622.016 1.051-.39 1.724-.407.672-1.243-.095-1.625 1.386-.382 1.48-.487 1.42-1.194 1.553-.325.119-.454.93-.454.93l.263-3.892 2.145-1.682z" opacity=".16"/>
        <path fill="#FFF" fill-rule="nonzero" d="M225.75 169.597a.741.741 0 0 1-.65-.746c0-7.291 1.256-12.084 3.722-14.243 1.181-1.032 2.267-1.111 2.675-1.099a.144.144 0 0 1 .144.163l-.144 1.149a.144.144 0 0 1-.134.126c-.258.013-.909.12-1.656.8-1.445 1.32-3.16 4.67-3.16 13.136a.718.718 0 0 1-.797.714z"/>
    </g>
</svg>
