<svg xmlns="http://www.w3.org/2000/svg" xmlns:xlink="http://www.w3.org/1999/xlink" width="24" height="24" viewBox="0 0 24 24">
    <defs>
        <path id="a" d="M0 0h24v24H0z"/>
    </defs>
    <g fill="none" fill-rule="evenodd">
        <mask id="b" fill="#fff">
            <use xlink:href="#a"/>
        </mask>
        <g fill="#858585" mask="url(#b)">
            <path d="M21 11.768c0 4.843-3.956 8.768-8.836 8.768a8.851 8.851 0 0 1-4.272-1.09L3 21l1.595-4.704a8.676 8.676 0 0 1-1.268-4.528C3.327 6.926 7.283 3 12.164 3 17.044 3 21 6.926 21 11.768zm-8.836-7.372c-4.097 0-7.43 3.307-7.43 7.372 0 1.613.526 3.107 1.416 4.322l-.929 2.738 2.855-.907a7.424 7.424 0 0 0 4.088 1.219c4.096 0 7.429-3.307 7.429-7.371 0-4.065-3.333-7.373-7.43-7.373zm4.462 9.392c-.055-.09-.199-.144-.415-.251-.217-.108-1.282-.628-1.48-.7-.199-.07-.344-.107-.488.108-.144.215-.56.7-.686.843-.126.143-.253.161-.47.054-.216-.108-.914-.335-1.741-1.067-.644-.57-1.079-1.273-1.205-1.488-.126-.215-.013-.331.095-.438.098-.097.217-.251.325-.377.109-.125.145-.215.216-.358.073-.144.037-.269-.018-.377-.054-.107-.487-1.165-.668-1.595-.18-.43-.36-.359-.487-.359-.126 0-.27-.018-.415-.018a.8.8 0 0 0-.578.27c-.198.214-.758.734-.758 1.792 0 1.057.776 2.08.885 2.222.108.144 1.498 2.384 3.7 3.245 2.202.86 2.202.573 2.6.537.396-.036 1.28-.52 1.462-1.021.18-.503.18-.933.126-1.022z"/>
        </g>
    </g>
</svg>
