<svg xmlns="http://www.w3.org/2000/svg" width="49" height="49" viewBox="0 0 49 49">
    <defs>
        <linearGradient id="a" x1="50.043%" x2="50.043%" y1="48.498%" y2="120.608%">
            <stop offset="0%" stop-color="#007BB5"/>
            <stop offset="100%" stop-color="#123D89"/>
        </linearGradient>
        <linearGradient id="b" x1="50.886%" x2="50.886%" y1="11.555%" y2="115.321%">
            <stop offset="0%" stop-color="#A7E3FF"/>
            <stop offset="100%" stop-color="#0095DA"/>
        </linearGradient>
        <linearGradient id="c" x1="20.812%" x2="87.831%" y1="17.836%" y2="92.056%">
            <stop offset="0%" stop-color="#F9B260"/>
            <stop offset="100%" stop-color="#EB8208"/>
        </linearGradient>
    </defs>
    <g fill="none" fill-rule="evenodd">
        <path fill="url(#a)" d="M22.458 40.833H4.083A4.095 4.095 0 0 1 0 36.75V4.083A4.095 4.095 0 0 1 4.083 0h18.375a4.095 4.095 0 0 1 4.084 4.083V36.75a4.095 4.095 0 0 1-4.084 4.083z" transform="translate(4.083 4.083)"/>
        <path fill="url(#b)" d="M21.744 3.063h-3.369c-.306 0-.613.204-.817.408l-.714 1.123c-.204.306-.51.408-.817.408h-5.206c-.306 0-.613-.204-.817-.408L9.29 3.573c-.205-.306-.51-.408-.817-.408H4.798c-1.02 0-1.838.816-1.838 1.94v29.91c0 1.633 1.225 2.858 2.757 2.858H20.62c1.531 0 2.756-1.327 2.756-2.858V5.105c.204-1.226-.612-2.043-1.633-2.043z" transform="translate(4.083 4.083)"/>
        <path fill="#A7E3FF" d="M26.542 4.083H14.19c.612 1.021 2.552 3.982 5.716 3.777 6.33-.408 10.413 5.105 1.838 12.455-3.369 2.858-4.798 7.656-1.43 13.577 1.838 3.266 1.021 7.145-7.86 7.86-2.858.204-3.573 1.225-5.002 2.96.204 0 .408.103.715.103h18.375a4.095 4.095 0 0 0 4.083-4.084V8.065c0-2.144-1.838-3.982-4.083-3.982z" opacity=".72" style="mix-blend-mode:soft-light"/>
        <g transform="translate(23.48 18.375)">
            <circle cx="9.8" cy="9.698" r="9.698" fill="url(#c)"/>
            <g fill="#FFF" fill-rule="nonzero">
                <path d="M8.167 11.23l-.715-1.94h-.817v1.94H5.002V5.103h2.552c1.43 0 2.348.715 2.348 2.042 0 .817-.306 1.429-.919 1.837l1.123 2.246h-1.94zM6.635 8.166h.92c.51 0 .714-.307.714-.817s-.307-.817-.715-.817h-.919v1.634zM16.333 10.208c0 1.43-.918 2.348-2.348 2.348-.612 0-1.123-.204-1.429-.612v2.348h-1.94V7.86h1.94v.51c.306-.407.817-.612 1.43-.612 1.429.102 2.347 1.021 2.347 2.45zm-1.94 0c0-.612-.408-1.02-.918-1.02s-.919.408-.919 1.02c0 .613.409 1.021.919 1.021.612 0 .919-.408.919-1.02z"/>
            </g>
            <path fill="#FCD2A1" d="M19.498 9.698C19.498 4.696 15.72.51 10.82 0c1.327.204 5.614 1.225 4.492 4.798-.817 2.756 4.185 5.614-1.532 8.37-4.593 2.247-.408 5.513-5.308 6.024.408.102.919.102 1.327.102 5.308.102 9.698-4.288 9.698-9.596z" opacity=".8" style="mix-blend-mode:soft-light"/>
        </g>
    </g>
</svg>
