<svg xmlns="http://www.w3.org/2000/svg" width="24" height="24" viewBox="0 0 24 24">
    <g fill="none" fill-rule="nonzero">
        <path fill="#BDBDBD" d="M5 6.9V20c0 1.1.9 2 2 2h10c1.1 0 2-.9 2-2V6.9H5zm3.5 11.9c0 .3-.2.5-.5.5s-.5-.3-.5-.5V9.1c0-.3.2-.5.5-.5s.5.2.5.5v9.7zm4 0c0 .3-.2.5-.5.5s-.5-.2-.5-.5V9.1c0-.3.2-.5.5-.5s.5.2.5.5v9.7zm4 0c0 .3-.2.5-.5.5s-.5-.2-.5-.5V9.1c0-.3.2-.5.5-.5s.5.2.5.5v9.7z"/>
        <path fill="#858585" d="M18 4.8H6c-1.1 0-2 .9-2 2V7h16v-.2c0-1.1-.9-2-2-2z"/>
        <path fill="#858585" d="M16 6.1h-1.4V4.2c0-.8-1-1.5-2.3-1.5h-.5c-1.2 0-2.3.7-2.3 1.5v1.9H8V4.2c0-1.6 1.7-3 3.7-3h.5c2 0 3.7 1.3 3.7 3v1.9h.1z"/>
    </g>
</svg>
