<svg xmlns="http://www.w3.org/2000/svg" width="28" height="28" viewBox="0 0 28 28">
    <g fill="none" fill-rule="evenodd">
        <path fill="#46A3D1" d="M21.636 27.265H6.364c-2.419 0-4.328-1.849-4.328-4.19V6.565c0-2.341 1.91-4.19 4.328-4.19h15.272c2.419 0 4.328 1.849 4.328 4.19v16.51c0 2.341-1.91 4.19-4.328 4.19z"/>
        <path fill="#095DA0" fill-rule="nonzero" d="M25.964 12.67V6.864c0-2.507-1.91-4.487-4.328-4.487H6.364c-2.419 0-4.328 1.98-4.328 4.487v5.808c.255.132.51.132.891.132 1.528 0 2.8-1.32 2.8-2.904 0 1.584 1.273 2.904 2.8 2.904 1.528 0 2.8-1.32 2.8-2.904 0 1.584 1.273 2.904 2.8 2.904 1.528 0 2.8-1.32 2.8-2.904 0 1.584 1.273 2.904 2.8 2.904 1.528 0 2.8-1.32 2.8-2.904 0 1.584 1.273 2.904 2.8 2.904.128 0 .382 0 .637-.132z"/>
        <path fill="#0860A2" d="M6.364 0H3.436c-1.145 0-2.163.924-2.29 1.98L0 8.843h5.6L6.364 0z"/>
        <path fill="#DAF3FF" fill-rule="nonzero" d="M11.2 0H6.364L5.6 8.843h5.6z"/>
        <path fill="#0860A2" d="M16.036 0H11.2v8.843h5.6z"/>
        <path fill="#DAF3FF" fill-rule="nonzero" d="M21 0h-4.964l.764 8.843h5.6z"/>
        <path fill="#0860A2" d="M24.055 0H21l1.4 8.843H28l-1.655-7.127C26.091.792 25.073 0 24.055 0z"/>
        <path fill="#DAF3FF" fill-rule="nonzero" d="M0 8.711c0 1.716 1.273 3.036 2.8 3.036s2.8-1.32 2.8-2.904H0v-.132z"/>
        <path fill="#FFF" fill-rule="nonzero" d="M5.6 8.843c0 1.584 1.273 2.904 2.8 2.904s2.8-1.32 2.8-2.904H5.6z"/>
        <path fill="#DAF3FF" fill-rule="nonzero" d="M11.2 8.843c0 1.584 1.273 2.904 2.8 2.904s2.8-1.32 2.8-2.904h-5.6z"/>
        <path fill="#FFF" fill-rule="nonzero" d="M16.8 8.843c0 1.584 1.273 2.904 2.8 2.904s2.8-1.32 2.8-2.904h-5.6z"/>
        <path fill="#DAF3FF" fill-rule="nonzero" d="M22.4 8.843c0 1.584 1.273 2.904 2.8 2.904S28 10.559 28 8.843h-5.6z"/>
    </g>
</svg>
