<svg xmlns="http://www.w3.org/2000/svg" width="32" height="32" viewBox="0 0 32 32">
    <defs>
        <linearGradient id="a" x1="101.465%" x2="-43.422%" y1="48.438%" y2="52.606%">
            <stop offset="0%" stop-color="#007BB5"/>
            <stop offset="100%" stop-color="#123D89"/>
        </linearGradient>
        <linearGradient id="b" x1="127.999%" x2="-19.189%" y1="50.042%" y2="50.042%">
            <stop offset="0%" stop-color="#F9B260"/>
            <stop offset="100%" stop-color="#EB8208"/>
        </linearGradient>
    </defs>
    <g fill="none" fill-rule="nonzero" transform="translate(3.333 5.333)">
        <path fill="url(#a)" d="M0 18.667v-16C0 1.2 1.2 0 2.667 0H22c1.467 0 2.667 1.2 2.667 2.667v16c0 1.466-1.2 2.666-2.667 2.666H2.667A2.675 2.675 0 0 1 0 18.667z"/>
        <path fill="#A7E3FF" d="M24.667 18.667v-16C24.667 1.2 23.467 0 22 0H4.933C5.2 1.2 5.8 2.333 6.667 3.133 8.4 4.8 10.867 5.533 13.2 5.8c1.867.2 3.8.133 5.6.733 1.8.6 3.4 2.2 3.4 4.067 0 1.067-.533 2-1 3a17.88 17.88 0 0 0-1.333 7.733H22c1.467 0 2.667-1.2 2.667-2.666z" opacity=".42"/>
        <path fill="url(#b)" d="M13.333 11.667c0-1.667 1.334-3 3-3h8.334C25.4 8.667 26 9.267 26 10v3.267c0 .733-.6 1.333-1.333 1.333h-8.334c-1.666.067-3-1.267-3-2.933z"/>
        <circle cx="16.333" cy="11.667" r="1.667" fill="#FFF"/>
        <path fill="#FFF" d="M22.333 3.333h-20c-.533 0-1-.466-1-1 0-.6.467-1 1-1h20c.534 0 1 .467 1 1 0 .534-.466 1-1 1z"/>
        <path fill="#FCD2A1" d="M26 13.333V10c0-.733-.6-1.333-1.333-1.333h-3c.4.6.6 1.266.6 1.933 0 1.067-.534 2-1 3-.134.333-.267.733-.4 1.067h3.8c.733 0 1.333-.6 1.333-1.334z" opacity=".72"/>
    </g>
</svg>
