<svg xmlns="http://www.w3.org/2000/svg" width="62" height="32" viewBox="0 0 62 32">
    <g fill="#FFF" fill-rule="evenodd">
        <path d="M29.515 27.087c0-.837-.026-1.545-.055-2.148h1.766l.089.91h.044c.284-.425.883-1.06 2.027-1.06.874 0 1.55.446 1.84 1.151h.028c.25-.356.548-.629.873-.819.363-.218.775-.333 1.275-.333 1.284 0 2.263.909 2.263 2.917v3.956h-2.033v-3.65c0-.974-.313-1.54-.989-1.54-.484 0-.82.33-.961.729-.05.15-.076.363-.076.53v3.93h-2.032v-3.767c0-.847-.302-1.421-.969-1.421-.536 0-.854.411-.98.75a1.547 1.547 0 0 0-.077.53v3.909h-2.033v-4.574zM41.324 31.66h2.092v-6.72h-2.092v6.72zm2.152-8.586c.003.581-.427 1.043-1.124 1.043-.661 0-1.09-.462-1.087-1.043-.003-.598.436-1.047 1.106-1.047.675 0 1.097.447 1.105 1.047zM47.417 23.023v1.917h1.504v1.54h-1.504v2.436c0 .811.201 1.185.824 1.185.27 0 .477-.03.622-.063l.016 1.588c-.27.097-.768.18-1.354.18-.675 0-1.239-.236-1.574-.584-.388-.398-.578-1.038-.578-1.992v-2.75h-.893v-1.54h.893v-1.445l2.044-.472zM50.125 27.155c0-.986-.018-1.637-.055-2.215h1.796l.076 1.244h.05c.346-.984 1.164-1.395 1.815-1.395.193 0 .291.005.446.038v1.965a2.575 2.575 0 0 0-.564-.058c-.768 0-1.292.407-1.433 1.06a2.486 2.486 0 0 0-.038.466v3.4h-2.093v-4.505zM58.764 28.482c-1.1-.006-1.95.26-1.95 1.06 0 .541.355.804.83.804.511 0 .944-.341 1.081-.772.032-.108.039-.238.039-.357v-.735zm.254 3.179l-.124-.668h-.044c-.438.535-1.125.819-1.92.819-1.368 0-2.172-.983-2.172-2.056 0-1.751 1.566-2.581 3.944-2.578v-.086c0-.357-.192-.868-1.23-.865-.686 0-1.406.233-1.853.501l-.385-1.337c.468-.268 1.384-.602 2.612-.602 2.238 0 2.946 1.322 2.946 2.9v2.344c0 .641.034 1.25.107 1.628h-1.881zM45.181 8.579c-.833.476-1.43 1.381-1.653 2.185 1.015-.455 5.183-.002 5.239 3.885 0 3.41-2.457 4.135-3.165 4.135-2.691 0-3.256-3.049-3.256-4.069 0 0-.002-10.417 0-10.81-1.2 0-2.232.572-2.91 1.457v9.255c0 1.29.525 3.252 2.081 4.633.933.83 2.164 1.527 4.082 1.527 1.901 0 6.045-1.245 6.045-6.1-.017-1.75-.597-2.91-1.34-3.82-1.611-1.976-4.22-2.38-5.123-2.278M60.974 5.354a1.463 1.463 0 1 1-2.926-.002 1.463 1.463 0 0 1 2.926.002M58.038 10.063c.001.518-.002 9.885 0 10.675v.01c1.124 0 2.258-.548 2.93-1.4V8.618a3.69 3.69 0 0 0-2.93 1.446M37.731 5.376a1.462 1.462 0 1 1-2.924-.002 1.462 1.462 0 0 1 2.924.002M34.795 10.085c.002.517 0 9.885 0 10.675v.009c1.124 0 2.259-.547 2.932-1.4V8.64c-1.19 0-2.258.566-2.932 1.446M21.94 8.579c-.834.476-1.432 1.381-1.654 2.185 1.015-.455 5.184-.002 5.24 3.885 0 3.41-2.458 4.135-3.166 4.135-2.691 0-3.255-3.049-3.255-4.069 0 0-.002-10.417 0-10.81-1.201 0-2.233.572-2.91 1.457v9.255c0 1.29.524 3.252 2.08 4.633.933.83 2.165 1.527 4.082 1.527 1.9 0 6.046-1.245 6.046-6.1-.018-1.75-.598-2.91-1.34-3.82-1.612-1.976-4.22-2.38-5.122-2.278M30.127 1.89v18.837c1.147 0 2.396-.565 2.916-1.444V.398c-1.144 0-2.291.584-2.916 1.492M53.37 1.89v18.837c1.145 0 2.395-.565 2.916-1.444V.398c-1.145 0-2.292.584-2.917 1.492M8.484 1.203c-.038-.372-.173-.8-.173-.8l-1.09.615a.523.523 0 0 0-.762.068L5.29.714s-.074.488-.036.859c.039.378.201.76.201.76l1.02-.58a.524.524 0 0 0 .859-.099l1.143.37s.044-.444.006-.821M9.815 4.379c-.702-.233-1.165-.512-1.382-.835l-.247-.063a.363.363 0 0 0-.44.264l-.193.761.56 2.534.983-.058.72-2.603zM13.111 4.723l-.432-.109a2.59 2.59 0 0 1-.807.107c-.226 0-.446-.018-.626-.036l-.61 2.205c.961-.057 1.758-.104 2.252-.131l.018-.002.017.001.05.005.402-1.6a.363.363 0 0 0-.264-.44M12.567 3.84c-.1.147-.552.158-1.101.113.328-.269.764-.525.98-.34.119.07.152.181.121.228m-3.43-.624c-.065-.048-.055-.152-.016-.205a.247.247 0 0 1 .12-.074c.273-.079.566.332.757.712a3.367 3.367 0 0 1-.862-.433m3.72.311a.778.778 0 0 0-.166-.202c-.556-.474-1.408.264-1.698.546a.4.4 0 0 0-.543-.14c-.165-.4-.633-1.354-1.313-1.155a.789.789 0 0 0-.234.117c-.233.168-.256.348-.234.47.09.5 1.2.853 1.585.961a.4.4 0 0 0 .741.152l.015.002c.365.055 1.577.204 1.87-.227.07-.102.12-.276-.024-.524M5.202 3.613l.02-.016-.02.016"/>
        <path d="M7.46 2.085a.892.892 0 0 1-1.014.112l-.739.422c.255.184.397.441.392.73a.902.902 0 0 1-.092.373l.604-.134a.722.722 0 0 1 .724.264l.05-.198a.734.734 0 0 1 .892-.534l.014.005c-.01-.249.1-.484.313-.668L7.46 2.085zM2.61 5.302c-.456-.026-.832-.094-1.127-.2l-.955.211a.35.35 0 0 0-.268.417L.65 7.49a.816.816 0 0 1 .105-.015c.5-.028 1.318-.076 2.307-.134l-.45-2.039zM7.109 4.218a.35.35 0 0 0-.418-.266l-1.021.225a4.137 4.137 0 0 1-.827.605l.534 2.421 2.184-.13.177-.01-.63-2.845zM4.28 4.161c.145-.468.4-.99.725-.951a.469.469 0 0 1 .148.048c.069.033.114.071.114.094-.002.16-.43.502-.987.81m-2.695.1a.161.161 0 0 1-.006-.199.514.514 0 0 1 .114-.11c.28-.183.749.179 1.092.541-.647-.028-1.102-.103-1.2-.233m3.78-1.418a.917.917 0 0 0-.293-.09c-.796-.097-1.16 1.012-1.286 1.536a.382.382 0 0 0-.488.116c-.339-.409-1.168-1.268-1.846-.822a.873.873 0 0 0-.223.211c-.205.269-.17.479-.104.608.278.544 1.711.55 2.145.54l.104-.004a.383.383 0 0 0 .57-.115l.1-.047c.393-.181 1.676-.822 1.683-1.433.002-.145-.06-.35-.362-.5M6.643 15.132a3.327 3.327 0 0 1-3.326-3.328.458.458 0 1 1 .917 0 2.408 2.408 0 1 0 4.82 0 .458.458 0 1 1 .917 0 3.328 3.328 0 0 1-3.328 3.328M3.776 9.56a.459.459 0 1 1 0 .918.459.459 0 0 1 0-.918m5.735-.023a.46.46 0 1 1-.002.92.46.46 0 0 1 .002-.92m3.988 10.78c-.648-2.918-1.069-8.277-.151-12.788a.464.464 0 0 0-.442-.438c-2.145.123-10.026.598-12.13.717a.463.463 0 0 0-.435.46l.003.03C.817 11.044.976 15.882 0 20.379a.458.458 0 0 0 .378.436H13.11a.464.464 0 0 0 .39-.458l-.001-.04M5.834.496l.534.17a.894.894 0 0 1 .86-.08l.482-.27.023-.092c.09-.418-.482.02-.53.057a.453.453 0 0 0-.864.096L6.337.38s-.72-.346-.533.06l.03.057"/>
    </g>
</svg>
