<svg xmlns="http://www.w3.org/2000/svg" width="94" height="49" viewBox="0 0 94 49">
    <g fill="none" fill-rule="evenodd">
        <path fill="#005884" d="M45.086 41.678c0-1.34-.04-2.472-.086-3.436h2.77l.138 1.456h.069c.445-.681 1.385-1.698 3.179-1.698 1.37 0 2.43.714 2.885 1.844h.043c.394-.57.86-1.008 1.369-1.311.57-.35 1.214-.533 2-.533C59.464 38 61 39.453 61 42.668V49h-3.187v-5.843c0-1.558-.492-2.463-1.55-2.463-.76 0-1.287.528-1.508 1.166-.08.242-.118.58-.118.85V49h-3.188v-6.03c0-1.356-.473-2.276-1.518-2.276-.84 0-1.34.659-1.535 1.2-.096.263-.123.568-.123.848V49h-3.187v-7.322zM63.107 49h3.786V38.534h-3.786V49zM67 35.63c.005.905-.773 1.624-2.032 1.624-1.197 0-1.973-.719-1.968-1.625-.005-.93.789-1.629 2.001-1.629 1.222 0 1.984.696 1.999 1.63zM72.63 35v3.056H75v2.456h-2.37v3.883c0 1.292.316 1.887 1.299 1.887.425 0 .752-.045.979-.1l.026 2.532c-.425.155-1.211.286-2.133.286-1.065 0-1.953-.374-2.483-.93-.612-.635-.91-1.654-.91-3.175v-4.383H68v-2.456h1.408v-2.302L72.629 35zM77.092 41.788c0-1.58-.03-2.62-.092-3.546h3.004l.127 1.991h.086C80.795 38.66 82.164 38 83.253 38c.323 0 .487.008.747.062v3.146a4.5 4.5 0 0 0-.945-.094c-1.284 0-2.162.651-2.397 1.698a3.833 3.833 0 0 0-.065.745V49h-3.501v-7.212zM90.524 43.785c-1.79-.01-3.174.406-3.174 1.66 0 .847.577 1.26 1.35 1.26.833 0 1.538-.535 1.76-1.21.053-.17.064-.373.064-.559v-1.15zm.413 4.978l-.201-1.046h-.072C89.95 48.555 88.833 49 87.538 49 85.309 49 84 47.461 84 45.78c0-2.743 2.55-4.043 6.423-4.038v-.134c0-.56-.313-1.36-2.004-1.356-1.116 0-2.288.365-3.017.786l-.626-2.095c.762-.419 2.254-.943 4.254-.943 3.643 0 4.796 2.071 4.796 4.543v3.671c0 1.004.056 1.959.174 2.55h-3.063z"/>
        <path fill="#FFF" d="M15 17.727C15 20.64 12.762 23 10 23s-5-2.361-5-5.273c0-.402.309-.727.69-.727.38 0 .69.325.69.727 0 2.108 1.62 3.817 3.62 3.817 1.999 0 3.62-1.709 3.62-3.817h.001c0-.402.309-.727.69-.727.38 0 .689.325.689.727"/>
        <path fill="#95C11F" d="M14 9.364l-.664-5.92a.46.46 0 0 0-.207-.303L10.818 2l-.767.092-1.86 1.591-.054.046a.467.467 0 0 0-.128.425L8.665 10 14 9.364zM11.179.485c-.114-.315-.401-.52-.715-.48-.313.039-.553.31-.603.645L9.86.653S8.763.056 9.047.755c.192.471.563.96.785 1.245 0 0 1.302-.024 1.674-.21.162-.342.39-.934.48-1.403.136-.721-.735.033-.807.098"/>
        <path fill="#00B159" d="M12.975 2.242A7.448 7.448 0 0 0 12.711 1l-1.675.955a.799.799 0 0 0-1.17.105l-1.794-.578s-.113.759-.055 1.335c.06.588.31 1.183.31 1.183l1.566-.904a.799.799 0 0 0 1.319-.154l1.755.577s.068-.69.008-1.277"/>
        <path fill="#E6007E" d="M11.023 10.945c3.457-.182 6.723-.356 8.21-.431l.026-.002h.028l.075.007.62-2.196c.077-.267-.105-.537-.405-.604l-7.59-1.704c-.3-.067-.603.094-.679.361L10 11l1.023-.055"/>
        <path fill="#F39200" d="M16.05 9.879L17 6.472 15.114 6 14 10l2.05-.121"/>
        <path fill="#F39200" d="M19.378 6.01c-.162.227-.9.244-1.798.175.536-.42 1.248-.818 1.6-.531.195.111.25.283.198.356m-5.603-.972c-.105-.074-.089-.236-.025-.318a.399.399 0 0 1 .198-.116c.445-.123.924.516 1.234 1.108-.68-.23-1.157-.495-1.407-.674m6.074.484a1.216 1.216 0 0 0-.27-.314c-.908-.738-2.3.411-2.773.851a.65.65 0 0 0-.4-.283.678.678 0 0 0-.487.065c-.269-.625-1.034-2.109-2.144-1.799-.13.037-.258.098-.381.182-.382.261-.419.542-.383.731.145.778 1.96 1.33 2.588 1.498a.633.633 0 0 0 .487.528c.29.07.583-.058.724-.293l.024.004c.596.086 2.574.317 3.052-.353.115-.16.2-.43-.037-.817M.582 11a1.21 1.21 0 0 1 .156-.021c1.706-.092 5.923-.333 10.002-.566l.26-.015-.924-4.01a.516.516 0 0 0-.614-.376L.404 7.932a.495.495 0 0 0-.392.588L.582 11z"/>
        <path fill="#FFF" d="M7.979 5.017l.042-.034c-.013.011-.029.022-.042.034"/>
        <path fill="#E30613" d="M8 10.815L7.123 7 4 7.663 4.767 11 8 10.815"/>
        <path fill="#E30613" d="M6.823 6.49c.218-.823.603-1.744 1.09-1.675.07.01.145.038.223.083.103.059.171.128.171.168-.003.283-.646.885-1.484 1.425m-4.053.176a.322.322 0 0 1-.008-.35.783.783 0 0 1 .17-.194c.42-.321 1.127.316 1.643.955-.973-.052-1.657-.184-1.805-.41M8.455 4.17a1.24 1.24 0 0 0-.44-.16C6.816 3.84 6.27 5.792 6.08 6.717a.503.503 0 0 0-.391-.06.577.577 0 0 0-.343.263C4.837 6.2 3.59 4.687 2.569 5.472a1.479 1.479 0 0 0-.336.371c-.308.474-.255.844-.155 1.07.418.96 2.574.97 3.226.95l.157-.004c.132.118.304.17.478.125a.599.599 0 0 0 .379-.328l.15-.082c.59-.32 2.52-1.448 2.532-2.525.003-.255-.09-.615-.545-.88"/>
        <path fill="#008BD2" d="M19.997 31.24c-.958-4.467-1.582-12.667-.222-19.57a.7.7 0 0 0-.655-.67c-3.179.188-14.853.915-17.971 1.096a.7.7 0 0 0-.643.706c0 .015.003.03.004.044.7 4.202.936 11.606-.51 18.488.01.334.249.61.56.666h18.862a.703.703 0 0 0 .575-.76"/>
        <path fill="#FFF" d="M14.5 15a.5.5 0 1 1 0-1 .5.5 0 0 1 0 1M5.5 15a.5.5 0 1 1 0-1 .5.5 0 0 1 0 1M15 17.727C15 20.64 12.76 23 9.999 23S5 20.64 5 17.727c0-.401.308-.727.69-.727.38 0 .688.326.688.727h.001c0 2.108 1.62 3.817 3.62 3.817s3.62-1.709 3.62-3.817h.002c0-.401.308-.727.689-.727.38 0 .69.326.69.727"/>
        <path fill="#008BD2" d="M68.942 13.202c-1.298.734-2.228 2.128-2.574 3.367 1.58-.7 8.069-.003 8.154 5.987 0 5.255-3.824 6.373-4.926 6.373-4.188 0-5.067-4.698-5.067-6.271 0 0-.002-16.053 0-16.658-1.867 0-3.475.88-4.528 2.244-.002 1.112 0 14.263 0 14.263 0 1.985.815 5.01 3.237 7.14C64.689 30.925 66.608 32 69.59 32 72.551 32 79 30.081 79 22.598c-.026-2.695-.93-4.482-2.085-5.885-2.509-3.046-6.569-3.667-7.973-3.511M93 8a2 2 0 1 1-4 0 2 2 0 0 1 4 0M89 15.145c.002.77-.001 14.67 0 15.842V31c1.535 0 3.082-.812 4-2.076V13c-1.624 0-3.082.841-4 2.145M57 8.001a2 2 0 1 1-4-.002 2 2 0 0 1 4 .002M53 15.145c.002.77-.001 14.67 0 15.842V31c1.534 0 3.082-.812 4-2.076V13c-1.623 0-3.081.84-4 2.145M32.942 13.202c-1.298.734-2.23 2.128-2.574 3.367 1.58-.7 8.068-.003 8.153 5.987 0 5.255-3.823 6.373-4.926 6.373-4.187 0-5.066-4.698-5.066-6.271V6c-1.868 0-3.475.88-4.528 2.244-.002 1.112 0 14.263 0 14.263 0 1.985.815 5.01 3.236 7.14C28.69 30.925 30.607 32 33.592 32 36.549 32 43 30.081 43 22.598c-.027-2.695-.93-4.482-2.086-5.885-2.508-3.046-6.567-3.667-7.972-3.511M46 2.276V31c1.573 0 3.286-.861 4-2.202V0c-1.571 0-3.143.893-4 2.276M81 2.276V31c1.571 0 3.286-.861 4-2.202V0c-1.571 0-3.143.893-4 2.276"/>
    </g>
</svg>
