<svg xmlns="http://www.w3.org/2000/svg" width="288" height="215" viewBox="0 0 288 215">
    <defs>
        <linearGradient id="a" x1="-28.882%" x2="65.396%" y1="-51.006%" y2="109.415%">
            <stop offset=".261%" stop-color="#C8F1FF"/>
            <stop offset="99.58%" stop-color="#4CD3FF"/>
        </linearGradient>
        <linearGradient id="b" x1="91.916%" x2="-.33%" y1="-18.093%" y2="134.996%">
            <stop offset=".261%" stop-color="#C8F1FF"/>
            <stop offset="99.58%" stop-color="#4CD3FF"/>
        </linearGradient>
        <linearGradient id="c" x1="15.771%" x2="71.105%" y1="-8.542%" y2="90.777%">
            <stop offset=".261%" stop-color="#C8F1FF"/>
            <stop offset="99.58%" stop-color="#4CD3FF"/>
        </linearGradient>
        <linearGradient id="d" x1="57.746%" x2="7.429%" y1="68.287%" y2="-35.103%">
            <stop offset=".327%" stop-color="#FF9D15"/>
            <stop offset="99.97%" stop-color="#F60"/>
        </linearGradient>
        <linearGradient id="e" x1="69.257%" x2="35.241%" y1="27.061%" y2="76.002%">
            <stop offset=".327%" stop-color="#FF9D15"/>
            <stop offset="99.97%" stop-color="#F60"/>
        </linearGradient>
        <linearGradient id="f" x1="80.86%" x2="37.007%" y1="21.086%" y2="55.057%">
            <stop offset=".774%" stop-color="#00BAA7"/>
            <stop offset="100%" stop-color="#009484"/>
        </linearGradient>
        <linearGradient id="g" x1="86.188%" x2="49.682%" y1="-2.648%" y2="40.891%">
            <stop offset=".774%" stop-color="#00BAA7"/>
            <stop offset="100%" stop-color="#008B84"/>
        </linearGradient>
        <linearGradient id="h" x1="255.743%" x2="-56.532%" y1="-76.742%" y2="115.863%">
            <stop offset=".774%" stop-color="#00BAA7"/>
            <stop offset="100%" stop-color="#009484"/>
        </linearGradient>
        <linearGradient id="i" x1="118.36%" x2="-678.626%" y1="-39.79%" y2="1000.58%">
            <stop offset=".774%" stop-color="#00BAA7"/>
            <stop offset="100%" stop-color="#009484"/>
        </linearGradient>
        <linearGradient id="j" x1="8.791%" x2="69.06%" y1="-21.517%" y2="97.5%">
            <stop offset=".248%" stop-color="#00B3FF"/>
            <stop offset="99.83%" stop-color="#0073AA"/>
        </linearGradient>
        <linearGradient id="k" x1="56.562%" x2="50.527%" y1="14.291%" y2="55.632%">
            <stop offset=".248%" stop-color="#00B3FF"/>
            <stop offset="99.83%" stop-color="#0073AA"/>
        </linearGradient>
        <linearGradient id="l" x1="58.371%" x2="30.78%" y1="16.037%" y2="93.39%">
            <stop offset=".327%" stop-color="#FF9D15"/>
            <stop offset="99.97%" stop-color="#F60"/>
        </linearGradient>
        <linearGradient id="m" x1="2.45%" x2="47.384%" y1="-21.316%" y2="48.129%">
            <stop offset=".248%" stop-color="#00B3FF"/>
            <stop offset="99.83%" stop-color="#0073AA"/>
        </linearGradient>
        <linearGradient id="n" x1="46.599%" x2="53.031%" y1="-5.415%" y2="99.506%">
            <stop offset=".187%" stop-color="#8048A4"/>
            <stop offset="100%" stop-color="#653983"/>
        </linearGradient>
        <linearGradient id="o" x1="22.001%" x2="90.588%" y1="33.171%" y2="74.489%">
            <stop offset=".327%" stop-color="#FF9D15"/>
            <stop offset="99.97%" stop-color="#F60"/>
        </linearGradient>
        <linearGradient id="p" x1="35.95%" x2="63.669%" y1="33.859%" y2="61.113%">
            <stop offset=".327%" stop-color="#FF9D15"/>
            <stop offset="99.97%" stop-color="#F60"/>
        </linearGradient>
        <linearGradient id="q" x1="-9.158%" x2="103.717%" y1="-68.705%" y2="152.333%">
            <stop offset=".248%" stop-color="#00B3FF"/>
            <stop offset="99.83%" stop-color="#0073AA"/>
        </linearGradient>
        <linearGradient id="r" x1="67.035%" x2="37.842%" y1="-10.24%" y2="87.082%">
            <stop offset=".248%" stop-color="#00B3FF"/>
            <stop offset="99.83%" stop-color="#0073AA"/>
        </linearGradient>
        <linearGradient id="s" x1="9.416%" x2="96.202%" y1="29.391%" y2="73.956%">
            <stop offset=".327%" stop-color="#FF9D15"/>
            <stop offset="99.97%" stop-color="#F60"/>
        </linearGradient>
        <linearGradient id="t" x1="44.047%" x2="54.653%" y1="55.965%" y2="46.439%">
            <stop offset=".327%" stop-color="#FF9D15"/>
            <stop offset="99.97%" stop-color="#F60"/>
        </linearGradient>
        <linearGradient id="u" x1="11.885%" x2="125.052%" y1="45.941%" y2="63.166%">
            <stop offset=".187%" stop-color="#8048A4"/>
            <stop offset="100%" stop-color="#653983"/>
        </linearGradient>
        <linearGradient id="v" x1="18.433%" x2="58.527%" y1="38.451%" y2="53.249%">
            <stop offset=".187%" stop-color="#8048A4"/>
            <stop offset="100%" stop-color="#653983"/>
        </linearGradient>
        <linearGradient id="w" x1="-13.931%" x2="61.258%" y1="-74.572%" y2="72.606%">
            <stop offset=".187%" stop-color="#8048A4"/>
            <stop offset="100%" stop-color="#653983"/>
        </linearGradient>
        <linearGradient id="x" x1="30.176%" x2="96.353%" y1="47.825%" y2="67.765%">
            <stop offset=".187%" stop-color="#8048A4"/>
            <stop offset="100%" stop-color="#653983"/>
        </linearGradient>
        <linearGradient id="y" x1="-5.257%" x2="61.693%" y1="54.011%" y2="50.114%">
            <stop offset=".187%" stop-color="#8048A4"/>
            <stop offset="100%" stop-color="#46205F"/>
        </linearGradient>
        <linearGradient id="z" x1="-.011%" x2="99.971%" y1="49.911%" y2="49.911%">
            <stop offset=".187%" stop-color="#8048A4"/>
            <stop offset="100%" stop-color="#46205F"/>
        </linearGradient>
        <linearGradient id="A" x1="-.018%" x2="100.048%" y1="49.911%" y2="49.911%">
            <stop offset=".187%" stop-color="#8048A4"/>
            <stop offset="100%" stop-color="#653983"/>
        </linearGradient>
        <linearGradient id="B" x1="-124.641%" x2="153.947%" y1="-36.431%" y2="97.478%">
            <stop offset=".327%" stop-color="#FF9D15"/>
            <stop offset="99.97%" stop-color="#F60"/>
        </linearGradient>
        <linearGradient id="C" x1="-115.647%" x2="92.578%" y1="-174.663%" y2="104.999%">
            <stop offset=".327%" stop-color="#FF9D15"/>
            <stop offset="99.97%" stop-color="#F60"/>
        </linearGradient>
        <linearGradient id="D" x1="-65.442%" x2="84.02%" y1="-96.227%" y2="88.828%">
            <stop offset=".327%" stop-color="#FF9D15"/>
            <stop offset="99.97%" stop-color="#F60"/>
        </linearGradient>
    </defs>
    <g fill="none" fill-rule="nonzero" transform="translate(-.333 .006)">
        <path fill="#DAF3FF" d="M226.431 49.764c-31.039-8.04-41.114-7.429-70.626-32.362-17.606-14.858-40.91-22.694-71.542-12.924-31.039 9.871-34.804 46.507-36.433 60.347-3.46 27.783-57.701 24.12-45.49 86.91 12.213 62.79 228.67 93.116 271.21 20.556 42.13-71.847-20.66-115.709-47.119-122.527zm41.317 56.073c-4.07 3.766-12.11 1.629-18.012-4.68-5.903-6.31-7.328-14.553-3.257-18.319 4.07-3.765 12.11-1.628 18.013 4.681 5.8 6.31 7.327 14.553 3.256 18.318z"/>
        <path fill="url(#a)" d="M26.358 27.273c.203-2.035-.611-4.07-1.934-5.597-1.526-1.831-3.562-3.154-5.699-4.172-1.933-1.018-4.274-2.137-4.885-4.274-.509-1.73.204-3.562-.101-5.292-.204-1.628-1.323-3.155-2.646-4.173C9.77 2.748 8.14 2.035 6.615 1.527 5.597 1.22 4.58.916 3.46.712 1.73.51.712 2.442 1.832 3.765c1.12 1.323 2.035 2.748 2.137 4.376.305 3.46-2.646 6.412-3.257 9.872-.407 2.951 1.018 5.902 3.257 7.836.305.305.61.509.916.712 7.327.509 14.45.712 21.473.712z" transform="translate(133.314 187.25)"/>
        <path fill="#A1EBFF" d="M148.07 209.233c-.813-.611-1.526-1.12-2.238-1.527-2.951-1.832-4.376-2.748-2.646-8.243.814-2.544.712-4.58-.204-6.004-1.017-1.629-2.85-1.832-2.95-1.832-.204 0-.306.102-.306.203 0 .204.102.306.203.306 0 0 1.629.203 2.544 1.526.815 1.221.916 3.155.102 5.496-1.832 5.8 0 6.92 2.952 8.853.712.407 1.424.916 2.238 1.527 1.629 1.221 2.443 2.951 2.85 4.681h.61c-.407-1.628-1.323-3.664-3.154-4.986z"/>
        <path fill="url(#b)" d="M49.255 40.605c.916-2.137 1.12-4.478 1.018-6.818-.814-12.314-16.283-9.77-20.862-18.929-1.12-2.239-1.222-4.885-1.934-7.429-.61-2.239-1.934-4.478-3.969-5.699s-4.783-1.425-6.716 0c-2.952 2.137-2.646 6.615-1.222 9.973 1.425 3.358 3.867 6.31 4.376 9.872.306 2.544-.305 5.088-.61 7.632-.713 5.19.407 9.363 2.85 12.314 9.158.102 18.215-.204 27.07-.916z" transform="translate(133.314 173.004)"/>
        <path fill="#A1EBFF" d="M163.54 197.122c-7.532-7.327-8.55-15.672-8.55-15.774 0-.203-.101-.305-.304-.203-.204 0-.306.203-.204.305 0 .102 1.018 8.65 8.752 16.08 5.292 5.19 7.124 12.72 7.836 16.79h.61c-.814-4.172-2.645-11.906-8.14-17.198z"/>
        <path fill="#A1EBFF" d="M152.04 185.42c-1.12 0-2.24-.103-3.257-.51-.102-.102-.203-.203-.203-.407.101-.102.203-.203.407-.203 2.238.916 6.41.101 6.41.101.204 0 .306.102.306.204 0 .203-.102.305-.203.305 0 .204-1.629.51-3.46.51zM152.548 187.25a9.635 9.635 0 0 1-2.85-.406c-.1 0-.203-.204-.203-.407 0-.102.204-.204.407-.204 2.85.916 6.005-.102 6.005-.102.101 0 .305 0 .407.204.102.102 0 .305-.204.407 0 0-1.526.509-3.562.509zM160.588 194.578c-.102 0-.204-.102-.305-.203-.102-.102 0-.306.101-.408 0 0 2.443-1.119 3.664-3.765.102-.102.204-.203.407-.102.102.102.204.204.102.407-1.425 2.85-3.867 3.97-3.969 3.97.102.101 0 .101 0 .101zM162.623 196.817a.219.219 0 0 1-.203-.204c-.102-.101 0-.305.102-.407 0 0 2.645-1.424 3.765-4.274.102-.102.203-.203.407-.203.102.101.204.203.204.407-1.222 3.053-3.868 4.477-3.97 4.58-.203.101-.305.101-.305.101zM158.96 203.228c-2.137 0-4.376-.203-6.412-.814-.101 0-.203-.203-.203-.305 0-.102.203-.204.305-.204 5.903 1.73 14.248 0 14.35-.101.203 0 .305.101.305.203 0 .204-.102.305-.204.305-.203.102-3.867.916-8.141.916zM170.052 208.724c-.101 0-.203-.102-.305-.204-.102-.102 0-.305.102-.407.102 0 5.902-2.85 7.734-10.38 0-.204.204-.204.305-.204.204 0 .204.204.204.306-1.832 7.836-7.938 10.787-8.04 10.787v.102z"/>
        <path fill="url(#c)" d="M23.101 26.052c2.239-1.933 3.664-4.885 3.257-7.836-.51-3.46-3.46-6.411-3.257-9.871.102-1.73 1.018-3.155 2.137-4.376 1.12-1.323 0-3.257-1.628-3.053-1.018.102-2.137.407-3.155.814-1.628.509-3.155 1.221-4.478 2.239-1.323 1.018-2.34 2.544-2.646 4.172-.203 1.73.408 3.562-.101 5.292-.61 2.137-2.952 3.257-4.885 4.274-2.137 1.12-4.173 2.341-5.7 4.173-1.526 1.832-2.34 4.274-1.73 6.615 0 .101.103.305.103.407 7.123-.407 14.043-1.018 20.862-2.036a3.66 3.66 0 0 0 1.221-.814z" transform="translate(174.021 185.216)"/>
        <path fill="#A1EBFF" d="M186.844 207.91c.814-.611 1.526-1.018 2.239-1.527 2.95-1.934 4.783-3.053 2.95-8.854-.711-2.34-.711-4.274.103-5.495.916-1.425 2.544-1.527 2.544-1.527.203 0 .305-.203.203-.305 0-.203-.203-.305-.305-.203-.102 0-1.832.203-2.951 1.831-.916 1.425-1.018 3.46-.204 6.005 1.73 5.393.204 6.31-2.646 8.243-.712.407-1.424.916-2.238 1.526-2.138 1.527-2.952 3.97-3.359 6.106.204 0 .407 0 .61-.102.408-2.137 1.222-4.375 3.054-5.698z"/>
        <path fill="url(#d)" d="M78.36 24.22c-11.397 11.093-10.685 29.411-5.495 36.23 5.699 7.428 24.424 7.123 35.822-3.97 11.398-11.092 13.942-27.375 5.495-36.228-8.446-8.854-24.424-7.124-35.822 3.968z" transform="translate(22.389 46.813)"/>
        <path fill="url(#e)" d="M114.59 38.57c.712-.306.814-1.323.712-2.137-.306-3.155-1.323-6.106-2.951-8.854-.408-.713-.815-1.323-1.425-1.934-1.832-2.035-4.376-3.256-7.022-3.765-2.646-.61-5.394-.61-8.04-.61-4.07 0-8.141 0-12.11-.204-.509 0-1.12-.102-1.628-.102-1.323.916-2.544 2.035-3.766 3.155-2.442 2.442-4.376 5.088-5.8 8.04.916.915 2.035 1.628 3.256 2.136 1.323.611 2.748.916 4.173 1.018 1.22 0 2.442-.102 3.663 0 2.646.305 4.885 2.34 7.43 3.053 1.424.407 2.849.407 4.273.407 1.222 0 2.443-.102 3.664-.305 1.12-.305 2.239-.814 3.46-1.12 3.46-1.017 7.226-.203 10.584 1.12.407.203 1.018.305 1.526.102z" transform="translate(22.389 46.813)"/>
        <path fill="url(#f)" d="M131.177 32.057c-5.291-5.598-9.362-2.545-12.517-11.907-3.155-9.464-7.836-23.305-33.074-18.725-24.73 4.477-16.69 23.61-66.149 25.848C-7.225 28.495-2.34 70.626 15.061 86.4c13.434 12.314 52.207 14.756 70.627-20.76-5.598-.102-10.38-1.934-12.823-5.089-4.885-6.31-5.8-22.592 3.257-33.786.101-.102.203.101.407.407 2.544 2.137 15.875 12.212 29.716 8.243-.408 5.088-.611 13.026 6.818 13.942 7.53.814 23.406-11.703 18.114-17.3z" transform="translate(22.389 46.813)"/>
        <path fill="url(#g)" d="M85.484 65.843c-.61-.102-1.12-.203-1.73-.305-4.07-.407-8.141.102-12.212.102a48.255 48.255 0 0 1-15.163-2.443c-3.664-1.221-7.124-2.85-10.89-3.562-6.41-1.12-12.924.713-19.335 1.73-6.411 1.018-13.637.916-18.623-3.358C4.376 55.26 2.646 51.19 1.628 47.22c-.203-.61-.305-1.323-.509-1.934C-1.018 59.025 4.885 77.14 14.96 86.4c13.536 12.212 52.105 14.654 70.525-20.557z" transform="translate(22.389 46.813)"/>
        <path fill="url(#h)" d="M55.463 10.686c.814 1.933-1.12 5.393-6.106 7.53-4.987 2.137-11.296 2.137-12.009.306-.712-1.832 1.425-5.292 6.412-7.43 4.885-2.238 10.889-2.238 11.703-.406z" transform="translate(22.389 46.813)"/>
        <path fill="url(#i)" d="M126.903 19.845c.713 1.526.305 3.256-.916 3.765-1.22.509-2.646-.305-3.358-1.934-.712-1.526-.305-3.256.916-3.765 1.221-.509 2.646.305 3.358 1.934z" transform="translate(22.389 46.813)"/>
        <path fill="url(#j)" d="M22.287 179.11c23.305 17.402 63.604 29.614 105.532 33.786-17.81-24.424-14.349-63.299-17.91-77.953-3.766-15.774-22.186-18.522-22.186-18.522-37.857-6.411-57.295 36.636-65.436 62.689z"/>
        <path fill="url(#k)" d="M22.287 179.11c23.305 17.402 63.604 29.614 105.532 33.786-1.628-2.137-2.951-4.478-4.274-6.818-1.934-1.425-3.969-2.646-6.208-3.562-11.703-4.376-25.95 1.12-36.636-5.394-7.632-4.681-11.398-14.552-19.743-17.809-5.8-2.34-12.822-.916-18.216-4.07-4.07-2.443-6.31-7.023-7.429-11.602-1.221-4.987-1.221-10.177-.203-15.163-5.801 10.482-9.974 21.574-12.823 30.632z"/>
        <path fill="#DAF3FF" d="M92.811 137.894c2.544 0 5.19-.712 7.43-2.137 3.052-1.934 5.19-4.987 6.105-8.65-6.615-8.956-18.623-10.788-18.623-10.788-4.07-.712-7.836-.814-11.5-.407-1.12 4.478-.305 9.465 2.341 13.739 3.358 5.292 8.854 8.243 14.247 8.243z"/>
        <path fill="url(#l)" d="M99.731 134.943c3.155-2.036 5.089-5.19 5.801-8.752-6.716-8.142-17.809-9.77-17.809-9.77-3.664-.61-7.124-.814-10.482-.509-1.12 4.173-.509 9.058 2.137 13.23 4.681 7.327 13.84 9.973 20.353 5.8z"/>
        <path fill="url(#m)" d="M111.943 152.955c-3.053-1.831-5.698-3.968-7.836-6.41-11.906-13.841-34.091-24.934-44.472-15.876-.814.712-1.424 1.526-2.035 2.442-3.562 5.699-14.756 28.393 25.747 40.503 12.008 3.562 22.49 5.292 31.548 5.597-1.629-9.159-2.34-18.318-2.952-26.256z"/>
        <path fill="url(#n)" d="M182.57 213.608v-76.732h-9.363v77.343c3.155-.102 6.208-.305 9.363-.61z"/>
        <path fill="url(#o)" d="M55.463 128.837c.61-.916 1.221-1.73 2.035-2.443 10.38-9.057 32.464 2.036 44.472 15.876 12.416 14.45 42.844 17.504 57.499 6.208l8.14 1.017s-18.419 40.097-86.4 19.845c-40.502-12.009-29.308-34.804-25.746-40.503z"/>
        <path fill="url(#p)" d="M135.757 158.553c4.376-.306 8.854.101 13.23-.814 4.376-.916 8.65-3.359 10.278-7.531.102-.306.204-.713.204-1.12 0-.203-.102-.305-.204-.508-14.756 11.092-44.88 7.937-57.295-6.412-7.429-8.548-18.725-16.079-28.698-18.42 3.46 1.425 6.513 3.97 8.447 7.226 1.424 2.442 2.239 5.088 3.867 7.429 1.73 2.34 4.172 4.07 6.615 5.699 2.137 1.425 4.477 2.951 7.022 3.562 1.73.407 3.46.407 5.088 1.119 2.239.814 3.867 2.646 5.597 4.172 4.58 3.868 10.482 6.106 16.385 6.208 3.256.102 6.31-.407 9.464-.61z"/>
        <path fill="url(#q)" d="M107.67 147.358c-2.138-1.526-4.071-3.154-5.7-5.088-11.906-13.84-34.092-24.933-44.472-15.876-.814.713-1.425 1.527-2.035 2.443-3.562 5.699-14.756 28.393 25.747 40.503 9.362 2.748 17.81 4.478 25.34 5.19-3.97-13.637-.509-23.508 1.12-27.172z"/>
        <path fill="url(#r)" d="M107.67 147.358c-2.138-1.526-4.071-3.154-5.7-4.986-7.429-8.549-18.725-16.08-28.698-18.42l2.85 1.425a16.085 16.085 0 0 1 5.597 5.8c1.424 2.443 2.239 5.089 3.867 7.43 1.73 2.34 4.172 4.07 6.615 5.698 2.137 1.425 4.477 2.952 7.022 3.562 1.73.407 3.46.407 5.088 1.12.814.305 1.526.814 2.239 1.323 0-.102.102-.204.102-.306.101-.203.101-.407.203-.61 0-.102.102-.204.102-.306.102-.203.102-.305.203-.508 0-.102.102-.204.102-.306.204-.509.305-.712.407-.916z"/>
        <path fill="url(#s)" d="M151.836 96.882s24.22-27.782 53.428-21.778c29.207 6.004 12.619 32.769 12.619 32.769l-66.047-10.991z"/>
        <path fill="url(#t)" d="M213.405 86.705c-1.018-.407-2.035-.61-3.053-.916-2.951-.916-5.597-3.053-8.548-3.867-3.46-.916-7.124-.305-10.38 1.018-3.257 1.323-6.412 3.053-9.669 4.376-7.53 3.053-15.773 3.664-24.016 3.969-.611.61-1.222 1.12-1.832 1.628.916 1.425 2.646 2.442 4.172 3.358 2.035 1.12 3.97 2.24 6.106 3.053l18.216 3.053c2.646.204 5.292.407 8.04.611 3.155.204 6.31.407 9.363.204 1.628-.102 3.358-.408 4.477-1.629.61-.712 1.12-1.628 2.036-1.73l8.752-4.478c1.119-3.256-.51-7.327-3.664-8.65z"/>
        <g transform="translate(80.396 85.484)">
            <path fill="url(#u)" d="M120.594.814h-59.33v53.53h79.378V20.861c0-10.99-9.058-20.048-20.048-20.048z"/>
            <path fill="url(#v)" d="M140.642 34.295a23.218 23.218 0 0 0-6.513-.61c-5.292.305-10.279 2.239-14.858 4.783-4.275 2.34-8.345 5.19-13.026 6.513-5.19 1.526-10.686 1.018-16.08.407-5.393-.712-10.787-1.527-16.079-.916-4.986.61-10.075 2.951-12.924 7.022v2.85h79.378V34.294h.102z"/>
            <path fill="url(#w)" d="M107.771 25.34c.204-.712 0-1.425-.509-1.832-.407-.305-1.017-.407-1.628-.102.102-1.017-.102-2.239-1.527-2.137-1.424.102-1.323 1.73-.61 2.748-.916-.407-2.036-.61-2.443.712-.508 1.527 1.323 2.036 2.646 1.425 0 .509.204 1.018.611 1.323.407.305.814.305 1.323.204-.305 1.323.407 3.053 1.832 2.34 1.323-.61.916-1.73.305-2.544 1.12.61 2.748.509 2.646-.916-.102-1.73-1.628-1.526-2.646-1.221z"/>
            <path fill="url(#x)" d="M81.21 54.343H41.114v-33.48C41.114 9.77 50.069.813 61.162.813 72.254.814 81.21 9.77 81.21 20.862v33.481z"/>
            <path fill="url(#y)" d="M78.157 54.343H44.269V21.88c0-9.363 7.632-16.995 16.995-16.995 9.362 0 16.995 7.632 16.995 16.995v32.463h-.102z"/>
            <path fill="url(#z)" d="M141.15 55.87H3.054a2.259 2.259 0 0 1-2.239-2.239 2.259 2.259 0 0 1 2.239-2.239h138.098a2.259 2.259 0 0 1 2.238 2.24 2.259 2.259 0 0 1-2.238 2.238z"/>
            <path fill="url(#A)" d="M85.586 53.631a2.259 2.259 0 0 0-2.239-2.239H3.053a2.259 2.259 0 0 0-2.239 2.24 2.259 2.259 0 0 0 2.239 2.238h80.396c1.221 0 2.137-1.018 2.137-2.239z"/>
            <g fill="#FFF">
                <path d="M65.436 41.216h-.509c-.305 0-.509-.306-.407-.51 0-.305.305-.508.509-.406h.509c.305 0 .509.305.509.508-.102.204-.306.408-.611.408zM61.976 40.707c-.102 0-.102 0 0 0-.407-.102-.712-.102-1.12-.204-.305-.102-.407-.305-.407-.61.102-.306.306-.407.611-.407.305.101.712.101 1.018.203.305 0 .509.305.407.61-.102.306-.305.408-.509.408zm-3.969-.916h-.102c-.305-.102-.61-.204-1.017-.305-.306-.102-.407-.408-.306-.611.102-.305.407-.407.61-.305l.917.305c.305.102.407.407.305.61 0 .102-.203.306-.407.306zm-3.867-1.527c-.102 0-.204 0-.204-.101-.305-.204-.61-.306-.916-.51-.203-.101-.305-.508-.203-.712.102-.203.509-.305.712-.203.306.203.61.305.814.509.204.101.306.407.204.712 0 .204-.204.305-.407.305zm-3.257-2.442c-.101 0-.305-.102-.407-.204-.203-.305-.509-.508-.712-.814-.204-.203-.102-.509.102-.712.203-.204.509-.102.712.102.204.305.407.508.61.712a.492.492 0 0 1 0 .712c0 .204-.203.204-.305.204zm-1.73-3.562c-.203 0-.508-.203-.508-.407 0-.305-.102-.712-.102-1.018 0-.305.203-.508.509-.508.305 0 .508.203.508.508 0 .407 0 .713.102.916 0 .204-.203.407-.509.51zm16.283-2.748c-.407 0-.814-.101-1.12-.203-.305-.102-.406-.407-.305-.61.102-.306.407-.408.61-.306.306.102.612.203.917.203.305 0 .509.306.407.51 0 .203-.204.406-.509.406zM49.662 28.19h-.203c-.306-.101-.407-.407-.306-.61.102-.306.306-.713.407-1.018.102-.305.407-.407.713-.203.305.101.407.407.203.712-.101.305-.305.61-.407.916 0 .102-.203.203-.407.203zm18.216-.101h-.203c-.305-.102-.407-.407-.305-.611 0-.102.101-.204.101-.305 0-.204.102-.407.102-.61 0-.306.305-.51.509-.51.305 0 .509.204.509.51 0 .203 0 .508-.102.711 0 .102-.102.306-.102.408-.101.203-.305.407-.509.407zm-6.004-.306c-.102 0-.203 0-.305-.101-.305-.204-.509-.408-.814-.713a.492.492 0 0 1 0-.712.492.492 0 0 1 .712 0c.204.203.509.407.713.61.203.204.305.51.101.713-.203.102-.305.203-.407.203zm33.38-2.95h-.306c-.305 0-.508-.204-.508-.51 0-.305.305-.509.508-.509h1.018c.305 0 .509.204.509.51 0 .305-.204.508-.509.508h-.712zm-36.127-.103c-.204 0-.306-.101-.408-.203-.203-.306-.305-.61-.508-.916-.102-.305 0-.509.305-.712.305-.102.509 0 .712.305.102.305.306.61.407.814a.536.536 0 0 1-.203.712h-.305zm-7.43 0c-.101 0-.203 0-.305-.101-.203-.204-.203-.51-.102-.713.204-.305.51-.509.713-.814a.492.492 0 0 1 .712 0 .492.492 0 0 1 0 .712l-.712.713c0 .102-.204.203-.305.203zm40.3-.407h-.102c-.305-.102-.712-.203-1.017-.305-.306-.102-.407-.407-.306-.61.102-.306.408-.408.611-.306l.916.305c.305.102.407.306.407.611a.56.56 0 0 1-.509.305zm-24.933-.102c-.203 0-.305-.101-.407-.203-.203-.204-.407-.509-.61-.712a.492.492 0 0 1 0-.713.492.492 0 0 1 .712 0c.305.306.509.51.712.814.204.204.102.51-.101.713 0 0-.102.101-.306.101zM88.13 23h-.203c-.306-.102-.611-.306-.916-.408-.306-.102-.407-.407-.204-.712.102-.305.407-.407.712-.204.306.102.611.306.916.407.306.102.407.407.306.713-.204.102-.407.203-.611.203zm-33.278-.815c-.203 0-.407-.102-.407-.305-.102-.204 0-.509.204-.713.305-.203.61-.305 1.017-.407.306-.101.51 0 .611.306.102.305 0 .509-.305.61-.306.102-.61.204-.916.407 0 .102-.102.102-.204.102zm8.956-.305h-.204l-.916-.305c-.305-.102-.407-.408-.305-.611.102-.305.305-.407.61-.305.306.101.713.203 1.018.305.306.102.407.407.306.61a.56.56 0 0 1-.51.306zm20.557-.61c-.102 0-.204 0-.204-.103l-.916-.508c-.203-.102-.305-.407-.203-.713.101-.203.407-.305.712-.203l.916.509c.203.101.305.407.203.712a.56.56 0 0 1-.508.305zm-25.544-.103a.56.56 0 0 1-.509-.305h-.203c-.305 0-.509-.305-.407-.61.102-.407.203-.713.305-1.12.102-.305.407-.407.712-.305.306.102.408.407.306.712-.102.204-.102.407-.204.61h1.018c.305 0 .509.204.509.51 0 .305-.204.508-.51.508h-.1a1.412 1.412 0 0 0-.917 0zm21.982-1.73c-.102 0-.204 0-.204-.101-.305-.102-.61-.306-.916-.407-.203-.102-.407-.407-.203-.713.102-.203.407-.407.712-.203.306.101.61.305.916.407.204.102.305.407.204.712-.204.204-.407.305-.51.305zm-3.766-1.73h-.203c-.305-.101-.61-.305-.916-.407-.305-.101-.407-.407-.305-.61.101-.306.407-.407.61-.306.306.102.61.306.916.408.306.101.407.407.306.712 0 .102-.204.203-.408.203zm-16.588-.101c-.203 0-.305-.102-.407-.204-.203-.203-.101-.509.102-.712l.916-.61c.204-.103.509 0 .712.203.102.203 0 .509-.203.712-.305.204-.61.305-.814.509-.102 0-.204.102-.306.102zm12.721-1.323h-.101c-.306-.102-.611-.204-1.018-.306-.305-.101-.407-.305-.407-.61.102-.306.305-.407.61-.407.306.101.713.203 1.018.305.305.102.407.407.305.61.102.306-.101.408-.407.408zm-9.057-.306c-.203 0-.407-.101-.509-.407-.102-.305.102-.509.407-.61.306-.102.713-.204 1.018-.204.305-.102.509.102.61.407.102.306-.101.51-.406.61-.306.103-.611.103-.916.204h-.204zm5.088-.407c-.407 0-.712 0-1.017-.101-.306 0-.51-.204-.51-.51 0-.305.204-.508.51-.508.305 0 .712 0 1.017.102.306 0 .51.305.51.508 0 .306-.204.51-.51.51zM99.02 24.017a.56.56 0 0 1-.51-.305c-.102-.306 0-.51.306-.713.101-.101.305-.101.407-.203.203-.102.508 0 .712.203.102.204 0 .51-.204.713-.203.101-.305.203-.508.203 0 .102-.102.102-.204.102z"/>
            </g>
            <path fill="#FFF" d="M107.262 18.114s4.478-2.34 4.783 1.018c.204 2.85-4.885 1.832-4.783-1.018z" opacity=".5"/>
            <path fill="#FFF" d="M107.262 18.827s3.867 3.358.916 4.885c-2.646 1.22-3.562-3.97-.916-4.885zM105.43 16.792s1.629-4.784-1.628-4.58c-2.85.204-1.12 5.088 1.628 4.58z" opacity=".5"/>
            <path fill="#FFF" d="M104.82 16.893s-3.867-3.358-4.885-.203c-1.018 2.747 4.274 2.951 4.885.203z" opacity=".5"/>
            <ellipse cx="106.004" cy="17.83" fill="#404041" rx="3.155" ry="2.341" transform="rotate(-52.137 106.004 17.83)"/>
        </g>
        <path fill="url(#B)" d="M159.469 148.58s-7.633-5.496-6.106-8.04c1.526-2.544 7.53 2.035 7.53 2.035s6.513-4.885 16.283-2.239c4.172 1.12 5.902 3.053 4.07 4.987-2.442 2.646-10.074 5.292-13.636 4.274"/>
        <path fill="url(#C)" d="M216.56 94.643s2.951-1.221 5.292.916c2.34 2.137-.611 19.946-10.38 19.336-9.77-.61-4.377-12.416.61-13.637 0 0-6.615 2.137-5.088-1.934 1.628-4.172 9.566-4.68 9.566-4.68z"/>
        <path fill="#DAF3FF" d="M104.922 145.221c-2.952 6.31-7.022 13.739-2.24 28.8 1.324.204 2.647.306 3.868.509-3.97-13.738-.61-23.61 1.12-27.172-1.018-.61-1.833-1.323-2.748-2.137z"/>
        <path fill="url(#D)" d="M87.723 116.421c-.814-.102-1.527-.203-2.34-.305-.611 2.137-.408 4.783.813 7.124 2.24 4.477 7.124 6.614 10.89 4.68 2.238-1.119 3.561-3.46 3.765-6.105-6.208-4.376-13.128-5.394-13.128-5.394z"/>
        <g>
            <path fill="#89C340" d="M247.599 159.163l-.611-12.212c0-.305-.204-.509-.407-.61l-4.783-2.646-1.628.101-4.173 2.952-.102.101c-.203.204-.305.408-.305.713v.102l.61 12.008 11.399-.509z"/>
            <path fill="#90BC3F" d="M242.408 140.235c-.203-.611-.814-1.018-1.424-1.018-.713 0-1.221.509-1.323 1.12 0 0-2.24-1.222-1.73.101.305.916 1.12 1.832 1.526 2.443 0 0 2.748.203 3.562-.102.407-.61.916-1.628 1.221-2.544.204-1.323-1.628-.102-1.832 0"/>
            <path fill="#04AE59" d="M246.276 143.491c0-1.221-.407-2.544-.407-2.544l-3.664 1.73c-.305-.305-.712-.509-1.12-.509-.508 0-1.017.204-1.322.509l-3.664-1.425s-.305 1.527-.305 2.748c0 1.221.508 2.442.508 2.442l3.359-1.628c.305.407.712.61 1.221.713.61 0 1.221-.306 1.526-.815l3.562 1.425c.204-.102.407-1.425.306-2.646"/>
            <path fill="#E90089" d="M242.205 161.81c7.225.101 14.044.203 17.097.304H259.709l1.628-4.986a1.1 1.1 0 0 0-.712-1.425l-15.57-5.088a1.1 1.1 0 0 0-1.425.712l-3.359 10.482h1.934"/>
            <path fill="#F4901E" d="M252.076 161.911l2.85-7.938-4.478-1.425-3.256 9.363h4.884"/>
            <path fill="#F4901E" d="M259.81 151.836c-.101-.305-.305-.509-.508-.712-1.73-1.629-4.58.509-5.597 1.323-.102-.306-.407-.51-.713-.611-.305-.102-.712-.102-.916.102-.407-1.323-1.73-4.478-3.969-3.97-.305.103-.508.204-.814.306-.814.509-.916 1.018-.814 1.425.204 1.628 3.664 2.951 4.885 3.46 0 .509.407 1.018.916 1.12.509.203 1.12 0 1.425-.51 1.119.306 4.986 1.018 6.004-.305.407-.203.509-.814.102-1.628m-11.805-1.832c-.204-.203-.102-.509 0-.61.101-.102.305-.204.407-.204.916-.203 1.73 1.221 2.239 2.443a12.277 12.277 0 0 1-2.646-1.629m10.889 2.748c-.306.407-1.832.407-3.562.102 1.12-.814 2.544-1.527 3.256-.814.306.203.407.61.306.712M219.918 161.504h.305c3.766.102 12.925.203 21.88.305h.61l-1.424-9.159c-.102-.61-.712-1.017-1.323-.916l-20.048 2.85c-.61.102-1.018.61-.916 1.22l.916 5.7z"/>
            <path fill="#FFF" d="M235.285 150.31c.102 0 .102 0 0 0"/>
            <path fill="#EA1D25" d="M235.183 161.707l-1.425-9.159-7.225 1.018 1.221 7.938c2.239.102 4.783.203 7.429.203"/>
            <path fill="#EA1D25" d="M235.997 147.969c-.305-.204-.61-.305-.916-.305-2.544-.51-3.969 2.95-4.477 4.58a1.917 1.917 0 0 0-.815-.204c-.305 0-.61.203-.712.407-1.018-1.323-3.46-4.275-5.699-3.053-.305.101-.509.305-.712.61-.713.814-.61 1.425-.407 1.934.814 1.832 5.393 2.137 6.716 2.239h.306c.305.203.61.305 1.017.305.407-.102.61-.204.814-.509l.306-.102c1.323-.508 5.495-2.238 5.699-4.172 0-.61-.204-1.221-1.12-1.73m-12.415 3.562a.649.649 0 0 1 0-.61c.101-.103.305-.204.407-.306.916-.509 2.34.712 3.358 1.933-2.035-.305-3.46-.61-3.765-1.017m8.65.305c.509-1.425 1.526-3.053 2.544-2.85.102 0 .305.102.509.204a.76.76 0 0 1 .305.305c0 .51-1.526 1.527-3.358 2.341"/>
        </g>
        <g>
            <path fill="#43D1FF" d="M260.93 162.013c-25.34-3.359-39.384-1.323-43.658-.407-1.425.305-2.442 1.628-2.442 3.053.101 3.256 2.34 8.752 3.663 17.809 1.12 7.836-1.73 19.336-3.867 26.154 17.606-4.173 33.074-10.787 44.574-20.048.61-8.243 1.832-19.641 2.646-21.27.712-1.322.916-2.442.916-3.358 0-.916-.814-1.832-1.832-1.933z"/>
            <path fill="#B9ECFF" d="M230.807 178.295h-.102c-.916 0-1.628-.305-2.137-.915-.916-1.12-.814-2.646-.814-2.748 0-.407.407-.713.814-.713s.713.408.713.815c0 .305 0 1.119.407 1.628.203.305.61.407 1.017.407h.102c1.628 0 1.73-1.934 1.73-2.137 0-.407.407-.713.814-.713s.713.408.713.815c0 .203-.102 1.831-1.12 2.849-.61.407-1.323.712-2.137.712zM249.023 178.295h-.101c-.916 0-1.629-.305-2.138-.915-.915-1.12-.814-2.646-.814-2.748 0-.407.407-.713.814-.713.408 0 .713.408.713.815 0 .305 0 1.119.407 1.628.203.305.61.407 1.018.407 1.628.102 1.73-1.934 1.73-2.137 0-.407.407-.713.814-.713s.712.408.712.815c0 .203-.102 1.831-1.12 2.849a3.278 3.278 0 0 1-2.035.712z"/>
            <path fill="#0092DB" d="M261.846 167.406c.712-1.323.916-2.442.916-3.358 0-1.018-.814-1.934-1.832-2.035a198.897 198.897 0 0 0-24.22-1.832s.101 0 .101.102c1.12.61 2.443 1.12 3.664 1.424 2.646.713 5.699.815 7.53 2.748 1.324 1.425 1.73 3.562 1.324 5.496-.407 1.933-1.629 3.561-3.155 4.884-1.425 1.222-3.155 2.24-3.97 3.867-1.118 2.24-.304 4.987 1.019 7.022 1.323 2.137 3.053 3.97 4.07 6.208.51 1.323.814 2.646.814 4.07 3.97-2.238 7.735-4.68 11.093-7.428.509-8.141 1.73-19.54 2.646-21.168z" opacity=".12"/>
            <path fill="#0092DB" d="M238.236 189.286s3.46-.61 5.292.61c1.832 1.222-3.664 3.054-5.292-.61z" opacity=".08"/>
            <path fill="#B9ECFF" d="M249.736 190.61a.765.765 0 0 1-.713-.51c-.101-.203-2.239-4.884-9.057-5.292-6.818-.407-9.464 4.987-9.566 4.987-.204.407-.61.509-1.018.305-.407-.203-.509-.61-.305-1.017.102-.306 3.155-6.31 10.99-5.903 7.735.509 10.28 5.903 10.381 6.208.204.407 0 .814-.407 1.018-.102.203-.204.203-.305.203z"/>
        </g>
        <path fill="#FFF" d="M239.66 193.052l-.203.203c-2.544-.102-5.495.407-8.955.916-4.885.814-10.482 1.628-15.062.712-1.832-.407-2.035-1.119-2.035-1.323-.61-2.035 2.442-6.41 5.19-9.362-.102-1.018-.203-2.035-.407-2.951a1.1 1.1 0 0 0-.712.305c-7.633 7.53-6.92 11.907-6.615 12.72.305 1.12 1.323 2.647 4.07 3.156 1.629.305 3.359.508 5.089.508 3.663 0 7.53-.61 10.99-1.119 2.952-.509 5.903-.916 8.142-.916.203.305.509.509.509.509s2.442 1.73 3.358 1.221c.814-.509.407-1.12.407-1.12s2.748.408 3.053-1.628c.305-2.035-3.969-4.477-6.818-1.831z"/>
        <path fill="#0092DB" d="M245.36 192.746c-1.527-.203-2.952-.509-4.274-.61a4.269 4.269 0 0 0-1.425.916l-.204.203c-2.544-.102-5.495.407-8.955.916-.102 0-.306 0-.407.102.814 1.017 2.646.814 2.646.814s-.407.61.407 1.12c.814.508 3.358-1.222 3.358-1.222l.509-.509c2.239 0 5.088.407 8.141.916.305 0 .61.102.916.102.102-.204.305-.509.305-.814.102-.713-.305-1.323-1.017-1.934z" opacity=".08"/>
        <path fill="#FFF" d="M245.563 192.237c-3.358-.508-6.411-1.017-8.955-.915l-.204-.204c-2.85-2.646-6.92-.509-6.716 1.628.305 2.137 3.053 1.629 3.053 1.629s-.407.61.407 1.119 3.358-1.221 3.358-1.221l.509-.509c2.239 0 5.088.407 8.141.916 1.323.203 2.646.407 4.07.61 1.222-.712 2.443-1.424 3.563-2.238-2.443-.102-4.885-.51-7.226-.815z"/>
        <ellipse cx="194.594" cy="24.236" fill="#DAF3FF" rx="9.566" ry="23.1" transform="rotate(-67.808 194.594 24.236)"/>
    </g>
</svg>
