<?xml version="1.0" encoding="UTF-8"?>
<svg width="96px" height="96px" viewBox="0 0 96 96" version="1.1" xmlns="http://www.w3.org/2000/svg" xmlns:xlink="http://www.w3.org/1999/xlink">
    <!-- Generator: Sketch 58 (84663) - https://sketch.com -->
    <title>favicon-96x96</title>
    <desc>Created with Sketch.</desc>
    <defs>
        <linearGradient x1="50%" y1="20.828125%" x2="50%" y2="120.828125%" id="linearGradient-1">
            <stop stop-color="#0EB3FF" offset="0%"></stop>
            <stop stop-color="#0072A7" offset="94%"></stop>
        </linearGradient>
        <linearGradient x1="49.9202552%" y1="44.9072898%" x2="50.1768255%" y2="68.1088423%" id="linearGradient-2">
            <stop stop-color="#66CFFF" offset="0%"></stop>
            <stop stop-color="#0072A7" offset="94%"></stop>
        </linearGradient>
        <linearGradient x1="50.5083621%" y1="45.3180744%" x2="48.4573503%" y2="59.0514853%" id="linearGradient-3">
            <stop stop-color="#0EB3FF" offset="0%"></stop>
            <stop stop-color="#0072A7" offset="94%"></stop>
        </linearGradient>
        <linearGradient x1="50.5054053%" y1="45.3177133%" x2="48.4545135%" y2="59.0500791%" id="linearGradient-4">
            <stop stop-color="#F8A33F" offset="0%"></stop>
            <stop stop-color="#970C11" offset="100%"></stop>
        </linearGradient>
        <linearGradient x1="50.0702494%" y1="51.0165418%" x2="49.8868204%" y2="46.6389739%" id="linearGradient-5">
            <stop stop-color="#F8A33F" offset="0%"></stop>
            <stop stop-color="#970C11" offset="100%"></stop>
        </linearGradient>
    </defs>
    <g id="favicon-96x96" stroke="none" stroke-width="1" fill="none" fill-rule="evenodd">
        <rect fill="#FFFFFF" x="0" y="0" width="96" height="96"></rect>
        <g id="launcher" fill-rule="nonzero">
            <g id="Icon">
                <polygon id="Path" fill="url(#linearGradient-1)" points="96 96 0 96 0 0 96 0"></polygon>
                <circle id="Oval" fill="#FFFFFF" cx="69.200625" cy="34.85625" r="4.006875"></circle>
                <circle id="Oval" fill="#FFFFFF" cx="24.864375" cy="34.85625" r="4.006875"></circle>
                <path d="M47.506875,72.5325 C33.79875,72.5325 22.644375,62.068125 22.644375,49.205625 C22.6874778,47.3813797 24.1786831,45.924992 26.0034375,45.924992 C27.8281919,45.924992 29.3193972,47.3813797 29.3625,49.205625 C29.3625,58.363125 37.5,65.8125 47.506875,65.8125 C57.51375,65.8125 65.653125,58.36125 65.653125,49.20375 C65.653125,47.3491088 67.1566088,45.845625 69.01125,45.845625 C70.8658912,45.845625 72.3693771,47.3491088 72.3693771,49.20375 C72.375,62.0625 61.216875,72.5325 47.506875,72.5325 Z" id="Path" fill="#FFFFFF"></path>
            </g>
            <path d="M21,96 L21,83.9342957 C21,80.1391077 24.0553981,77.0625 27.8244227,77.0625 L68.1755773,77.0625 C71.9446019,77.0625 75,80.1391077 75,83.9342957 L75,96 L21,96 Z" id="Path" fill="url(#linearGradient-2)"></path>
            <path d="M0,17.3584283 C0.0733383785,22.6313156 4.35001773,26.8671793 9.60037469,26.8671793 C14.8507316,26.8671793 19.127411,22.6313156 19.2007494,17.3584283 C19.2007495,22.6833212 23.4985642,27 28.8001873,27 C34.1018105,27 38.3996252,22.6833212 38.3996253,17.3584283 C38.4729637,22.6313156 42.749643,26.8671793 48,26.8671793 C53.250357,26.8671793 57.5270363,22.6313156 57.6003747,17.3584283 C57.6003747,22.6833213 61.8981895,27 67.1998127,27 C72.5014359,27 76.7992506,22.6833213 76.7992506,17.3584283 C76.872589,22.6313156 81.1492684,26.8671793 86.3996253,26.8671793 C91.6499823,26.8671793 95.9266616,22.6313156 96,17.3584283 L96,2.0625 L0,2.0625 L0,17.3584283 Z" id="Path" fill="url(#linearGradient-3)"></path>
            <path d="M0,15.2941973 C0.0733340851,20.5664878 4.34976307,24.8018722 9.59981267,24.8018722 C14.8498623,24.8018722 19.1262913,20.5664878 19.1996253,15.2941973 C19.1996253,20.6200463 23.4984466,24.9375 28.8013113,24.9375 C34.1041761,24.9375 38.4029973,20.6200463 38.4029973,15.2941973 C38.4763314,20.5664878 42.7527604,24.8018722 48.00281,24.8018722 C53.2528596,24.8018722 57.5292886,20.5664878 57.6026226,15.2941973 C57.6026228,20.6184876 61.9001859,24.9346776 67.2014987,24.9346776 C72.5028114,24.9346776 76.8003745,20.6184876 76.8003747,15.2941973 C76.8737087,20.5664878 81.1501377,24.8018722 86.4001873,24.8018722 C91.6502369,24.8018722 95.9266659,20.5664878 96,15.2941973 L96,0 L0,0 L0,15.2941973 Z" id="Path" fill="url(#linearGradient-4)"></path>
            <path d="M0,10.875 L0,15.2071802 C0.0733340851,20.5270457 4.34976307,24.8006484 9.59981267,24.8006484 C14.8498623,24.8006484 19.1262913,20.5270457 19.1996253,15.2071802 C19.1996253,20.5810874 23.4984466,24.9375 28.8013113,24.9375 C34.1041761,24.9375 38.4029973,20.5810874 38.4029973,15.2071802 C38.4763314,20.5270457 42.7527604,24.8006484 48.00281,24.8006484 C53.2528596,24.8006484 57.5292886,20.5270457 57.6026226,15.2071802 C57.6026228,20.5795146 61.9001859,24.9346521 67.2014987,24.9346521 C72.5028114,24.9346521 76.8003745,20.5795146 76.8003747,15.2071802 C76.8737087,20.5270457 81.1501377,24.8006484 86.4001873,24.8006484 C91.6502369,24.8006484 95.9266659,20.5270457 96,15.2071802 L96,10.875 L0,10.875 Z" id="Path" fill="url(#linearGradient-5)"></path>
            <path d="M9.4595194,24.9375 C14.6841664,24.9375 18.9198655,20.6211257 18.9208849,15.2959283 C18.9208849,15.4840932 18.9208849,15.6722582 18.9375,15.871713 L18.9375,0 L0,0 L0,15.2959283 C0,20.6208213 4.23517109,24.9375 9.4595194,24.9375 Z" id="Path" fill="#FFCE00"></path>
            <path d="M57.5625,0 L38.625,0 L38.625,15.5158115 C38.625,15.3946524 38.6342297,15.2734934 38.6342297,15.1430144 C38.7064921,20.3664013 42.920425,24.5625 48.09375,24.5625 C53.267075,24.5625 57.4810079,20.3664013 57.5532703,15.1430144 C57.5532703,15.2641735 57.5532703,15.3853325 57.5625,15.5158115 L57.5625,0 Z" id="Path" fill="#FFCE00"></path>
            <path d="M77.0625,15.7167503 C77.0625,15.5304225 77.0791151,15.3440947 77.0791151,15.1465872 C77.1513845,20.3679929 81.3657282,24.5625 86.5395575,24.5625 C91.7133868,24.5625 95.9277306,20.3679929 96,15.1465872 L96,0 L77.0625,0 L77.0625,15.7167503 Z" id="Path" fill="#FFCE00"></path>
            <path d="M30.5625,84.1569957 L32.3155825,84.1569957 L32.360872,84.9872732 C32.4552252,84.8825363 32.5609008,84.7701823 32.6797859,84.650211 C32.8089598,84.523129 32.9550368,84.4148134 33.1138106,84.3283832 C33.3007184,84.2282256 33.4982204,84.1496528 33.7025746,84.0941536 C33.9532277,84.0281485 34.2115947,83.9967586 34.4706096,84.0008426 C35.4330123,84.0008426 36.162048,84.3556783 36.6577169,85.0653497 C36.975664,84.7161678 37.360956,84.4362229 37.7899553,84.2426895 C38.2220681,84.0728442 38.6831305,83.9906606 39.1467543,84.0008426 C40.0663836,84.0008426 40.7721455,84.2744279 41.2640402,84.8215985 C41.7559349,85.3687691 42.0012532,86.1070051 42,87.0363065 L42,91.4961914 L40.1695431,91.4961914 L40.1695431,87.051541 C40.1952591,86.6573714 40.0703253,86.2682417 39.8204362,85.9641822 C39.5751393,85.7057536 39.2311459,85.566899 38.8769042,85.583321 C38.6410454,85.5805486 38.4075855,85.6313117 38.193787,85.7318568 C37.9885523,85.8303497 37.8064906,85.9718766 37.6597479,86.1469956 C37.505754,86.3271706 37.3884124,86.5361741 37.3144152,86.7620864 C37.2347971,87.0079249 37.1952831,87.2651831 37.1974172,87.5238089 L37.1974172,91.4980957 L35.3707392,91.4980957 L35.3707392,87.051541 C35.3956826,86.6574688 35.270839,86.2686201 35.0216323,85.9641822 C34.7731261,85.7035199 34.4247298,85.5645557 34.0667779,85.583321 C33.8315285,85.580574 33.598688,85.6313427 33.3855478,85.7318568 C33.1797554,85.8303204 32.9970711,85.9718312 32.8496216,86.1469956 C32.6981316,86.3290151 32.5822302,86.5383807 32.508063,86.7639907 C32.4290852,87.009936 32.3902089,87.2671916 32.3929521,87.5257132 L32.3929521,91.5 L30.5625,91.5 L30.5625,84.1569957 Z" id="Path" fill="#FFFFFF"></path>
            <path d="M43.5,81 L45.5625,81 L45.5625,82.9521073 L43.5,82.9521073 L43.5,81 Z M43.5657609,84.1168582 L45.4967391,84.1168582 L45.4967391,91.5 L43.5657609,91.5 L43.5657609,84.1168582 Z" id="Shape" fill="#FFFFFF"></path>
            <path d="M47.760939,85.4358475 L46.5,85.4358475 L46.5,83.9363033 L47.760939,83.9363033 L47.760939,81.5625 L49.6178537,81.5625 L49.6178537,83.9363033 L51.6031619,83.9363033 L51.6031619,85.4358475 L49.6178537,85.4358475 L49.6178537,88.6458985 C49.5982218,88.9791545 49.6718353,89.3113088 49.8305653,89.6056829 C49.9796185,89.8342423 50.2429941,89.963388 50.5166081,89.9420825 C50.7562633,89.9523552 50.9952128,89.9095032 51.2160652,89.8166454 C51.3902367,89.7329588 51.5563646,89.6337199 51.7123922,89.5201575 L52.5,90.6604954 C52.1770734,90.9354973 51.8097511,91.1545924 51.4134462,91.3085874 C51.0292026,91.4411114 50.6244189,91.5054472 50.2176621,91.4986437 C49.8255601,91.5103837 49.4349378,91.4458154 49.0678697,91.3085874 C48.7689571,91.1912143 48.5051431,91.0002137 48.3013414,90.753623 C48.0998731,90.4985051 47.9572706,90.2026701 47.8835835,89.8869662 C47.7967214,89.5208099 47.7548965,89.145567 47.7590227,88.7694351 L47.760939,85.4358475 Z" id="Path" fill="#FFFFFF"></path>
            <path d="M53.4414078,84.1415051 L55.2565612,84.1415051 L55.3054081,85.066802 C55.4068962,84.9447452 55.5165535,84.829387 55.6336598,84.721485 C55.7774935,84.5885807 55.936855,84.472677 56.1084523,84.376168 C56.3088719,84.2648753 56.521152,84.1753112 56.7415091,84.109072 C57.0099076,84.0327682 57.2884897,83.9961136 57.5679998,84.0003258 C57.7319887,83.999806 57.8958294,84.0100039 58.0584234,84.030851 C58.2088692,84.0540124 58.3567243,84.0910632 58.5,84.1415051 L58.1092242,85.8814448 C57.9836552,85.8307182 57.8525388,85.7942307 57.7184485,85.7726986 C57.5619587,85.7497241 57.4038522,85.7388792 57.2456098,85.7402655 C56.9937428,85.739383 56.7437017,85.782012 56.5070436,85.8661822 C56.2806197,85.944188 56.073097,86.0669361 55.8974334,86.2267618 C55.7225612,86.3885985 55.5829951,86.5832796 55.4871189,86.7991103 C55.3825502,87.0303797 55.3299178,87.2808338 55.3327624,87.5336243 L55.3327624,91.5 L53.4375,91.5 L53.4414078,84.1415051 Z" id="Path" fill="#FFFFFF"></path>
            <path d="M63.8645177,90.6163778 C63.6130171,90.8831803 63.303002,91.0932302 62.9567593,91.2314271 C62.5288039,91.4142883 62.0645408,91.5058268 61.5960731,91.4997127 C61.2911437,91.5 60.988059,91.4543604 60.6978299,91.3646574 C60.4026246,91.2762389 60.126636,91.137097 59.8833212,90.9540161 C59.6328906,90.7611095 59.4301172,90.5174063 59.2895673,90.240413 C59.1323415,89.92187 59.0547973,89.5725351 59.0631034,89.2201977 C59.0563173,88.8507714 59.1363196,88.4846176 59.2971795,88.1488804 C59.4490167,87.83857 59.6737418,87.5662076 59.9537344,87.3531489 C60.2556114,87.1279691 60.6009995,86.9623519 60.9699671,86.8658547 C61.3981596,86.7524972 61.840796,86.6972081 62.2849799,86.7015982 C62.4296123,86.7015982 62.5913722,86.7015982 62.7702596,86.7015982 C62.949147,86.7015982 63.1185191,86.7143737 63.2859882,86.7234991 L63.8569055,86.7545253 L63.8569055,86.5884437 C63.8676307,86.2597912 63.7025461,85.9486588 63.4192022,85.7635112 C63.0805792,85.5517129 62.681248,85.4470352 62.2773677,85.4641993 C61.8505808,85.4488642 61.4248863,85.5152513 61.0251558,85.6594821 C60.7374508,85.7769428 60.4605352,85.917358 60.1973257,86.0792486 L59.3618835,84.8856515 C59.5084189,84.7870976 59.6739849,84.6830685 59.8623876,84.5790394 C60.0712585,84.4642497 60.2911141,84.3689106 60.5189425,84.2943281 C60.8015583,84.2011532 61.0918467,84.1309445 61.3867367,84.0844449 C61.7641976,84.0256227 62.1461719,83.9975381 62.5285713,84.0004915 C62.9611518,83.9938005 63.3919296,84.0554609 63.8036199,84.1829988 C64.1616061,84.2968648 64.4936142,84.4752694 64.7817915,84.7086195 C65.0506083,84.9304052 65.2639446,85.2073556 65.4059944,85.5189515 C65.5542546,85.8426501 65.6288629,86.1929386 65.624846,86.5464671 L65.624846,91.2697536 L63.9120942,91.2697536 L63.8645177,90.6163778 Z M63.8645177,88.0959533 L63.3164371,88.0649271 C63.1699017,88.0558017 63.0176571,88.0485014 62.8558972,88.0430262 C62.6941373,88.037551 62.5552141,88.0430262 62.4410306,88.0430262 C61.8472767,88.0430262 61.428604,88.1561807 61.1907218,88.3806645 C60.9626612,88.5778334 60.8320369,88.858203 60.8310439,89.15267 C60.8176769,89.4260752 60.9423315,89.6889415 61.1659821,89.8589729 C61.4584153,90.0472705 61.8080275,90.1365515 62.1593781,90.1126579 C62.5850196,90.1137485 62.998401,89.9760238 63.3316616,89.7220925 C63.4848025,89.6062427 63.6139083,89.4638553 63.7122731,89.3023259 C63.8096407,89.1489161 63.8610034,88.9727244 63.8607116,88.7931308 L63.8645177,88.0959533 Z" id="Shape" fill="#FFFFFF"></path>
            <path d="M18.9375,15.8363773 L18.9375,15.8363773 L18.9375,10.875 L0,10.875 L0,15.2497539 C0.0722694199,20.6218993 4.28661315,24.9375 9.46044246,24.9375 C14.6342718,24.9375 18.8486155,20.6218993 18.9208849,15.2497539 C18.9208849,15.3820317 18.9208849,15.5143096 18.9301155,15.6465874 C18.9319616,15.7098507 18.9356539,15.773114 18.9375,15.8363773 Z" id="Path" fill="#EDBF00"></path>
            <path d="M57.5625,11.0625 L38.625,11.0625 L38.625,15.6242487 C38.625,15.5045419 38.6342297,15.3848351 38.6342297,15.2559201 C38.7064921,20.4166974 42.920425,24.5625 48.09375,24.5625 C53.267075,24.5625 57.4810079,20.4166974 57.5532703,15.2559201 C57.5532703,15.3756269 57.5532703,15.4953337 57.5625,15.6242487 L57.5625,11.0625 Z" id="Path" fill="#EDBF00"></path>
            <path d="M77.0625,15.8370538 L77.0625,15.8370538 C77.0625,15.7737818 77.0625,15.7105099 77.0625,15.6453206 C77.0625,15.5149421 77.0717342,15.3807289 77.0717342,15.248433 C77.1440318,20.6213109 81.3600195,24.9375 86.5358671,24.9375 C91.7117147,24.9375 95.9277024,20.6213109 96,15.248433 L96,10.875 L77.0625,10.875 L77.0625,15.8370538 Z" id="Path" fill="#EDBF00"></path>
        </g>
    </g>
</svg>