<svg xmlns="http://www.w3.org/2000/svg" xmlns:xlink="http://www.w3.org/1999/xlink" width="139" height="113" viewBox="0 0 139 113">
    <defs>
        <rect id="a" width="202" height="137.461" y=".147" rx="14.735"/>
        <linearGradient id="c" x1="116.027%" x2="-39.524%" y1="50.272%" y2="49.532%">
            <stop offset=".261%" stop-color="#C8F1FF"/>
            <stop offset="99.61%" stop-color="#FFF"/>
        </linearGradient>
        <linearGradient id="d" x1="39.988%" x2="61.463%" y1="27.134%" y2="88.096%">
            <stop offset=".261%" stop-color="#C8F1FF"/>
            <stop offset="99.58%" stop-color="#4CD3FF"/>
        </linearGradient>
        <linearGradient id="e" x1="113.706%" x2="9.057%" y1="101.908%" y2="16.639%">
            <stop offset=".674%" stop-color="#C61017"/>
            <stop offset="100%" stop-color="#EF3B42"/>
        </linearGradient>
        <linearGradient id="f" x1="-11.526%" x2="44.032%" y1="-13.986%" y2="43.794%">
            <stop offset=".674%" stop-color="#F47A7F"/>
            <stop offset="100%" stop-color="#EF3B42"/>
        </linearGradient>
        <linearGradient id="g" x1="95.302%" x2="-4.92%" y1="137.411%" y2="-78.291%">
            <stop offset=".674%" stop-color="#C61017"/>
            <stop offset="100%" stop-color="#EF3B42"/>
        </linearGradient>
        <linearGradient id="h" x1="134.233%" x2="53.533%" y1="147.808%" y2="54.103%">
            <stop offset=".674%" stop-color="#F47A7F"/>
            <stop offset="100%" stop-color="#EF3B42"/>
        </linearGradient>
        <linearGradient id="i" x1="79.793%" x2="120.128%" y1="81.992%" y2="124.663%">
            <stop offset=".674%" stop-color="#F47A7F"/>
            <stop offset="100%" stop-color="#EF3B42"/>
        </linearGradient>
        <linearGradient id="j" x1=".426%" x2="27.905%" y1="-22.965%" y2="15.924%">
            <stop offset=".674%" stop-color="#F47A7F"/>
            <stop offset="100%" stop-color="#EF3B42"/>
        </linearGradient>
        <linearGradient id="k" x1="86.492%" x2="-101.959%" y1="58.578%" y2="13.758%">
            <stop offset=".674%" stop-color="#C61017"/>
            <stop offset="100%" stop-color="#EF3B42"/>
        </linearGradient>
        <linearGradient id="l" x1="5.6%" x2="93.063%" y1="-154.77%" y2="265.723%">
            <stop offset=".261%" stop-color="#C8F1FF"/>
            <stop offset="99.58%" stop-color="#4CD3FF"/>
        </linearGradient>
    </defs>
    <g fill="none" fill-rule="evenodd" transform="translate(-31.722 -12.422)">
        <mask id="b" fill="#fff">
            <use xlink:href="#a"/>
        </mask>
        <g mask="url(#b)">
            <path fill="url(#c)" fill-rule="nonzero" d="M51.355 112.26c0 .376-1.574.68-3.515.68s-3.515-.304-3.515-.68c0-.374 1.574-.678 3.515-.678s3.515.304 3.515.679zm3.726-2.324c-.97 0-1.757.153-1.757.34 0 .188.786.34 1.757.34.97 0 1.757-.152 1.757-.34.001-.187-.787-.34-1.757-.34zm-29.439-4.95c-12.52 0-22.669 1.185-22.669 2.645s10.15 2.646 22.67 2.646c12.519 0 22.668-1.185 22.668-2.645 0-1.461-10.15-2.645-22.669-2.645zm47.737.73c-12.273 0-22.223.612-22.223 1.366 0 .753 9.95 1.365 22.223 1.365s22.222-.612 22.222-1.365c0-.754-9.95-1.366-22.222-1.366z" transform="translate(31.563 12.07)"/>
            <path fill="#D2F2FF" fill-rule="nonzero" d="M36.283 109.775c-3.022-4.814-1.655-11.07.558-16.283 2.213-5.213 5.234-10.347 5.309-15.99.055-4.142-1.498-8.116-2.474-12.149-.975-4.03-1.302-8.552.959-12.059 1.664-2.58 4.486-4.219 7.315-5.51a53.817 53.817 0 0 1 20.032-4.783c7.68-.32 16.162.797 22.347-3.654 6.646-4.781 7.872-14.105 13.416-20.074 3.833-4.126 9.534-6.319 15.229-6.727 5.695-.408 11.402.836 16.77 2.735 6.85 2.423 13.934 6.696 15.65 13.602 1.596 6.43-1.981 13.053-1.584 19.657.542 9.049 8.158 15.953 12.385 24.026 4.84 9.246 5.245 20.238 3.17 30.419-1.616 7.926-9.09 12.85-9.453 12.85H47.317c-4.489 0-8.656-2.275-11-6.007l-.035-.053z"/>
            <path fill="url(#d)" fill-rule="nonzero" d="M131.74 62.82l.205 6.438c.114 3.6.143 7.494-2.014 10.42-4.101 5.555-12.697 4.146-19.68 3.429a56.343 56.343 0 0 0-23.407 2.55c-7 2.322-13.364 7.264-20.753 7.564-33.968 1.373-44.422-21.778-45.26-29.356-.687-6.22-4.399-11.71-6.077-17.748-.847-3.052-.91-6.583.01-9.612-2.247 1.169-4.348 2.639-5.69 4.72-2.26 3.507-1.934 8.027-.958 12.06.975 4.03 2.528 8.007 2.474 12.149-.075 5.643-3.096 10.777-5.31 15.99-2.212 5.214-3.58 11.469-.558 16.282l.033.054c2.344 3.732 6.51 6.006 11 6.006H124.35c.361 0 7.836-4.923 9.452-12.85 1.906-9.343 1.719-19.364-2.062-28.095z" transform="translate(31.563 12.07)"/>
            <g fill="#59CBFF" fill-rule="nonzero">
                <path d="M169.699 115.543c.17.016.109-.176.135-.21-.284.042-.129.26-.135.21zm-1.543.18l.034-.076-.294.192.26-.116zm-1.534.022c.14.326.536-.055.8.063l.043.075.12-.264c-.32.042-.737.214-.962.126h-.001zm-.779-.45c.07.13-.24.11.26.043-.025-.012-.032-.02-.046-.033-.047 0-.108 0-.213-.01z"/>
                <path d="M165.265 115.486l.206-.113c-.043-.076-.226-.092-.158-.147-.21.063-.167.138-.048.26zm-.193.05l.186-.05c-.035-.03-.082-.043-.187.05zm.398-.116l-.293.1c.04.055.044.16.133-.037-.023.096.035.004.16-.063zm.06.03c.115.071.264.117.059.23.391-.046.333-.276-.058-.23zm1.018.472l.157.096.135-.109c-.07.05-.302-.092-.292.013zm-2.561-.645c-.017.071.086.184.104.276l.187-.08c-.095-.05-.277-.09-.291-.196z"/>
                <path d="M164.133 115.462l-.29.122c.26.012.307-.047.29-.122zm.902.39l.371-.256-.444.255h.073zm-1.887-.473l.165-.164-.292.243.127-.079zm-.601.08c.094-.135-.132-.227-.03-.31-.157.025-.29.138-.41.242.128-.054.264-.042.44.067zm-.641-.024c.092-.033.19-.088.293-.15a.916.916 0 0 0-.293.15zm1.666.163c-.03-.04-.084-.15-.292-.2l.146.196c.043.004.095.004.146.004z"/>
                <path d="M163.47 115.41l-.005-.006a8.27 8.27 0 0 1-.288-.01c.037.003.124.006.293.015zM164.476 115.542c-.152.11-.47.226-.163.394.11-.134-.067-.226.163-.394zm-.884.068l.272.045c-.006-.05-.055-.125.02-.18l-.293.134v.001zm-.119.01l.209-.063-.159-.017-.05.08zm-1.154-.248c-.105.084-.218.092-.347.104.138.038.281.06.415.06.02-.06.08-.168-.068-.164z"/>
                <path d="M162.415 115.535c.09.033.185.007.26-.071-.09.02-.185.033-.287.033-.01.03-.012.046.027.038zm-.862-.19c.09.042.187.076.292.11-.084-.064-.26-.16-.292-.11zm1.315.052c-.09.029-.16.075-.233.12.106-.016.205-.037.292-.066a.268.268 0 0 1-.059-.054zm-2.545.747c.019-.1.29-.194.527-.085.23-.077.079-.406-.122-.59-.007.043-.007.082-.245.142.082.056.527.13.327.22-.316.05-.26-.035-.412-.088.131.124-.401.182-.332.364l.277-.065c.004.03-.096.074-.02.102z"/>
                <path d="M161.181 115.598l.098-.02c-.112-.035-.191-.106-.338-.248-.163.088-.198.155-.208.217l.483.026-.035.025zm.538-.117c-.077.134-.313.19-.168.34.287-.01.2-.115.373-.172-.464.034.133-.074-.202-.15.091-.024.173-.032.25-.035a2.075 2.075 0 0 1-.24-.063c.005.003.007.006.01.01h.002v.002c.02.017.026.025.003.017-.002.003-.007.003-.01.003 0 .014-.01.03-.018.048-.134-.028-.022-.037.02-.05.003-.007.006-.015.006-.02l-.001-.004-.465.074c.098.02.22.014.44 0zm2.361.552c-.027-.017-.024-.033-.027-.046-.052.025-.072.042.027.046zM163.858 115.832c.033-.016.062-.057.173-.047.095.031 0 .051.005.084.067-.028.232-.075.025-.126l-.033.014c-.188-.036-.428-.166-.395-.181.053.102.13.19.225.256zm-1.082-.22l-.387.069.197.12-.01-.073c.22.032.171-.06.2-.115zm-2.058-.171l.066-.147-.293.209.227-.062zm-.472 0l.035-.126-.235.077.2.05zm-28.368.816l-.202.035c.097-.012.158-.023.202-.035zm15.935-.768c-.165-.121-.35-.303-.33-.162l.052.14a.453.453 0 0 1 .278.022zm-8.456.406c.026.014.055.03.084.04.07-.047.138-.09.196-.134-.081.032-.178.061-.28.094zm-.043.317l-.292-.09c.066.032.16.064.292.09zm-11.916.126l-.234.144c.366 0 .205-.074.234-.144zm27.614-.886a1.248 1.248 0 0 0-.357-.085c.172.08.31.2.357.085zm-22.823-.012c-.123.026-.176.053-.173.085.13-.027.2-.053.173-.085zm22.053-.046c.025.015.05.02.076.032.11-.028.224-.039.337-.032-.128-.062-.274-.097-.413 0zm-47.996.11c.07-.01.184-.01.294-.013a1.375 1.375 0 0 0-.294.012v.001zm52.443.153c-.04.014-.07.035-.076.067a.114.114 0 0 1 .076-.067zm-.287-.252a1.697 1.697 0 0 0-.24-.041c.038.009.111.024.24.041zm-.126-.05l.164.014c.024-.023.003-.038-.164-.014z"/>
                <path d="M157.99 115.36c.104-.003.2.007.292.017-.036-.01-.05-.02-.042-.026a7.78 7.78 0 0 1-.25.01zm-38.194.789c-.012-.006-.026-.006-.04-.016-.192.064-.11.054.04.016zm24.86.202a.424.424 0 0 1 .38-.072l-.127-.251-.254.323z"/>
                <path d="M129.82 116.28l.268.07c-.325.112-.559.074-.307.17.038-.24 1.046-.024 1.083-.265l.178.05c-.051-.001-.06.012-.11.01.346.115.256-.175.7-.14.155.017.263.053.158.082l.345-.06c.101.005.077.047-.024.042l.526-.02-.004.007c.075-.037.246-.097.329-.122.134.035-.067.026-.033.056l.291-.058c.12.063-.122.122-.323.115.272.24.242-.062.83.079l-.276.03c.178.138.392.088.703.173-.073-.045-.622-.215-.307-.275.09.019.208.028.377-.02.001.085.168.064.377.06l-.016.112c.226-.032.208-.09.34-.142.25.011.304.098.362.173.402.018-.277-.14.2-.16.334.042.568-.004.968-.072.234.038-.041.069.043.101l.208-.09c.05.001.035.03.026.043.174-.035.015-.113.289-.144.075-.124.564.183.904.04.084.033-.04.07-.015.114.466-.094.4-.068.783-.193l.326.075c-.24-.086.067-.186.336-.268-.084-.041-.157-.078-.207-.094l.428-.062c.05.02.008.058-.062.105l.078-.027c.153.042.073.106-.037.17l-.154-.069c-.105.07-.203.146-.182.212a.523.523 0 0 1 .14-.03c-.027.02-.044.035-.032.046.014.012.06-.012.13-.042l.098.127.022-.05.561.079c.401-.128.75-.316 1.387-.367-.158.092-.033.152-.044.262-.174-.117-.492.05-.822.026.172.012.134.064.09.083l.59-.108c-.013.091.124.068.278.105-.115-.177.439-.117.68-.173.014.06-.044.122-.336.108.322.133.417-.21.733-.096-.07.002-.11-.008-.137.023.166-.054.573-.012.477.04l-.071.002c.473.02 1.442.001 1.511-.151a.632.632 0 0 1-.091.212l.844-.508c-.074.13.21.438-.18.512.112.017.252.04.49-.007-.077-.018-.194-.188-.087-.2.288.144.2.078.555.201-.115-.027.014-.231.197-.224-.028.03.014.2-.052.221l.453-.199c-.113.035-.02.17.081.227-.047-.04.392.003.512-.016l-.192-.047c.512.03.506-.282 1.014-.27-.061.042-.153.254.106.277.117-.101.524-.49.974-.57l.086.058.345-.066a7.193 7.193 0 0 1-1.147.603c.191.047.054.07.34.063.102.055-.155.083-.24.086l.669.035c-.03-.12.51-.12.486-.218l-.725.123c-.03-.12.42-.338.892-.317.121.047-.089.212-.08.252.062-.04.45-.079.493-.049l-.2.064c.263.045.43-.159.747-.044.109.008.326.154.344.083-.178-.136-.212-.559-.094-.66.038.01.574.131.698.197.18.106-.27.254-.118.346.007-.033.107-.073.148-.086.114.028-.048.1.203.086.041-.121.507.01.117-.102.244-.034.26.025.546.02-.091-.078.257-.267.501-.301-.015.03.04.071.066.089.5.011.769.066 1.234.066.044.03.269.065.173.116.067-.02.13-.063.272-.064.278.105-.32.016-.108.142.018-.07.372-.097.577-.14-.063-.109-.472-.021-.678.022-.001-.15.357-.307.844-.375.388-.037.168.097.236.076.728.026.62-.262 1.224-.154.24.095.012.19.065.26-.315.035-.484-.06-.698-.058l.263.046c-.1.032-.31.056-.426.028.2.085 1.23.015 1.79.094.1-.032.272-.064.19-.103l-.177.013c-.162-.077.336-.107.11-.142.238-.054.505-.14.841-.096l.063.109c-.007-.033-.219-.065-.314-.033.14-.048.514.147.667.005l-.235-.076c.238-.055.534-.17.832-.136-.136-.107-.068.013-.28-.113.182.157-.76-.007-.466.159-.218-.146-.375-.062-.659-.186.009.035.101.067-.15.05a.344.344 0 0 1-.054.034l-.017-.004.014.005c-.012.005-.012.007.005.002.046.008.09.027.128.055-.125.082-.521.08-.656.123-.147-.018.062-.04-.018-.08l-.2.064c-.02-.08-.393-.134-.046-.18l-.313-.003a1.535 1.535 0 0 0-.596-.03c-.147-.017-.373.09-.245.027l-.492.05-.005-.02c-.486-.01-1.001.133-1.557-.011-.164.02-.333.045-.605.023l-.053-.07c-.21.024-.63-.07-.722.003-.227-.186-1.018-.04-1.389-.073l-.012.092a6.087 6.087 0 0 0-.814.056l.02.079c-.272.064-.7-.056-1.129-.05.03-.03.138-.02.215-.003-.514-.18-1.085.13-1.551 0a.532.532 0 0 1-.282-.002c.01 0 .02-.001.028-.005-.011-.002-.03-.002-.048-.002-.05-.012-.105-.029-.161-.042.05.02.095.036.136.042-.12.003-.24.014-.358.031l-.056-.086-.032.004c-.131-.033-.105.04-.035.105a.938.938 0 0 0-.175.051c-.107-.137-.351.047-.495-.1-.09.072-.67.053-.741.206-.005-.02-.044-.03.028-.031-.15-.018-.297-.034-.43.008l-.063-.109-.323.146c-.198-.066-.28-.105-.083-.188-.473.13-.383.05-.785.177l.02-.07c-.144.003-.373.097-.46.04-.322-.135-1.589-.018-2.414-.143.16.207-.382-.092-.415.068-.049-.05-.163-.076-.03-.12-.421.048-.633-.077-.923.058-.048-.048.09-.07.046-.1-.033.011-.134.042-.177.013-.043-.03.062-.04.128-.063-.43.008-.473.159-.505.301-.217-.067-.327-.058-.484.035-.077-.046-.202-.095.065-.111-.151-.007-.918-.068-.934.045-.047-.03-.21-.008-.25.005-.336-.007-.366-.018-.697-.007l.09.018c-.13.138-.275.031-.542.047l.008-.014c-.611-.1-.263.046-.867-.065l.033.086c-.056.182-.534-.108-.885-.038l.126.05c-.192.063-.535-.25-.727-.273-.042-.016.066-.026.124-.037-.503-.109-.064.112-.44.138-.07-.06.09-.155-.162-.165-.126-.05-.732.195-1.077.08.077.045.151.09-.023.127-.266.016-.722-.176-.962-.03-.033-.012-.046-.024-.048-.035-.204.037-.663.063-.786.142-.19-.295-1.27.142-1.265-.128l-.627.015.017-.028c-.401-.018-.542.048-.683.112-.093-.017-.025-.043-.017-.058-.586-.055-.645-.044-1.136.092l-.052-.087c-.133.052-.847-.138-1.423-.035.005-.01.018-.028.063-.04-.647.104-1.55-.244-1.785.076l-.427.08c.553.024-.082.138.145.192-.218.02-.561-.097-.295-.113l.042.016c.097-.166-.688-.06-.673-.173-1.086.008-2.146-.085-3.163-.09l.118.129-.355-.009c-.094-.03-.125-.101.127-.095-.133-.074-.425.062-.43.091-.497-.054.193-.152.04-.155l-.207.01.046.013c-.167.054-.182.11-.486.104-.192-.026-.099-.08-.174-.085 0-.01-.024-.014-.116-.004l-.448-.011.179.102c-.198.05-.42-.005-.214.11-.304-.18-1.668-.065-1.854-.12-.277.075-.553.073-.891.065.084.021.135.136-.158.123.108-.238-.536-.103-.773-.275.213.113-.832.028-.5.19-.245-.02-.015-.09-.201-.147-.582.093-1.283-.06-2.001-.028-.012.03.11.079-.045.126l-.38-.157c-.143.014-.13.18-.39.07.037.026.092.067-.003.077-1.409-.152-2.878.124-4.308-.161.194.06.064.066-.083.068.096.015-.002.078.016.12l-.599-.118c-.11.118-.641.008-.705.12l.19-.02c-.253.133.353.295.315.465.282-.15.745.223 1.208.008.103.034-.088.055-.033.094.117-.073.258-.088.522-.056l-.03.019c.738-.019 1.055.053 1.885.101l-.061-.084c.177.011.215.037.298.058.204-.127-.501-.006-.314-.147.237.172 1.258.004 1.417.198.273.001-.08-.098.194-.095l.073.053.07-.068c.18.011.27.077.277.121-.043-.005-.125.013-.17.016.233.062.656-.02.737-.001l-.264-.032c.749-.05 1.663.019 2.386-.088l-.055-.04c.553-.073.443.043 1.049.009l-.021.01c.12-.039.283-.06.448-.055-.152.046.29.09.088.143.6-.08.298-.062.692-.21l.092.067c.134-.06.145-.091.448-.109-.248.057.193.1-.084.176.636.143.944-.146 1.235.064.292-.183-.55-.102-.387-.14-.136-.061.24-.137.44-.12.202.006.345.234.856.23-.051 0-.055.013-.105.013.191.047.375-.063.61.014.13-.11.303.006.34-.135l-.467.032c.266-.037.514-.2.952-.12a.904.904 0 0 1-.254.085c.128.042.246-.028.38.014-.04.141-.57.031-.856.139.138.06.538-.103.395.05.206-.195.503.024.85-.123l-.024.084c.055-.014.168-.054.269-.05l-.182.11c.28-.095.539.08.808.03-.563.003-.127-.101-.364-.163.693-.114.398.22 1.174.18-.104.01-.395-.051-.23-.09.148.018.344.05.433.094.514-.018-.08-.087.14-.14.175.103.252-.041.477-.074l.002.087c.585.054.155-.179.684-.113l-.223.119.275-.03-.056.096c.299-.072.393-.053.685-.025-.068-.06.038-.156.298-.16.178.05-.1.082.27.07-.084.054-.175.122-.334.043-.017.027-.082.053-.1.08.191.059.48.013.613.013a.659.659 0 0 1-.145-.019l.535-.119c.084.033.016.059-.049.085.108-.01.182-.049.342-.057-.042.07-.032.14-.256.175l.508-.078c.033.031.26.083.194.108.282.041.692-.135 1.065-.08a.344.344 0 0 1 .138-.035c.352.015.662.101 1.078.006l.236.124c.325-.029-.32-.156.222-.203.385-.041.143.106.279.14.19-.063.522-.19.876-.09-.12.02-.21.003-.32.013zm4.019-.057c-.078.017-.234.073-.29.022.09-.096.157-.05.29-.022zm6.11-.206c-.058.03-.147.014-.25-.017a.707.707 0 0 1 .25.017zm17.02-.596l-.008.004c-.175-.034-.113-.02.008-.004zm.36.037c.037-.011.033-.025.018-.035-.025.02-.105.022-.199.017.027.023.073.037.181.018zm-38.739.033l.07.024c-.158.023-.113 0-.07-.024z"/>
                <path d="M139.296 116.172a.142.142 0 0 1-.06-.084c-.052.028-.052.058.06.084zm12.555.047a.692.692 0 0 1-.251-.079c-.009.039.05.07.252.08zm7.451-.907l-.292.041c.14-.009.191.027.263.05-.007-.035-.061-.088.03-.091zm1.991.573c.055-.018.118-.003.173-.021l-.017-.073c-.235.005-.4.064-.156.094zm-1.84-.262c.02.133.163.086.326.062-.01 0-.018.003-.028 0 .049-.182-.124-.12-.297-.062zm.365.023c.087-.005.178-.008.263-.002.035-.073-.105-.014-.263.002zm-2.006-.164c.09.033.057-.167.106-.115.101-.167-.596.204-.106.115zm1.887.425l-.104-.161-.157.13.26.031zm-1.391-.125l.26.044c-.004-.026.027-.044.069-.056-.16-.005-.336-.037-.33.012zm.329-.007c.117.003.229 0 .292-.026-.063.003-.2.005-.292.026zm.629.108l-.086-.035-.207-.012.293.047zm-3.739-.13l-.282.046c-.028.056.049.088.153.068.068-.038.173-.062.13-.115zm.956.298c-.134-.031-.143-.07-.22-.123l-.013.2.233-.077zm-.925-.029c-.029.056-.41.159-.052.148.028-.056.312-.103.052-.148zm-4.252-.028l.126-.003-.018-.29-.108.293zm-3.75.434c.335.08.08-.202.382-.105.077-.077-.247-.08-.166-.147-.202.082-.308.035-.215.252z"/>
                <path d="M147.772 116.198c.056-.012.117-.03.182-.05a.83.83 0 0 0-.182.05zm-42.236-.768l-.293-.068.19.112.103-.044zm-.378.197l-.084-.208-.21.187c.081-.008.234-.026.294.021zm29.378.881l.025-.05c-.052-.056-.131-.058-.292-.067l.267.117zm-2.984-.055l.089.003-.164-.188.075.185zm-2.48.096c.099.01.217-.035.318-.027-.22.036-.345-.208-.318.027z"/>
            </g>
            <g fill="#59CBFF" fill-rule="nonzero">
                <path d="M94.972 115.543c.164.016.105-.176.131-.21-.278.042-.126.26-.131.21zm-1.503.18l.035-.076-.293.192.258-.116zm-1.503.022c.137.326.525-.055.782.063l.043.075.116-.264c-.313.042-.72.214-.94.126zm-.759-.45c.07.13-.241.11.26.043a.206.206 0 0 1-.047-.033c-.044 0-.107 0-.213-.01z"/>
                <path d="M90.641 115.486l.2-.113c-.04-.076-.22-.092-.154-.147-.205.063-.164.138-.046.26zm-.19.05l.184-.05c-.032-.03-.082-.043-.185.05zm.397-.116l-.293.1c.037.055.042.16.135-.037-.025.096.033.004.158-.063zm.052.03c.112.071.257.117.056.23.384-.046.327-.276-.056-.23zm.994.472l.157.096.135-.109c-.07.05-.303-.092-.292.013zm-2.502-.645c-.016.071.086.184.105.276l.187-.08c-.097-.05-.28-.09-.291-.196h-.001z"/>
                <path d="M89.543 115.462l-.29.122c.26.012.305-.047.29-.122zm.873.39l.363-.256-.435.255h.072zm-1.84-.473l.165-.164-.293.243.128-.079zm-.591.08c.093-.135-.128-.227-.03-.31-.152.025-.281.138-.4.242.127-.054.26-.042.43.067zm-.625-.024c.091-.033.187-.088.293-.15a.886.886 0 0 0-.293.15zm1.635.163c-.028-.04-.084-.15-.293-.2l.145.196c.045.004.098.004.147.004h.001z"/>
                <path d="M88.894 115.41l-.006-.006a8.015 8.015 0 0 1-.287-.01c.038.003.125.006.292.015h.001zM89.879 115.542c-.152.11-.472.226-.164.394.11-.134-.066-.226.164-.394zm-.873.068l.273.045c-.006-.05-.054-.125.02-.18l-.293.134v.001zm-.115.01l.202-.063-.152-.017-.05.08zm-1.128-.248c-.101.084-.212.092-.338.104.134.038.273.06.406.06.018-.06.076-.168-.068-.164z"/>
                <path d="M87.857 115.535c.09.033.186.007.261-.071-.09.02-.186.033-.287.033-.009.03-.01.046.026.038zm-.843-.19c.09.042.189.076.293.11-.085-.064-.262-.16-.292-.11zm1.292.052c-.09.029-.162.075-.235.12.108-.016.21-.037.293-.066a.26.26 0 0 1-.058-.054zm-2.492.747c.018-.1.284-.194.512-.085.226-.077.078-.406-.119-.59-.007.043-.007.082-.238.142.08.056.515.13.32.22-.31.05-.253-.035-.403-.088.129.124-.39.182-.324.364l.27-.065c.005.03-.093.074-.018.102z"/>
                <path d="M86.652 115.598l.096-.02c-.11-.035-.187-.106-.33-.248-.16.088-.193.155-.203.217l.471.026-.035.025zm.524-.117c-.075.134-.305.19-.165.34.281-.01.198-.115.365-.172-.452.034.13-.074-.197-.15.08-.02.162-.032.244-.035a1.882 1.882 0 0 1-.234-.063l.01.01h.002v.002c.02.017.026.025.003.017-.002.003-.007.003-.01.003 0 .014-.009.03-.018.048-.132-.028-.02-.037.02-.05.001-.007.005-.015.005-.02 0 0-.002 0-.002-.004l-.455.074c.098.02.22.014.432 0zM89.268 115.832c.033-.016.06-.057.167-.047.093.031 0 .051.005.084.065-.028.226-.075.024-.126l-.032.014c-.182-.036-.418-.166-.385-.181.05.102.127.19.22.256zm-1.059-.22l-.378.069.193.12-.01-.073c.215.032.168-.06.195-.115zm-2.006-.171l.066-.147-.293.209.227-.062zm-.463 0l.032-.126-.229.077.197.05zm-27.713.816l-.196.035a1.34 1.34 0 0 0 .196-.035zm15.567-.768c-.16-.121-.342-.303-.323-.162l.05.14a.437.437 0 0 1 .273.022zm-8.26.406c.027.014.056.03.085.04a4.71 4.71 0 0 0 .194-.134c-.085.032-.182.061-.279.094zm-.035.317l-.293-.09c.066.032.161.064.293.09zm-11.647.126l-.229.144c.358 0 .2-.074.229-.144zm26.973-.886a1.191 1.191 0 0 0-.349-.085c.168.08.304.2.349.085zm-22.293-.012c-.12.026-.17.053-.167.085.123-.027.193-.053.167-.085zm21.541-.046c.025.015.048.02.073.032.103-.023.204-.04.33-.032-.124-.062-.265-.097-.403 0zm-46.882.11c.071-.01.183-.01.293-.013a1.378 1.378 0 0 0-.293.012v.001zm51.225.153c-.037.014-.067.035-.072.067a.12.12 0 0 1 .072-.067zm-.28-.252a1.683 1.683 0 0 0-.234-.041c.038.009.108.024.235.041zm-.121-.05l.16.014c.022-.023 0-.038-.16-.014z"/>
                <path d="M83.533 115.36c.103-.003.198.007.293.017-.035-.01-.05-.02-.04-.026l-.253.01zm-37.309.789c-.012-.006-.026-.006-.038-.016-.185.064-.105.054.038.016zm24.285.202a.406.406 0 0 1 .37-.072l-.125-.251-.245.323z"/>
                <path d="M56.019 116.28l.261.07c-.317.112-.546.074-.3.17.036-.24 1.022-.024 1.059-.265l.172.05c-.05-.001-.058.012-.106.01.337.115.25-.175.683-.14.15.017.258.053.154.082l.337-.06c.098.005.075.047-.023.042l.514-.02-.003.007a2.53 2.53 0 0 1 .32-.122c.131.035-.064.026-.031.056l.285-.058c.116.063-.12.122-.317.115.266.24.236-.062.81.079l-.27.03c.173.138.384.088.688.173-.071-.045-.61-.215-.299-.275a.715.715 0 0 0 .369-.02c.001.085.164.064.368.06l-.014.112c.22-.032.203-.09.332-.142.246.011.297.098.354.173.392.018-.272-.14.193-.16.327.042.556-.004.948-.072.229.038-.04.069.042.101l.202-.09c.049.001.033.03.025.043.17-.035.013-.113.281-.144.073-.124.551.183.884.04.082.033-.04.07-.014.114.456-.094.392-.068.765-.193l.318.075c-.233-.086.065-.186.327-.268-.083-.041-.154-.078-.203-.094l.418-.062c.05.02.009.058-.06.105l.078-.027c.149.042.07.106-.035.17-.052-.022-.102-.045-.152-.069-.102.07-.2.146-.179.212a.494.494 0 0 1 .138-.03c-.027.02-.045.035-.032.046.015.012.059-.012.127-.042l.094.127.023-.05.547.079c.392-.128.734-.316 1.354-.367-.154.092-.033.152-.041.262-.17-.117-.481.05-.805.026.168.012.131.064.088.083l.574-.108c-.014.091.123.068.273.105-.113-.177.427-.117.661-.173.015.06-.041.122-.327.108.316.133.407-.21.716-.096-.07.002-.108-.008-.135.023.163-.054.561-.012.466.04l-.07.002c.463.02 1.409.001 1.477-.151a.692.692 0 0 1-.088.212l.825-.508c-.073.13.205.438-.178.512.11.017.247.04.477-.007-.074-.018-.187-.188-.084-.2.282.144.196.078.542.201-.112-.027.014-.231.191-.224-.028.03.015.2-.05.221l.443-.199c-.11.035-.02.17.08.227-.047-.04.383.003.501-.016l-.187-.047c.499.03.494-.282.99-.27-.06.042-.147.254.105.277.116-.101.512-.49.95-.57l.084.058.337-.066a6.908 6.908 0 0 1-1.12.603c.188.047.052.07.332.063.1.055-.152.083-.235.086l.652.035c-.028-.12.5-.12.474-.218l-.708.123c-.028-.12.41-.338.872-.317.118.047-.087.212-.077.252.059-.04.44-.079.48-.049l-.195.064c.257.045.42-.159.73-.044.106.008.318.154.336.083-.174-.136-.207-.559-.093-.66.039.01.562.131.682.197.176.106-.264.254-.114.346.007-.033.103-.073.144-.086.113.028-.046.1.197.086.042-.121.497.01.115-.102.239-.034.254.025.533.02-.09-.078.25-.267.49-.301-.015.03.039.071.064.089.487.011.751.066 1.206.066.041.03.262.065.167.116.065-.02.126-.063.266-.064.272.105-.313.016-.107.142.019-.07.364-.097.564-.14-.06-.109-.463-.021-.661.022-.002-.15.348-.307.824-.375.379-.037.164.097.23.076.71.026.605-.262 1.195-.154.234.095.01.19.063.26-.308.035-.472-.06-.681-.058l.256.046a.959.959 0 0 1-.416.028c.196.085 1.201.015 1.749.094.098-.032.265-.064.185-.103l-.174.013c-.159-.077.327-.107.106-.142.233-.054.495-.14.821-.096l.062.109c-.007-.033-.214-.065-.307-.033.136-.048.503.147.652.005l-.23-.076c.235-.055.523-.17.815-.136-.134-.107-.067.013-.275-.113.18.157-.743-.007-.456.159-.212-.146-.366-.062-.643-.186.008.035.098.067-.146.05a.325.325 0 0 1-.054.034l-.017-.004.015.005c-.011.005-.012.007.004.002a.304.304 0 0 1 .125.055c-.122.082-.51.08-.64.123-.145-.018.059-.04-.019-.08l-.196.064c-.02-.08-.385-.134-.043-.18l-.307-.003c-.18-.045-.43-.063-.582-.03-.144-.017-.365.09-.239.027l-.481.05-.005-.02c-.474-.01-.977.133-1.52-.011-.16.02-.325.045-.592.023l-.051-.07c-.206.024-.616-.07-.704.003-.22-.186-.996-.04-1.357-.073l-.013.092a5.81 5.81 0 0 0-.795.056l.018.079c-.265.064-.683-.056-1.102-.05.028-.03.134-.02.21-.003-.503-.18-1.06.13-1.515 0a.508.508 0 0 1-.275-.002.08.08 0 0 0 .028-.005c-.01-.002-.028-.002-.046-.002-.05-.012-.101-.029-.158-.042a.64.64 0 0 0 .133.042 2.897 2.897 0 0 0-.35.031l-.055-.086-.03.004c-.127-.033-.102.04-.034.105a.905.905 0 0 0-.173.051c-.105-.137-.342.047-.483-.1-.088.072-.653.053-.723.206-.005-.02-.043-.03.028-.031-.144-.018-.29-.034-.42.008l-.06-.109-.318.146c-.192-.066-.272-.105-.081-.188-.461.13-.375.05-.766.177l.02-.07c-.141.003-.365.097-.45.04-.314-.135-1.553-.018-2.357-.143.155.207-.375-.092-.407.068-.047-.05-.159-.076-.028-.12-.411.048-.617-.077-.9.058-.047-.048.087-.07.045-.1-.033.011-.13.042-.174.013-.042-.03.06-.04.127-.063-.42.008-.463.159-.493.301-.212-.067-.319-.058-.473.035-.074-.046-.197-.095.063-.111-.146-.007-.896-.068-.91.045-.047-.03-.207-.008-.244.005-.33-.007-.358-.018-.682-.007l.09.018c-.129.138-.27.031-.53.047l.007-.014c-.598-.1-.26.046-.848-.065l.032.086c-.055.182-.523-.108-.864-.038l.122.05c-.188.063-.522-.25-.71-.273-.042-.016.065-.026.121-.037-.49-.109-.063.112-.43.138-.068-.06.086-.155-.16-.165-.122-.05-.714.195-1.051.08.075.045.148.09-.023.127-.26.016-.704-.176-.94-.03-.034-.012-.047-.024-.047-.035-.199.037-.647.063-.768.142-.184-.295-1.239.142-1.235-.128l-.613.015.017-.028c-.392-.018-.531.048-.669.112-.091-.017-.024-.043-.017-.058-.572-.055-.63-.044-1.11.092l-.048-.087c-.13.052-.829-.138-1.391-.035.005-.01.017-.028.061-.04-.632.104-1.512-.244-1.743.076l-.417.08c.54.024-.08.138.141.192-.212.02-.55-.097-.287-.113l.042.016c.096-.166-.67-.06-.655-.173-1.062.008-2.098-.085-3.09-.09l.114.129-.347-.009c-.091-.03-.123-.101.126-.095-.13-.074-.415.062-.421.091-.485-.054.19-.152.041-.155l-.203.01.045.013c-.164.054-.177.11-.476.104-.187-.026-.096-.08-.17-.085 0-.01-.026-.014-.113-.004l-.437-.011.174.102c-.194.05-.411-.005-.209.11-.295-.18-1.63-.065-1.811-.12-.272.075-.539.073-.87.065.082.021.13.136-.155.123.105-.238-.525-.103-.755-.275.207.113-.813.028-.49.19-.238-.02-.015-.09-.196-.147-.568.093-1.252-.06-1.954-.028-.011.03.107.079-.044.126l-.372-.157c-.14.014-.127.18-.381.07.036.026.09.067-.004.077-1.374-.152-2.812.124-4.208-.161.19.06.063.066-.081.068.094.015-.003.078.016.12l-.586-.118c-.105.118-.627.008-.688.12l.186-.02c-.248.133.345.295.308.465.275-.15.727.223 1.18.008.1.034-.085.055-.032.094.115-.073.254-.088.51-.056l-.028.019c.72-.019 1.03.053 1.841.101l-.06-.084c.174.011.21.037.292.058.2-.127-.49-.006-.307-.147.23.172 1.227.004 1.384.198.266.001-.078-.098.19-.095l.07.053.068-.068c.175.011.264.077.27.121-.043-.005-.12.013-.168.016.228.062.643-.02.72-.001l-.256-.032c.732-.05 1.624.019 2.329-.088l-.053-.04c.539-.073.431.043 1.023.009l-.02.01a1.34 1.34 0 0 1 .438-.055c-.149.046.282.09.085.143.586-.08.289-.062.675-.21l.09.067c.13-.06.142-.091.437-.109-.242.057.19.1-.082.176.62.143.92-.146 1.206.064.285-.183-.538-.102-.379-.14-.134-.061.236-.137.43-.12.2.006.337.234.836.23-.05 0-.053.013-.103.013.186.047.365-.063.594.014.128-.11.297.006.333-.135l-.457.032c.259-.037.502-.2.929-.12-.033.029-.162.066-.247.085.124.042.24-.028.37.014-.037.141-.556.031-.835.139.135.06.526-.103.387.05.2-.195.491.024.83-.123l-.022.084c.053-.014.164-.054.262-.05l-.178.11c.274-.095.528.08.79.03-.55.003-.123-.101-.355-.163.677-.114.39.22 1.148.18-.103.01-.385-.051-.226-.09.145.018.336.05.423.094.503-.018-.076-.087.136-.14.17.103.247-.041.466-.074l.002.087c.573.054.151-.179.667-.113l-.218.119.27-.03-.055.096c.292-.072.383-.053.67-.025-.066-.06.038-.156.29-.16.172.05-.096.082.262.07-.081.054-.17.122-.327.043-.016.027-.079.053-.096.08.186.059.468.013.6.013a.64.64 0 0 1-.142-.019l.52-.119c.082.033.018.059-.047.085.106-.01.179-.049.333-.057-.04.07-.03.14-.25.175l.496-.078c.033.031.255.083.19.108.276.041.676-.135 1.04-.08a.321.321 0 0 1 .135-.035c.344.015.647.101 1.054.006l.23.124c.318-.029-.312-.156.217-.203.376-.041.14.106.272.14.186-.063.512-.19.856-.09-.099.02-.19.003-.294.013zm3.926-.057c-.077.017-.227.073-.284.022.086-.096.153-.05.284-.022zm5.967-.206c-.056.03-.144.014-.242-.017a.673.673 0 0 1 .242.017zm16.625-.596c-.003.001-.005.001-.008.004-.17-.034-.11-.02.008-.004zm.352.037c.036-.011.033-.025.019-.035-.026.02-.106.022-.195.017.025.023.072.037.176.018zm-37.84.033l.069.024c-.155.023-.112 0-.068-.024z"/>
                <path d="M65.275 116.172a.142.142 0 0 1-.06-.084c-.048.028-.052.058.06.084zm12.264.047a.696.696 0 0 1-.247-.079c-.009.039.05.07.246.08zm7.286-.907l-.294.041c.143-.009.192.027.266.05-.01-.035-.065-.088.028-.091zm1.94.573c.056-.018.117-.003.172-.021l-.014-.073c-.238.005-.402.064-.158.094zm-1.799-.262c.018.133.16.086.317.062-.01 0-.019.003-.028 0 .047-.182-.121-.12-.289-.062zm.354.023a1.97 1.97 0 0 1 .257-.002c.032-.073-.105-.014-.257.002zm-1.956-.164c.089.033.056-.167.107-.115.1-.167-.596.204-.107.115zm1.841.425l-.1-.161-.157.13.257.031zm-1.361-.125l.253.044c-.003-.026.028-.044.068-.056-.156-.005-.325-.037-.32.012h-.001zm.32-.007c.118.003.227 0 .294-.026-.065.003-.2.005-.293.026zm.624.108l-.086-.035-.207-.012.293.047zm-3.658-.13l-.276.046c-.028.056.046.088.15.068.066-.038.17-.062.126-.115zm.932.298c-.131-.031-.14-.07-.213-.123l-.014.2.227-.077zm-.903-.029c-.028.056-.4.159-.052.148.028-.056.306-.103.052-.148zm-4.154-.028l.123-.003-.017-.29-.106.293zm-3.66.434c.325.08.076-.202.372-.105.076-.077-.24-.08-.162-.147-.2.082-.302.035-.21.252z"/>
                <path d="M73.553 116.198c.06-.013.12-.03.178-.05a.75.75 0 0 0-.178.05zm-41.248-.768l-.293-.068.189.112.104-.044zm-.37.197l-.083-.208-.21.187c.08-.008.233-.026.293.021zm28.694.881l.026-.05c-.053-.056-.13-.058-.292-.067l.266.117zm-2.917-.055l.085.003-.162-.188.077.185zm-2.426.096c.098.01.213-.035.311-.027-.213.036-.337-.208-.31.027z"/>
            </g>
            <g fill-rule="nonzero" transform="translate(49.333 19.269)">
                <ellipse cx="55.349" cy="49.898" fill="url(#e)" rx="51.126" ry="49.852"/>
                <ellipse cx="51.227" cy="49.898" fill="url(#f)" rx="51.126" ry="49.852"/>
                <path fill="url(#g)" d="M17.634 87.209a171.31 171.31 0 0 0-.743-2.686l-.091-.317c-.05-.173-.1-.34-.146-.502l-.086-.287c-.036-.12-.072-.239-.11-.358a22.72 22.72 0 0 0-.234-.724l-.043-.127a6.547 6.547 0 0 0-.081-.223l-.072-.18a1.056 1.056 0 0 0-.112-.217.776.776 0 0 0-.364-.248 1.584 1.584 0 0 0-.347-.074 3.68 3.68 0 0 0-.429-.025h-.075l.423-1.77a.42.42 0 0 0-.322-.506l-2.246-.509c.639-.058 1.322-.21 1.525-.59.083-.153.13-.403-.118-.727a1.079 1.079 0 0 0-.27-.256c-.828-.542-1.857.475-2.276.96a.475.475 0 0 0-.414-.193l-.857 1.922a50.654 50.654 0 0 0 7.582 7.986l-.094-.35zm-4.243-9.886c.053.037.1.082.137.135.059.074.045.17-.008.238-.123.152-.682.235-1.476.261.426-.43 1.008-.855 1.346-.634z"/>
                <ellipse cx="51.227" cy="49.898" fill="url(#h)" rx="42.589" ry="41.528"/>
                <path fill="url(#i)" d="M81.088 20.291c7.56 7.494 12.225 17.773 12.225 29.118 0 22.935-19.067 41.528-42.589 41.528-11.633 0-22.174-4.55-29.862-11.921 7.726 7.659 18.475 12.41 30.363 12.41 23.522 0 42.59-18.592 42.59-41.527.001-11.593-4.873-22.075-12.727-29.608z"/>
                <path fill="url(#j)" d="M9.3 50.543C9.3 27.607 28.367 9.015 51.89 9.015c11.592 0 22.1 4.518 29.78 11.844-7.731-7.707-18.513-12.491-30.442-12.491-23.521 0-42.589 18.592-42.589 41.528 0 11.632 4.907 22.144 12.81 29.684C13.933 72.094 9.3 61.846 9.3 50.543z" opacity=".16" style="mix-blend-mode:multiply"/>
                <path fill="url(#k)" d="M58.332 49.883l14.582-14.29a3.733 3.733 0 0 0 0-5.375c-1.522-1.485-3.991-1.485-5.513 0L52.803 44.524l-14.76-14.307c-1.522-1.485-3.99-1.485-5.513 0a3.733 3.733 0 0 0 0 5.376l14.774 14.32L32.91 64.015a3.733 3.733 0 0 0 0 5.375 3.936 3.936 0 0 0 2.757 1.113 3.94 3.94 0 0 0 2.757-1.113l14.41-14.12 14.568 14.12a3.936 3.936 0 0 0 2.757 1.113 3.94 3.94 0 0 0 2.757-1.113 3.733 3.733 0 0 0 0-5.375L58.332 49.883z"/>
                <path fill="#FFF" d="M68.645 70.507a3.94 3.94 0 0 1-2.757-1.113l-34.87-33.8a3.733 3.733 0 0 1 0-5.375c1.523-1.485 3.991-1.485 5.513 0l34.87 33.8a3.733 3.733 0 0 1 0 5.375 3.94 3.94 0 0 1-2.755 1.113h-.001z"/>
                <path fill="#FFF" d="M34.156 70.507a3.94 3.94 0 0 1-2.758-1.113 3.733 3.733 0 0 1 0-5.375l34.49-33.8c1.523-1.485 3.991-1.485 5.513 0a3.733 3.733 0 0 1 0 5.376l-34.49 33.798a3.938 3.938 0 0 1-2.756 1.114z"/>
            </g>
            <path fill="#89C340" fill-rule="nonzero" d="M50.42 99.287l.248-4.595c.015-.099.07-.187.153-.244l1.825-.993.629.033c.545.39 1.091.78 1.638 1.168a.355.355 0 0 1 .13.264l-.004.058-.244 4.535-4.374-.226z"/>
            <path fill="#90BC3F" fill-rule="nonzero" d="M52.41 92.177a.554.554 0 0 1 .553-.367c.245.01.454.18.514.418l.001.001s.854-.467.657.031c-.133.337-.41.692-.575.901 0 0-1.047.047-1.356-.063a4.262 4.262 0 0 1-.448-.948c-.14-.493.593-.013.654.028"/>
            <path fill="#04AE59" fill-rule="nonzero" d="M50.912 93.375c.019-.447.15-.968.15-.968l1.383.653a.652.652 0 0 1 .94.022l1.4-.533s.128.578.11 1.024a3.54 3.54 0 0 1-.19.924l-1.293-.618a.649.649 0 0 1-.475.246.648.648 0 0 1-.585-.299l-1.37.529c.001 0-.089-.526-.07-.98"/>
            <path fill="#E90089" fill-rule="nonzero" d="M52.495 100.315c-2.757.01-5.364.019-6.55.025h-.02l-.023.003a.813.813 0 0 0-.06.008l-.616-1.88a.43.43 0 0 1 .288-.544l5.937-1.852c.232-.074.48.05.56.28l1.298 3.959-.814.001"/>
            <path fill="#F4901E" fill-rule="nonzero" d="M48.714 100.329l-1.071-3.027 1.707-.533 1.259 3.551-1.895.009"/>
            <path fill="#F4901E" fill-rule="nonzero" d="M45.738 96.48c-.158.307-.081.512.011.628.392.492 1.865.224 2.307.131l.018-.003a.493.493 0 0 0 .896-.237c.462-.156 1.796-.664 1.867-1.266.017-.147-.024-.36-.323-.543a.958.958 0 0 0-.295-.122c-.848-.188-1.347.987-1.518 1.479a.505.505 0 0 0-.368-.028.489.489 0 0 0-.288.236c-.376-.315-1.478-1.134-2.122-.526a.842.842 0 0 0-.185.251zm4.53-.652c-.179.15-.522.376-1.021.582.203-.468.53-.98.87-.907.05.007.12.042.155.08.051.061.07.184-.003.245zm-4.154 1.003c-.041-.053-.01-.187.131-.28.25-.237.803.034 1.226.332-.668.094-1.224.115-1.357-.051v-.001zm14.879 3.463a.894.894 0 0 0-.13-.01c-1.427.01-4.956.022-8.368.031-.073 0-.145.003-.218.003l.55-3.444a.43.43 0 0 1 .492-.351l7.652 1.162a.42.42 0 0 1 .36.48l-.338 2.13z"/>
            <path fill="#FFF" fill-rule="nonzero" d="M55.138 96.02l-.047-.031c.014.011.032.02.047.032"/>
            <path fill="#EA1D25" fill-rule="nonzero" d="M55.178 100.308l.552-3.443 2.778.423-.48 3.01c-.866.001-1.836.007-2.849.01"/>
            <path fill="#EA1D25" fill-rule="nonzero" d="M54.858 95.1c-.357.203-.419.452-.404.623.056.73 1.677 1.398 2.171 1.586l.126.049a.477.477 0 0 0 .707.094l.128-.005c.53-.018 2.286-.134 2.585-.805.07-.158.099-.412-.173-.718a1.077 1.077 0 0 0-.289-.235c-.866-.48-1.814.607-2.198 1.122a.471.471 0 0 0-.292-.162.476.476 0 0 0-.315.06c-.196-.617-.726-1.914-1.693-1.738a1.094 1.094 0 0 0-.353.13m4.738 1.409c-.11.161-.662.284-1.452.368.393-.457.942-.927 1.297-.73.049.03.1.07.147.124.063.07.058.166.008.238m-3.307.082c-.705-.325-1.256-.7-1.271-.891-.002-.028.05-.078.133-.123a.573.573 0 0 1 .177-.066c.393-.073.747.531.96 1.08"/>
            <path fill="#FFF" fill-rule="nonzero" d="M39.937 118.987a.419.419 0 0 1-.349-.182.398.398 0 0 1 .122-.56c5.525-3.515 8.412-11.818 8.44-11.903a.417.417 0 0 1 .524-.255c.218.071.336.3.263.511-.03.087-.754 2.184-2.192 4.76-1.336 2.388-3.56 5.64-6.583 7.563a.425.425 0 0 1-.225.066z"/>
            <path fill="#FFF" fill-rule="nonzero" d="M40.657 118.717s-.472 1.433-.89 1.284c-.418-.148-.13-.732-.13-.732s-1.037.757-1.38.246c-.344-.512-.232-1.485 1.963-1.566.801.07.437.768.437.768z"/>
            <path fill="#43D1FF" fill-rule="nonzero" d="M46.446 100.217c1.843-.013 9.162-.06 11.685.003 2.301-.073 3.626-.579 4.152 0 .526.58 3.722 10.068 3.722 10.068s.89-.29.89.29c1.312-.695 2.414-.403 1.803.848-.613 1.253 1.45 4.403-.233 4.884-1.682.48-15.461.895-17.17-.427-1.708-1.322-4.605-7.452-6.536-14.49-.11-.404.204-.697.547-.89.35-.19.742-.289 1.14-.286z"/>
            <path fill="#000" fill-rule="nonzero" d="M60.991 116.767c-.197-.122-.294-.263-.15-.418.45-.484.14-.941.14-.941l-1.086.65-.2.713c.432.002.865-.002 1.297-.004z" opacity=".08"/>
            <path fill="#0092DB" fill-rule="nonzero" d="M68.698 111.427c.611-1.252-.49-1.543-1.803-.85 0-.579-.89-.29-.89-.29s-3.194-9.488-3.721-10.067c-.526-.579-1.852-.073-4.152 0a99.368 99.368 0 0 0-.23-.005c.161.962.406 1.908.732 2.827.776 2.165 4.3 11.686 5.136 12.312.647.485 3.55 1.134 5.133.694.807-.914-.75-3.514-.205-4.622z" opacity=".12"/>
            <path fill="#000" fill-rule="nonzero" d="M66.896 110.577c0-.579-.891-.29-.891-.29s-.267-.79-.657-1.929c0 0 .433 2.158.433 2.778 0 .617.366-.65.567-.358.201.293.067.8.433.53.269-.196.924-.81 1.613-1.07-.368-.083-.913.029-1.498.34zm1.802.85a1.6 1.6 0 0 0 .166-.528c-.486.908-1.046 1.833-1.982 2.278-.053.024-.11.052-.134.105-.023.05-.007.11.015.16.212.506.796.736 1.265 1.034.44.28.809.658 1.08 1.103.21-1.135-.878-3.196-.41-4.152z" opacity=".08"/>
            <g fill="#B9ECFF" fill-rule="nonzero">
                <path d="M50.957 107.063a.348.348 0 0 1-.206-.068l-1.493-1.099a.327.327 0 0 1-.066-.465.346.346 0 0 1 .478-.066l1.493 1.099a.327.327 0 0 1 .066.466.339.339 0 0 1-.272.133z"/>
                <path d="M49.658 107.143a.342.342 0 0 1-.22-.079.329.329 0 0 1-.04-.469l1.108-1.263a.35.35 0 0 1 .48-.037c.143.119.16.328.039.469l-1.106 1.262a.344.344 0 0 1-.261.117z"/>
            </g>
            <g fill="#B9ECFF" fill-rule="nonzero">
                <path d="M56.622 106.706a.348.348 0 0 1-.206-.068l-1.493-1.098a.327.327 0 0 1-.066-.466.346.346 0 0 1 .478-.064l1.493 1.098a.327.327 0 0 1 .066.466.344.344 0 0 1-.272.133z"/>
                <path d="M55.323 106.788a.342.342 0 0 1-.22-.08.329.329 0 0 1-.038-.469l1.106-1.263a.35.35 0 0 1 .48-.038.33.33 0 0 1 .039.47l-1.106 1.263a.344.344 0 0 1-.261.117z"/>
            </g>
            <path fill="#B9ECFF" fill-rule="nonzero" d="M51.657 111.56a.38.38 0 0 1-.38-.326c-.137-1.014.128-1.994.732-2.688.5-.58 1.221-.923 1.987-.943 1.724-.053 3.334 1.451 3.593 3.356a.376.376 0 0 1-.33.42.382.382 0 0 1-.431-.321c-.206-1.51-1.425-2.707-2.739-2.707a1.928 1.928 0 0 0-1.495.68c-.463.532-.665 1.299-.556 2.104a.376.376 0 0 1-.381.424z"/>
            <path fill="#0092DB" fill-rule="nonzero" d="M54.022 114.418c-.954-.758-1.444-2.03-1.237-3.213.136-.771.542-1.5.516-2.282-.033-1.003-.772-1.849-1.555-2.501-.782-.653-1.672-1.228-2.208-2.085-.535-.858-.578-2.127.237-2.739.452-.338 1.06-.404 1.557-.674.282-.152.522-.44.609-.733-2.343.005-4.587.021-5.496.028a2.378 2.378 0 0 0-1.14.284c-.344.193-.659.486-.547.89 1.93 7.04 4.829 13.17 6.537 14.49.725.56 3.619.81 6.84.872-.946-1.176-2.872-1.353-4.113-2.337z" opacity=".12"/>
            <path fill="#000" fill-rule="nonzero" d="M54.29 116.35c.605-.178.285-.692.285-.692l-2.392.465-.033.106c.496.127 1.148.228 1.907.306.021-.077.088-.144.233-.186z" opacity=".08"/>
            <path fill="#FFF" fill-rule="nonzero" d="M58.37 119.266c-.404 0-.822-.004-1.242-.014-4.983-.101-6.02-.783-6.367-1.287-.351-.512-.277-.93-.152-1.19.529-1.109 3.016-1.426 3.51-1.477a.41.41 0 0 1 .455.358.408.408 0 0 1-.366.446c-1.033.11-2.6.498-2.847 1.014-.021.043-.078.158.089.397.666.971 6.756 1.075 10.867.84a.409.409 0 0 1 .438.38.408.408 0 0 1-.39.427c-.02.004-1.834.106-3.995.106zm9.466-1.193c-2.384 0-4.268-.084-5.627-.254-1.83-.228-2.717-.603-2.869-1.216-.186-.762.872-1.29 1.086-1.39a.42.42 0 0 1 .552.195.4.4 0 0 1-.198.538c-.286.133-.588.361-.627.474.098.159 1.15 1.11 11.915.774a.413.413 0 0 1 .428.391.41.41 0 0 1-.402.417c-1.559.047-2.98.071-4.258.071z"/>
            <path fill="#000" fill-rule="nonzero" d="M58.769 116.764c.331.005.665.007 1 .007a19.216 19.216 0 0 0 1.77-3.29c1.164-2.753 1.51-5.074 1.524-5.173a.405.405 0 0 0-.351-.456.415.415 0 0 0-.47.343c-.011.066-.733 4.781-3.473 8.57z" opacity=".08"/>
            <path fill="#FFF" fill-rule="nonzero" d="M53.981 120.586a.415.415 0 0 1-.38-.243.4.4 0 0 1 .216-.532c6.446-2.734 8.347-11.73 8.365-11.82a.417.417 0 0 1 .488-.319.407.407 0 0 1 .327.476c-.02.097-.496 2.396-1.813 5.082-1.758 3.584-4.192 6.116-7.035 7.323a.445.445 0 0 1-.168.033z"/>
            <path fill="#FFF" fill-rule="nonzero" d="M54.064 119.657s-1.465-.476-1.59-.058c-.124.417.53.535.53.535s-1.24.369-1.018.942c.22.572 1.092 1.058 2.454-.622.418-.673-.376-.797-.376-.797z"/>
            <path fill="#92E3FF" fill-rule="nonzero" d="M61.78 118.368s-.183-.2-.686.03c-.142.329-.122.856-.122.856s.437.196.58 0c.14-.196.228-.886.228-.886z"/>
            <path fill="#43D1FF" fill-rule="nonzero" d="M61.78 118.368s-.92 1.166-.63 2.15c.291.983 1.47.079 1.814-.571.362-.683.556-2.055-1.184-1.58z"/>
            <path fill="#000" fill-rule="nonzero" d="M62.916 118.399c-.337-.005-.755.198-1.09 1.026-.351.87-.349 1.364-.095 1.52.451-.067 1.01-.585 1.23-.998.249-.463.416-1.243-.045-1.548z" opacity=".08"/>
            <path fill="#92E3FF" fill-rule="nonzero" d="M72.494 117.156s-.182-.199-.684.03c-.143.33-.123.856-.123.856s.438.197.58 0c.14-.195.227-.886.227-.886z"/>
            <path fill="#43D1FF" fill-rule="nonzero" d="M72.494 117.156s-.919 1.166-.628 2.15c.29.984 1.468.08 1.813-.571.362-.684.555-2.054-1.185-1.579z"/>
            <path fill="#000" fill-rule="nonzero" d="M73.632 117.187c-.337-.005-.754.199-1.09 1.027-.35.87-.348 1.364-.094 1.519.45-.066 1.01-.584 1.23-.998.246-.464.414-1.244-.045-1.548h-.001z" opacity=".08"/>
            <path fill="url(#l)" fill-rule="nonzero" d="M3.202 67.73c-.196.718-.378 1.452-.358 2.195.013.468.128.972.488 1.282.33.287.803.356 1.242.326 1.14-.08 2.178-.76 2.845-1.665.667-.905.997-2.01 1.134-3.114.195-1.557-.018-3.26-1.064-4.451-.284-.323-.644-.61-1.073-.678-.933-.148-1.591.615-1.92 1.669-.186.584-.741 2.412-1.294 4.436z" transform="translate(31.563 12.07)"/>
            <path fill="#D2F2FF" fill-rule="nonzero" d="M154.244 53.468c.992 1.416 2.594 2.314 4.231 2.938.818.313 1.7.571 2.563.424.865-.147 1.693-.814 1.733-1.67.054-1.183-1.252-1.916-1.988-2.859-.712-.909-.91-2.106-.922-3.251-.014-1.144.136-2.293.016-3.43-.295-2.816-3.883-5.192-5.99-2.452-1.825 2.377-1.265 7.981.357 10.3zM68.365 99.295a9.293 9.293 0 0 0-.653-.927 2.603 2.603 0 0 0-.36-.377c-.055-.05-.125-.073-.103-.063.007.001.013.003.018.001.003 0-.002.004-.002.004-.005.003-.001-.004-.013.005a.205.205 0 0 1-.028.011l-.038.022a1.333 1.333 0 0 0-.334.317 2.16 2.16 0 0 0-.26.428.923.923 0 0 0-.098.396c-.011.03.073.193.173.324.203.276.47.545.748.78.275.23.587.452.864.553a.546.546 0 0 0 .18.037c.006 0 .01 0 .006-.002 0 0-.002 0-.002.002l.015-.009.03-.014c.096-.05.227-.155.345-.273.239-.244.46-.54.647-.845.09-.153.18-.31.243-.463a.843.843 0 0 0 .044-.112c.012-.036.031-.077.035-.107a.49.49 0 0 0 .025-.133c-.002.005.002.01.005.014-.002 0 .003.009-.002-.003-.008-.02-.027-.05-.045-.082a3.56 3.56 0 0 0-.14-.214 8.288 8.288 0 0 0-.339-.44c-.475-.58-1.009-1.15-1.573-1.605a3.207 3.207 0 0 0-.42-.289.987.987 0 0 0-.172-.077l-.026-.008h-.009c-.002-.002.012.002.019 0l-.002.001-.012.005c-.021-.001-.082.032-.136.055-.061.044-.122.073-.187.13l-.097.077-.096.086c-.066.055-.128.12-.192.18-.25.256-.495.54-.717.834-.108.149-.219.297-.31.448-.05.076-.09.148-.133.223-.016.034-.031.068-.05.102-.015.032-.017.05-.033.076l-.064.12a.28.28 0 0 1-.374.113.269.269 0 0 1-.147-.233c-.008-.31.07-.496.14-.704.075-.202.167-.388.266-.572.051-.091.101-.181.156-.27l.172-.261c.118-.171.246-.338.389-.498.07-.08.14-.16.222-.238l.118-.116.133-.11c.083-.075.195-.143.294-.212.125-.065.237-.131.412-.171l.062-.016a.325.325 0 0 1 .071-.012c.055-.003.12-.008.166-.003.046.005.095.011.14.02.043.009.079.018.119.03.147.045.263.103.37.163.21.12.386.251.553.386.658.541 1.197 1.133 1.711 1.767.126.16.25.324.368.498.06.086.118.18.178.28.03.054.06.109.09.178a.992.992 0 0 1 .046.136c.01.052.017.106.02.157.006.196-.032.319-.065.44-.017.065-.04.112-.06.17a4.85 4.85 0 0 1-.377.726 5.485 5.485 0 0 1-.804.998c-.166.152-.34.304-.599.429l-.106.044-.053.02-.074.018a.662.662 0 0 1-.143.018.849.849 0 0 1-.13-.002 1.396 1.396 0 0 1-.416-.1c-.463-.192-.79-.458-1.11-.74a5.485 5.485 0 0 1-.843-.952 2.275 2.275 0 0 1-.174-.301 1.305 1.305 0 0 1-.074-.189.783.783 0 0 1-.037-.243c.002-.295.094-.517.196-.721.105-.204.23-.385.378-.554.151-.169.31-.327.55-.457.032-.016.06-.032.095-.046l.113-.037c.033-.012.088-.017.133-.024.025 0 .045-.004.071-.004a.78.78 0 0 1 .093.01c.218.05.316.143.41.221.18.161.307.327.431.493.243.337.44.678.632 1.035a.258.258 0 0 1-.112.351.271.271 0 0 1-.352-.095l.001-.008zm-26.604-3.031a6.11 6.11 0 0 0 .53-.544c.077-.087.145-.18.202-.281.02-.037.034-.094.027-.068.003.017-.004-.012-.037-.039a.892.892 0 0 0-.257-.168 1.563 1.563 0 0 0-.322-.107.687.687 0 0 0-.279-.008c-.024 0-.118.074-.193.155a3.104 3.104 0 0 0-.42.58c-.116.208-.22.437-.25.628l-.004.063c-.002.021.005.03.003.044-.001.02.009.008.005.015l-.001.003.008.008c.006.005.01.011.013.018.047.055.136.123.232.181.198.116.425.218.654.296.115.035.232.071.344.091.056.013.109.018.157.021.046.003.095 0 .093-.002-.005.001-.014.01-.005.003.012-.008.03-.024.05-.039.04-.035.08-.075.124-.119a7.258 7.258 0 0 0 1.103-1.498c.055-.105.103-.212.135-.307a.564.564 0 0 0 .026-.12l.002-.018c-.002-.002-.002-.003 0-.005l.001.012c.006.007-.005-.005-.005-.007-.001-.015-.033-.049-.056-.079-.038-.032-.067-.068-.112-.1a2.763 2.763 0 0 0-.284-.198 5.777 5.777 0 0 0-.656-.34c-.114-.047-.229-.096-.342-.136a1.91 1.91 0 0 0-.296-.082l-.065-.01a.184.184 0 0 1-.159-.21.187.187 0 0 1 .144-.152c.206-.047.342-.024.49-.008a3.897 3.897 0 0 1 1.206.401c.126.07.253.14.374.236.122.097.247.196.354.396.013.028.024.04.036.082.02.063.031.13.032.197 0 .028-.004.052-.005.079-.01.088-.029.174-.058.257-.05.14-.11.275-.181.404a7.934 7.934 0 0 1-1.231 1.633 2.855 2.855 0 0 1-.161.15 1.27 1.27 0 0 1-.106.081.526.526 0 0 1-.186.083c-.13.032-.218.024-.302.02a2.003 2.003 0 0 1-.236-.034 3.598 3.598 0 0 1-1.201-.488 1.575 1.575 0 0 1-.368-.322l-.043-.061-.021-.031-.019-.042c-.021-.055-.051-.125-.05-.172-.003-.05-.011-.105-.006-.148l.015-.13c.066-.32.199-.565.342-.805.146-.239.311-.46.519-.669.051-.05.11-.103.177-.153.04-.026.065-.049.118-.075.051-.023.106-.05.155-.056.197-.04.357-.012.509.024.15.039.288.094.423.164.133.073.262.152.381.286a.497.497 0 0 1 .136.301c.002.155-.05.22-.087.297-.084.138-.176.24-.271.342-.189.194-.39.377-.603.545a.18.18 0 0 1-.251-.024.17.17 0 0 1 .014-.237l-.005-.004zM60.8 91.713c.226.194.491.382.75.508.129.064.262.112.377.128.09.018.186 0 .263-.052.181-.11.358-.362.465-.608.053-.121.093-.259.096-.35.007-.048-.016-.067.012-.019-.009-.007-.059-.06-.112-.103a5.433 5.433 0 0 0-.755-.521 4.426 4.426 0 0 0-.815-.385.975.975 0 0 0-.317-.055c-.004.006-.007.002-.012.003l-.032.02a.972.972 0 0 0-.123.106c-.18.186-.35.445-.495.704-.145.26-.269.54-.347.806-.036.127-.06.266-.053.339a.19.19 0 0 0 .003.026c0 .003-.001-.005-.005-.011-.007-.01 0-.002 0 0 .015.02.059.07.105.115.2.187.46.38.717.554.26.175.53.341.806.489.27.144.564.283.803.344a.57.57 0 0 0 .115.02c.007.001-.002 0-.01.001-.003.002-.029.007-.05.018l-.015.01.007-.005.02-.01.042-.025c.118-.073.244-.167.367-.26.126-.091.252-.187.375-.285.126-.096.25-.195.371-.295.124-.097.242-.2.36-.297l.164-.148.125-.121.073-.072a.275.275 0 0 1 .382.003.26.26 0 0 1 .065.263 1.335 1.335 0 0 1-.132.295 2.748 2.748 0 0 1-.15.23c-.101.14-.211.275-.328.403a7.307 7.307 0 0 1-.74.71 5.85 5.85 0 0 1-.431.32l-.065.041-.033.02-.018.011-.043.021a.754.754 0 0 1-.304.068 1.303 1.303 0 0 1-.375-.049c-.403-.11-.704-.27-1.017-.435a9.926 9.926 0 0 1-.882-.543 6.282 6.282 0 0 1-.833-.663c-.07-.072-.138-.14-.218-.256-.02-.034-.039-.058-.06-.107a.695.695 0 0 1-.045-.126c-.024-.08-.029-.149-.033-.213-.007-.253.044-.434.094-.617.11-.355.262-.671.437-.977.178-.306.374-.595.66-.872.074-.07.152-.137.258-.203a.992.992 0 0 1 .19-.094c.073-.025.152-.037.23-.05.279-.012.471.053.657.111.36.131.663.303.96.487.295.188.573.38.848.627.07.066.14.127.227.252.024.037.045.089.064.136.02.053.018.079.026.119.014.081.005.136.003.198a1.728 1.728 0 0 1-.179.577c-.084.17-.186.328-.308.477a1.64 1.64 0 0 1-.47.398.992.992 0 0 1-.695.102 1.894 1.894 0 0 1-.55-.213 4.073 4.073 0 0 1-.842-.653.255.255 0 0 1 0-.365.27.27 0 0 1 .362-.011l.013.01v-.001zm-19.625 12.844a3.31 3.31 0 0 0 .795-.162c.121-.042.234-.097.316-.158a.344.344 0 0 0 .087-.093.3.3 0 0 0 .038-.105c.038-.18-.02-.446-.12-.663a1.002 1.002 0 0 0-.174-.275c-.026-.033-.052-.03-.003-.018-.008.002-.075 0-.136.007-.272.03-.542.083-.806.157a3.897 3.897 0 0 0-.753.278.853.853 0 0 0-.23.166c0 .007-.004.005-.008.01l-.007.032a.984.984 0 0 0-.004.143c.014.228.08.493.162.742.085.25.193.5.323.71.063.103.139.2.192.242.011.01.021.016.02.012.001.002-.004-.003-.01-.005-.01-.001 0-.001 0 0a.787.787 0 0 0 .14.004c.246-.011.532-.056.804-.112.275-.057.55-.126.816-.209.26-.082.533-.182.718-.296a.368.368 0 0 0 .083-.06c.005-.004-.002 0-.007.007 0 .003-.013.021-.02.042l-.003.015.002-.009.005-.019.01-.04c.023-.118.038-.256.053-.39.016-.136.03-.274.04-.41.014-.139.023-.278.031-.414.012-.139.015-.276.023-.41l.002-.194-.003-.152-.001-.09a.236.236 0 0 1 .233-.239.245.245 0 0 1 .215.12c.057.098.09.183.115.262.027.081.045.157.061.235.032.151.052.303.069.452.03.302.031.597.018.9-.01.156-.028.312-.051.467l-.014.067-.007.032-.003.018-.014.04a.64.64 0 0 1-.14.233c-.098.105-.18.157-.262.207-.319.186-.609.28-.91.375a8.972 8.972 0 0 1-.897.223c-.305.059-.603.11-.947.12-.09 0-.177.002-.301-.02-.036-.007-.064-.01-.107-.027a.875.875 0 0 1-.272-.156 1.76 1.76 0 0 1-.35-.437 4.324 4.324 0 0 1-.38-.872 3.442 3.442 0 0 1-.174-.948c0-.09.002-.181.023-.288.012-.06.03-.12.053-.176.028-.062.068-.12.108-.175.161-.185.322-.265.474-.346.292-.133.596-.236.91-.307a5.73 5.73 0 0 1 .934-.15c.086-.004.167-.01.305.009.194.047.285.146.357.22.137.157.209.309.271.466a2.1 2.1 0 0 1 .128.485c.024.169.025.346-.023.539a.838.838 0 0 1-.357.5c-.159.108-.32.168-.477.217-.32.09-.622.122-.946.13a.234.234 0 0 1-.243-.223.232.232 0 0 1 .214-.235l.012-.001zm6.553-14.903c.043.175.103.355.17.52.035.082.072.16.115.23a.479.479 0 0 0 .128.141c.007 0 .012.002.015.005.003-.005 0-.005.003-.003.03-.005.063-.01.1-.02.073-.023.147-.056.222-.096.146-.08.29-.185.386-.298a.322.322 0 0 0 .077-.133c0-.003.001-.006-.001 0v.005l-.006-.006-.003-.009-.014-.019c-.009-.014-.014-.026-.028-.042a2.974 2.974 0 0 0-.365-.375 5.71 5.71 0 0 0-.429-.342 2.334 2.334 0 0 0-.44-.255c-.018-.01-.03-.008-.043-.015-.011-.003-.031-.01-.031-.008-.005.002-.005-.003-.012-.001-.008.003-.017.003-.025.003-.065.019-.13.043-.19.074a2.43 2.43 0 0 0-.427.283 2.376 2.376 0 0 0-.36.356c-.021.03-.047.061-.06.087-.008.014-.018.028-.02.036l-.007.014-.002.007c.001-.005.005-.01.005-.014.008-.04 0-.031.007-.008a.485.485 0 0 0 .028.084c.057.134.152.29.251.438a9.658 9.658 0 0 0 .674.88 4.9 4.9 0 0 0 .36.391l.014.015c.09.084.094.223.007.31a.231.231 0 0 1-.277.038 3.032 3.032 0 0 1-.505-.38 6.14 6.14 0 0 1-.812-.893 2.742 2.742 0 0 1-.328-.555 1.117 1.117 0 0 1-.061-.19.598.598 0 0 1-.002-.29l.014-.05.012-.025.026-.05a.642.642 0 0 1 .05-.089c.036-.056.072-.1.109-.15.147-.175.305-.316.473-.447.168-.13.345-.25.552-.347.105-.05.217-.093.36-.12.04-.005.08-.008.12-.01.043-.002.09.007.134.013.049.006.074.02.109.029.031.011.07.022.094.035.2.093.386.21.558.346.165.125.317.261.463.405.146.146.283.293.413.48.016.023.033.054.048.08l.023.042.024.058a.473.473 0 0 1 .02.277.78.78 0 0 1-.206.359c-.24.243-.544.413-.877.49a.996.996 0 0 1-.19.022.873.873 0 0 1-.143-.024.967.967 0 0 1-.116-.058.807.807 0 0 1-.242-.296 1.889 1.889 0 0 1-.119-.294 3.423 3.423 0 0 1-.128-.59.152.152 0 0 1 .133-.17.153.153 0 0 1 .17.114l.002.005z"/>
        </g>
    </g>
</svg>
