<svg xmlns="http://www.w3.org/2000/svg" xmlns:xlink="http://www.w3.org/1999/xlink" width="147" height="114" viewBox="0 0 147 114">
    <defs>
        <rect id="a" width="202" height="137.461" y=".147" rx="14.735"/>
        <linearGradient id="c" x1="47.313%" x2="59.131%" y1="42.94%" y2="76.276%">
            <stop offset=".261%" stop-color="#C8F1FF"/>
            <stop offset="99.58%" stop-color="#4CD3FF"/>
        </linearGradient>
        <linearGradient id="d" x1="604.594%" x2="-206.722%" y1="64.957%" y2="43.077%">
            <stop offset=".261%" stop-color="#C8F1FF"/>
            <stop offset="99.61%" stop-color="#FFF"/>
        </linearGradient>
        <linearGradient id="e" x1="2614.989%" x2="-1449.792%" y1="143.269%" y2="-4.536%">
            <stop offset=".261%" stop-color="#C8F1FF"/>
            <stop offset="99.61%" stop-color="#FFF"/>
        </linearGradient>
        <linearGradient id="f" x1="239.797%" x2="-175.582%" y1="53.931%" y2="45.328%">
            <stop offset=".261%" stop-color="#C8F1FF"/>
            <stop offset="99.61%" stop-color="#FFF"/>
        </linearGradient>
        <linearGradient id="g" x1="31.396%" x2="80.196%" y1="23.31%" y2="93.316%">
            <stop offset=".546%" stop-color="#8BC63F"/>
            <stop offset="100%" stop-color="#70A230"/>
        </linearGradient>
        <linearGradient id="h" x1="58.173%" x2="-2.428%" y1="60.151%" y2="-15.117%">
            <stop offset=".546%" stop-color="#8BC63F"/>
            <stop offset="100%" stop-color="#ABD673"/>
        </linearGradient>
        <linearGradient id="i" x1="5.422%" x2="66.877%" y1="-3.012%" y2="70.069%">
            <stop offset=".546%" stop-color="#8BC63F"/>
            <stop offset="100%" stop-color="#ABD673"/>
        </linearGradient>
        <linearGradient id="j" x1="9.858%" x2="49.119%" y1="3.707%" y2="50.397%">
            <stop offset=".546%" stop-color="#8BC63F"/>
            <stop offset="100%" stop-color="#ABD673"/>
        </linearGradient>
        <linearGradient id="k" x1="18.495%" x2="57.811%" y1="11.093%" y2="57.847%">
            <stop offset=".546%" stop-color="#8BC63F"/>
            <stop offset="100%" stop-color="#ABD673"/>
        </linearGradient>
        <linearGradient id="l" x1="100.504%" x2="-2.352%" y1="75.018%" y2="3.495%">
            <stop offset=".546%" stop-color="#8BC63F"/>
            <stop offset="100%" stop-color="#70A230"/>
        </linearGradient>
        <linearGradient id="m" x1="17.498%" x2="161.907%" y1="-54.924%" y2="310.037%">
            <stop offset=".546%" stop-color="#8BC63F"/>
            <stop offset="100%" stop-color="#70A230"/>
        </linearGradient>
        <linearGradient id="n" x1="11.925%" x2="77.432%" y1="5.936%" y2="89.454%">
            <stop offset=".261%" stop-color="#C8F1FF"/>
            <stop offset="99.58%" stop-color="#4CD3FF"/>
        </linearGradient>
        <linearGradient id="o" x1="46.496%" x2="153.843%" y1="51.594%" y2="183.499%">
            <stop offset=".261%" stop-color="#C8F1FF"/>
            <stop offset="99.58%" stop-color="#4CD3FF"/>
        </linearGradient>
        <linearGradient id="p" x1="2.156%" x2="95.782%" y1=".375%" y2="101.762%">
            <stop offset=".261%" stop-color="#C8F1FF"/>
            <stop offset="99.58%" stop-color="#4CD3FF"/>
        </linearGradient>
        <linearGradient id="q" x1="81.72%" x2="26.763%" y1="3.453%" y2="92.382%">
            <stop offset=".261%" stop-color="#C8F1FF"/>
            <stop offset="99.58%" stop-color="#4CD3FF"/>
        </linearGradient>
        <linearGradient id="r" x1="52.081%" x2="-37.097%" y1="51.86%" y2="187.009%">
            <stop offset=".261%" stop-color="#C8F1FF"/>
            <stop offset="99.58%" stop-color="#4CD3FF"/>
        </linearGradient>
        <linearGradient id="s" x1="90.47%" x2="12.515%" y1=".11%" y2="102.319%">
            <stop offset=".261%" stop-color="#C8F1FF"/>
            <stop offset="99.58%" stop-color="#4CD3FF"/>
        </linearGradient>
        <linearGradient id="t" x1="28.793%" x2="128.647%" y1="-69.412%" y2="473.675%">
            <stop offset=".261%" stop-color="#C8F1FF"/>
            <stop offset="99.58%" stop-color="#4CD3FF"/>
        </linearGradient>
        <linearGradient id="u" x1="7.618%" x2="165.39%" y1="13.735%" y2="160.907%">
            <stop offset=".261%" stop-color="#C8F1FF"/>
            <stop offset="99.58%" stop-color="#4CD3FF"/>
        </linearGradient>
        <linearGradient id="v" x1="22.016%" x2="125.506%" y1="-83.999%" y2="500.451%">
            <stop offset=".261%" stop-color="#C8F1FF"/>
            <stop offset="99.58%" stop-color="#4CD3FF"/>
        </linearGradient>
        <linearGradient id="w" x1="144.52%" x2="-222.768%" y1="-38.055%" y2="354.15%">
            <stop offset=".261%" stop-color="#C8F1FF"/>
            <stop offset="99.58%" stop-color="#4CD3FF"/>
        </linearGradient>
        <linearGradient id="x" x1="43.594%" x2="147.084%" y1="37.879%" y2="622.328%">
            <stop offset=".261%" stop-color="#C8F1FF"/>
            <stop offset="99.58%" stop-color="#4CD3FF"/>
        </linearGradient>
        <linearGradient id="y" x1="65.475%" x2="-188.642%" y1="45.081%" y2="538.292%">
            <stop offset=".261%" stop-color="#C8F1FF"/>
            <stop offset="99.58%" stop-color="#4CD3FF"/>
        </linearGradient>
        <linearGradient id="z" x1="-31.848%" x2="136.228%" y1="-82.937%" y2="177.014%">
            <stop offset=".261%" stop-color="#C8F1FF"/>
            <stop offset="99.58%" stop-color="#4CD3FF"/>
        </linearGradient>
    </defs>
    <g fill="none" fill-rule="evenodd" transform="translate(-27 -12)">
        <mask id="b" fill="#fff">
            <use xlink:href="#a"/>
        </mask>
        <g mask="url(#b)">
            <g fill-rule="nonzero" transform="translate(27.631 12.232)">
                <path fill="#D2F2FF" d="M139.008 100.137c3.1-4.942 1.698-11.363-.575-16.715-2.271-5.352-5.373-10.623-5.449-16.416-.056-4.252 1.538-8.332 2.54-12.472 1-4.139 1.336-8.78-.985-12.38-1.708-2.648-4.605-4.33-7.51-5.656a55.248 55.248 0 0 0-20.564-4.91c-7.885-.33-16.591.817-22.942-3.752-6.822-4.908-8.08-14.48-13.772-20.607C65.815 2.993 59.964.741 54.117.322 48.27-.096 42.412 1.18 36.901 3.13c-7.033 2.488-14.305 6.874-16.066 13.964-1.639 6.601 2.034 13.4 1.626 20.18-.557 9.29-8.375 16.377-12.714 24.665-4.97 9.492-5.386 20.775-3.255 31.227 1.659 8.137 9.333 13.192 9.704 13.192h111.481c4.608 0 8.887-2.335 11.293-6.165a.349.349 0 0 0 .038-.056z"/>
                <path fill="url(#c)" d="M136.836 79.857l-.076.056c-1.666 1.157-3.962 1.59-5.797.711-1.198-.573-2.078-1.617-2.863-2.67-1.882-2.527-3.467-5.311-5.828-7.42-4.876-4.356-12.171-5.032-18.72-4.118C85.893 68.878 70.48 80.976 52.66 81.74c-8.284.356-16.625-1.86-23.727-6.032-3.292-1.932-6.325-4.273-9.7-6.067C15.859 67.85 12 66.608 8.199 67.14c-.24.033-.48.075-.717.126-2.77 8.231-2.736 17.345-.99 25.902 1.659 8.136 9.333 13.191 9.704 13.191h111.481c4.608 0 8.887-2.334 11.293-6.165a.806.806 0 0 0 .035-.055c3.1-4.942 1.697-11.363-.575-16.716-.502-1.192-1.049-2.379-1.594-3.566z"/>
                <g fill="#59CBFF">
                    <path d="M145.653 106.058c.173.018.11-.18.138-.214-.292.042-.133.266-.138.214zm-1.588.185l.037-.077-.3.197.263-.12zm-1.57.023c.142.335.55-.056.82.064l.044.078.123-.27c-.33.042-.756.218-.989.128h.001zm-.802-.461c.07.134-.247.112.267.044-.027-.013-.034-.022-.048-.035-.046 0-.11 0-.219-.008v-.001z"/>
                    <path d="M141.1 106l.212-.116c-.045-.077-.232-.094-.162-.15-.218.064-.174.142-.049.266zm-.2.05l.192-.051c-.033-.03-.084-.042-.192.052zm.409-.117l-.3.103c.04.056.044.163.137-.04-.022.1.037.005.164-.063h-.001zm.063.03c.117.074.27.12.059.237.404-.047.344-.283-.06-.236zm1.044.485l.16.099.14-.112c-.07.052-.31-.094-.3.013zm-2.628-.663c-.017.074.089.19.108.284l.191-.081c-.099-.052-.286-.095-.299-.202v-.001z"/>
                    <path d="M139.939 105.976l-.298.125c.265.013.316-.047.298-.125zm.923.4l.384-.262-.457.262h.073zm-1.935-.486l.17-.167-.3.249.13-.082zm-.617.082c.096-.137-.135-.232-.031-.318-.16.026-.297.142-.421.25.131-.056.27-.044.452.068zm-.658-.023c.094-.035.194-.09.301-.155a.878.878 0 0 0-.301.155zm1.71.167c-.032-.043-.087-.155-.302-.206l.151.202c.047.004.1.004.15.004z"/>
                    <path d="M139.257 105.922l-.005-.007a8.449 8.449 0 0 1-.296-.009c.036.003.128.007.301.016zM140.291 106.058c-.156.112-.484.232-.168.404.113-.138-.068-.232.168-.404zm-.909.07l.28.046c-.006-.05-.056-.129.021-.185l-.3.138zm-.121.01l.214-.065-.162-.017-.052.081zm-1.186-.255c-.108.086-.224.094-.357.107.142.04.288.06.426.06.023-.06.082-.17-.07-.167z"/>
                    <path d="M138.174 106.049c.092.034.19.008.267-.072-.093.021-.19.034-.295.034-.009.03-.011.047.028.039v-.001zm-.884-.194c.091.043.191.078.3.112-.089-.064-.267-.163-.3-.112zm1.35.053c-.093.03-.165.077-.24.125.11-.018.21-.039.3-.07a.221.221 0 0 1-.06-.055zm-2.613.767c.02-.102.298-.199.54-.087.237-.079.082-.417-.124-.607-.007.045-.007.086-.252.147.085.057.541.133.335.225-.323.052-.265-.035-.422-.09.134.128-.412.187-.34.374l.284-.066c.003.03-.1.076-.02.104z"/>
                    <path d="M136.906 106.115l.1-.021c-.114-.035-.196-.108-.347-.254-.167.09-.203.16-.213.224l.496.026-.036.025zm.554-.12c-.079.138-.32.196-.172.348.294-.008.206-.117.383-.175-.477.035.136-.076-.208-.155.093-.023.177-.032.258-.035a2.127 2.127 0 0 1-.248-.064c.006.003.007.006.01.009h.002v.002c.02.018.028.027.003.018-.001.003-.007.003-.01.003a.175.175 0 0 1-.018.05c-.139-.03-.023-.038.022-.053.001-.006.005-.015.005-.02 0 0-.002 0-.002-.003l-.477.076c.1.02.227.014.452 0zm2.424.567c-.027-.017-.024-.034-.027-.047-.055.026-.076.043.027.047zM139.656 106.355c.035-.016.063-.059.178-.048.097.032 0 .052.005.087.068-.03.238-.077.025-.13l-.034.015c-.192-.038-.44-.17-.405-.187a.71.71 0 0 0 .231.263zm-1.111-.224l-.397.07.202.123-.01-.076c.224.033.175-.06.205-.117zm-2.116-.177l.07-.15-.302.213.232-.063zm-.48 0l.033-.13-.24.08.207.05zm-29.124.837l-.207.037c.07-.008.139-.02.207-.037zm16.358-.789c-.17-.123-.36-.31-.339-.165l.053.144a.464.464 0 0 1 .286.021zm-8.68.418c.027.014.057.03.087.042.072-.049.141-.094.201-.14-.084.035-.183.064-.288.098zm-.043.325l-.301-.093c.068.033.164.066.3.093zm-12.235.13l-.241.146c.379 0 .213-.075.24-.147zm28.348-.91a1.282 1.282 0 0 0-.366-.087c.176.082.32.205.366.087zm-23.429-.012c-.126.027-.18.054-.177.087.133-.027.205-.054.177-.087zm22.64-.047c.026.015.052.02.078.033a1.15 1.15 0 0 1 .346-.033c-.131-.064-.28-.1-.424 0zm-49.272.112c.071-.01.188-.01.3-.012-.1-.007-.2-.003-.3.012zm53.836.158c-.042.014-.072.035-.078.068a.135.135 0 0 1 .078-.068zm-.295-.26a1.743 1.743 0 0 0-.246-.041c.042.009.117.023.246.042zm-.13-.05c.068.005.122.008.17.014.027-.024.006-.039-.17-.014z"/>
                    <path d="M133.63 105.871c.107-.003.205.007.3.017-.038-.01-.052-.02-.043-.027-.052.003-.13.007-.258.01zm-39.21.788c-.012-.007-.028-.007-.043-.016-.192.064-.108.055.043.016zm25.522.202c.167-.109.263-.095.39-.072l-.13-.251-.26.323z"/>
                    <path d="M104.712 106.815l.276.071c-.334.116-.574.077-.316.175.04-.246 1.074-.024 1.113-.271l.182.051c-.052-.001-.06.012-.112.01.354.118.262-.179.718-.145.159.019.27.055.162.085l.354-.061c.104.005.079.049-.025.043l.54-.02-.003.007c.076-.038.252-.1.336-.125.139.035-.068.027-.033.056l.3-.059c.122.065-.127.126-.332.118.279.248.248-.063.851.081l-.283.032c.183.14.402.09.723.177-.076-.046-.64-.22-.316-.282a.78.78 0 0 0 .387-.021c.002.087.171.066.386.06l-.015.117c.231-.033.213-.092.349-.146.257.011.312.101.372.178.411.018-.285-.145.203-.167.344.045.585-.002.995-.073.24.04-.042.072.045.106l.213-.094c.052.002.035.032.026.045.18-.036.016-.116.297-.148.077-.127.579.188.928.042.087.033-.04.071-.015.116.479-.096.41-.07.803-.198l.336.077c-.247-.088.068-.191.344-.276-.087-.042-.161-.08-.212-.096l.439-.063c.052.02.008.06-.064.108l.08-.028c.158.043.075.11-.037.175l-.158-.07c-.109.07-.21.149-.188.217a.537.537 0 0 1 .145-.032c-.028.02-.046.037-.034.048.016.012.061-.013.134-.043l.1.13.024-.052.575.081c.412-.13.77-.324 1.424-.376-.162.094-.034.155-.045.268-.178-.119-.505.052-.844.027.177.014.137.067.093.084l.605-.109c-.014.093.128.07.286.108-.12-.182.45-.12.697-.178.015.062-.045.125-.344.11.33.138.428-.214.752-.098-.073.002-.112-.008-.141.023.17-.054.589-.012.49.042l-.073.001c.485.022 1.48.002 1.552-.154a.649.649 0 0 1-.094.217l.867-.52c-.077.132.216.45-.186.524.116.018.26.042.503-.007-.08-.018-.198-.192-.089-.204.296.148.206.08.57.206-.119-.028.014-.237.202-.23-.03.03.015.205-.053.226l.464-.203c-.115.036-.02.174.085.231-.049-.039.4.004.526-.016l-.198-.048c.526.031.519-.289 1.04-.277-.062.043-.156.26.11.285.12-.105.537-.505.999-.586l.088.06.355-.068c-.22.157-.84.49-1.177.62.196.047.054.07.349.064.104.056-.16.084-.247.088l.687.037c-.031-.123.524-.123.498-.224l-.743.126c-.031-.123.43-.347.916-.326.124.048-.093.218-.082.26.063-.042.461-.082.505-.05l-.206.064c.27.047.442-.163.767-.044.112.007.335.157.354.084-.182-.14-.217-.573-.097-.678.04.01.59.135.717.204.184.108-.278.26-.121.355.007-.034.11-.075.152-.089.117.028-.05.103.208.089.042-.125.52.01.12-.106.25-.035.266.026.56.02-.093-.08.264-.273.515-.308-.016.032.041.073.068.091.512.012.789.068 1.267.068.044.03.276.067.177.12.069-.021.133-.065.28-.066.286.108-.33.016-.111.146.019-.072.381-.1.593-.145-.065-.111-.486-.021-.697.023-.002-.154.366-.315.867-.385.398-.038.172.1.241.078.748.027.637-.269 1.257-.158.247.098.012.194.067.267-.324.035-.497-.062-.717-.06l.27.048a1.023 1.023 0 0 1-.437.028c.206.088 1.262.016 1.838.098.101-.034.279-.067.195-.107l-.182.014c-.167-.08.344-.11.112-.146.246-.056.52-.143.864-.098l.065.111c-.007-.033-.225-.066-.323-.033.144-.05.53.151.686.004l-.242-.077c.245-.057.548-.175.855-.14-.14-.11-.07.013-.288-.116.187.16-.78-.007-.48.162-.222-.15-.383-.063-.675-.19.009.036.104.07-.153.053a.353.353 0 0 1-.056.033l-.018-.003.014.005c-.012.005-.012.007.005.001.062.017.111.035.131.056-.127.085-.534.082-.672.127-.152-.019.063-.042-.02-.082l-.205.066c-.02-.082-.404-.137-.046-.185l-.322-.003a1.577 1.577 0 0 0-.612-.03c-.151-.018-.383.091-.251.026l-.506.052-.005-.02c-.5-.01-1.027.136-1.598-.012-.168.02-.342.047-.621.024l-.055-.072c-.216.025-.647-.072-.74.004-.234-.191-1.046-.043-1.426-.076l-.014.094a6.2 6.2 0 0 0-.834.058l.02.081c-.28.067-.718-.058-1.16-.05.031-.031.142-.023.222-.004-.528-.185-1.114.134-1.592 0a.546.546 0 0 1-.29-.002.07.07 0 0 0 .029-.005c-.012-.002-.03-.002-.049-.002-.053-.013-.107-.03-.166-.043.045.02.092.034.14.043a2.982 2.982 0 0 0-.368.032l-.058-.089-.032.004c-.135-.033-.107.042-.036.108a1.01 1.01 0 0 0-.18.053c-.11-.14-.36.048-.508-.103-.092.073-.687.055-.76.21-.006-.02-.045-.029.028-.03-.154-.019-.305-.035-.441.008l-.065-.112-.332.15c-.203-.068-.286-.108-.085-.193-.485.133-.393.05-.805.181l.02-.07c-.149.002-.384.099-.472.038-.33-.137-1.631-.018-2.478-.145.163.212-.393-.095-.428.07-.049-.05-.166-.079-.03-.124-.433.05-.649-.079-.947.06-.049-.05.092-.073.048-.103-.035.012-.138.043-.183.014-.044-.03.064-.042.132-.065-.442.008-.486.162-.518.308-.223-.067-.335-.059-.497.037-.079-.048-.208-.098.066-.115-.155-.006-.942-.07-.958.047-.048-.03-.217-.008-.256.005-.346-.007-.376-.018-.717-.007l.094.018c-.135.142-.283.032-.557.05l.008-.016c-.628-.102-.27.048-.89-.067l.034.089c-.058.187-.549-.112-.91-.039l.13.05c-.197.065-.549-.255-.746-.28-.043-.015.068-.025.127-.037-.515-.111-.066.114-.45.141-.072-.061.09-.158-.168-.169-.13-.05-.75.2-1.105.081.078.048.155.095-.024.132-.273.016-.74-.18-.987-.03-.035-.014-.048-.025-.05-.037-.21.038-.681.064-.808.146-.193-.302-1.302.146-1.297-.131l-.644.015.018-.028c-.413-.019-.557.048-.702.114-.096-.018-.026-.045-.017-.06-.602-.056-.663-.044-1.167.095l-.052-.09c-.137.053-.87-.141-1.462-.036.005-.01.019-.028.065-.04-.664.106-1.59-.25-1.833.078l-.437.081c.566.026-.085.143.148.198-.223.02-.575-.1-.303-.116l.042.017c.1-.172-.705-.062-.69-.179-1.115.009-2.203-.086-3.247-.092l.12.133-.364-.009c-.095-.032-.127-.105.132-.098-.137-.076-.437.063-.444.093-.509-.055.2-.156.043-.16l-.212.01.047.015c-.172.056-.187.113-.499.107-.197-.027-.102-.083-.179-.088 0-.01-.025-.014-.12-.003l-.459-.012.184.105c-.204.051-.433-.005-.22.112-.311-.183-1.713-.066-1.904-.122-.284.077-.566.075-.914.066.087.021.138.14-.162.126.11-.244-.55-.106-.793-.282.217.116-.855.028-.515.194-.25-.02-.015-.091-.206-.15-.597.095-1.316-.06-2.053-.029-.012.032.112.082-.047.13l-.39-.162c-.146.015-.134.184-.4.074.038.026.094.068-.003.077-1.446-.155-2.955.128-4.423-.166.2.062.067.068-.085.072.098.015-.002.08.017.123l-.615-.122c-.112.122-.66.009-.724.124l.194-.02c-.259.135.363.302.324.476.29-.154.765.23 1.24.009.105.035-.09.056-.034.096.12-.075.265-.09.536-.056l-.03.017c.757-.018 1.083.056 1.934.105l-.063-.086c.182.011.222.038.307.06.21-.131-.515-.007-.322-.152.244.176 1.29.004 1.454.204.28.001-.082-.1.2-.099l.075.055.071-.07c.184.012.278.08.284.125-.044-.005-.128.013-.175.016.24.063.675-.021.757-.001l-.27-.033c.768-.05 1.707.02 2.449-.09l-.056-.042c.567-.075.454.045 1.076.01l-.022.01a1.42 1.42 0 0 1 .461-.056c-.156.048.297.093.09.146.615-.081.305-.063.71-.215l.095.069c.137-.062.15-.093.461-.112-.255.059.197.104-.087.18.652.147.97-.15 1.267.066.3-.187-.563-.105-.396-.145-.14-.06.247-.14.45-.12.208.005.355.238.88.236-.053-.003-.057.013-.108.013.197.048.385-.065.625.013.135-.113.312.007.35-.138l-.479.033c.272-.038.527-.206.977-.124-.035.03-.168.068-.26.087.131.044.252-.028.388.016-.039.144-.584.031-.877.14.142.063.552-.104.405.052.212-.2.517.025.872-.126l-.024.086c.056-.013.172-.055.276-.051l-.187.113c.287-.096.554.083.83.031-.578.004-.13-.105-.374-.168.712-.116.41.227 1.207.185-.108.011-.406-.052-.237-.09.151.017.352.05.444.095.528-.018-.082-.09.143-.143.18.105.26-.043.49-.076l.002.088c.601.056.16-.182.701-.115l-.227.121.282-.031-.057.1c.306-.075.403-.055.702-.027-.07-.061.04-.16.307-.163.182.052-.102.083.276.071-.085.055-.179.125-.342.044-.017.028-.084.055-.102.083.196.06.492.014.628.014a.676.676 0 0 1-.148-.021l.549-.12c.086.032.016.059-.05.085.11-.01.187-.05.351-.058-.043.072-.033.145-.263.18l.521-.08c.035.031.268.084.2.111.29.042.71-.14 1.093-.083a.352.352 0 0 1 .142-.037c.36.017.68.106 1.106.007l.242.128c.334-.03-.329-.161.228-.209.396-.042.148.11.287.144.196-.065.536-.196.899-.09-.123.019-.216 0-.329.01zm4.127-.059c-.08.019-.24.075-.298.023.09-.1.161-.05.298-.023zm6.272-.21c-.06.03-.152.014-.256-.018a.713.713 0 0 1 .256.018zm17.471-.613c-.003.001-.005.001-.008.005-.178-.035-.115-.021.008-.005zm.372.038c.037-.011.034-.025.018-.037-.025.022-.109.023-.204.019.027.023.075.038.185.018zm-39.77.035l.072.023c-.163.025-.118.002-.072-.023z"/>
                    <path d="M114.44 106.704a.145.145 0 0 1-.06-.087c-.054.03-.056.06.06.087zm12.888.05a.752.752 0 0 1-.258-.082c-.006.039.054.072.258.081zm7.651-.933l-.3.042c.145-.008.196.028.27.052-.007-.036-.063-.09.03-.094zm2.044.589c.056-.018.12-.004.176-.021l-.016-.076c-.241.006-.412.067-.16.097zm-1.888-.269c.018.136.167.088.334.063-.01 0-.019.004-.03 0 .048-.186-.127-.123-.304-.063zm.373.024c.09-.007.18-.008.27-.003.033-.076-.11-.015-.27.003zm-2.059-.169c.091.033.058-.172.109-.118.101-.172-.613.208-.109.118zm1.938.436l-.105-.165-.166.132.271.033zm-1.429-.128l.266.045c-.003-.027.029-.045.072-.057-.166-.006-.344-.04-.338.012zm.336-.007c.12.003.235 0 .3-.027-.063.003-.204.006-.3.027zm.648.11l-.089-.035-.212-.013.3.049zm-3.838-.134l-.29.05c-.029.055.05.089.157.068.07-.04.178-.063.133-.118zm.98.308c-.139-.033-.148-.072-.226-.126l-.015.205.24-.079zm-.95-.03c-.028.057-.42.163-.052.15.029-.057.318-.105.052-.15zm-4.366-.03l.132-.002-.02-.299-.112.301zm-3.847.446c.344.082.082-.207.392-.108.08-.078-.254-.082-.17-.15-.208.084-.317.035-.222.26v-.002z"/>
                    <path d="M123.14 106.731c.058-.012.12-.03.187-.051a.873.873 0 0 0-.186.051zm-43.357-.788l-.302-.07.195.115.107-.045zm-.389.202l-.085-.214-.215.193c.082-.009.237-.028.3.021zm30.16.904l.026-.05c-.054-.058-.135-.061-.3-.07l.273.12zm-3.064-.056l.093.003-.171-.193.078.19zm-2.546.099c.102.009.223-.037.327-.028-.224.037-.356-.214-.327.028z"/>
                </g>
                <g fill="#59CBFF">
                    <path d="M68.937 106.058c.169.018.11-.18.136-.214-.286.042-.13.266-.136.214zm-1.544.185l.038-.077-.302.197.264-.12zm-1.54.023c.14.335.538-.056.801.064l.045.078.12-.27c-.325.042-.742.218-.966.128zm-.782-.461c.072.134-.248.112.268.044a.215.215 0 0 1-.05-.035c-.044 0-.109 0-.218-.008v-.001z"/>
                    <path d="M64.49 106l.206-.116c-.042-.077-.226-.094-.158-.15-.21.064-.167.142-.048.266zm-.194.05l.19-.051c-.034-.03-.084-.042-.19.052zm.406-.117l-.3.103c.038.056.042.163.138-.04-.023.1.035.005.162-.063zm.054.03c.115.074.263.12.058.237.395-.047.337-.283-.058-.236zm1.02.485l.162.099.138-.112c-.069.052-.309-.094-.3.013zm-2.566-.663c-.018.074.088.19.107.284l.192-.081c-.1-.052-.287-.095-.3-.202v-.001z"/>
                    <path d="M63.364 105.976l-.298.125c.265.013.314-.047.298-.125zm.894.4l.375-.262-.446.262h.071zm-1.886-.486l.17-.167-.302.249.132-.082zm-.607.082c.095-.137-.131-.232-.03-.318-.157.026-.29.142-.41.25.127-.056.263-.044.44.068zm-.642-.023c.103-.042.203-.094.301-.155a.857.857 0 0 0-.3.155zm1.679.167c-.028-.043-.086-.155-.301-.206l.15.202c.045.004.096.004.15.004z"/>
                    <path d="M62.697 105.922l-.005-.007a8.228 8.228 0 0 1-.294-.009c.035.003.127.007.3.016zM63.707 106.058c-.156.112-.484.232-.168.404.114-.138-.068-.232.168-.404zm-.894.07l.28.046c-.005-.05-.055-.129.02-.185l-.3.138zm-.118.01l.208-.065-.157-.017-.051.081zm-1.158-.255c-.104.086-.217.094-.347.107.137.04.28.06.417.06.018-.06.078-.17-.07-.167z"/>
                    <path d="M61.635 106.049c.091.034.19.008.266-.072-.093.021-.19.034-.295.034-.01.03-.012.047.029.039v-.001zm-.866-.194c.091.043.193.078.3.112-.09-.064-.27-.163-.3-.112zm1.326.053c-.092.03-.167.077-.24.125.11-.018.213-.039.3-.07a.215.215 0 0 1-.06-.055zm-2.559.767c.019-.102.291-.199.526-.087.231-.079.08-.417-.122-.607-.007.045-.007.086-.245.147.083.057.53.133.328.225-.317.052-.26-.035-.412-.09.131.128-.402.187-.334.374l.278-.066c.005.03-.095.076-.019.104z"/>
                    <path d="M60.394 106.115l.099-.021c-.113-.035-.192-.108-.34-.254-.163.09-.196.16-.207.224l.484.026-.036.025zm.54-.12c-.077.138-.313.196-.168.348.288-.008.202-.117.374-.175-.465.035.133-.076-.203-.155.083-.021.167-.033.25-.035a1.93 1.93 0 0 1-.24-.064l.01.009h.003v.002c.02.018.027.027.003.018-.002.003-.007.003-.01.003 0 .015-.01.032-.018.05-.135-.03-.021-.038.02-.053.001-.006.005-.015.005-.02 0 0-.002 0-.002-.003l-.467.076c.1.02.225.014.444 0zm2.37.567c-.025-.017-.025-.034-.028-.047-.054.026-.072.043.027.047zM63.08 106.355c.034-.016.061-.059.172-.048.095.032 0 .052.005.087.066-.03.231-.077.024-.13l-.033.015c-.187-.038-.429-.17-.394-.187.054.1.102.168.226.263zm-1.086-.224l-.389.07.198.123-.01-.076c.221.033.173-.06.2-.117zm-2.061-.177l.07-.15-.3.213.23-.063zm-.475 0l.033-.13-.234.08.201.05zm-28.447.837l-.202.037c.096-.013.157-.025.202-.037zm15.979-.789c-.165-.123-.351-.31-.332-.165l.051.144a.446.446 0 0 1 .28.021zm-8.48.418c.028.014.058.03.087.042.073-.049.14-.094.199-.14-.087.035-.183.064-.286.098zm-.035.325l-.3-.093c.068.033.163.066.3.093zm-11.958.13l-.235.146c.367 0 .208-.075.235-.147zm27.692-.91a1.223 1.223 0 0 0-.358-.087c.172.082.312.205.358.087zm-22.886-.012c-.123.027-.174.054-.172.087.127-.027.197-.054.172-.087zm22.114-.047c.026.015.05.02.075.033.106-.024.21-.042.34-.033-.128-.064-.274-.1-.415 0zm-48.129.112c.074-.01.189-.01.301-.012a1.412 1.412 0 0 0-.3.012zm52.588.158c-.04.014-.069.035-.075.068a.122.122 0 0 1 .075-.068zm-.287-.26c-.08-.019-.16-.033-.241-.041.04.009.112.023.24.042zm-.127-.05c.066.005.117.008.166.014.024-.024.003-.039-.166-.014z"/>
                    <path d="M57.194 105.871c.107-.003.203.007.302.017-.036-.01-.05-.02-.042-.027a8.08 8.08 0 0 1-.26.01zm-38.3.788c-.012-.007-.027-.007-.04-.016-.191.064-.107.055.04.016zm24.93.202a.425.425 0 0 1 .38-.072l-.128-.251-.253.323h.001z"/>
                    <path d="M28.948 106.815l.27.071c-.326.116-.561.077-.31.175.038-.246 1.05-.024 1.088-.271l.176.051c-.05-.001-.06.012-.108.01.345.118.256-.179.701-.145.155.019.264.055.159.085l.345-.061c.1.005.077.049-.024.043l.529-.02-.004.007c.075-.038.246-.1.328-.125.135.035-.066.027-.032.056l.293-.059c.12.065-.122.126-.325.118.273.248.242-.063.831.081l-.276.032c.177.14.393.09.705.177-.073-.046-.625-.22-.306-.282a.747.747 0 0 0 .378-.021c.001.087.168.066.378.06l-.014.117c.226-.033.208-.092.34-.146.253.011.306.101.363.178.404.018-.279-.145.2-.167.335.045.57-.002.972-.073.235.04-.041.072.042.106l.209-.094c.05.002.033.032.025.045.175-.036.014-.116.29-.148.075-.127.565.188.907.042.084.033-.04.071-.015.116.468-.096.402-.07.785-.198l.327.077c-.24-.088.066-.191.335-.276-.084-.042-.158-.08-.207-.096l.43-.063c.05.02.008.06-.063.108l.079-.028c.154.043.073.11-.036.175l-.155-.07c-.105.07-.206.149-.184.217a.507.507 0 0 1 .141-.032c-.027.02-.045.037-.032.048.016.012.06-.013.13-.043l.097.13.023-.052.562.081c.402-.13.754-.324 1.39-.376-.158.094-.034.155-.042.268-.174-.119-.494.052-.827.027.173.014.135.067.092.084l.589-.109c-.014.093.125.07.278.108-.115-.182.44-.12.68-.178.015.062-.043.125-.336.11.324.138.418-.214.734-.098-.071.002-.11-.008-.137.023.167-.054.575-.012.478.042l-.071.001c.474.022 1.445.002 1.515-.154a.705.705 0 0 1-.09.217l.846-.52c-.075.132.212.45-.182.524.112.018.254.042.491-.007-.077-.018-.193-.192-.087-.204.289.148.2.08.557.206-.116-.028.014-.237.196-.23-.03.03.015.205-.052.226l.455-.203c-.114.036-.02.174.082.231-.048-.039.393.004.514-.016l-.192-.048c.512.031.507-.289 1.017-.277-.062.043-.152.26.107.285.119-.105.526-.505.976-.586l.086.06.346-.068c-.215.157-.82.49-1.15.62.193.047.054.07.341.064.103.056-.156.084-.242.088l.67.037c-.029-.123.512-.123.487-.224l-.727.126c-.03-.123.42-.347.895-.326.122.048-.09.218-.08.26.062-.042.452-.082.494-.05l-.2.064c.263.047.43-.163.748-.044.11.007.327.157.346.084-.179-.14-.212-.573-.095-.678.04.01.575.135.7.204.18.108-.27.26-.118.355.007-.034.106-.075.149-.089.115.028-.048.103.202.089.043-.125.51.01.118-.106.245-.035.26.026.547.02-.093-.08.256-.273.502-.308-.014.032.04.073.066.091.5.012.772.068 1.238.068.043.03.27.067.172.12.067-.021.13-.065.273-.066.28.108-.323.016-.11.146.02-.072.374-.1.58-.145-.063-.111-.475-.021-.68.023-.002-.154.357-.315.847-.385.388-.038.168.1.235.078.729.027.621-.269 1.227-.158.241.098.01.194.066.267-.317.035-.486-.062-.7-.06l.263.048a.979.979 0 0 1-.428.028c.202.088 1.234.016 1.796.098.1-.034.272-.067.19-.107l-.178.014c-.163-.08.335-.11.109-.146.238-.056.507-.143.843-.098l.063.111c-.007-.033-.22-.066-.316-.033.14-.05.516.151.67.004l-.235-.077c.24-.057.537-.175.835-.14-.137-.11-.069.013-.281-.116.183.16-.764-.007-.469.162-.217-.15-.376-.063-.66-.19.008.036.1.07-.15.053a.333.333 0 0 1-.055.033l-.017-.003.014.005c-.01.005-.012.007.005.001.06.017.107.035.127.056-.124.085-.522.082-.657.127-.148-.019.061-.042-.019-.082l-.2.066c-.022-.082-.395-.137-.045-.185l-.315-.003a1.506 1.506 0 0 0-.598-.03c-.148-.018-.374.091-.245.026l-.493.052-.006-.02c-.487-.01-1.003.136-1.56-.012-.163.02-.334.047-.608.024l-.053-.072c-.21.025-.63-.072-.722.004-.226-.191-1.021-.043-1.393-.076l-.014.094a5.916 5.916 0 0 0-.815.058l.019.081c-.273.067-.702-.058-1.133-.05.029-.031.138-.023.216-.004-.515-.185-1.088.134-1.555 0a.521.521 0 0 1-.283-.002c.011 0 .022-.002.03-.005-.012-.002-.03-.002-.048-.002-.051-.013-.104-.03-.162-.043.044.019.09.034.136.043-.12.003-.24.014-.359.032l-.056-.089-.03.004c-.132-.033-.106.042-.036.108a.968.968 0 0 0-.177.053c-.108-.14-.351.048-.496-.103-.09.073-.671.055-.743.21-.005-.02-.044-.029.03-.03-.15-.019-.299-.035-.432.008l-.063-.112-.325.15c-.198-.068-.279-.108-.084-.193-.473.133-.384.05-.786.181l.02-.07c-.144.002-.374.099-.461.038-.322-.137-1.595-.018-2.42-.145.16.212-.385-.095-.417.07-.048-.05-.164-.079-.03-.124-.421.05-.633-.079-.924.06-.048-.05.09-.073.047-.103-.033.012-.134.043-.178.014-.043-.03.061-.042.13-.065-.431.008-.476.162-.506.308-.219-.067-.328-.059-.486.037-.077-.048-.203-.098.065-.115-.15-.006-.92-.07-.935.047-.048-.03-.211-.008-.25.005-.34-.007-.368-.018-.7-.007l.091.018c-.13.142-.275.032-.543.05l.007-.016c-.613-.102-.266.048-.87-.067l.032.089c-.056.187-.536-.112-.887-.039l.126.05c-.193.065-.536-.255-.73-.28-.041-.015.067-.025.125-.037-.504-.111-.065.114-.44.141-.07-.061.088-.158-.165-.169-.126-.05-.733.2-1.08.081.078.048.152.095-.023.132-.267.016-.724-.18-.966-.03-.033-.014-.047-.025-.047-.037-.205.038-.665.064-.789.146-.19-.302-1.272.146-1.267-.131l-.63.015.017-.028c-.401-.019-.545.048-.686.114-.094-.018-.025-.045-.017-.06-.588-.056-.647-.044-1.14.095l-.05-.09c-.134.053-.85-.141-1.428-.036.005-.01.017-.028.064-.04-.65.106-1.554-.25-1.79.078l-.428.081c.554.026-.082.143.145.198-.218.02-.564-.1-.295-.116l.042.017c.1-.172-.687-.062-.672-.179-1.09.009-2.153-.086-3.173-.092l.118.133-.356-.009c-.094-.032-.126-.105.129-.098-.133-.076-.426.063-.432.093-.498-.055.194-.156.042-.16l-.208.01.047.015c-.169.056-.183.113-.49.107-.192-.027-.098-.083-.175-.088 0-.01-.025-.014-.115-.003l-.448-.012.178.105c-.199.051-.422-.005-.214.112-.303-.183-1.674-.066-1.86-.122-.28.077-.554.075-.894.066.085.021.135.14-.158.126.107-.244-.538-.106-.775-.282.213.116-.835.028-.503.194-.245-.02-.015-.091-.2-.15-.584.095-1.287-.06-2.007-.029-.012.032.11.082-.045.13l-.382-.162c-.143.015-.131.184-.392.074.038.026.092.068-.004.077-1.41-.155-2.886.128-4.32-.166.194.062.065.068-.084.072.098.015-.001.08.018.123l-.601-.122c-.11.122-.644.009-.707.124l.19-.02c-.253.135.355.302.317.476.283-.154.746.23 1.211.009.103.035-.087.056-.032.096.117-.075.26-.09.522-.056l-.028.017c.74-.018 1.057.056 1.89.105l-.061-.086c.179.011.216.038.3.06.204-.131-.503-.007-.316-.152.237.176 1.26.004 1.42.204.274.001-.08-.1.195-.099l.073.055.07-.07c.18.012.271.08.277.125-.044-.005-.124.013-.172.016.234.063.66-.021.74-.001l-.265-.033c.751-.05 1.668.02 2.392-.09l-.055-.042c.554-.075.443.045 1.051.01l-.022.01c.12-.04.284-.062.451-.056-.153.048.29.093.087.146.601-.081.296-.063.693-.215l.092.069c.135-.062.147-.093.45-.112-.25.059.194.104-.085.18.637.147.945-.15 1.238.066.292-.187-.552-.105-.389-.145-.137-.06.242-.14.442-.12.203.005.345.238.858.236-.051-.003-.055.013-.105.013.19.048.373-.065.61.013.13-.113.304.007.341-.138l-.47.033c.266-.038.516-.206.954-.124a.889.889 0 0 1-.254.087c.127.044.247-.028.38.016-.038.144-.571.031-.856.14.137.063.54-.104.396.052.206-.2.504.025.851-.126l-.021.086c.054-.013.168-.055.268-.051l-.182.113c.281-.096.542.083.81.031-.563.004-.126-.105-.364-.168.695-.116.4.227 1.178.185-.105.011-.394-.052-.231-.09.148.017.344.05.435.095.516-.018-.079-.09.14-.143.175.105.253-.043.478-.076l.002.088c.587.056.154-.182.684-.115l-.223.121.276-.031-.056.1c.3-.075.392-.055.687-.027-.067-.061.04-.16.299-.163.177.052-.099.083.268.071-.083.055-.175.125-.335.044-.017.028-.081.055-.098.083.19.06.48.014.614.014a.657.657 0 0 1-.145-.021l.535-.12c.084.032.017.059-.049.085.109-.01.184-.05.342-.058-.04.072-.03.145-.257.18l.51-.08c.033.031.262.084.195.111.283.042.693-.14 1.068-.083a.33.33 0 0 1 .138-.037c.353.017.664.106 1.081.007l.237.128c.327-.03-.32-.161.223-.209.385-.042.143.11.28.144.19-.065.524-.196.878-.09-.102.019-.194 0-.303.01zm4.03-.059c-.079.019-.234.075-.292.023.09-.1.159-.05.291-.023zm6.127-.21c-.058.03-.148.014-.249-.018a.694.694 0 0 1 .249.018zm17.066-.613c-.004.001-.005.001-.009.005-.174-.035-.112-.021.009-.005zm.362.038c.036-.011.035-.025.02-.037-.026.022-.108.023-.2.019.025.023.072.038.18.018zm-38.847.035l.07.023c-.159.025-.113.002-.07-.023z"/>
                    <path d="M38.452 106.704a.145.145 0 0 1-.06-.087c-.055.03-.055.06.06.087zm12.587.05a.732.732 0 0 1-.253-.082c-.006.039.054.072.253.081zm7.48-.933l-.3.042c.145-.008.195.028.27.052-.006-.036-.063-.09.03-.094zm1.992.589c.057-.018.12-.004.177-.021l-.014-.076c-.244.006-.413.067-.163.097zm-1.847-.269c.02.136.164.088.326.063-.01 0-.02.004-.03 0 .05-.186-.124-.123-.296-.063zm.365.024c.087-.006.177-.01.264-.003.033-.076-.108-.015-.265.003zm-2.008-.169c.091.033.057-.172.11-.118.102-.172-.612.208-.11.118zm1.888.436l-.102-.165-.16.132.262.033zm-1.395-.128l.26.045c-.004-.027.028-.045.07-.057-.161-.006-.336-.04-.33.012zm.33-.007c.119.003.231 0 .3-.027-.066.003-.206.006-.3.027zm.639.11l-.089-.035-.212-.013.3.049zm-3.754-.134l-.285.05c-.029.055.048.089.154.068.069-.04.173-.063.13-.118zm.954.308c-.135-.033-.144-.072-.22-.126l-.014.205.234-.079zm-.926-.03c-.028.057-.41.163-.052.15.028-.057.311-.105.052-.15zm-4.265-.03l.129-.002-.019-.299-.11.301zm-3.76.446c.336.082.08-.207.384-.108.078-.078-.247-.082-.167-.15-.203.084-.309.035-.216.26v-.002z"/>
                    <path d="M46.949 106.731c.062-.014.123-.031.184-.051a.793.793 0 0 0-.184.051zm-42.346-.788l-.301-.07.194.115.107-.045zm-.379.202l-.084-.214-.216.193c.082-.009.238-.028.3.021zm29.457.904l.028-.05c-.055-.058-.135-.061-.3-.07l.272.12zm-2.997-.056l.09.003-.165-.193.075.19zm-2.487.099c.1.009.218-.037.319-.028-.218.037-.346-.214-.319.028z"/>
                </g>
                <ellipse cx="25.622" cy="109.697" fill="url(#d)" rx="12.662" ry="1.216"/>
                <ellipse cx="36.453" cy="112.456" fill="url(#e)" rx="2.527" ry="1"/>
                <ellipse cx="75.512" cy="110.305" fill="url(#f)" rx="24.731" ry="1.824"/>
                <g transform="translate(22.054 7.224)">
                    <ellipse cx="56.85" cy="51.225" fill="url(#g)" rx="52.486" ry="51.178"/>
                    <ellipse cx="52.618" cy="51.225" fill="url(#h)" rx="52.486" ry="51.178"/>
                    <ellipse cx="52.618" cy="51.225" fill="url(#i)" rx="43.722" ry="42.633"/>
                    <path fill="url(#j)" d="M83.275 20.83c7.76 7.694 12.55 18.247 12.55 29.893 0 23.546-19.574 42.633-43.72 42.633-11.944 0-22.765-4.672-30.657-12.24 7.931 7.864 18.967 12.742 31.17 12.742 24.148 0 43.722-19.086 43.722-42.632 0-11.901-5.002-22.662-13.066-30.395z" opacity=".644" style="mix-blend-mode:soft-light"/>
                    <path fill="url(#k)" d="M9.576 51.887c0-23.545 19.574-42.632 43.722-42.632 11.9 0 22.688 4.637 30.573 12.158-7.939-7.911-19.007-12.822-31.253-12.822-24.147 0-43.722 19.087-43.722 42.632 0 11.941 5.038 22.734 13.151 30.473-7.713-7.685-12.47-18.205-12.47-29.809z" opacity=".241" style="mix-blend-mode:multiply"/>
                    <path fill="url(#l)" d="M49.052 71.5c-2.525 0-4.987-.931-6.85-2.615L27.415 55.539a4.03 4.03 0 0 1-.23-5.796c1.578-1.662 4.238-1.762 5.943-.224l14.785 13.346c.466.42.99.447 1.262.427.461-.033.887-.256 1.177-.616L74.587 32.52c1.432-1.783 4.075-2.095 5.905-.698 1.829 1.395 2.15 3.975.717 5.757L56.974 67.734c-1.733 2.156-4.33 3.516-7.13 3.733a9.033 9.033 0 0 1-.792.033z"/>
                    <path fill="#FFF" d="M47.584 71.5c-2.525 0-4.987-.931-6.85-2.615L25.947 55.539a4.03 4.03 0 0 1-.23-5.796c1.578-1.662 4.238-1.762 5.943-.224l14.785 13.346c.466.42.99.447 1.262.427.461-.033.887-.256 1.177-.616L73.12 32.52c1.432-1.783 4.075-2.095 5.905-.698 1.829 1.395 2.15 3.975.717 5.757L55.507 67.734c-1.733 2.156-4.33 3.516-7.13 3.733a9.09 9.09 0 0 1-.793.033z"/>
                </g>
                <path fill="url(#m)" d="M45.955 68.222c.356-.327.758-.816.607-1.268-.138-.413-.63-.427-1.025-.337.398-.42.298-1.212-.109-1.523-.405-.31-.986-.223-1.463.05.266-.18.314-.648.13-.892-.185-.244-.525-.273-.807-.143-.283.13-.514.392-.709.673.072-.485-.208-.965-.613-1.047-.404-.081-.874.25-1.024.72-.044-.434-.381-.77-.76-.758-.382.012-.765.369-.866.807.138-.594-.806-.679-1.158-.26-.197.235.066.688.066.688-.167.092-.603-.05-.808-.01-.164.029-.346.097-.435.268-.178.346.177.663.479.79-.393.01-.778.106-1.13.28-.349.172-.725.523-.694.94.023.246.19.456.425.534.215.075.453.053.685.03-.736.367-1.306 1.224-1.416 2.122-.018.141-.018.302.074.384.062.053.145.056.224.056l.788.007c-.513.435-.743 1.335-.402 1.875.34.54 1.241.43 1.502-.234-.172.418-.096.919.151 1.229.207.26.513.392.832.401-1.77 3.624-4.282 6.42-6.174 8.193l.046-.317c.01-.071.024-.144.034-.216.03-.195.063-.391.095-.59l.054-.305c.03-.175.06-.352.093-.53.02-.112.04-.225.063-.337.032-.176.067-.351.102-.53.022-.117.046-.235.07-.354.038-.182.075-.368.114-.551l.075-.351.136-.616.07-.308c.068-.3.14-.602.215-.91l.01-.044a.624.624 0 0 0 .017-.138.694.694 0 0 0-.087-.374c-.085-.174-.225-.308-.385-.33l-.026-.002a.715.715 0 0 0-.171-.031l-.905-.058.652-2.144a.393.393 0 0 0-.296-.51l-2.273-.475c.66-.073 1.372-.244 1.607-.636.097-.16.162-.418-.071-.746a.967.967 0 0 0-.261-.255c-.814-.54-1.941.526-2.406 1.032a.43.43 0 0 0-.274-.18.502.502 0 0 0-.33.044c-.11-.642-.462-1.999-1.473-1.871-.06.008-.122.021-.183.04l.009-.044.012-.058a.34.34 0 0 0-.092-.277l-.043-.036-.179-.153.032.018s.242-.471.327-.936c.084-.457.038-1.057.038-1.057l-1.148.359c.182-.197.393-.447.526-.691.253-.462-.524-.13-.647-.074a49.946 49.946 0 0 0 6.414 19.61l.003-.042.03-.425.02-.256c.011-.136.021-.273.035-.415l.026-.276.042-.427.031-.28c.017-.153.035-.309.055-.465l.01-.084c2.149-1.866 5.567-5.37 7.674-10.239.202.34.492.599.855.623.504.034 1.07-.617.89-1.149.26.26.559.462.885.598.382.16.847.215 1.215-.068.336-.26.467-.878.216-1.154.416.326 1.05.322 1.453-.113.431-.465.4-1.398-.107-1.613.417-.034.862-.08 1.217-.373.356-.294.552-.93.28-1.263-.182-.217-.487-.225-.762-.222h.001zm-19.669 2.772c.022-.114.044-.227.067-.337.187.178.417.342.648.486l-.715-.15zm.231-1.091c.003-.029.064-.076.155-.12a.697.697 0 0 1 .19-.06c.414-.053.684.587.823 1.16-.674-.369-1.179-.784-1.167-.98zm4.45.692a.537.537 0 0 1 .133.135c.054.075.035.174-.026.244-.137.16-.718.258-1.536.3.466-.45 1.094-.9 1.428-.679z"/>
                <path fill="#FFF" d="M16.398 82.012a.483.483 0 0 1-.28-.09c-.267-.19-6.535-4.772-8.877-12.682a.46.46 0 0 1 .326-.573.475.475 0 0 1 .587.317c2.25 7.598 8.466 12.148 8.53 12.194a.456.456 0 0 1 .1.648.488.488 0 0 1-.386.186z"/>
                <path fill="#89C340" d="M19.969 70.52l.507-4.695a.368.368 0 0 1 .17-.243l1.926-.923.642.066 1.616 1.282c.078.07.121.172.118.278l-.007.057-.503 4.639-4.47-.46z"/>
                <path fill="#90BC3F" d="M22.4 63.338a.57.57 0 0 1 .587-.346c.26.024.46.217.505.454l.001.002s.903-.433.671.066c-.155.338-.458.688-.64.894 0 0-1.077-.007-1.385-.136-.136-.243-.329-.663-.406-.996-.118-.514.607.016.667.063"/>
                <path fill="#04AE59" d="M20.799 64.486c.042-.456.206-.983.206-.983l1.381.74a.671.671 0 0 1 .963.074l1.465-.472s.1.6.057 1.056c-.045.465-.245.937-.245.937l-1.29-.701a.671.671 0 0 1-1.086-.11l-1.434.47c.002-.003-.061-.548-.017-1.011"/>
                <path fill="#E90089" d="M22.036 71.685c-2.827-.136-5.5-.266-6.716-.32l-.022-.002-.022.001a.616.616 0 0 0-.061.007l-.528-1.96a.445.445 0 0 1 .325-.544L21.2 67.28a.459.459 0 0 1 .559.317l1.112 4.127-.836-.04"/>
                <path fill="#F4901E" d="M18.159 71.499l-.931-3.158 1.78-.458 1.093 3.708-1.941-.092"/>
                <path fill="#F4901E" d="M15.322 67.395c-.179.307-.11.52-.022.645.375.524 1.899.329 2.357.256l.019-.004c.11.185.336.282.56.226a.492.492 0 0 0 .372-.42c.481-.138 1.877-.587 1.983-1.2.026-.15-.005-.371-.301-.575-.09-.063-.19-.11-.296-.141-.859-.236-1.438.94-1.639 1.434a.518.518 0 0 0-.374-.048.497.497 0 0 0-.307.228c-.368-.344-1.452-1.241-2.146-.651a.952.952 0 0 0-.206.25zm4.682-.428c-.193.143-.557.357-1.08.543.235-.47.6-.978.941-.884.05.01.122.05.154.09.051.065.065.19-.015.251zm-4.316.809c-.04-.056 0-.193.15-.283.27-.23.82.08 1.24.407-.691.062-1.262.053-1.39-.124zm15.06 4.335a.902.902 0 0 0-.134-.016c-1.464-.065-5.08-.241-8.58-.41l-.224-.01.756-3.503a.443.443 0 0 1 .524-.333l7.78 1.596a.431.431 0 0 1 .343.51l-.465 2.167z"/>
                <path fill="#FFF" d="M24.983 67.422l-.046-.037c.016.012.033.025.046.037"/>
                <path fill="#EA1D25" d="M24.787 71.817l.755-3.5 2.824.58-.661 3.06c-.882-.041-1.877-.09-2.918-.14"/>
                <path fill="#EA1D25" d="M24.749 66.462c-.38.187-.456.44-.45.617.017.75 1.641 1.522 2.14 1.741l.125.056a.482.482 0 0 0 .32.226.5.5 0 0 0 .4-.09h.131c.545.009 2.352-.016 2.694-.688.082-.16.125-.419-.137-.746a1.124 1.124 0 0 0-.283-.256c-.862-.54-1.896.526-2.317 1.033a.488.488 0 0 0-.617-.136c-.165-.643-.637-1.999-1.639-1.872a1.23 1.23 0 0 0-.367.115m4.78 1.695c-.123.16-.695.258-1.509.301.428-.45 1.015-.9 1.369-.68.049.032.099.078.145.135a.196.196 0 0 1-.006.244m-3.395-.09c-.705-.37-1.248-.783-1.253-.98 0-.029.056-.077.14-.12a.635.635 0 0 1 .187-.06c.408-.051.737.588.925 1.16"/>
                <g transform="translate(12.858 70.99)">
                    <path fill="#43D1FF" d="M18.804 1.157L1.542.042C1.052.01.654.416.71.891c.318 2.697 1.055 10.894-.665 18.025-.114.472.25.927.747.935l18.98.37a.193.193 0 0 0 .19-.255c-.44-1.245-2.13-6.996-.43-17.926a.775.775 0 0 0-.728-.882z"/>
                    <path fill="#43D1FF" d="M17.004 19.255c.469-.822.801.878 1.96.95l-4.475-.087c0-.001 2.048-.043 2.515-.863z"/>
                    <path fill="#0092DB" d="M14.816.9c.76.05 3.086.22 3.233.228l.957.063c.306.041.584.486.528.84-1.479 9.498-.395 15.088.202 17.209.14.49.462.986-.06.976-1.16-.07-2.576-2.357-2.92-1.48-.445 1.133-1.438 1.36-2.032 1.39a.455.455 0 0 1-.482-.437c-.071-2.882-.611-18.866.574-18.79z" opacity=".12"/>
                    <path fill="#0092DB" d="M18.793 10.41c.007-.498.02-1.016.044-1.552l-2.122 2.164c.002 0 .988.146 2.078-.612z" opacity=".12"/>
                    <path fill="#000" d="M19.544 20.214c-.58-.011-2.124-1.669-2.533-1.676-.308-.007-.335.545-.648.858-.688.684-1.399.73-1.399.73l4.58.089v-.001z" opacity=".08"/>
                    <circle cx="10.702" cy="6.655" r="1" fill="#B9ECFF"/>
                    <circle cx="4.181" cy="5.906" r="1" fill="#B9ECFF"/>
                    <path fill="#B9ECFF" d="M3.956 7.649a.44.44 0 0 0-.455.421c-.025 1.047.452 2.158 1.247 2.9.688.643 1.534.95 2.448.89 2.465-.163 3.216-2.07 3.27-3.058a.435.435 0 0 0-.42-.453.44.44 0 0 0-.465.407c-.005.09-.158 2.09-2.445 2.242-.83.055-1.422-.324-1.775-.652-.611-.571-.993-1.455-.975-2.254a.435.435 0 0 0-.43-.443z"/>
                    <path fill="#0092DB" d="M9.197 20.013l-8.402-.162a.785.785 0 0 1-.673-.399l.02-.943C1.739 11.476 1.022 3.536.71.891.654.417 1.053.01 1.542.042L6.59.348c-.19.217-.738.771-1.424.759-.852-.017-2.12-.306-2.388.46-.964 2.761 5.642 6.908 3.607 10.29-2.035 3.383-2.431 5.205.96 5.27 1.564.031 2.92.79 3.84 1.534l.674 1.406-2.662-.053z" opacity=".08"/>
                    <path fill="#000" d="M3.878 19.616c.967.16.889-.783.889-.783-2.401-.512-3.852.323-4.44.856a.789.789 0 0 0 .466.162l1.887.036c.326-.187.748-.345 1.198-.27zm6.954.43c.025-.682-.295-1.508-.295-1.508l-.561 1.49.856.017z" opacity=".08"/>
                </g>
                <path fill="#FFF" d="M13.108 99.13a.483.483 0 0 1-.357-.157c-.602-.667-5.825-6.586-4.018-8.952.779-1.02 2.478-1.45 5.048-1.278 1.176.083 2.344.256 3.494.519a.463.463 0 0 1 .348.561.476.476 0 0 1-.576.34c-1.7-.41-6.37-1.134-7.552.413-.524.682-.012 2.305 1.398 4.45 1.168 1.777 2.556 3.321 2.57 3.338a.456.456 0 0 1-.043.654.478.478 0 0 1-.312.113zm15.259 4.518a.477.477 0 0 1-.358-.158c-2.906-3.241-5.342-8.448-6.016-11.61-.303-1.42.57-2.427.608-2.47a.482.482 0 0 1 .669-.048.454.454 0 0 1 .051.65c-.027.034-.603.72-.398 1.68.635 2.979 3.035 8.103 5.802 11.187a.456.456 0 0 1-.045.654.483.483 0 0 1-.313.115zm1.208-21.636a.482.482 0 0 1-.383-.188.456.456 0 0 1 .1-.647c.063-.045 6.278-4.595 8.529-12.194a.477.477 0 0 1 .87-.099.463.463 0 0 1 .042.354c-2.342 7.91-8.61 12.492-8.876 12.683a.489.489 0 0 1-.282.091z"/>
                <path fill="#92E3FF" d="M12.75 98.92s-.24-.066-.313-.327c.208-.198.74-.528.843-.503.103.024.358.297.317.431-.04.135-.688.492-.849.4h.001z"/>
                <path fill="#43D1FF" d="M13.582 98.492a.05.05 0 0 1 .057-.004c.094.062.387.266.49.482.122.259-1.116 1.187-1.378 1.331-.261.144-1.147-.275-.048-1.354a.108.108 0 0 1 .044-.027c.079-.021.377-.08.835-.428z"/>
                <path fill="#FFF" d="M37.739 69.146s-.366-1.392.049-1.48c.416-.086.487.528.487.528s.445-1.126.988-.882c.544.243.961 1.086-.771 2.24-.685.34-.753-.406-.753-.406z"/>
                <path fill="url(#n)" d="M35.335 62.104c-.16.03-.337.099-.41.27-.15.345.236.663.547.79a2.52 2.52 0 0 0-1.103.28c-.334.172-.68.522-.612.94.045.263.25.459.472.534.222.075.458.053.688.03-.703.367-1.198 1.224-1.228 2.122-.005.141.01.302.11.383.064.054.149.056.229.056l.789.007c-.473.435-.624 1.336-.235 1.875.388.54 1.279.43 1.481-.234-.136.419-.014.919.261 1.229.274.313.678.442 1.057.397.469-.056.968-.543.826-1.068.234.528.639 1.015 1.147 1.048.507.033 1.014-.617.788-1.149.28.26.6.462.938.598.397.159.867.214 1.208-.068.34-.283.402-1 .028-1.223.446.392 1.14.421 1.53-.045.39-.465.276-1.397-.25-1.612.413-.035.853-.08 1.183-.373.33-.295.47-.93.167-1.263-.2-.219-.505-.228-.78-.224.327-.327.686-.817.496-1.268-.174-.412-.67-.427-1.055-.337.362-.419.191-1.213-.243-1.523-.434-.311-1.006-.223-1.459.05.25-.18.257-.648.05-.892-.206-.244-.548-.272-.819-.143-.27.13-.48.392-.648.673.028-.485-.295-.965-.705-1.047-.41-.081-.852.25-.959.72-.082-.434-.45-.77-.83-.758-.38.012-.732.37-.793.807.085-.594-.865-.68-1.18-.26-.177.235.127.689.127.689-.163.093-.61-.05-.813-.01z"/>
                <path fill="url(#o)" d="M35.661 63.793c-.14.073-.248.22-.231.372.017.153.2.28.34.21a1.966 1.966 0 0 0-.447.851.549.549 0 0 0 .001.338c.044.106.163.19.276.156-.19.161-.266.417-.301.66-.031.208-.04.426.04.618a.772.772 0 0 0 .723.46.767.767 0 0 0 .687-.508c.04.29-.063.623.122.854a.545.545 0 0 0 .246.166c.25.09.545.038.748-.13a.74.74 0 0 0 .254-.697c.12.337.396.626.748.725.35.1.766-.013.984-.3.217-.286.194-.734-.077-.973.167.387.586.64 1.015.673.365.028.803-.167.83-.524.022-.289-.232-.521-.462-.705.363.053.777.093 1.053-.141.246-.21.284-.6.119-.874-.166-.274-.502-.428-.83-.422.175-.092.353-.187.488-.332.134-.144.217-.345.168-.533-.061-.229-.307-.374-.549-.399-.24-.024-.48.047-.712.117a.913.913 0 0 0-.049-.844.694.694 0 0 0-.275-.264c-.229-.114-.515-.062-.731.072-.218.13-.382.331-.542.526-.056-.223-.117-.452-.257-.636s-.383-.314-.61-.256c-.197.05-.337.226-.396.414-.06.187-.053.388-.045.586a.718.718 0 0 0-.25-.563c-.227-.193-.593-.226-.831-.049-.239.178-.293.562-.09.777a.476.476 0 0 0-.642-.132c-.176.12-.144.267-.18.442-.016.088.052.1-.011.174-.025.04-.269.062-.324.091z"/>
                <path fill="url(#p)" d="M36.501 63.473a.742.742 0 0 0-.356.008c-.114.04-.21.141-.21.258.004.212.282.295.423.458-.123 0-.216.106-.28.21-.09.142-.16.312-.12.473.039.163.226.295.383.23-.056.14-.112.283-.12.43-.006.15.046.31.171.398.068.047.153.07.235.087.188.039.39.054.566-.02.175-.072.314-.259.275-.441.04.154.104.32.247.398.065.035.14.05.215.05a.692.692 0 0 0 .58-.309.654.654 0 0 0 .031-.644c.09.138.215.256.36.338.126.073.276.123.42.094.211-.044.361-.256.363-.467.002-.21-.117-.41-.284-.547.18.083.39.067.555-.041a.544.544 0 0 0 .235-.493c-.007-.068-.03-.14-.085-.183a.314.314 0 0 0-.147-.05 2.074 2.074 0 0 0-.536-.015c.077-.238.088-.53-.089-.71a.254.254 0 0 0-.11-.072.309.309 0 0 0-.155.01.934.934 0 0 0-.622.569c.021-.13.022-.27-.048-.381-.114-.186-.397-.222-.588-.112-.19.113-.29.334-.303.55.078-.13.016-.313-.119-.385-.184-.098-.405.015-.471.196-.026.068.003.188-.069.22-.026.014-.292-.099-.347-.107z"/>
                <path fill="url(#q)" d="M10.811 62.931c.164.014.345.064.438.225.185.329-.164.682-.46.844.383-.031.769.025 1.127.165.35.137.732.449.708.87a.694.694 0 0 1-.411.58c-.214.098-.45.1-.68.102.74.292 1.326 1.094 1.451 1.985.02.138.022.301-.067.39-.06.06-.143.072-.223.08l-.783.087c.519.385.764 1.263.438 1.84-.327.576-1.226.56-1.5-.08.182.402.113.912-.125 1.248-.239.34-.627.511-1.01.504-.472-.008-1.02-.442-.937-.976-.173.547-.524 1.076-1.025 1.16-.5.085-1.076-.51-.91-1.06a3.102 3.102 0 0 1-.868.69c-.376.2-.838.302-1.209.056-.371-.245-.509-.953-.161-1.212-.4.435-1.087.535-1.525.113-.438-.421-.426-1.361.075-1.63-.416.01-.858.01-1.217-.248-.36-.258-.57-.877-.303-1.238.175-.239.476-.28.75-.304-.36-.293-.772-.743-.63-1.211.13-.427.618-.493 1.012-.443-.406-.38-.32-1.186.077-1.54.396-.353.977-.324 1.456-.1-.268-.154-.326-.619-.147-.883.18-.264.516-.329.8-.226.283.102.518.34.717.601-.081-.48.188-.989.588-1.112.4-.123.873.159 1.032.615.034-.44.362-.81.743-.838.38-.028.768.29.876.72-.147-.58.787-.765 1.146-.38.204.216-.05.7-.05.7.17.076.601-.11.807-.094z"/>
                <path fill="url(#r)" d="M10.668 64.646c.146.058.27.192.27.345-.001.154-.17.297-.316.242.242.22.43.497.536.802.038.108.067.226.035.336-.03.11-.142.203-.256.184.207.141.31.387.371.626.053.203.087.419.029.62a.764.764 0 0 1-.669.533.77.77 0 0 1-.74-.435c-.006.292.132.612-.028.86a.539.539 0 0 1-.229.191.785.785 0 0 1-.757-.052.742.742 0 0 1-.328-.668 1.145 1.145 0 0 1-.665.8c-.339.133-.763.064-1.01-.198-.247-.263-.272-.709-.029-.975-.124.402-.512.697-.935.774-.359.064-.816-.083-.88-.435-.053-.286.173-.541.383-.749-.354.091-.761.172-1.063-.032-.267-.182-.35-.566-.213-.857.135-.29.453-.478.779-.505-.184-.074-.372-.15-.52-.278-.148-.129-.256-.32-.225-.514.035-.234.264-.403.501-.453.236-.05.484-.003.72.042a.913.913 0 0 1-.042-.844.701.701 0 0 1 .245-.292c.215-.137.504-.113.734-.005.23.108.416.29.595.468.032-.227.068-.461.187-.66.12-.197.347-.351.579-.316.199.028.36.19.437.37.08.181.094.382.107.578a.718.718 0 0 1 .188-.585c.205-.215.564-.285.82-.132.258.152.353.528.174.762a.475.475 0 0 1 .625-.196c.188.101.173.252.225.422.028.086-.04.104.031.172.033.032.276.03.334.054z"/>
                <path fill="url(#s)" d="M9.798 64.413a.74.74 0 0 1 .355-.028c.118.026.227.118.237.234.02.21-.247.324-.371.498.122-.013.226.083.301.18.104.133.191.293.17.458-.02.166-.192.319-.355.269.07.133.141.268.165.416.024.148-.012.313-.126.412a.617.617 0 0 1-.225.112c-.182.058-.381.092-.564.038-.182-.055-.34-.226-.322-.412-.024.158-.068.33-.202.422a.463.463 0 0 1-.208.07.696.696 0 0 1-.61-.246.663.663 0 0 1-.102-.638 1.068 1.068 0 0 1-.32.374.617.617 0 0 1-.409.136c-.214-.021-.386-.218-.412-.427-.025-.21.074-.42.224-.571a.573.573 0 0 1-.557.015.547.547 0 0 1-.286-.467c0-.068.014-.142.066-.19a.316.316 0 0 1 .14-.065c.173-.045.352-.07.533-.07-.103-.231-.147-.518.01-.716a.24.24 0 0 1 .102-.081.306.306 0 0 1 .154-.007c.292.049.552.241.68.501-.034-.126-.05-.265.006-.383.093-.196.37-.263.572-.17.2.09.323.3.36.514-.091-.121-.05-.31.076-.396.171-.116.404-.026.49.146.033.065.017.188.091.213.032.013.284-.128.337-.141z"/>
                <path fill="#92E3FF" d="M28.492 102.648s-.04-.371-.366-.472c-.304.105-.699.549-.66.686.04.138.343.528.484.495.14-.033.542-.709.542-.709z"/>
                <path fill="#43D1FF" d="M28.455 102.61a.05.05 0 0 1 .052-.026c.112.016.465.077.653.232.224.182-.49 1.537-.663 1.777-.172.237-1.157.227-.637-1.206a.081.081 0 0 1 .029-.042c.061-.053.306-.232.567-.735z"/>
                <path fill="url(#t)" d="M10.865 52.848c-.373.645-1.081 1.684-2.023 2.198a.637.637 0 0 0-.1 1.069l.736.573c.27.21.662.18.895-.068.76-.81 2.265-2.54 2.107-3.378-.037-.2-.38-.444-.707-.633a.662.662 0 0 0-.908.24z"/>
                <path fill="url(#u)" d="M36.876 81.718c.257.447.749 1.166 1.4 1.521a.442.442 0 0 1 .071.74l-.51.397a.465.465 0 0 1-.62-.046c-.527-.561-1.57-1.758-1.46-2.34.025-.14.262-.307.489-.438a.462.462 0 0 1 .63.166z"/>
                <path fill="url(#v)" d="M17.039 57.375v1.307a.267.267 0 0 0 .367.242l1.099-.434a.258.258 0 0 0 .068-.445l-1.099-.872c-.175-.138-.435-.017-.435.202z"/>
                <path fill="url(#w)" d="M1.119 76.469l-.916.543a.206.206 0 0 0-.017.346l.76.55a.216.216 0 0 0 .342-.14l.154-1.094c.025-.172-.17-.296-.323-.205z"/>
                <path fill="url(#x)" d="M43.48 75.62v1.307a.267.267 0 0 0 .368.243l1.098-.435a.258.258 0 0 0 .068-.446l-1.098-.871c-.175-.138-.436-.017-.436.203z"/>
                <path fill="url(#y)" d="M30.784 56.721l-.91.96a.258.258 0 0 0 .103.421l1.108.41c.191.07.388-.085.36-.281l-.198-1.367c-.032-.221-.31-.304-.463-.143z"/>
                <path fill="url(#z)" d="M8.086 80.721c-.264.293-.722.731-1.31 1.022a.282.282 0 0 0-.083.442l.814.913a.298.298 0 0 0 .417.026c.363-.312 1.036-.963 1.104-1.543a.264.264 0 0 0-.046-.172l-.424-.652a.3.3 0 0 0-.472-.036z"/>
                <path fill="#D2F2FF" d="M138.396 72.37c.757 1.181 1.807 2.249 3.163 2.687 1.354.438 3.033.097 3.838-1.052.929-1.322.446-3.125-.242-4.58-.696-1.473-1.604-2.9-2.929-3.88-1.44-1.067-4.262-2.004-5.211-.046-.939 1.935.327 5.226 1.382 6.872h-.001z"/>
            </g>
        </g>
    </g>
</svg>
