<svg xmlns="http://www.w3.org/2000/svg" xmlns:xlink="http://www.w3.org/1999/xlink" width="137" height="114" viewBox="0 0 137 114">
    <defs>
        <rect id="a" width="202" height="137" y=".5" rx="14.735"/>
        <linearGradient id="c" x1="47.312%" x2="59.13%" y1="42.882%" y2="76.493%">
            <stop offset=".261%" stop-color="#C8F1FF"/>
            <stop offset="99.58%" stop-color="#4CD3FF"/>
        </linearGradient>
        <linearGradient id="d" x1="539.93%" x2="-424.727%" y1="51.561%" y2="48.489%">
            <stop offset=".261%" stop-color="#C8F1FF"/>
            <stop offset="99.61%" stop-color="#FFF"/>
        </linearGradient>
        <linearGradient id="e" x1="2288.775%" x2="-2544.258%" y1="59.613%" y2="38.86%">
            <stop offset=".261%" stop-color="#C8F1FF"/>
            <stop offset="99.61%" stop-color="#FFF"/>
        </linearGradient>
        <linearGradient id="f" x1="144.916%" x2="-173.114%" y1="50.152%" y2="49.651%">
            <stop offset=".261%" stop-color="#C8F1FF"/>
            <stop offset="99.61%" stop-color="#FFF"/>
        </linearGradient>
        <linearGradient id="g" x1="31.548%" x2="79.946%" y1="23.31%" y2="93.315%">
            <stop offset=".261%" stop-color="#F8A33F"/>
            <stop offset="99.55%" stop-color="#F37021"/>
        </linearGradient>
        <linearGradient id="h" x1="-26.228%" x2="57.777%" y1="-108.053%" y2="71.651%">
            <stop offset=".261%" stop-color="#F8A33F"/>
            <stop offset="99.55%" stop-color="#F37021"/>
        </linearGradient>
        <linearGradient id="i" x1="126.226%" x2="42.22%" y1="-108.053%" y2="71.651%">
            <stop offset=".261%" stop-color="#F8A33F"/>
            <stop offset="99.55%" stop-color="#F37021"/>
        </linearGradient>
        <linearGradient id="j" x1="40.521%" x2="9.179%" y1="38.181%" y2="-.896%">
            <stop offset=".261%" stop-color="#F8A33F"/>
            <stop offset="99.61%" stop-color="#FCD2A1"/>
        </linearGradient>
        <linearGradient id="k" x1="79.795%" x2="31.88%" y1="17.65%" y2="93.864%">
            <stop offset=".261%" stop-color="#F8A33F"/>
            <stop offset="99.55%" stop-color="#F37021"/>
        </linearGradient>
        <linearGradient id="l" x1="-19.362%" x2="87.553%" y1="-48.802%" y2="103.491%">
            <stop offset=".261%" stop-color="#F8A33F"/>
            <stop offset="23.67%" stop-color="#F8A542"/>
            <stop offset="43.02%" stop-color="#F9A94D"/>
            <stop offset="60.93%" stop-color="#F9B25E"/>
            <stop offset="77.97%" stop-color="#FABD76"/>
            <stop offset="94.25%" stop-color="#FCCC95"/>
            <stop offset="99.61%" stop-color="#FCD2A1"/>
        </linearGradient>
        <linearGradient id="m" x1="9.223%" x2="130.945%" y1="39.913%" y2="57.669%">
            <stop offset=".261%" stop-color="#F8A33F"/>
            <stop offset="99.55%" stop-color="#F37021"/>
        </linearGradient>
        <linearGradient id="n" x1="-2.525%" x2="73.82%" y1="-17.083%" y2="83.634%">
            <stop offset=".261%" stop-color="#F8A33F"/>
            <stop offset="17.03%" stop-color="#F8A747"/>
            <stop offset="43.18%" stop-color="#F9B15D"/>
            <stop offset="75.26%" stop-color="#FBC381"/>
            <stop offset="99.61%" stop-color="#FCD2A1"/>
        </linearGradient>
        <linearGradient id="o" x1="43.189%" x2="74.332%" y1="39.873%" y2="78.41%">
            <stop offset=".261%" stop-color="#F8A33F"/>
            <stop offset="99.61%" stop-color="#FCD2A1"/>
        </linearGradient>
        <linearGradient id="p" x1="6.522%" x2="84.669%" y1="73.326%" y2="-2.146%">
            <stop offset=".261%" stop-color="#F8A33F"/>
            <stop offset="21.32%" stop-color="#F8A543"/>
            <stop offset="41.13%" stop-color="#F9AA4E"/>
            <stop offset="60.46%" stop-color="#F9B361"/>
            <stop offset="79.48%" stop-color="#FAC07C"/>
            <stop offset="98.12%" stop-color="#FCD19E"/>
            <stop offset="99.61%" stop-color="#FCD2A1"/>
        </linearGradient>
        <linearGradient id="q" x1="6.508%" x2="84.656%" y1="73.319%" y2="-2.161%">
            <stop offset=".261%" stop-color="#F8A33F"/>
            <stop offset="21.32%" stop-color="#F8A543"/>
            <stop offset="41.13%" stop-color="#F9AA4E"/>
            <stop offset="60.46%" stop-color="#F9B361"/>
            <stop offset="79.48%" stop-color="#FAC07C"/>
            <stop offset="98.12%" stop-color="#FCD19E"/>
            <stop offset="99.61%" stop-color="#FCD2A1"/>
        </linearGradient>
        <linearGradient id="r" x1="52.681%" x2="144.071%" y1="42.42%" y2="-72.232%">
            <stop offset=".261%" stop-color="#F8A33F"/>
            <stop offset="21.32%" stop-color="#F8A543"/>
            <stop offset="41.13%" stop-color="#F9AA4E"/>
            <stop offset="60.46%" stop-color="#F9B361"/>
            <stop offset="79.48%" stop-color="#FAC07C"/>
            <stop offset="98.12%" stop-color="#FCD19E"/>
            <stop offset="99.61%" stop-color="#FCD2A1"/>
        </linearGradient>
        <linearGradient id="s" x1="93.475%" x2="15.328%" y1="73.326%" y2="-2.146%">
            <stop offset=".261%" stop-color="#F8A33F"/>
            <stop offset="21.32%" stop-color="#F8A543"/>
            <stop offset="41.13%" stop-color="#F9AA4E"/>
            <stop offset="60.46%" stop-color="#F9B361"/>
            <stop offset="79.48%" stop-color="#FAC07C"/>
            <stop offset="98.12%" stop-color="#FCD19E"/>
            <stop offset="99.61%" stop-color="#FCD2A1"/>
        </linearGradient>
        <linearGradient id="t" x1="93.473%" x2="15.324%" y1="73.319%" y2="-2.161%">
            <stop offset=".261%" stop-color="#F8A33F"/>
            <stop offset="21.32%" stop-color="#F8A543"/>
            <stop offset="41.13%" stop-color="#F9AA4E"/>
            <stop offset="60.46%" stop-color="#F9B361"/>
            <stop offset="79.48%" stop-color="#FAC07C"/>
            <stop offset="98.12%" stop-color="#FCD19E"/>
            <stop offset="99.61%" stop-color="#FCD2A1"/>
        </linearGradient>
        <linearGradient id="u" x1="47.32%" x2="-44.073%" y1="42.42%" y2="-72.232%">
            <stop offset=".261%" stop-color="#F8A33F"/>
            <stop offset="21.32%" stop-color="#F8A543"/>
            <stop offset="41.13%" stop-color="#F9AA4E"/>
            <stop offset="60.46%" stop-color="#F9B361"/>
            <stop offset="79.48%" stop-color="#FAC07C"/>
            <stop offset="98.12%" stop-color="#FCD19E"/>
            <stop offset="99.61%" stop-color="#FCD2A1"/>
        </linearGradient>
    </defs>
    <g fill="none" fill-rule="evenodd" transform="translate(-32 -11.826)">
        <mask id="b" fill="#fff">
            <use xlink:href="#a"/>
        </mask>
        <g mask="url(#b)">
            <g fill-rule="nonzero" transform="translate(32 12.5)">
                <path fill="#D2F2FF" d="M129.956 99.872c2.983-4.929 1.633-11.333-.552-16.671-2.185-5.338-5.168-10.595-5.242-16.372-.054-4.241 1.48-8.31 2.443-12.44.963-4.129 1.286-8.756-.947-12.347-1.643-2.64-4.43-4.319-7.224-5.64a51.594 51.594 0 0 0-19.78-4.897c-7.584-.329-15.958.814-22.067-3.742C70.025 22.867 68.815 13.32 63.34 7.21 59.554 2.984 53.926.738 48.302.32c-5.623-.417-11.258.857-16.559 2.8-6.766 2.482-13.76 6.856-15.454 13.928-1.575 6.583 1.956 13.363 1.564 20.126-.535 9.264-8.055 16.334-12.23 24.6-4.78 9.466-5.18 20.72-3.13 31.145 1.595 8.115 8.977 13.156 9.334 13.156h107.23a12.708 12.708 0 0 0 10.863-6.149c.013-.018.025-.036.036-.055z"/>
                <path fill="url(#c)" d="M127.868 79.645l-.074.056c-1.602 1.154-3.81 1.585-5.576.709-1.152-.57-2-1.613-2.754-2.663-1.81-2.52-3.335-5.296-5.606-7.4-4.69-4.344-11.707-5.018-18.006-4.107-16.985 2.456-31.81 14.523-48.952 15.285-7.968.354-15.991-1.855-22.822-6.015-3.166-1.928-6.083-4.264-9.33-6.052-3.246-1.79-6.956-3.026-10.614-2.496a8.74 8.74 0 0 0-.69.126c-2.664 8.21-2.63 17.298-.95 25.833 1.594 8.116 8.976 13.157 9.333 13.157h107.23a12.708 12.708 0 0 0 10.896-6.204c2.983-4.929 1.633-11.333-.552-16.672-.483-1.189-1.009-2.373-1.533-3.557z"/>
                <g fill="#59CBFF">
                    <path d="M136.346 105.776c.168.017.107-.18.133-.214-.28.043-.125.266-.133.214zm-1.526.184l.035-.077-.29.197.255-.12zm-1.512.023c.138.334.53-.055.79.064l.042.078.118-.27c-.316.043-.727.218-.95.128zm-.769-.458c.067.132-.238.11.257.042-.026-.013-.033-.02-.046-.034-.047 0-.107 0-.21-.009v.001z"/>
                    <path d="M131.967 105.719l.204-.115c-.042-.077-.223-.094-.155-.15-.209.064-.166.14-.048.265zm-.191.05l.185-.05c-.031-.03-.081-.043-.185.05zm.394-.117l-.29.103c.04.056.043.163.133-.04-.023.1.034.006.157-.063zm.06.03c.113.074.26.12.057.237.387-.047.329-.283-.057-.236zm1.004.484l.155.098.134-.111c-.067.05-.299-.094-.29.013zm-2.527-.66c-.017.073.085.188.103.282l.184-.08c-.095-.052-.275-.095-.287-.202z"/>
                    <path d="M130.85 105.695l-.286.124c.257.013.303-.047.286-.124zm.89.398l.367-.262-.437.262h.07zm-1.86-.484l.16-.167-.288.248.127-.08zm-.597.082c.093-.137-.13-.232-.03-.317-.154.025-.284.141-.404.248.127-.056.26-.043.434.07zm-.632-.024c.09-.034.186-.09.29-.154a.891.891 0 0 0-.29.154zm1.646.167c-.03-.043-.084-.154-.29-.205l.144.2c.046.005.094.005.145.005z"/>
                    <path d="M130.195 105.641l-.005-.006a7.875 7.875 0 0 1-.285-.01c.037.004.123.007.29.016zM131.189 105.777c-.15.111-.466.231-.161.402.108-.137-.064-.23.16-.402zm-.874.07l.27.046c-.007-.052-.055-.129.02-.184l-.29.137zm-.116.01l.205-.065-.156-.017-.05.081zm-1.14-.255c-.104.086-.215.095-.343.107.136.04.277.06.41.06.02-.06.078-.17-.068-.167z"/>
                    <path d="M129.155 105.77c.089.033.184.006.257-.074a1.204 1.204 0 0 1-.284.034c-.01.03-.011.047.027.04zm-.852-.195c.09.043.185.077.29.111-.086-.064-.26-.163-.29-.11zm1.299.052c-.089.03-.158.077-.23.125.097-.014.193-.037.289-.069a.184.184 0 0 1-.059-.056zm-2.514.765c.018-.102.287-.198.52-.087.227-.078.078-.416-.12-.604-.007.044-.007.084-.243.146.082.056.52.132.323.224-.311.052-.256-.035-.406-.09.13.128-.396.187-.328.373l.273-.066c.004.03-.095.076-.02.104h.001z"/>
                    <path d="M127.934 105.834l.098-.021c-.11-.035-.189-.107-.335-.253-.16.09-.195.158-.205.223l.477.025-.035.026zm.531-.12c-.075.138-.307.196-.165.347.284-.008.198-.116.369-.174-.459.034.13-.076-.2-.155.09-.023.17-.032.247-.035a1.99 1.99 0 0 1-.237-.064c.005.003.007.006.01.009v.003c.02.017.027.026.004.017-.001.003-.007.003-.01.003a.116.116 0 0 1-.018.05c-.132-.03-.02-.038.021-.053.003-.006.006-.014.006-.02 0 0-.002 0-.002-.003l-.459.076c.097.02.218.014.434 0zM130.578 106.073c.033-.015.061-.059.171-.047.094.032 0 .052.005.086.066-.03.23-.077.024-.13l-.032.015c-.185-.037-.423-.17-.39-.185.053.098.1.167.222.261zm-1.069-.224l-.382.07.195.123-.01-.075c.217.033.17-.06.197-.118zm-2.033-.176l.067-.15-.29.213.223-.063zm-.462.001l.032-.13-.232.079.2.051zm-28.015.834l-.199.036a1.59 1.59 0 0 0 .2-.035zm15.736-.786c-.164-.123-.346-.31-.326-.165l.051.144a.432.432 0 0 1 .275.02zm-8.35.416c.027.015.056.03.084.042.07-.048.137-.093.195-.138-.084.033-.18.063-.279.096zm-.042.325l-.29-.094c.066.033.158.066.29.094zm-11.768.129l-.23.147c.36 0 .202-.075.23-.148v.001zm27.268-.908a1.197 1.197 0 0 0-.353-.087c.17.082.307.205.353.087zm-22.535-.011c-.121.026-.174.054-.171.087.124-.028.197-.054.171-.088zm21.775-.047c.024.014.049.02.075.033.103-.025.207-.043.332-.033-.125-.064-.268-.1-.407 0zm-47.394.111c.07-.009.182-.009.29-.012a1.312 1.312 0 0 0-.29.012zm51.785.157c-.04.015-.07.036-.075.07a.123.123 0 0 1 .076-.07h-.001zm-.283-.258a1.623 1.623 0 0 0-.238-.042c.038.01.11.025.238.042zm-.125-.051c.064.006.116.009.162.015.024-.024.003-.039-.162-.014v-.001z"/>
                    <path d="M124.783 105.59c.103-.003.197.008.29.017-.037-.01-.05-.02-.042-.026a7.806 7.806 0 0 1-.248.01zm-37.715.789c-.01-.007-.025-.007-.04-.016-.188.064-.104.055.04.016zm24.548.202c.16-.108.252-.096.375-.071l-.124-.252-.251.323z"/>
                    <path d="M96.968 106.532l.266.071c-.322.116-.553.076-.303.176.037-.247 1.032-.026 1.07-.272l.174.051c-.05-.001-.059.012-.107.01.34.118.251-.179.69-.144.153.018.26.055.157.084l.34-.06c.1.004.076.047-.024.042l.519-.02-.004.008c.075-.039.243-.1.325-.125.133.035-.066.026-.033.056l.289-.06c.117.065-.122.126-.32.118.269.247.24-.063.82.081l-.273.032c.175.14.387.09.695.177-.072-.046-.615-.22-.303-.282a.728.728 0 0 0 .372-.02c.001.086.165.065.372.06l-.016.116c.224-.033.205-.092.336-.146.248.012.3.101.358.178.396.017-.274-.145.196-.166.33.044.562-.003.957-.073.23.04-.041.071.042.104l.205-.093c.05.003.035.032.026.045.172-.036.015-.115.285-.147.074-.128.558.187.893.041.084.033-.04.071-.015.116.46-.096.395-.07.773-.196l.323.075c-.237-.087.065-.19.331-.275-.084-.041-.155-.079-.205-.096l.423-.063c.05.02.008.06-.06.108a1.77 1.77 0 0 0 .076-.028c.151.043.072.11-.035.176l-.153-.071c-.105.07-.201.148-.18.217a.5.5 0 0 1 .14-.032c-.028.02-.045.036-.034.048.015.012.06-.014.128-.043l.096.129.023-.051.554.08c.396-.13.741-.322 1.37-.375-.156.094-.033.156-.043.268-.172-.12-.486.051-.812.027.17.013.132.066.09.084l.581-.11c-.013.094.123.07.276.109-.115-.183.432-.121.67-.178.014.062-.043.124-.331.11.318.137.41-.214.724-.099-.07.002-.109-.007-.137.024.165-.055.567-.012.472.041l-.07.002c.467.021 1.424.002 1.492-.155a.66.66 0 0 1-.09.218l.834-.52c-.074.133.208.45-.179.524.112.018.25.041.483-.007-.075-.019-.19-.193-.085-.204.285.147.199.08.549.206-.115-.028.014-.238.194-.23-.028.03.014.204-.051.226l.447-.203c-.112.035-.02.173.08.231-.046-.04.387.004.506-.017l-.19-.047c.506.031.5-.288 1.001-.277-.06.043-.15.26.105.285.117-.104.517-.504.962-.585l.085.06.34-.068a6.999 6.999 0 0 1-1.132.618c.189.048.053.071.336.064.1.056-.153.084-.237.088l.66.036c-.03-.122.505-.122.48-.223l-.716.126c-.03-.123.414-.346.881-.325.12.048-.088.218-.078.258.06-.04.444-.08.487-.049l-.199.065c.26.046.424-.163.737-.045.108.008.323.157.34.084-.174-.139-.209-.571-.092-.675.037.01.566.133.69.201.176.11-.268.26-.117.355.007-.033.105-.075.145-.088.114.028-.047.103.2.088.042-.125.502.01.117-.104.24-.035.255.024.538.02-.09-.08.255-.274.495-.309-.014.032.04.073.066.092.493.011.758.068 1.219.068.042.03.266.066.17.119.065-.022.128-.065.269-.067.275.108-.316.017-.106.146.017-.071.367-.1.57-.144-.063-.11-.468-.021-.67.024-.002-.155.351-.316.833-.385.384-.038.165.1.233.078.72.026.613-.268 1.209-.157.237.098.011.193.063.264-.31.037-.478-.06-.689-.057l.26.046a.936.936 0 0 1-.42.028c.197.088 1.213.017 1.767.098.098-.033.269-.066.189-.106l-.176.014c-.161-.08.331-.11.108-.146.236-.055.5-.143.83-.099l.063.111c-.007-.033-.216-.066-.31-.033.138-.049.508.151.659.005l-.233-.077c.236-.056.527-.174.822-.14-.134-.11-.067.014-.276-.115.18.16-.75-.007-.461.162-.215-.15-.37-.063-.65-.19.008.036.1.069-.147.052a.337.337 0 0 1-.054.034l-.017-.004.014.005c-.012.005-.012.007.004.002.06.016.107.035.126.056-.122.084-.514.081-.647.126-.146-.018.061-.042-.018-.081l-.198.064c-.02-.08-.388-.135-.044-.184l-.31-.002a1.47 1.47 0 0 0-.588-.03c-.146-.019-.368.09-.242.026l-.487.051-.005-.02c-.48-.01-.987.136-1.536-.011-.162.02-.33.046-.598.023l-.052-.071c-.209.025-.623-.072-.713.003-.225-.19-1.006-.042-1.37-.075l-.015.093c-.25-.005-.49.022-.802.058l.02.082c-.27.066-.692-.059-1.116-.05.03-.032.136-.023.213-.005-.508-.184-1.07.133-1.532 0a.507.507 0 0 1-.278-.002.07.07 0 0 0 .028-.005l-.047-.001c-.051-.014-.104-.03-.16-.043.043.019.088.033.135.043a2.904 2.904 0 0 0-.354.031l-.056-.088-.03.003c-.13-.033-.104.042-.036.108a.982.982 0 0 0-.173.053c-.105-.14-.345.048-.488-.103-.089.073-.662.055-.733.211-.004-.02-.041-.03.028-.032-.146-.018-.293-.035-.424.009l-.062-.111-.32.149c-.195-.068-.275-.108-.081-.193-.467.133-.378.05-.775.18l.02-.07c-.143.003-.37.1-.455.04-.317-.138-1.569-.018-2.383-.146.158.212-.378-.095-.411.07-.048-.05-.16-.078-.03-.123-.415.05-.624-.08-.91.06-.048-.05.089-.073.046-.103-.033.012-.133.043-.175.013-.043-.03.06-.041.126-.064-.424.008-.467.162-.498.308-.215-.068-.323-.06-.478.036-.076-.048-.2-.098.063-.114-.149-.007-.906-.07-.923.046-.045-.03-.207-.008-.244.005-.334-.007-.363-.018-.69-.007l.09.019c-.13.14-.272.03-.536.048l.008-.015c-.604-.101-.26.048-.857-.067l.033.089c-.056.186-.527-.112-.874-.039l.124.05c-.188.064-.527-.255-.718-.278-.04-.017.066-.027.123-.039-.496-.11-.063.115-.434.14-.068-.06.09-.156-.16-.168-.125-.049-.722.201-1.063.082.075.047.15.094-.023.13-.264.017-.713-.179-.95-.03-.033-.013-.046-.024-.048-.036-.201.038-.655.065-.776.146-.187-.302-1.253.146-1.248-.131l-.62.015.017-.028c-.397-.019-.536.048-.675.114-.092-.018-.024-.045-.017-.06-.578-.056-.637-.044-1.122.095l-.05-.09c-.131.054-.837-.14-1.406-.036.005-.01.018-.028.063-.04-.64.106-1.531-.25-1.763.078l-.421.081c.545.025-.082.143.143.197-.215.02-.555-.1-.293-.115l.042.016c.096-.17-.678-.061-.664-.177-1.073.008-2.12-.086-3.123-.093l.116.133-.35-.009c-.093-.031-.124-.104.125-.098-.13-.076-.42.063-.426.094-.49-.055.192-.156.042-.16l-.206.01.046.015c-.165.055-.18.113-.48.106-.19-.026-.098-.082-.172-.088 0-.01-.024-.013-.114-.003l-.443-.012.178.105c-.197.051-.417-.005-.212.112-.3-.184-1.648-.066-1.831-.122-.274.076-.546.074-.88.066.084.021.133.139-.156.126.107-.243-.529-.106-.763-.282.21.116-.823.028-.495.194-.24-.02-.014-.091-.198-.149-.575.095-1.266-.061-1.976-.03-.01.032.109.081-.044.13l-.375-.162c-.14.016-.13.185-.384.074.035.026.09.067-.004.077-1.39-.155-2.842.128-4.254-.165.192.061.064.068-.082.071.095.015-.002.08.016.123l-.59-.121c-.11.121-.635.008-.697.122l.187-.02c-.25.136.349.303.31.476.28-.154.737.228 1.194.008.101.035-.088.056-.033.097.116-.076.255-.09.516-.057l-.03.018c.73-.018 1.042.055 1.861.104l-.06-.086c.175.012.212.038.294.06.202-.13-.495-.007-.31-.151.235.175 1.243.003 1.4.202.27.002-.08-.099.191-.098l.072.055.069-.07c.177.012.267.08.274.125-.043-.005-.123.013-.17.016.231.063.65-.02.73-.001l-.26-.033c.738-.05 1.641.02 2.355-.09l-.054-.042c.545-.074.437.045 1.035.011l-.02.01c.118-.04.279-.062.443-.056-.151.047.285.092.087.145.59-.08.293-.063.682-.213l.091.068c.133-.062.144-.094.444-.112-.246.058.19.103-.084.18.627.146.932-.15 1.219.066.288-.188-.542-.105-.382-.145-.134-.06.238-.139.434-.12.2.004.341.238.846.235-.051-.002-.055.014-.104.014.19.047.37-.066.602.012.129-.112.3.007.337-.137l-.461.033c.261-.038.507-.205.94-.125-.035.03-.163.069-.251.088.126.044.243-.028.373.016-.038.143-.562.03-.843.14.136.061.53-.104.39.051.202-.198.496.025.838-.125l-.023.086c.054-.014.166-.055.266-.051l-.18.112c.276-.096.532.083.797.032-.555.003-.124-.105-.358-.167.685-.117.392.224 1.16.183-.104.012-.39-.052-.229-.092.146.02.34.052.428.097.508-.018-.078-.09.138-.142.173.104.249-.044.472-.077l.001.088c.578.056.154-.182.675-.114l-.22.121.273-.032-.056.1c.295-.075.388-.055.676-.027-.067-.061.038-.159.295-.162.175.05-.098.082.266.071-.083.055-.173.124-.33.043-.016.028-.08.055-.098.083.189.06.473.013.605.013a.629.629 0 0 1-.143-.02l.527-.12c.084.033.017.059-.047.085.107-.01.18-.049.337-.058-.041.072-.03.145-.251.18l.5-.08c.033.031.257.084.192.11.278.043.683-.138 1.052-.082a.33.33 0 0 1 .136-.037c.347.017.653.105 1.064.007l.233.128c.321-.03-.316-.16.22-.209.38-.041.14.11.274.144.19-.065.517-.195.866-.091-.118.02-.21.002-.317.012zm3.968-.058c-.077.018-.23.074-.286.023.088-.1.155-.052.286-.023zm6.032-.21c-.056.029-.145.014-.244-.019a.674.674 0 0 1 .244.019zm16.808-.611c-.003 0-.005 0-.008.004-.172-.035-.112-.021.008-.005zm.355.037c.036-.011.033-.024.018-.036-.024.021-.105.023-.196.018.026.023.072.038.178.018zm-38.252.035l.068.023c-.156.025-.112.002-.068-.023z"/>
                    <path d="M106.327 106.421a.145.145 0 0 1-.058-.087c-.056.03-.056.06.058.087zm12.395.05a.684.684 0 0 1-.248-.082c-.009.04.048.072.248.082zm7.36-.93l-.29.042c.14-.009.19.027.26.052-.006-.037-.062-.09.03-.094zm1.965.587c.054-.018.116-.003.17-.021l-.016-.076c-.232.007-.396.067-.154.097zm-1.815-.268c.017.135.16.087.32.063-.01 0-.018.003-.028 0 .047-.186-.124-.123-.293-.063zm.356.024c.087-.007.174-.008.26-.003.036-.075-.104-.015-.26.003zm-1.98-.17c.088.034.056-.17.105-.116.1-.171-.588.207-.105.117zm1.865.436l-.101-.165-.159.133.26.032zm-1.375-.127l.255.045c-.003-.028.028-.045.07-.057-.158-.006-.332-.04-.325.012zm.324-.007c.115.003.227 0 .29-.028-.063.003-.198.007-.29.028zm.621.11l-.085-.036-.203-.012.288.048zm-3.69-.134l-.279.048c-.028.057.048.09.15.07.067-.04.17-.064.128-.118zm.943.307c-.133-.033-.141-.073-.217-.127l-.014.205.23-.078zm-.912-.03c-.028.056-.406.162-.051.15.028-.057.306-.106.05-.15zm-4.2-.03l.124-.002-.018-.298-.107.3zm-3.703.445c.331.081.079-.207.377-.108.077-.078-.244-.08-.164-.15-.2.084-.305.035-.213.258z"/>
                    <path d="M114.694 106.449c.06-.014.12-.031.18-.051a.739.739 0 0 0-.18.05zm-41.707-.787l-.288-.07.186.115.102-.045zm-.373.202l-.082-.213-.207.192c.08-.009.23-.027.29.021zm29.01.902l.025-.051c-.052-.056-.13-.06-.29-.069l.264.12zm-2.946-.057l.087.004-.162-.193.075.19zm-2.45.098c.098.01.214-.035.315-.026-.217.036-.341-.214-.314.026z"/>
                </g>
                <g fill="#59CBFF">
                    <path d="M62.555 105.776c.162.017.105-.18.13-.214-.272.043-.12.266-.13.214zm-1.484.184l.035-.077-.288.197.253-.12zm-1.482.023c.134.334.517-.055.771.064l.042.078.116-.27c-.31.043-.711.218-.93.128zm-.75-.458c.069.132-.239.11.257.042a.204.204 0 0 1-.048-.034c-.042 0-.104 0-.21-.009v.001z"/>
                    <path d="M58.28 105.719l.198-.115c-.04-.077-.217-.094-.152-.15-.203.064-.161.14-.046.265zm-.188.05l.182-.05c-.032-.03-.078-.043-.182.05zm.392-.117l-.29.103c.038.056.042.163.134-.04-.025.1.032.006.156-.063zm.051.03c.112.074.254.12.056.237.378-.047.323-.283-.056-.236zm.982.484l.156.098.132-.111c-.066.05-.299-.094-.288.013zm-2.47-.66c-.017.073.085.188.103.282l.184-.08c-.095-.052-.272-.095-.287-.202z"/>
                    <path d="M57.195 105.695l-.286.124c.256.013.303-.047.286-.124zm.862.398l.359-.262-.428.262h.07zm-1.814-.484l.16-.167-.289.248.129-.08zm-.585.082c.09-.137-.126-.232-.03-.317-.15.025-.279.141-.395.248.125-.056.255-.043.425.07zm-.618-.024c.099-.041.195-.093.29-.154a.868.868 0 0 0-.29.154zm1.614.167c-.028-.043-.082-.154-.289-.205l.143.2a1.4 1.4 0 0 0 .146.005z"/>
                    <path d="M56.554 105.641l-.004-.006a7.634 7.634 0 0 1-.285-.01c.038.004.123.007.29.016zM57.527 105.777c-.15.111-.466.231-.162.402.11-.137-.065-.23.162-.402zm-.86.07l.27.046c-.006-.052-.053-.129.019-.184l-.29.137zm-.115.01l.202-.065-.153-.017-.05.081zm-1.114-.255c-.1.086-.21.095-.335.107.133.04.27.06.402.06.018-.06.075-.17-.067-.167z"/>
                    <path d="M55.531 105.77c.119.037.189-.01.258-.074-.094.023-.19.034-.285.034-.007.03-.01.047.028.04zm-.832-.195c.088.043.186.077.289.111-.084-.064-.257-.163-.289-.11zm1.275.052a.964.964 0 0 0-.232.125c.106-.018.206-.039.29-.069a.263.263 0 0 1-.058-.056zm-2.46.765c.017-.102.279-.198.505-.087.223-.078.077-.416-.118-.604-.006.044-.006.084-.235.146.08.056.51.132.315.224-.304.052-.248-.035-.396-.09.126.128-.386.187-.321.373l.267-.066c.005.03-.092.076-.018.104z"/>
                    <path d="M54.34 105.834l.095-.021c-.108-.035-.184-.107-.326-.253-.157.09-.19.158-.2.223l.466.025-.035.026zm.52-.12c-.074.138-.301.196-.163.347.277-.008.196-.116.36-.174-.446.034.129-.076-.194-.155.08-.021.16-.033.24-.035a1.806 1.806 0 0 1-.23-.064l.01.009v.003c.021.017.027.026.004.017-.001.003-.007.003-.01.003a.18.18 0 0 1-.018.05c-.129-.03-.02-.038.02-.053.002-.006.005-.014.005-.02 0 0-.002 0-.002-.003l-.448.076c.096.02.214.014.426 0zM56.923 106.073c.033-.015.06-.059.166-.047.092.032 0 .052.005.086.064-.03.223-.077.023-.13l-.031.015c-.18-.037-.413-.17-.38-.185a.704.704 0 0 0 .217.261zm-1.044-.224l-.374.07.19.123-.01-.075c.213.033.168-.06.194-.118zm-1.98-.176l.066-.15-.29.213.223-.063zm-.46.001l.033-.13-.226.079.194.051zm-27.364.834l-.193.036c.092-.012.154-.024.193-.035zm15.372-.786c-.159-.123-.337-.31-.32-.165l.05.144a.416.416 0 0 1 .27.02zm-8.156.416c.026.015.055.03.084.042.07-.048.133-.093.19-.138-.083.033-.175.063-.274.096zm-.035.325l-.29-.094c.066.033.16.066.29.094zm-11.501.129l-.226.147c.353 0 .197-.075.226-.148v.001zm26.634-.908a1.142 1.142 0 0 0-.344-.087c.168.082.3.205.344.087zm-22.013-.011c-.119.026-.168.054-.165.087.122-.028.19-.054.165-.088zm21.271-.047c.025.014.048.02.072.033.102-.025.202-.043.326-.033-.123-.064-.262-.1-.398 0zm-46.294.111c.07-.009.181-.009.29-.012a1.314 1.314 0 0 0-.29.012zm50.583.157c-.037.015-.067.036-.072.07a.119.119 0 0 1 .072-.07zm-.277-.258a1.609 1.609 0 0 0-.23-.042c.036.01.106.025.23.042zm-.12-.051c.064.006.113.009.16.015.023-.024 0-.039-.16-.014v-.001z"/>
                    <path d="M51.261 105.59c.102-.003.196.008.289.017-.034-.01-.048-.02-.04-.026a7.43 7.43 0 0 1-.249.01zm-36.838.789c-.012-.007-.027-.007-.038-.016-.185.064-.105.055.038.016zm23.977.202a.394.394 0 0 1 .365-.071l-.123-.252-.242.323z"/>
                    <path d="M24.092 106.532l.258.071c-.313.116-.539.076-.296.176.036-.247 1.009-.026 1.045-.272l.17.051c-.048-.001-.058.012-.104.01.332.118.246-.179.674-.144.15.018.254.055.153.084l.332-.06c.097.004.074.047-.023.042l.508-.02-.003.008c.072-.039.235-.1.316-.125.13.035-.064.026-.03.056l.28-.06c.115.065-.118.126-.312.118.262.247.232-.063.8.081l-.266.032c.17.14.378.09.678.177-.07-.046-.601-.22-.295-.282.085.019.2.029.363-.02.002.086.163.065.364.06l-.013.116c.218-.033.2-.092.328-.146.242.012.293.101.35.178.387.017-.27-.145.19-.166.323.044.549-.003.935-.073.227.04-.039.071.042.104l.2-.093c.048.003.032.032.024.045.168-.036.013-.115.278-.147.073-.128.545.187.874.041.08.033-.04.071-.015.116.45-.096.387-.07.754-.196l.315.075c-.23-.087.064-.19.324-.275-.083-.041-.153-.079-.2-.096l.412-.063c.049.02.008.06-.059.108l.076-.028c.147.043.07.11-.035.176l-.149-.071c-.101.07-.198.148-.177.217a.473.473 0 0 1 .136-.032c-.026.02-.044.036-.031.048.015.012.057-.014.124-.043l.094.129.023-.051.54.08c.387-.13.725-.322 1.337-.375-.152.094-.033.156-.04.268-.168-.12-.476.051-.795.027.165.013.129.066.086.084l.567-.11c-.013.094.122.07.269.109-.112-.183.423-.121.653-.178.016.062-.04.124-.322.11.311.137.401-.214.706-.099-.07.002-.106-.007-.133.024.16-.055.554-.012.46.041l-.068.002c.457.021 1.39.002 1.458-.155a.728.728 0 0 1-.087.218l.814-.52c-.072.133.203.45-.175.524.107.018.244.041.472-.007-.074-.019-.186-.193-.084-.204.279.147.193.08.535.206-.111-.028.014-.238.189-.23-.028.03.015.204-.05.226l.438-.203c-.11.035-.02.173.079.231-.046-.04.378.004.495-.017l-.186-.047c.493.031.488-.288.978-.277-.058.043-.146.26.104.285.114-.104.506-.504.938-.585l.084.06.332-.068a6.822 6.822 0 0 1-1.105.618c.185.048.05.071.327.064.098.056-.15.084-.232.088l.643.036c-.028-.122.493-.122.469-.223l-.7.126c-.027-.123.405-.346.862-.325.116.048-.087.218-.077.258.059-.04.433-.08.475-.049l-.193.065c.253.046.414-.163.72-.045.105.008.315.157.333.084-.172-.139-.205-.571-.092-.675.038.01.554.133.674.201.173.11-.261.26-.114.355.007-.033.102-.075.143-.088.112.028-.046.103.195.088.04-.125.49.01.113-.104.236-.035.25.024.526.02-.089-.08.247-.274.483-.309-.013.032.039.073.064.092.482.011.742.068 1.19.068.042.03.26.066.166.119.064-.022.125-.065.262-.067.269.108-.31.017-.105.146.019-.071.359-.1.558-.144-.061-.11-.458-.021-.654.024-.002-.155.344-.316.814-.385.374-.038.162.1.226.078.701.026.598-.268 1.181-.157.231.098.01.193.063.264-.305.037-.467-.06-.674-.057l.254.046a.899.899 0 0 1-.412.028c.194.088 1.187.017 1.727.098.097-.033.263-.066.184-.106l-.172.014c-.157-.08.323-.11.105-.146.229-.055.488-.143.81-.099l.061.111c-.007-.033-.211-.066-.303-.033.134-.049.496.151.644.005l-.226-.077c.23-.056.516-.174.802-.14-.13-.11-.065.014-.27-.115.177.16-.734-.007-.45.162-.21-.15-.362-.063-.636-.19.008.036.097.069-.144.052a.319.319 0 0 1-.053.034l-.016-.004.013.005c-.01.005-.011.007.005.002a.311.311 0 0 1 .123.056c-.12.084-.503.081-.632.126-.143-.018.058-.042-.018-.081l-.193.064c-.02-.08-.38-.135-.043-.184l-.303-.002a1.407 1.407 0 0 0-.575-.03c-.142-.019-.36.09-.236.026l-.475.051-.005-.02c-.469-.01-.965.136-1.5-.011-.158.02-.322.046-.585.023l-.051-.071c-.203.025-.608-.072-.695.003-.218-.19-.982-.042-1.34-.075l-.013.093a5.577 5.577 0 0 0-.785.058l.018.082c-.262.066-.674-.059-1.089-.05.028-.032.133-.023.208-.005-.496-.184-1.046.133-1.496 0a.484.484 0 0 1-.27-.002c.009 0 .018-.002.027-.005l-.046-.001c-.049-.014-.1-.03-.156-.043a.631.631 0 0 0 .131.043 2.762 2.762 0 0 0-.346.031l-.053-.088-.03.003c-.126-.033-.102.042-.035.108a.907.907 0 0 0-.17.053c-.103-.14-.337.048-.476-.103-.087.073-.646.055-.715.211-.005-.02-.042-.03.028-.032-.142-.018-.286-.035-.414.009l-.061-.111-.312.149c-.19-.068-.27-.108-.08-.193-.457.133-.371.05-.758.18l.02-.07c-.14.003-.36.1-.444.04-.31-.138-1.533-.018-2.328-.146.154.212-.37-.095-.4.07-.047-.05-.158-.078-.029-.123-.406.05-.61-.08-.89.06-.045-.05.088-.073.046-.103-.032.012-.129.043-.171.013-.042-.03.058-.041.124-.064-.415.008-.457.162-.487.308-.21-.068-.314-.06-.466.036-.074-.048-.195-.098.062-.114-.144-.007-.884-.07-.9.046-.045-.03-.203-.008-.24.005-.326-.007-.354-.018-.673-.007l.088.019c-.126.14-.266.03-.522.048l.007-.015c-.59-.101-.256.048-.838-.067l.03.089c-.053.186-.515-.112-.852-.039l.121.05c-.185.064-.516-.255-.701-.278-.041-.017.064-.027.119-.039-.485-.11-.062.115-.424.14-.067-.06.086-.156-.157-.168-.122-.049-.706.201-1.039.082.074.047.146.094-.023.13-.257.017-.696-.179-.929-.03-.033-.013-.045-.024-.045-.036-.197.038-.639.065-.759.146-.181-.302-1.223.146-1.219-.131l-.606.015.017-.028c-.387-.019-.525.048-.66.114-.09-.018-.025-.045-.017-.06-.565-.056-.622-.044-1.095.095l-.05-.09c-.128.054-.817-.14-1.373-.036.005-.01.017-.028.061-.04-.624.106-1.494-.25-1.722.078l-.41.081c.531.025-.08.143.138.197-.21.02-.542-.1-.283-.115l.04.016c.096-.17-.661-.061-.646-.177-1.049.008-2.07-.086-3.052-.093l.113.133-.342-.009c-.09-.031-.121-.104.124-.098-.127-.076-.409.063-.416.094-.478-.055.187-.156.041-.16l-.2.01.045.015c-.163.055-.175.113-.47.106-.185-.026-.095-.082-.17-.088 0-.01-.024-.013-.111-.003l-.43-.012.172.105c-.192.051-.407-.005-.207.112-.291-.184-1.61-.066-1.789-.122-.268.076-.532.074-.86.066.082.021.13.139-.152.126.103-.243-.517-.106-.746-.282.205.116-.802.028-.482.194-.236-.02-.015-.091-.193-.149-.562.095-1.238-.061-1.93-.03-.012.032.104.081-.044.13l-.367-.162c-.138.016-.126.185-.378.074.037.026.089.067-.003.077-1.358-.155-2.776.128-4.156-.165.188.061.063.068-.08.071.094.015-.002.08.017.123l-.578-.121c-.105.121-.62.008-.68.122l.183-.02c-.244.136.34.303.305.476.272-.154.717.228 1.165.008.097.035-.084.056-.032.097.113-.076.251-.09.503-.057l-.028.018c.713-.018 1.017.055 1.818.104l-.058-.086c.172.012.207.038.288.06.197-.13-.483-.007-.303-.151.228.175 1.212.003 1.366.202.264.002-.077-.099.187-.098l.07.055.067-.07c.174.012.26.08.267.125-.042-.005-.119.013-.165.016.224.063.634-.02.711-.001l-.254-.033c.722-.05 1.604.02 2.3-.09l-.052-.042c.532-.074.426.045 1.01.011l-.02.01c.115-.04.272-.062.433-.056-.147.047.279.092.084.145.578-.08.285-.063.666-.213l.088.068c.13-.062.142-.094.433-.112-.239.058.187.103-.082.18.613.146.91-.15 1.191.066.282-.188-.53-.105-.374-.145-.132-.06.233-.139.425-.12.196.004.332.238.825.235-.049-.002-.052.014-.101.014.183.047.36-.066.586.012.126-.112.294.007.33-.137l-.453.033c.256-.038.497-.205.918-.125-.033.03-.16.069-.245.088.123.044.238-.028.366.016-.036.143-.549.03-.824.14.133.061.52-.104.382.051.198-.198.485.025.819-.125l-.021.086c.052-.014.162-.055.258-.051l-.174.112c.27-.096.52.083.779.032-.542.003-.122-.105-.35-.167.667-.117.384.224 1.133.183-.101.012-.38-.052-.223-.092.143.02.331.052.418.097.496-.018-.076-.09.134-.142.169.104.245-.044.46-.077l.002.088c.565.056.149-.182.659-.114l-.215.121.266-.032-.055.1c.289-.075.379-.055.662-.027-.066-.061.038-.159.287-.162.17.05-.095.082.258.071-.08.055-.168.124-.322.043-.017.028-.079.055-.095.083.183.06.461.013.591.013a.61.61 0 0 1-.14-.02l.515-.12c.08.033.017.059-.047.085.105-.01.177-.049.329-.058-.04.072-.03.145-.247.18l.49-.08c.032.031.251.084.188.11.272.043.667-.138 1.027-.082.018-.013.056-.027.133-.037.338.017.638.105 1.04.007l.227.128c.315-.03-.307-.16.215-.209.37-.041.138.11.268.144.184-.065.505-.195.846-.091-.098.02-.187.002-.291.012zm3.877-.058c-.076.018-.224.074-.28.023.085-.1.152-.052.28-.023zm5.892-.21c-.056.029-.142.014-.24-.019a.642.642 0 0 1 .24.019zm16.417-.611c-.003 0-.005 0-.008.004-.168-.035-.108-.021.008-.005zm.347.037c.035-.011.033-.024.018-.036-.024.021-.103.023-.191.018.024.023.07.038.173.018zm-37.365.035l.067.023c-.152.025-.11.002-.067-.023z"/>
                    <path d="M33.232 106.421a.145.145 0 0 1-.058-.087c-.049.03-.052.06.058.087zm12.11.05a.67.67 0 0 1-.243-.082c-.01.04.049.072.242.082zm7.194-.93l-.29.042c.141-.009.19.027.263.052-.01-.037-.065-.09.028-.094h-.001zm1.916.587c.055-.018.115-.003.17-.021l-.014-.076c-.235.007-.397.067-.156.097zm-1.776-.268c.018.135.157.087.313.063-.01 0-.018.003-.028 0 .046-.186-.119-.123-.285-.063zm.349.024a1.72 1.72 0 0 1 .255-.003c.035-.075-.102-.015-.255.003zm-1.93-.17c.088.034.055-.17.105-.116.098-.171-.588.207-.105.117zm1.818.436l-.099-.165-.156.133.255.032zm-1.344-.127l.248.045c-.002-.028.028-.045.068-.057-.153-.006-.321-.04-.316.012zm.316-.007c.115.003.223 0 .289-.028-.06.003-.195.007-.29.028h.001zm.615.11l-.085-.036-.204-.012.29.048zm-3.612-.134l-.273.048c-.028.057.047.09.149.07.065-.04.167-.064.124-.118zm.921.307c-.13-.033-.14-.073-.212-.127l-.013.205.225-.078zm-.892-.03c-.028.056-.395.162-.051.15.029-.057.3-.106.05-.15zm-4.102-.03l.121-.002-.017-.298-.104.3zm-3.616.445c.323.081.077-.207.37-.108.075-.078-.238-.08-.161-.15-.195.084-.298.035-.209.258z"/>
                    <path d="M41.406 106.449c.06-.014.118-.031.176-.051a.757.757 0 0 0-.176.05zm-40.73-.787l-.29-.07.187.115.103-.045zm-.366.202l-.081-.213-.208.192c.08-.009.232-.027.29.021zm28.336.902l.026-.051c-.053-.056-.13-.06-.289-.069l.263.12zm-2.882-.057l.084.004-.16-.193.076.19zm-2.395.098c.096.01.21-.035.306-.026-.21.036-.332-.214-.306.026z"/>
                </g>
                <g transform="translate(8.681 108.067)">
                    <path fill="url(#d)" d="M24.39 1.34C24.39.67 18.939.128 12.213.128 5.487.128.032.67.032 1.34c0 .669 5.454 1.212 12.18 1.212S24.39 2.009 24.39 1.34z"/>
                    <ellipse cx="22.629" cy="4.091" fill="url(#e)" rx="2.431" ry="1"/>
                    <path fill="url(#f)" d="M85.662.974c-1.698 0-3.317.025-4.8.071C76.765.497 69.046.13 60.2.13c-8.575 0-16.09.346-20.275.866-.865-.014-1.761-.02-2.681-.02-7.033 0-12.734.434-12.734.971 0 .536 5.701.972 12.734.972.92 0 1.816-.008 2.681-.02 4.186.519 11.7.865 20.275.865 8.845 0 16.564-.37 20.663-.916 1.6.048 3.199.072 4.799.071 7.032 0 12.733-.435 12.733-.972 0-.537-5.7-.972-12.733-.972z"/>
                </g>
                <g transform="translate(21.95 16.313)">
                    <ellipse cx="50.026" cy="46.907" fill="url(#g)" rx="46.293" ry="46.804"/>
                    <path fill="url(#h)" d="M75.891 82.924l5.412 8.723a1.683 1.683 0 0 1-.523 2.306c-.67.424-1.546.31-2.085-.274l-6.969-7.51a2.692 2.692 0 0 1 .12-3.774 2.623 2.623 0 0 1 4.045.53z"/>
                    <path fill="url(#i)" d="M19.827 82.924l-5.412 8.723a1.683 1.683 0 0 0 .522 2.306c.67.425 1.547.31 2.086-.274l6.969-7.51a2.692 2.692 0 0 0-.12-3.774 2.623 2.623 0 0 0-4.045.53z"/>
                    <ellipse cx="46.293" cy="46.907" fill="url(#j)" rx="46.293" ry="46.804"/>
                    <path fill="url(#k)" d="M4.812 67.704A46.91 46.91 0 0 0 15.46 81.816c.837-7.265-2.289-20.36-2.289-20.36l-8.358 6.247z"/>
                    <ellipse cx="46.293" cy="46.907" fill="url(#l)" rx="35.512" ry="35.905"/>
                    <path fill="url(#m)" d="M66.002 28.463a3.214 3.214 0 0 0-.748-4.447 3.133 3.133 0 0 0-4.399.758l-14.207 20.26-11.362-11.195a3.132 3.132 0 0 0-4.46.058 3.216 3.216 0 0 0 .057 4.51l14.004 13.796a3.132 3.132 0 0 0 3.337.69l16.142 16.055a.819.819 0 0 0 1.169-.01.841.841 0 0 0-.01-1.182L49.572 51.89c.032-.041.064-.083.093-.125l16.337-23.302z"/>
                    <path fill="#FFF" d="M45.865 53.11a3.142 3.142 0 0 1-2.202-.903L29.66 38.41a3.214 3.214 0 0 1-.057-4.51 3.132 3.132 0 0 1 4.46-.059l11.362 11.195L59.63 24.776a3.13 3.13 0 0 1 4.398-.757 3.211 3.211 0 0 1 .749 4.447L48.439 51.77a3.15 3.15 0 0 1-2.287 1.332c-.096.005-.191.01-.286.01h-.001z"/>
                    <path fill="url(#n)" d="M71.191 21.309a35.995 35.995 0 0 1 10.194 25.174c0 19.83-15.899 35.905-35.512 35.905-9.7 0-18.49-3.934-24.899-10.307 6.443 6.622 15.404 10.73 25.319 10.73 19.612 0 35.511-16.074 35.511-35.904a35.987 35.987 0 0 0-10.613-25.598z"/>
                    <path fill="url(#o)" d="M11.333 47.465c0-19.83 15.899-35.905 35.511-35.905 9.667 0 18.429 3.907 24.832 10.24-6.447-6.662-15.436-10.798-25.383-10.798-19.613 0-35.512 16.075-35.512 35.905a35.993 35.993 0 0 0 10.68 25.664 35.994 35.994 0 0 1-10.128-25.105v-.001z" opacity=".32" style="mix-blend-mode:multiply"/>
                    <path fill="#FFF" d="M64.4 69.19a.821.821 0 0 1-.58-.241L45.285 50.516a.841.841 0 0 1-.01-1.181.82.82 0 0 1 1.168-.01l18.535 18.434a.84.84 0 0 1 .01 1.18.81.81 0 0 1-.588.25z"/>
                </g>
                <path fill="#D2F2FF" d="M129.367 72.179c.727 1.178 1.738 2.242 3.041 2.68 1.303.437 2.918.096 3.692-1.05.894-1.32.43-3.117-.232-4.568-.67-1.47-1.543-2.892-2.817-3.87-1.386-1.064-4.1-1.998-5.013-.046-.902 1.93.316 5.212 1.328 6.854h.001z"/>
                <path fill="url(#p)" d="M4.933 29.863c-6.442-7.095-5.978-18.13 1.04-24.643 7.018-6.514 17.93-6.043 24.373 1.052a80.749 80.749 0 0 1-25.413 23.59z" transform="translate(17.474 3.51)"/>
                <path fill="url(#q)" d="M4.47 8.18a2.833 2.833 0 0 1 .167-3.968 2.76 2.76 0 0 1 3.925.168 13.029 13.029 0 0 1-4.093 3.8h.001z" transform="translate(17.474 3.51)"/>
                <path fill="url(#r)" d="M5.973 5.22a17.154 17.154 0 0 1 6.45-3.78 29.338 29.338 0 0 0-4.597 5.22c-.938 1.363-1.78 2.86-1.972 4.51-.194 1.649.395 3.48 1.789 4.357 2.022 1.274 4.625.13 7.009.137.626.002 1.339.14 1.658.686.193.328.195.732.308 1.096.367 1.177 1.848 1.645 3.032 1.317A80.469 80.469 0 0 1 4.93 29.866c-6.44-7.098-5.975-18.13 1.042-24.646z" transform="translate(17.474 3.51)"/>
                <path fill="url(#s)" d="M25.82 29.863c6.442-7.095 5.977-18.13-1.04-24.643C17.76-1.294 6.849-.823.405 6.272a80.749 80.749 0 0 0 25.415 23.59z" transform="translate(92.265 3.51)"/>
                <path fill="url(#t)" d="M26.283 8.18a2.833 2.833 0 0 0-.167-3.968 2.76 2.76 0 0 0-3.925.168 13.011 13.011 0 0 0 4.092 3.8z" transform="translate(92.265 3.51)"/>
                <path fill="url(#u)" d="M24.777 5.22a17.154 17.154 0 0 0-6.448-3.78 29.338 29.338 0 0 1 4.596 5.22c.939 1.362 1.779 2.86 1.972 4.51.194 1.649-.394 3.48-1.789 4.357-2.023 1.274-4.626.13-7.01.137-.625.002-1.337.14-1.656.686-.194.328-.196.732-.309 1.096-.367 1.177-1.848 1.645-3.032 1.317A80.469 80.469 0 0 0 25.82 29.866c6.442-7.098 5.976-18.13-1.042-24.646z" transform="translate(92.265 3.51)"/>
                <g>
                    <path fill="#89C340" d="M22.629 79.663a.767.767 0 0 1-.636-.887l1.352-8.358a.41.41 0 0 1 .197-.263l2.141-.93.694.11 1.682 1.53c.082.086.121.204.111.319l-.01.066-1.343 8.3a.763.763 0 0 1-.872.638l-3.316-.525z"/>
                    <path fill="#90BC3F" d="M25.57 67.728a.618.618 0 0 1 1.179.181v.002s1.003-.439.726.112c-.186.371-.535.75-.743.969 0 0-1.168-.066-1.496-.228-.134-.282-.319-.764-.386-1.143-.098-.583.659.053.72.107"/>
                    <path fill="#04AE59" d="M23.77 68.93a6.666 6.666 0 0 1 .28-1.094l1.456.91a.712.712 0 0 1 1.04.133l1.618-.45s.073.68.001 1.19c-.074.521-.318 1.041-.318 1.041l-1.36-.86a.712.712 0 0 1-1.17-.184l-1.582.45a6.448 6.448 0 0 1 .035-1.135"/>
                    <path fill="#EA1D25" d="M27.83 71.3c-.422.204-.51.488-.51.692-.002.852 1.758 1.772 2.296 2.034l.138.068a.531.531 0 0 0 .785.172l.144.004c.598.026 2.577.045 2.97-.71.095-.179.147-.472-.131-.85a1.263 1.263 0 0 0-.303-.297c-.93-.637-2.09.547-2.564 1.11a.523.523 0 0 0-.67-.17c-.167-.733-.647-2.289-1.748-2.17-.142.014-.28.054-.408.118m5.191 2.052c-.139.177-.768.274-1.66.302.48-.498 1.136-.996 1.517-.736.059.043.111.096.153.156a.23.23 0 0 1-.01.278m-3.718-.192c-.763-.439-1.346-.925-1.346-1.148 0-.031.063-.086.158-.131a.669.669 0 0 1 .205-.063c.449-.05.791.686.983 1.342"/>
                    <path fill="#F4901E" d="M31.776 84.22l-7.999-2.134a.615.615 0 0 1-.433-.75l2.11-8.087a.609.609 0 0 1 .742-.438l7.999 2.134a.615.615 0 0 1 .433.75l-2.11 8.087a.608.608 0 0 1-.742.437z"/>
                    <path fill="#EA1D25" d="M29.005 73.403l2.467.653-2.476 9.422-2.467-.655z"/>
                    <path fill="#F4901E" d="M22.729 70.855a1.037 1.037 0 0 0-.334-.117c-.916-.147-1.384 1.131-1.554 1.74a.44.44 0 0 0-.568.113c-.374-.491-1.294-1.532-2.098-1.04a1.022 1.022 0 0 0-.267.237c-.25.305-.217.553-.146.705.296.65 1.954.718 2.455.724l.121.002a.443.443 0 0 0 .664-.11l.118-.05c.462-.196 1.972-.888 2.006-1.602.009-.17-.055-.413-.398-.602m-4.429 1.493c-.047-.068-.056-.163.003-.232a.552.552 0 0 1 .136-.124c.33-.203.859.242 1.239.68-.747-.06-1.27-.168-1.378-.324m3.12 0c.186-.54.505-1.14.878-1.08a.55.55 0 0 1 .17.061c.078.043.128.09.128.116-.011.19-.52.568-1.177.903"/>
                    <path fill="#E90089" d="M18.88 81.493l6.782-1.438a.514.514 0 0 0 .393-.609l-1.423-6.856a.51.51 0 0 0-.601-.398l-6.782 1.44a.514.514 0 0 0-.393.607l1.424 6.857a.51.51 0 0 0 .6.397z"/>
                    <path fill="#F4901E" d="M23.324 80.55l-2.092.44-1.67-7.988 2.092-.44z"/>
                    <path fill="#43D1FF" d="M16.268 77.747s-.618-2.344 1.004-1.875c1.621.469 10.818 2.11 12.672 1.875 1.855-.235 5.332-.658 5.177.023-.154.68-.387 16.306-2.705 21.852-.85 1.406-1.376 1.093-3.856.39s-13.649-3.906-14.284-5.545c-.636-1.642.291-1.251.755-3.828s1.237-12.892 1.237-12.892z"/>
                    <g fill="#B9ECFF" transform="translate(18.019 82.727)">
                        <ellipse cx="8.872" cy="2.37" rx="1" ry="1"/>
                        <ellipse cx="1.324" cy=".917" rx="1" ry="1"/>
                        <path d="M8.695 6.689a.593.593 0 0 1-.093-.007l-8.12-1.58a.497.497 0 0 1 .185-.975l8.12 1.58a.497.497 0 0 1-.092.982z"/>
                    </g>
                    <path fill="#0092DB" d="M21.95 78.047c1.319 0 1.83-.495 2.027-.903-2.883-.452-5.848-1.027-6.705-1.273-1.623-.47-1.004 1.874-1.004 1.874s-.773 10.314-1.237 12.89c-.464 2.58-1.391 2.189-.755 3.828.395 1.017 4.832 2.633 8.74 3.882.25-1.015-.723-2.26-3.339-5.354-3.47-4.103 5.54-6.95 2.273-9.42-3.266-2.471-2.24-5.524 0-5.524z" opacity=".12"/>
                    <path fill="#000" d="M17.782 95.629c1.302-.745.918-1.782.918-1.782l-2.951 1.749c.378.195.814.4 1.294.604.214-.228.464-.42.738-.571h.001zm3.317-3.747s.636-.158.491-.577c-.123-.355-1.155-.002-1.47.114a95.763 95.763 0 0 1-4.932-1.846c-.042.337-.091.674-.147 1.01a96.349 96.349 0 0 0 4.703 1.755c1.412 1.579 2.231 1.039 2.413.447.185-.596-1.058-.903-1.058-.903z" opacity=".08"/>
                    <path fill="#FFF" d="M18.26 104.28a.48.48 0 0 1-.292-.099c-.88-.66-5.273-4.05-5.184-5.955.09-1.933 4.398-4.176 5.26-4.604a.49.49 0 0 1 .658.225.5.5 0 0 1-.222.666c-3.205 1.598-4.686 3.16-4.714 3.76-.028.61 1.439 2.6 4.788 5.11a.501.501 0 0 1 .102.696.492.492 0 0 1-.397.2zm0 5.12a.497.497 0 0 1-.407-.777c2.564-3.827 4.13-7.134 4.992-9.234.935-2.276 1.266-3.665 1.27-3.679a.492.492 0 0 1 .815-.242c.127.12.18.301.14.473-.055.231-1.39 5.75-6.404 13.24a.483.483 0 0 1-.407.22z"/>
                    <path fill="#92E3FF" d="M18.492 103.32s-.139-.265-.458-.354c-.287.116-.61.707-.567.842.042.137.369.382.504.344.137-.038.521-.831.521-.831z"/>
                    <path fill="#43D1FF" d="M18.445 103.349a.049.049 0 0 1 .047-.028c.109.01.451.06.636.207.223.173-.414 1.55-.571 1.795-.158.243-1.105.268-.656-1.18a.105.105 0 0 1 .026-.043c.058-.052.286-.24.518-.751z"/>
                    <path fill="#92E3FF" d="M18.55 109.332s.264-.142.35-.463c-.114-.29-.7-.613-.835-.57-.135.043-.377.374-.337.51.037.136.824.523.824.523h-.001z"/>
                    <path fill="#43D1FF" d="M18.523 109.284c.019.009.031.028.028.048-.011.11-.059.456-.203.644-.172.226-1.535-.412-1.777-.57-.24-.16-.269-1.116 1.165-.666.016.004.03.013.042.026.052.054.237.285.746.518h-.001z"/>
                    <path fill="#0092DB" d="M30.213 77.712c.434 4.37 1.058 15.275-2.533 22.047.356.104.654.188.88.252 2.48.704 3.006 1.015 3.856-.39 2.318-5.547 2.551-21.172 2.705-21.852.147-.648-3.006-.294-4.908-.057z" opacity=".12"/>
                    <path fill="#000" d="M29.086 100.164c.43.124.79.23 1.1.306.931-2.756 3.015-9.704 1.827-13.498 0 0-.576.842-.61 2.834-.032 1.906-.836 8.141-2.317 10.358z" opacity=".08"/>
                    <path fill="#000" d="M31.862 100.326c-.706-.597-.61-1.282-1.056-1.776-.58-.637-3.126 1.21-3.126 1.21.356.103.654.187.88.251 1.92.545 2.668.855 3.302.315z" opacity=".08"/>
                    <path fill="#FFF" d="M29.3 102.7a.496.496 0 0 1-.41-.768c3.338-5.165 3.125-14.862 3.122-14.96a.496.496 0 0 1 .478-.51.499.499 0 0 1 .505.484c.002.102.062 2.544-.307 5.684-.496 4.246-1.499 7.559-2.976 9.846a.488.488 0 0 1-.411.225z"/>
                    <path fill="#FFF" d="M29.147 101.613s-1.452.47-1.301.888c.15.417.742.13.742.13s-.767 1.036-.25 1.378c.518.343 1.505.23 1.587-1.96-.07-.801-.778-.436-.778-.436zm-8.06-11.74s1.355-.707 1.54-.304c.187.402-.432.625-.432.625s1.266.182 1.141.794c-.126.613-.9 1.241-2.493-.25-.51-.616.245-.864.245-.864h-.001z"/>
                    <path fill="#FFF" d="M21.53 89.914c-3.96-.938-6.886-1.8-8.696-2.562-1.933-.816-2-1.276-2-1.281 0-.005.177-.507 2.585-.944.75-.132 1.503-.233 2.26-.303l.091-1.007c-.53.047-1.528.148-2.549.334-2.258.414-3.295.98-3.366 1.836-.064.786.727 1.485 2.567 2.264 1.857.786 4.845 1.67 8.881 2.626a.491.491 0 0 0 .592-.371.493.493 0 0 0-.366-.592z"/>
                    <g transform="translate(18.51 87.822)">
                        <ellipse cx="1.139" cy="1.798" fill="#04AE59" rx="1.017" ry="1"/>
                        <path fill="#04AE59" d="M.12 1.37h2.036v.703H.12z"/>
                        <ellipse cx="1.139" cy="1.371" fill="#04AE59" rx="1.017" ry="1"/>
                        <ellipse cx="1.139" cy="1.371" fill="#FFF" rx="1" ry="1"/>
                        <path fill="#04AE59" d="M.507 1.983s-.204.195-.088.674l.654.173s-.164-.336.066-.686l-.632-.16z"/>
                    </g>
                </g>
                <ellipse cx="9.912" cy="38.648" fill="#D2F2FF" rx="6.55" ry="3.653" transform="rotate(-72.975 9.912 38.648)"/>
            </g>
        </g>
    </g>
</svg>
